<svg xmlns="http://www.w3.org/2000/svg" viewBox="0 0 200 200" role="img" aria-labelledby="title">
  <title id="title">Simple Black Pawn</title>
  <g shape-rendering="geometricPrecision">
    <g transform="translate(0.000000,200.000000) scale(0.100000,-0.100000)" fill="#151515" stroke="none">
      <path d="M890 1729 c-60 -27 -107 -74 -136 -134 -43 -92 -26 -224 38 -292 12 -13 20 -24 17 -25 -2 -2 -22 -12 -44 -23 -73 -36 -55 -91 38 -116 l37 -10 0 -67 c0 -108 -33 -219 -94 -314 -21 -33 -38 -48 -52 -48 -11 0 -29 -9 -39 -20 -16 -17 -16 -24 -6 -47 7 -15 9 -29 4 -30 -33 -13 -150 -93 -166 -115 -25 -33 -17 -84 19 -127 l25 -30 -36 -36 c-42 -41 -43 -73 -5 -92 36 -18 984 -18 1020 0 38 19 37 51 -5 92 l-36 36 25 30 c36 43 44 94 19 127 -16 22 -133 102 -166 115 -5 1 -3 15 4 30 10 23 10 30 -6 47 -10 11 -28 20 -39 20 -14 0 -31 15 -52 48 -59 93 -94 206 -94 308 l0 61 38 11 c21 7 48 23 61 36 33 35 25 67 -24 91 -22 11 -42 21 -44 23 -3 1 5 12 17 25 64 68 81 200 38 292 -47 99 -135 155 -246 155 -44 0 -80 -7 -110 -21z"/>
    </g>
    <g transform="translate(0.000000,200.000000) scale(0.100000,-0.100000)" fill="#050505" stroke="none">
      <path d="M890 1729 c-60 -27 -107 -74 -136 -134 -43 -92 -26 -224 38 -292 12 -13 20 -24 17 -25 -2 -2 -22 -12 -44 -23 -73 -36 -55 -91 38 -116 l37 -10 0 -67 c0 -108 -33 -219 -94 -314 -21 -33 -38 -48 -52 -48 -11 0 -29 -9 -39 -20 -16 -17 -16 -24 -6 -47 7 -15 9 -29 4 -30 -33 -13 -150 -93 -166 -115 -25 -33 -17 -84 19 -127 l25 -30 -36 -36 c-42 -41 -43 -73 -5 -92 36 -18 984 -18 1020 0 38 19 37 51 -5 92 l-36 36 25 30 c36 43 44 94 19 127 -16 22 -133 102 -166 115 -5 1 -3 15 4 30 10 23 10 30 -6 47 -10 11 -28 20 -39 20 -58 0 -142 209 -147 364 l-2 69 49 15 c62 18 76 29 72 61 -2 19 -14 31 -43 46 -22 11 -42 21 -44 23 -3 1 5 12 17 25 64 68 81 200 38 292 -47 99 -135 155 -246 155 -44 0 -80 -7 -110 -21z m241 -64 c93 -61 127 -216 65 -300 -12 -17 -12 -13 0 35 31 120 -41 253 -150 275 -17 4 -40 9 -51 13 -17 5 -16 7 10 12 38 8 79 -3 126 -35z m-7 -414 c3 -4 26 -14 51 -21 48 -14 65 -27 43 -35 -17 -7 -130 37 -136 53 -4 14 34 17 42 3z m-11 -189 c9 -145 48 -266 117 -361 22 -30 37 -41 56 -41 16 0 24 -5 21 -12 -6 -20 -68 -9 -88 15 -31 38 -76 130 -99 202 -24 77 -41 285 -23 285 6 0 13 -40 16 -88z m172 -461 c-3 -5 20 -25 50 -43 147 -87 145 -86 145 -117 0 -16 -6 -33 -13 -39 -10 -8 -13 -5 -12 15 0 29 -34 58 -135 117 -50 28 -64 46 -53 69 2 4 9 7 14 7 6 0 8 -4 4 -9z m183 -333 c24 -26 24 -28 6 -28 -40 0 -71 51 -65 105 2 15 6 12 18 -15 8 -19 26 -47 41 -62z"/>
    </g>
    <g transform="translate(0.000000,200.000000) scale(0.100000,-0.100000)" fill="#6c6c6c" stroke="none">
      <path d="M1013 1690 c51 -13 108 -43 134 -72 57 -60 77 -163 48 -236 -12 -31 -13 -34 -1 -18 25 31 37 111 25 164 -22 99 -93 164 -187 168 -53 3 -55 3 -19 -6z M1092 1249 c6 -18 119 -62 131 -50 5 5 -13 17 -45 29 -29 11 -61 24 -72 28 -14 5 -17 3 -14 -7z M1198 1146 c-42 -13 -59 -26 -34 -26 20 0 86 27 86 34 0 8 -7 6 -52 -8z M1096 1127 c-11 -36 0 -156 20 -234 18 -70 73 -188 106 -225 25 -29 78 -42 85 -20 3 8 -5 12 -24 12 -22 0 -34 10 -60 48 -67 101 -102 210 -112 350 -6 75 -9 90 -15 69z M1270 591 c0 -23 20 -40 102 -85 75 -41 84 -51 90 -86 l4 -25 8 28 c11 36 -14 63 -97 108 -34 18 -72 43 -84 55 -20 20 -23 21 -23 5z M1411 324 c-1 -38 33 -84 62 -84 19 0 19 2 -8 30 -16 17 -35 43 -41 58 l-12 27 -1 -31z"/>
    </g>
  </g>
</svg>
