<svg xmlns="http://www.w3.org/2000/svg" viewBox="0 0 200 200" role="img" aria-labelledby="title">
  <title id="title">Simple King</title>
  <g shape-rendering="geometricPrecision">
    <g transform="translate(0.000000,200.000000) scale(0.100000,-0.100000)" fill="#151515" stroke="none">
      <path d="M970 1975 c0 -20 -5 -25 -25 -25 -20 0 -25 -5 -25 -25 0 -20 5 -25 25 -25 18 0 25 -5 25 -20 0 -15 -7 -20 -29 -20 -21 0 -36 -8 -51 -30 -21 -30 -22 -30 -121 -30 -59 0 -99 -4 -99 -10 0 -5 -7 -10 -15 -10 -8 0 -15 -2 -15 -4 0 -2 20 -61 45 -132 40 -110 44 -129 30 -136 -22 -13 -19 -55 5 -68 25 -13 16 -35 -20 -50 -29 -12 -47 -41 -36 -59 4 -5 -3 -12 -14 -16 -30 -10 -50 -34 -50 -61 0 -30 40 -50 122 -62 49 -7 52 -9 61 -42 12 -47 2 -231 -19 -322 -19 -85 -59 -176 -103 -235 -24 -33 -38 -43 -60 -43 -15 0 -36 -9 -46 -20 -16 -17 -16 -24 -6 -47 7 -15 9 -29 4 -30 -33 -13 -150 -93 -166 -115 -25 -33 -17 -84 19 -127 l25 -30 -36 -36 c-41 -41 -43 -73 -6 -91 34 -17 1188 -17 1222 0 37 18 35 50 -6 91 l-36 36 25 30 c36 43 44 94 19 127 -16 22 -133 102 -166 115 -5 1 -3 15 4 30 10 23 10 30 -6 47 -10 11 -31 20 -46 20 -22 0 -36 10 -60 42 -44 60 -84 151 -103 236 -21 91 -31 275 -19 322 9 33 12 35 61 42 82 12 122 32 122 62 0 27 -20 51 -50 61 -11 4 -18 11 -14 16 11 18 -7 47 -36 59 -36 15 -45 37 -20 50 24 13 27 55 5 68 -14 7 -10 26 30 136 25 71 45 130 45 132 0 2 -7 4 -15 4 -8 0 -15 5 -15 10 0 6 -40 10 -99 10 -99 0 -100 0 -121 30 -15 22 -30 30 -51 30 -22 0 -29 5 -29 20 0 15 7 20 25 20 20 0 25 5 25 25 0 20 -5 25 -25 25 -20 0 -25 5 -25 25 0 21 -5 25 -30 25 -25 0 -30 -4 -30 -25z"/>
    </g>
    <g transform="translate(0.000000,200.000000) scale(0.100000,-0.100000)" fill="#050505" stroke="none">
      <path d="M970 1975 c0 -20 -5 -25 -25 -25 -20 0 -25 -5 -25 -25 0 -20 5 -25 25 -25 18 0 25 -5 25 -20 0 -15 -7 -20 -29 -20 -21 0 -36 -8 -51 -30 -21 -30 -22 -30 -121 -30 -59 0 -99 -4 -99 -10 0 -5 -7 -10 -15 -10 -8 0 -15 -2 -15 -4 0 -2 20 -61 45 -132 40 -110 44 -129 30 -136 -22 -13 -19 -55 5 -68 25 -13 16 -35 -20 -50 -29 -12 -47 -41 -36 -59 4 -5 -3 -12 -14 -16 -30 -10 -50 -34 -50 -61 0 -30 40 -50 122 -62 49 -7 52 -9 61 -42 12 -47 2 -231 -19 -322 -19 -85 -59 -176 -103 -235 -24 -33 -38 -43 -60 -43 -15 0 -36 -9 -46 -20 -16 -17 -16 -24 -6 -47 7 -15 9 -29 4 -30 -33 -13 -150 -93 -166 -115 -25 -33 -17 -84 19 -127 l25 -30 -36 -36 c-41 -41 -43 -73 -6 -91 34 -17 1188 -17 1222 0 37 18 35 50 -6 91 l-36 36 25 30 c36 43 44 94 19 127 -16 22 -133 102 -166 115 -5 1 -3 15 4 30 10 23 10 30 -6 47 -10 11 -31 20 -46 20 -22 0 -36 10 -60 42 -44 60 -84 151 -103 236 -21 91 -31 275 -19 322 9 33 12 35 61 42 82 12 122 32 122 62 0 27 -20 51 -50 61 -11 4 -18 11 -14 16 11 18 -7 47 -36 59 -36 15 -45 37 -20 50 24 13 27 55 5 68 -14 7 -10 26 30 136 25 71 45 130 45 132 0 2 -7 4 -15 4 -8 0 -15 5 -15 10 0 6 -40 10 -99 10 -99 0 -100 0 -121 30 -15 22 -30 30 -51 30 -22 0 -29 5 -29 20 0 15 7 20 25 20 20 0 25 5 25 25 0 20 -5 25 -25 25 -20 0 -25 5 -25 25 0 21 -5 25 -30 25 -25 0 -30 -4 -30 -25z m288 -351 c-34 -94 -39 -120 -30 -135 14 -21 -3 -38 -20 -21 -8 8 0 43 27 119 51 146 54 153 59 153 3 0 -13 -52 -36 -116z m-38 -219 c0 -28 5 -38 25 -47 14 -6 25 -15 25 -20 0 -14 -43 1 -57 20 -15 19 -17 82 -3 82 6 0 10 -16 10 -35z m119 -142 c2 -2 2 -5 -1 -8 -10 -10 -88 27 -88 41 0 13 32 1 89 -33z m-149 -458 c19 -78 94 -225 138 -272 34 -38 36 -43 18 -43 -45 0 -137 160 -173 300 -17 68 -29 313 -17 366 6 30 10 -2 15 -131 3 -93 12 -192 19 -220z m195 -355 c-3 -5 22 -28 57 -49 144 -91 155 -102 127 -141 -9 -13 -10 -13 -6 1 9 27 -19 56 -91 95 -37 21 -75 44 -84 52 -20 16 -24 52 -7 52 5 0 7 -4 4 -10z m183 -332 c25 -27 25 -28 5 -28 -29 0 -63 46 -63 84 l1 31 16 -30 c8 -16 27 -42 41 -57z"/>
    </g>
    <g transform="translate(0.000000,200.000000) scale(0.100000,-0.100000)" fill="#6c6c6c" stroke="none">
      <path d="M1200 1492 c0 -12 19 -26 26 -19 2 2 -2 10 -11 17 -9 8 -15 8 -15 2z M1205 1394 c6 -37 19 -54 39 -54 5 0 2 8 -7 18 -10 10 -17 28 -17 40 0 11 -5 24 -11 28 -9 5 -10 -4 -4 -32z M1250 1291 c0 -8 12 -14 75 -36 11 -4 0 5 -24 19 -48 29 -51 30 -51 17z M1155 1114 c-9 -90 0 -221 21 -319 27 -123 129 -305 171 -305 9 0 1 15 -24 44 -110 125 -177 372 -158 584 4 39 4 72 2 72 -3 0 -9 -34 -12 -76z M1375 430 c-6 -10 40 -42 111 -78 23 -12 54 -36 69 -53 25 -31 27 -32 23 -8 -2 17 -19 33 -58 55 -30 18 -74 46 -97 63 -23 16 -45 26 -48 21z M1511 168 c-1 -21 46 -78 64 -78 9 0 7 8 -8 23 -12 12 -30 33 -39 47 -13 19 -17 21 -17 8z"/>
    </g>
  </g>
</svg>
