<svg xmlns="http://www.w3.org/2000/svg" viewBox="0 0 200 200" role="img" aria-labelledby="title">
  <title id="title">Simple Queen</title>
  <g shape-rendering="geometricPrecision">
    <g transform="translate(0.000000,200.000000) scale(0.100000,-0.100000)" fill="#151515" stroke="none">
      <path d="M942 1977 c-12 -13 -22 -33 -22 -44 0 -13 -15 -30 -40 -47 -35 -23 -49 -26 -125 -26 -75 0 -90 -3 -125 -26 -33 -22 -60 -60 -48 -68 119 -82 158 -133 158 -204 0 -31 -5 -44 -20 -52 -26 -14 -26 -56 0 -70 25 -13 16 -35 -20 -50 -29 -12 -47 -41 -36 -59 4 -5 -3 -12 -14 -16 -30 -10 -50 -34 -50 -61 0 -30 40 -50 122 -62 49 -7 52 -9 61 -42 12 -47 2 -231 -19 -322 -19 -85 -59 -176 -103 -235 -24 -33 -38 -43 -60 -43 -15 0 -36 -9 -46 -20 -16 -17 -16 -24 -6 -47 7 -15 9 -29 4 -30 -33 -13 -150 -93 -166 -115 -25 -33 -17 -84 19 -127 l25 -30 -36 -36 c-41 -41 -43 -73 -6 -91 34 -17 1188 -17 1222 0 37 18 35 50 -6 91 l-36 36 25 30 c36 43 44 94 19 127 -16 22 -133 102 -166 115 -5 1 -3 15 4 30 10 23 10 30 -6 47 -10 11 -31 20 -46 20 -22 0 -36 10 -60 42 -44 60 -84 151 -103 236 -21 91 -31 275 -19 322 9 33 12 35 61 42 82 12 122 32 122 62 0 27 -20 51 -50 61 -11 4 -18 11 -14 16 11 18 -7 47 -36 59 -36 15 -45 37 -20 50 26 14 26 56 0 70 -15 8 -20 21 -20 52 0 71 39 122 158 204 12 8 -15 46 -48 68 -35 23 -50 26 -125 26 -76 0 -90 3 -125 26 -26 18 -40 34 -40 49 0 58 -95 87 -138 42z"/>
    </g>
    <g transform="translate(0.000000,200.000000) scale(0.100000,-0.100000)" fill="#050505" stroke="none">
      <path d="M942 1977 c-12 -13 -22 -33 -22 -44 0 -13 -15 -30 -40 -47 -35 -23 -49 -26 -125 -26 -75 0 -90 -3 -125 -26 -33 -22 -60 -60 -48 -68 119 -82 158 -133 158 -204 0 -31 -5 -44 -20 -52 -26 -14 -26 -56 0 -70 25 -13 16 -35 -20 -50 -29 -12 -47 -41 -36 -59 4 -5 -3 -12 -14 -16 -30 -10 -50 -34 -50 -61 0 -30 40 -50 122 -62 49 -7 52 -9 61 -42 12 -47 2 -231 -19 -322 -19 -85 -59 -176 -103 -235 -24 -33 -38 -43 -60 -43 -15 0 -36 -9 -46 -20 -16 -17 -16 -24 -6 -47 7 -15 9 -29 4 -30 -33 -13 -150 -93 -166 -115 -25 -33 -17 -84 19 -127 l25 -30 -36 -36 c-41 -41 -43 -73 -6 -91 34 -17 1188 -17 1222 0 37 18 35 50 -6 91 l-36 36 25 30 c36 43 44 94 19 127 -16 22 -133 102 -166 115 -5 1 -3 15 4 30 10 23 10 30 -6 47 -10 11 -31 20 -46 20 -22 0 -36 10 -60 42 -44 60 -84 151 -103 236 -21 91 -31 275 -19 322 9 33 12 35 61 42 82 12 122 32 122 62 0 27 -20 51 -50 61 -11 4 -18 11 -14 16 11 18 -7 47 -36 59 -36 15 -45 37 -20 50 26 14 26 56 0 70 -15 8 -20 21 -20 52 0 71 39 122 158 204 12 8 -15 46 -48 68 -35 23 -50 26 -125 26 -76 0 -90 3 -125 26 -26 18 -40 34 -40 49 0 58 -95 87 -138 42z m76 -26 c10 -6 8 -10 -8 -14 -12 -3 -24 -15 -27 -27 -4 -16 -8 -18 -14 -8 -12 18 -11 24 7 42 18 18 24 19 42 7z m-98 -123 c-32 -26 -40 -28 -122 -28 -64 0 -95 -4 -113 -16 -29 -19 -55 -9 -28 12 12 9 48 14 108 14 82 1 93 3 130 29 50 36 70 27 25 -11z m160 23 c0 -18 -60 -34 -83 -23 -22 11 -22 11 4 11 14 1 34 7 44 15 20 14 35 13 35 -3z m213 -48 c-23 -2 -64 -2 -90 0 -26 2 -7 3 42 3 50 0 71 -1 48 -3z m-494 -263 c1 -63 -8 -83 -33 -74 -15 6 -15 7 1 19 19 14 25 96 11 145 -6 19 -4 18 7 -5 8 -16 14 -55 14 -85z m1 -133 c0 -38 -16 -62 -47 -71 -34 -10 -37 11 -3 23 26 8 30 15 30 45 0 20 5 36 10 36 6 0 10 -15 10 -33z m475 -65 c-3 -3 -11 0 -18 7 -9 10 -8 11 6 5 10 -3 15 -9 12 -12z m-525 -47 c0 -12 -66 -45 -90 -45 -25 0 -6 19 35 34 27 11 42 22 39 28 -4 7 -2 8 4 4 7 -4 12 -13 12 -21z m96 -300 c-7 -207 -43 -331 -129 -447 -36 -50 -47 -58 -74 -58 -18 0 -36 0 -40 -1 -4 0 -9 5 -12 12 -2 8 6 10 29 7 29 -4 35 0 70 46 45 59 95 162 117 238 9 33 17 118 20 228 4 127 8 168 15 150 6 -14 8 -89 4 -175z m564 -495 c0 -5 -11 -10 -25 -10 -14 0 -25 5 -25 10 0 6 11 10 25 10 14 0 25 -4 25 -10z m-776 -48 c11 -18 -26 -51 -98 -91 -78 -43 -108 -72 -99 -100 3 -12 2 -12 -7 2 -21 32 -4 61 57 96 108 64 134 82 128 91 -4 6 -2 10 4 10 5 0 12 -4 15 -8z m-162 -331 c-10 -14 -30 -28 -42 -29 -23 -4 -23 -3 7 31 17 20 35 46 39 59 8 22 9 22 12 -6 2 -18 -4 -39 -16 -55z"/>
    </g>
    <g transform="translate(0.000000,200.000000) scale(0.100000,-0.100000)" fill="#6c6c6c" stroke="none">
      <path d="M974 1936 c-3 -8 -4 -23 -1 -33 4 -14 5 -13 6 5 1 13 10 26 24 32 l22 9 -23 0 c-12 1 -25 -5 -28 -13z M890 1835 c-30 -22 -45 -25 -120 -25 -57 0 -93 -5 -105 -13 -11 -9 -14 -16 -8 -20 6 -4 16 0 23 8 9 11 35 15 104 15 81 0 95 3 129 25 20 14 37 28 37 30 0 12 -28 2 -60 -20z M1045 1850 c-3 -5 -21 -10 -38 -11 -25 0 -28 -2 -13 -8 25 -10 62 -3 77 15 9 11 8 14 -4 14 -9 0 -19 -4 -22 -10z M1198 1803 c23 -2 61 -2 85 0 23 2 4 4 -43 4 -47 0 -66 -2 -42 -4z M789 1541 c-4 -29 -13 -57 -20 -62 -11 -7 -11 -9 3 -9 21 0 31 32 26 86 -3 37 -3 36 -9 -15z M787 1423 c-4 -3 -7 -17 -7 -30 0 -17 -9 -28 -30 -37 -37 -15 -29 -28 10 -15 21 8 30 19 35 46 6 36 4 48 -8 36z M710 1289 c-19 -10 -39 -20 -45 -22 -5 -2 -7 -7 -4 -11 9 -10 89 26 89 41 0 7 -1 13 -2 12 -2 -1 -19 -9 -38 -20z M836 1120 c8 -106 -13 -281 -42 -370 -46 -136 -120 -245 -172 -253 -22 -3 -20 -4 10 -6 31 -1 41 5 68 37 45 53 106 185 124 270 22 96 30 273 17 342 -10 54 -10 54 -5 -20z M610 435 c-7 -8 -38 -29 -69 -46 -85 -48 -121 -78 -121 -100 0 -18 3 -17 25 9 14 17 59 49 101 72 68 37 95 62 82 76 -3 2 -11 -2 -18 -11z M476 176 c-3 -14 -20 -38 -37 -55 -20 -20 -25 -31 -16 -31 22 0 67 58 67 86 0 31 -6 31 -14 0z"/>
    </g>
  </g>
</svg>
