<svg xmlns="http://www.w3.org/2000/svg" viewBox="0 0 200 200" role="img" aria-labelledby="title">
  <title id="title">Simple White Rook</title>
  <g shape-rendering="geometricPrecision">
    <g transform="translate(0.000000,200.000000) scale(0.100000,-0.100000)" fill="#f2f1ec" stroke="none">
      <path d="M500 1642 c0 -97 4 -137 16 -161 16 -31 63 -72 97 -84 17 -6 17 -9 3 -29 -24 -34 -20 -53 22 -89 l37 -33 0 -205 c0 -199 -12 -331 -39 -437 -10 -41 -16 -49 -38 -52 -14 -2 -34 -12 -44 -23 -15 -16 -15 -23 -5 -46 7 -15 9 -29 4 -30 -33 -13 -150 -93 -166 -115 -25 -33 -17 -84 19 -127 l25 -30 -36 -36 c-41 -41 -43 -73 -6 -91 34 -17 1188 -17 1222 0 37 18 35 50 -6 91 l-36 36 25 30 c36 43 44 94 19 127 -16 22 -133 102 -166 115 -5 1 -3 15 4 30 10 23 10 30 -5 46 -10 11 -30 21 -44 23 -22 3 -28 11 -38 52 -27 106 -39 238 -39 437 l0 205 38 33 c41 36 45 55 21 89 -14 20 -14 23 3 29 34 12 81 53 97 84 12 24 16 64 16 161 l0 128 -120 0 -120 0 0 -55 0 -55 -65 0 -65 0 0 55 0 55 -130 0 -130 0 0 -55 0 -55 -65 0 -65 0 0 55 0 55 -120 0 -120 0 0 -128z"/>
    </g>
    <g transform="translate(0.000000,200.000000) scale(0.100000,-0.100000)" fill="#c6c0b6" stroke="none">
      <path d="M552 1608 l2 -113 3 103 4 102 64 0 65 0 0 -39 c0 -71 -1 -71 126 -71 l114 0 0 55 0 55 75 0 75 0 0 -39 c0 -71 -1 -71 126 -71 l114 0 0 55 0 55 65 0 64 0 4 -92 3 -93 0 100 -1 100 -72 3 -73 3 0 -56 0 -55 -109 0 -110 0 -3 53 -3 52 -82 3 -83 3 0 -56 0 -55 -109 0 -110 0 -3 53 -3 52 -72 3 -73 3 2 -113z M575 1470 c10 -11 20 -20 23 -20 3 0 -3 9 -13 20 -10 11 -20 20 -23 20 -3 0 3 -9 13 -20z M1414 1468 l-19 -23 23 19 c21 18 27 26 19 26 -2 0 -12 -10 -23 -22z M685 1402 c19 -23 19 -24 0 -38 -10 -8 -22 -14 -27 -14 -15 0 -8 -27 10 -41 15 -13 16 -12 3 4 -9 11 -10 17 -2 17 6 0 20 9 30 19 19 19 23 19 108 4 106 -18 359 -13 440 10 37 10 54 11 57 3 2 -6 5 -2 5 9 1 12 7 27 14 35 6 8 3 7 -8 -2 -74 -61 -557 -61 -630 0 l-20 17 20 -23z M1320 1351 c0 -5 7 -11 15 -15 8 -3 15 -1 15 3 0 5 -7 11 -15 15 -8 3 -15 1 -15 -3z M718 1078 c3 -207 -7 -348 -35 -473 -16 -73 -32 -94 -70 -95 -13 0 -23 -4 -23 -10 0 -14 53 -12 73 3 10 7 25 52 38 112 18 84 22 144 26 373 3 149 6 272 7 272 0 0 36 -7 79 -15 43 -8 127 -15 187 -15 60 0 144 7 187 15 96 18 91 19 96 -2 3 -11 5 -7 6 10 1 32 1 32 -102 12 -43 -8 -127 -15 -187 -15 -60 0 -144 7 -187 15 -43 8 -82 15 -88 15 -6 0 -9 -72 -7 -202z M1273 1075 c0 -22 2 -30 4 -17 2 12 2 30 0 40 -3 9 -5 -1 -4 -23z M1283 825 c0 -22 2 -30 4 -17 2 12 2 30 0 40 -3 9 -5 -1 -4 -23z M1292 730 c0 -14 2 -19 5 -12 2 6 2 18 0 25 -3 6 -5 1 -5 -13z M1301 664 c0 -11 3 -14 6 -6 3 7 2 16 -1 19 -3 4 -6 -2 -5 -13z M1330 533 c0 -14 45 -43 65 -43 8 0 15 5 15 10 0 6 -10 10 -22 10 -12 0 -30 7 -40 17 -10 9 -18 11 -18 6z M616 450 c17 -17 242 -40 387 -40 129 0 344 21 367 35 5 3 12 -1 17 -9 9 -15 68 -55 147 -100 27 -16 46 -23 42 -17 -4 6 -43 32 -87 57 -43 25 -85 55 -93 66 -14 19 -16 19 -136 4 -152 -20 -371 -20 -515 -1 -131 18 -142 18 -129 5z M520 382 c-90 -54 -95 -59 -97 -92 0 -20 1 -25 4 -12 4 22 30 42 123 95 63 36 84 53 74 60 -5 3 -52 -20 -104 -51z M442 234 c10 -10 20 -16 22 -13 3 3 -5 11 -17 18 -21 13 -21 12 -5 -5z M1546 235 c-11 -8 -15 -15 -9 -15 6 0 16 7 23 15 16 19 11 19 -14 0z M476 198 c7 -11 -14 -48 -44 -80 l-25 -27 24 -6 c13 -3 69 -4 124 -3 l100 4 -107 2 -107 2 24 35 c13 20 25 40 27 46 2 7 36 6 108 -3 200 -25 879 -12 909 18 14 13 -19 14 -111 2 -141 -18 -697 -16 -830 4 -53 7 -94 10 -92 6z M1521 194 c0 -11 3 -14 6 -6 3 7 2 16 -1 19 -3 4 -6 -2 -5 -13z M1565 110 c10 -11 20 -20 23 -20 3 0 -3 9 -13 20 -10 11 -20 20 -23 20 -3 0 3 -9 13 -20z M1403 83 c31 -2 83 -2 115 0 31 2 5 3 -58 3 -63 0 -89 -1 -57 -3z"/>
    </g>
    <g transform="translate(0.000000,200.000000) scale(0.100000,-0.100000)" fill="#171412" stroke="none">
      <path d="M500 1642 c0 -97 4 -137 16 -161 16 -31 63 -72 97 -84 17 -6 17 -9 3 -29 -24 -34 -20 -53 22 -89 l37 -33 0 -205 c0 -199 -12 -331 -39 -437 -10 -41 -16 -49 -38 -52 -14 -2 -34 -12 -44 -23 -15 -16 -15 -23 -5 -46 7 -15 9 -29 4 -30 -33 -13 -150 -93 -166 -115 -25 -33 -17 -84 19 -127 l25 -30 -36 -36 c-41 -41 -43 -73 -6 -91 34 -17 1188 -17 1222 0 37 18 35 50 -6 91 l-36 36 25 30 c36 43 44 94 19 127 -16 22 -133 102 -166 115 -5 1 -3 15 4 30 10 23 10 30 -5 46 -10 11 -30 21 -44 23 -22 3 -28 11 -38 52 -27 106 -39 238 -39 437 l0 205 38 33 c41 36 45 55 21 89 -14 20 -14 23 3 29 34 12 81 53 97 84 12 24 16 64 16 161 l0 128 -120 0 -120 0 0 -55 0 -55 -65 0 -65 0 0 55 0 55 -130 0 -130 0 0 -55 0 -55 -65 0 -65 0 0 55 0 55 -120 0 -120 0 0 -128z m198 21 l3 -53 110 0 109 0 0 55 0 56 83 -3 82 -3 3 -52 3 -53 110 0 109 0 0 55 0 56 73 -3 72 -3 3 -95 c3 -116 -11 -144 -90 -186 -58 -32 -76 -67 -39 -79 30 -9 26 -26 -11 -57 l-33 -27 -4 -171 c-5 -250 27 -529 66 -572 9 -10 27 -18 40 -18 27 0 29 -7 8 -30 -14 -15 -14 -19 2 -39 10 -12 54 -43 98 -69 71 -42 80 -51 83 -79 2 -24 -3 -39 -22 -58 -34 -34 -33 -67 5 -110 17 -19 27 -35 23 -36 -39 -4 -1158 -3 -1165 2 -5 3 0 14 12 25 18 16 49 65 49 77 0 2 -14 18 -31 36 -23 25 -29 40 -27 64 3 29 13 38 97 88 94 56 112 77 85 100 -21 17 -17 29 9 29 38 1 54 23 71 100 27 128 36 237 36 448 l0 204 -35 32 c-42 38 -43 49 -10 64 14 6 25 15 25 20 0 13 -30 37 -77 61 -66 33 -73 50 -73 174 l0 108 73 -3 72 -3 3 -52z"/>
    </g>
  </g>
</svg>
