<svg xmlns="http://www.w3.org/2000/svg" viewBox="0 0 200 200" role="img" aria-labelledby="title">
  <title id="title">Simple White Bishop</title>
  <g shape-rendering="geometricPrecision">
    <g transform="translate(0.000000,200.000000) scale(0.100000,-0.100000)" fill="#151515" stroke="none">
      <path d="M929 1951 c-37 -37 -40 -94 -7 -136 l22 -28 -37 -29 c-30 -24 -37 -37 -37 -65 0 -19 4 -32 9 -29 13 8 81 -193 81 -240 0 -22 -6 -48 -13 -58 -12 -17 -19 -6 -65 102 -29 66 -52 127 -52 134 0 8 -6 22 -13 32 -12 17 -15 15 -41 -18 -15 -20 -41 -66 -59 -104 -29 -60 -32 -76 -32 -158 0 -82 3 -96 31 -152 l32 -61 -27 -9 c-14 -5 -41 -22 -59 -37 -51 -43 -39 -106 29 -141 l30 -15 -7 -67 c-9 -91 -39 -206 -70 -269 -20 -41 -31 -53 -48 -53 -13 0 -31 -9 -41 -20 -16 -17 -16 -24 -6 -47 7 -15 9 -29 4 -30 -33 -13 -150 -93 -166 -115 -25 -33 -17 -84 19 -127 l25 -30 -36 -36 c-41 -41 -43 -73 -6 -91 17 -9 180 -12 611 -12 431 0 594 3 611 12 37 18 35 50 -6 91 l-36 36 25 30 c36 43 44 94 19 127 -16 22 -133 102 -166 115 -5 1 -3 15 4 30 10 23 10 30 -6 47 -10 11 -28 20 -41 20 -17 0 -28 12 -48 53 -31 63 -61 178 -70 269 l-7 67 30 15 c68 35 80 98 29 141 -18 15 -45 32 -59 37 l-27 9 32 61 c28 56 31 70 31 152 0 82 -3 98 -32 159 -39 82 -106 170 -174 230 l-52 45 22 28 c53 67 6 164 -79 164 -33 0 -48 -6 -71 -29z"/>
    </g>
    <g transform="translate(0.000000,200.000000) scale(0.100000,-0.100000)" fill="#050505" stroke="none">
      <path d="M929 1951 c-37 -37 -40 -94 -7 -136 l22 -28 -37 -29 c-30 -24 -37 -37 -37 -65 0 -19 4 -32 9 -29 13 8 81 -193 81 -240 0 -22 -6 -48 -13 -58 -12 -17 -19 -6 -65 102 -29 66 -52 127 -52 134 0 8 -6 22 -13 32 -12 17 -15 15 -41 -18 -15 -20 -41 -66 -59 -104 -29 -60 -32 -76 -32 -158 0 -82 3 -96 31 -152 l32 -61 -27 -9 c-14 -5 -41 -22 -59 -37 -51 -43 -39 -106 29 -141 l30 -15 -7 -67 c-9 -91 -39 -206 -70 -269 -20 -41 -31 -53 -48 -53 -13 0 -31 -9 -41 -20 -16 -17 -16 -24 -6 -47 7 -15 9 -29 4 -30 -33 -13 -150 -93 -166 -115 -25 -33 -17 -84 19 -127 l25 -30 -36 -36 c-41 -41 -43 -73 -6 -91 17 -9 180 -12 611 -12 431 0 594 3 611 12 37 18 35 50 -6 91 l-36 36 25 30 c36 43 44 94 19 127 -16 22 -133 102 -166 115 -5 1 -3 15 4 30 10 23 10 30 -6 47 -10 11 -28 20 -41 20 -17 0 -28 12 -48 53 -31 63 -61 178 -70 269 l-7 67 30 15 c68 35 80 98 29 141 -18 15 -45 32 -59 37 l-27 9 32 61 c28 56 31 70 31 152 0 82 -3 98 -32 159 -39 82 -106 170 -174 230 l-52 45 22 28 c53 67 6 164 -79 164 -33 0 -48 -6 -71 -29z m122 -55 c8 -17 8 -29 0 -42 -9 -17 -10 -17 -11 5 0 14 -7 33 -17 43 -15 17 -15 18 1 18 9 0 21 -11 27 -24z m64 -229 c121 -123 177 -252 156 -362 -12 -67 -20 -66 -14 2 11 123 -62 260 -203 384 -48 43 -57 59 -31 59 6 0 47 -37 92 -83z m-204 -373 c9 -11 8 -14 -7 -14 -15 0 -30 27 -67 115 -27 63 -46 119 -42 126 4 6 29 -38 56 -101 26 -62 53 -118 60 -126z m330 -77 c-10 -9 -11 -8 -5 6 3 10 9 15 12 12 3 -3 0 -11 -7 -18z m31 -140 c25 -10 49 -24 52 -32 8 -23 -10 -26 -29 -5 -9 10 -39 26 -65 36 -28 10 -51 25 -53 35 -8 29 5 31 27 6 12 -13 42 -31 68 -40z m-29 -224 c11 -136 68 -301 119 -343 l23 -19 -22 -1 c-13 0 -30 12 -43 29 -47 67 -100 263 -100 373 0 76 16 48 23 -39z m142 -403 c-3 -5 22 -28 57 -49 144 -91 155 -102 127 -141 -9 -13 -10 -13 -6 1 9 28 -20 57 -99 100 -72 40 -109 73 -98 91 3 4 10 8 15 8 6 0 7 -4 4 -10z m183 -332 c25 -27 25 -28 5 -28 -29 0 -63 46 -63 84 l1 31 16 -30 c8 -16 27 -42 41 -57z"/>
    </g>
    <g transform="translate(0.000000,200.000000) scale(0.100000,-0.100000)" fill="#6c6c6c" stroke="none">
      <path d="M1022 1903 c9 -10 18 -27 21 -38 3 -13 5 -10 6 11 1 21 -5 34 -15 38 -25 10 -28 7 -12 -11z M1010 1747 c0 -2 38 -42 83 -88 105 -106 155 -199 167 -310 l8 -74 -1 81 c-3 114 -49 206 -158 315 -67 67 -99 91 -99 76z M797 1513 c-2 -4 17 -57 43 -118 34 -79 52 -111 66 -113 12 -2 15 0 8 5 -6 4 -33 58 -59 118 -53 122 -51 120 -58 108z M1177 1134 c-12 -13 7 -42 31 -47 l27 -5 -22 18 c-12 9 -20 20 -17 23 3 3 1 8 -4 11 -5 3 -12 3 -15 0z M1265 1064 c17 -9 36 -23 43 -32 11 -14 12 -14 12 2 0 10 -14 23 -35 32 -45 19 -58 17 -20 -2z M1221 910 c-1 -14 6 -68 14 -120 19 -129 60 -243 100 -284 32 -31 35 -15 5 26 -37 51 -87 203 -96 294 -8 76 -22 129 -23 84z M1371 435 c3 -13 33 -36 79 -62 41 -24 87 -56 103 -73 23 -26 27 -28 27 -11 0 21 -30 46 -97 80 -23 12 -59 36 -79 53 -30 26 -36 29 -33 13z M1510 178 c0 -29 44 -88 65 -88 9 0 5 9 -11 25 -14 14 -31 40 -39 58 -14 32 -14 32 -15 5z"/>
    </g>
  </g>
</svg>
