<svg xmlns="http://www.w3.org/2000/svg" viewBox="0 0 200 200" role="img" aria-labelledby="title">
  <title id="title">Simple White Knight</title>
  <g shape-rendering="geometricPrecision">
    <g transform="translate(0.000000,200.000000) scale(0.100000,-0.100000)" fill="#f2f1ec" stroke="none">
      <path d="M771 1801 c-10 -10 -26 -50 -35 -88 -14 -58 -25 -78 -66 -122 -33 -35 -59 -78 -80 -129 -71 -174 -97 -217 -189 -309 -134 -135 -154 -215 -71 -286 59 -50 235 -94 259 -65 6 7 23 28 37 46 19 23 62 50 138 86 63 30 132 71 159 95 l47 43 0 -28 c0 -54 -44 -118 -174 -253 -72 -75 -140 -149 -151 -164 -11 -16 -35 -37 -52 -48 -30 -19 -33 -24 -31 -68 2 -42 -2 -53 -35 -91 -20 -24 -39 -58 -43 -76 -3 -18 -15 -40 -25 -50 -23 -21 -24 -52 -3 -82 l15 -22 574 0 574 0 15 22 c21 30 20 61 -3 82 -10 10 -22 32 -25 50 -4 18 -23 52 -43 76 -33 38 -37 49 -35 91 2 44 -1 49 -28 66 -34 20 -36 29 -15 60 27 39 76 173 91 250 56 296 -65 548 -326 677 -52 26 -136 57 -186 69 -88 21 -92 23 -124 69 -42 61 -105 118 -130 118 -11 0 -28 -8 -39 -19z"/>
    </g>
    <g transform="translate(0.000000,200.000000) scale(0.100000,-0.100000)" fill="#c6c0b6" stroke="none">
      <path d="M796 1758 c-3 -7 -14 -46 -25 -85 -15 -52 -29 -78 -46 -89 -35 -23 -78 -95 -120 -202 -47 -118 -99 -197 -164 -253 -108 -92 -140 -180 -84 -230 20 -17 23 -18 10 -3 -38 45 -6 114 94 203 71 63 110 124 165 257 47 114 70 153 119 199 24 23 37 48 51 104 10 40 25 76 32 78 7 3 23 -3 35 -13 12 -10 9 -4 -7 14 -31 33 -54 41 -60 20z M880 1696 c0 -2 8 -10 18 -17 15 -13 16 -12 3 4 -13 16 -21 21 -21 13z M947 1610 c14 -15 52 -31 115 -46 110 -28 254 -96 323 -154 40 -34 38 -31 -10 15 -74 70 -205 137 -330 168 -49 12 -97 26 -105 31 -8 5 -5 -2 7 -14z M871 1394 c0 -11 3 -14 6 -6 3 7 2 16 -1 19 -3 4 -6 -2 -5 -13z M703 1350 c2 -10 18 -15 48 -16 44 -1 44 -1 4 3 -22 3 -44 10 -48 16 -6 8 -7 7 -4 -3z M808 1343 c7 -3 16 -2 19 1 4 3 -2 6 -13 5 -11 0 -14 -3 -6 -6z M995 1130 c3 -5 8 -10 11 -10 2 0 4 5 4 10 0 6 -5 10 -11 10 -5 0 -7 -4 -4 -10z M1015 1057 c0 -77 -34 -136 -150 -258 -262 -276 -258 -272 -256 -307 3 -34 -14 -68 -56 -114 -17 -17 -25 -38 -25 -61 0 -28 -5 -37 -26 -47 -26 -11 -26 -12 -7 -26 16 -12 107 -14 559 -12 l541 3 -533 2 c-506 3 -532 4 -521 21 10 16 20 17 103 9 99 -9 789 -1 871 11 44 6 50 10 53 32 1 15 -1 20 -6 13 -23 -35 -973 -45 -1008 -11 -3 4 8 24 25 44 18 20 36 47 41 60 9 22 13 24 52 17 58 -11 666 -10 751 0 45 6 67 13 64 20 -2 7 -19 11 -38 10 -19 -1 -160 -5 -314 -9 -300 -6 -491 4 -505 27 -5 7 -8 15 -6 16 1 2 63 -2 137 -8 104 -9 194 -9 399 2 146 7 277 13 292 13 40 1 42 22 5 48 -21 15 -27 17 -18 5 11 -14 11 -17 0 -21 -32 -11 -506 -27 -610 -21 -174 9 -168 6 -119 65 22 27 94 104 159 173 136 143 166 194 166 279 -1 32 -5 62 -10 67 -7 7 -10 -9 -10 -42z M904 1078 l-19 -23 23 19 c21 18 27 26 19 26 -2 0 -12 -10 -23 -22z M1543 1030 c0 -36 2 -50 4 -32 2 17 2 47 0 65 -2 17 -4 3 -4 -33z M1531 914 c0 -11 3 -14 6 -6 3 7 2 16 -1 19 -3 4 -6 -2 -5 -13z M599 893 l-24 -28 28 24 c15 14 27 26 27 28 0 8 -8 1 -31 -24z M1521 864 c0 -11 3 -14 6 -6 3 7 2 16 -1 19 -3 4 -6 -2 -5 -13z M498 843 c7 -3 16 -2 19 1 4 3 -2 6 -13 5 -11 0 -14 -3 -6 -6z M1530 376 c0 -2 8 -10 18 -17 15 -13 16 -12 3 4 -13 16 -21 21 -21 13z M1590 255 c7 -9 15 -13 17 -11 7 7 -7 26 -19 26 -6 0 -6 -6 2 -15z"/>
    </g>
    <g transform="translate(0.000000,200.000000) scale(0.100000,-0.100000)" fill="#171412" stroke="none">
      <path d="M771 1801 c-10 -10 -26 -50 -35 -88 -14 -58 -25 -78 -66 -122 -33 -35 -59 -78 -80 -129 -71 -174 -97 -217 -189 -309 -134 -135 -154 -215 -71 -286 59 -50 235 -94 259 -65 6 7 23 28 37 46 19 23 62 50 138 86 63 30 132 71 159 95 l47 43 0 -28 c0 -54 -44 -118 -174 -253 -72 -75 -140 -149 -151 -164 -11 -16 -35 -37 -52 -48 -30 -19 -33 -24 -31 -68 2 -42 -2 -53 -35 -91 -20 -24 -39 -58 -43 -76 -3 -18 -15 -40 -25 -50 -23 -21 -24 -52 -3 -82 l15 -22 574 0 574 0 15 22 c21 30 20 61 -3 82 -10 10 -22 32 -25 50 -4 18 -23 52 -43 76 -33 38 -37 49 -35 91 2 44 -1 49 -28 66 -34 20 -36 29 -15 60 27 39 76 173 91 250 56 296 -65 548 -326 677 -52 26 -136 57 -186 69 -88 21 -92 23 -124 69 -42 61 -105 118 -130 118 -11 0 -28 -8 -39 -19z m81 -58 c14 -16 41 -50 60 -77 34 -47 37 -49 129 -72 141 -35 267 -102 349 -183 81 -81 124 -164 147 -280 28 -139 -4 -305 -88 -474 -32 -63 -30 -81 15 -111 16 -10 23 -22 20 -31 -12 -29 7 -82 42 -124 23 -26 37 -53 38 -72 1 -19 11 -38 26 -50 21 -16 23 -20 10 -29 -9 -6 -213 -10 -551 -10 -445 0 -538 2 -554 14 -19 14 -19 15 7 26 21 10 26 19 26 47 0 23 8 44 25 61 42 46 59 80 56 114 -2 35 -4 34 252 302 52 56 105 117 116 136 50 83 55 183 10 199 -18 7 -31 -2 -80 -50 -37 -38 -82 -70 -125 -90 -37 -17 -86 -40 -109 -51 -23 -10 -58 -37 -77 -59 -26 -28 -44 -39 -65 -39 -46 0 -151 36 -177 61 -52 49 -18 139 87 228 65 56 117 135 164 253 42 107 85 179 120 202 17 11 31 37 46 89 11 39 22 78 25 85 6 20 29 14 56 -15z M783 1445 c-28 -12 -73 -69 -73 -94 0 -15 75 -13 120 2 38 13 49 41 31 75 -14 26 -42 32 -78 17z"/>
    </g>
  </g>
</svg>
