<svg xmlns="http://www.w3.org/2000/svg" viewBox="0 0 200 200" role="img" aria-labelledby="title">
  <title id="title">Buschkrieger White Bishop</title>
  <g shape-rendering="geometricPrecision">
    <g transform="translate(0.000000,200.000000) scale(0.100000,-0.100000)" fill="#151515" stroke="none">
      <path d="M340 1985 c0 -8 5 -34 12 -58 9 -35 8 -57 -5 -116 -10 -40 -17 -83 -17 -94 0 -11 -16 -39 -35 -63 -19 -23 -35 -53 -35 -66 0 -28 -52 -82 -93 -97 -22 -8 -35 -7 -57 4 -38 19 -66 19 -74 -1 -17 -43 3 -173 32 -206 10 -12 23 -15 42 -11 20 4 34 -1 49 -16 26 -26 26 -55 2 -123 -11 -29 -22 -71 -26 -93 -3 -22 -15 -68 -26 -102 l-21 -63 41 -74 c23 -40 41 -81 41 -90 0 -26 64 -83 109 -97 23 -7 41 -16 41 -21 0 -5 6 -24 14 -43 l14 -34 47 15 c26 7 75 34 109 58 l63 45 26 -54 c14 -30 23 -56 19 -58 -4 -3 -25 -10 -47 -17 -71 -23 -125 -67 -152 -126 -20 -45 -23 -65 -21 -136 l3 -83 605 0 605 0 3 83 c2 71 -1 91 -21 136 -27 59 -81 103 -152 126 -22 7 -43 15 -47 17 -4 2 5 30 21 61 119 236 115 531 -10 737 -58 95 -168 204 -256 254 -12 6 -12 13 6 42 30 48 29 134 -2 180 -37 55 -81 79 -147 79 -66 0 -110 -24 -147 -79 -30 -45 -32 -132 -3 -179 l20 -33 -26 -23 -27 -22 41 -60 c81 -118 153 -284 175 -401 6 -29 3 -34 -38 -57 -24 -14 -48 -26 -53 -26 -5 0 -17 28 -26 63 -22 79 -93 227 -139 291 -29 40 -33 52 -24 67 9 14 6 29 -11 71 -12 29 -22 59 -22 67 0 23 -68 107 -110 135 -22 14 -39 30 -38 34 1 4 -6 24 -15 45 -11 25 -22 37 -36 37 -11 0 -23 5 -26 10 -6 10 12 76 28 97 28 38 -42 83 -128 83 -42 0 -55 -4 -55 -15z m184 -1237 c-3 -5 -9 -8 -15 -8 -11 0 -12 63 -2 74 9 8 24 -54 17 -66z"/>
    </g>
    <g transform="translate(0.000000,200.000000) scale(0.100000,-0.100000)" fill="#050505" stroke="none">
      <path d="M407 1993 c-4 -3 0 -15 9 -25 12 -12 14 -21 7 -30 -6 -7 -13 -31 -16 -53 -3 -22 -10 -59 -17 -83 -11 -37 -10 -45 4 -61 22 -24 22 -128 0 -160 -13 -17 -23 -22 -43 -18 -17 4 -35 -1 -51 -13 -14 -11 -29 -20 -34 -20 -5 0 -19 -11 -32 -25 -14 -15 -29 -22 -38 -19 -9 3 -16 2 -16 -4 0 -11 61 -42 84 -42 31 0 36 -33 10 -65 -13 -17 -24 -38 -24 -47 0 -9 -7 -23 -15 -31 -12 -13 -12 -17 -1 -26 9 -8 11 -23 6 -49 -14 -76 21 -102 99 -75 35 12 46 12 69 1 17 -9 26 -21 25 -33 -2 -11 -4 -40 -7 -65 -4 -54 -15 -90 -27 -90 -12 0 -11 14 1 26 7 7 3 14 -15 22 -21 10 -26 9 -34 -7 -8 -13 -4 -26 15 -53 22 -30 24 -39 14 -58 -9 -17 -9 -25 4 -39 9 -10 16 -22 16 -28 0 -5 18 -16 39 -23 22 -7 44 -22 49 -34 10 -19 11 -18 11 11 1 36 21 56 21 21 0 -37 13 -50 34 -35 15 11 16 19 7 57 -13 56 -14 212 -2 276 22 112 119 300 143 276 8 -8 2 -25 -20 -59 -86 -134 -118 -255 -109 -410 3 -57 8 -107 11 -112 4 -5 86 37 183 94 97 57 181 101 185 99 11 -7 10 -42 -2 -64 -9 -18 -101 -90 -114 -90 -4 0 -4 6 0 12 4 8 3 10 -2 5 -5 -5 -9 -14 -9 -20 0 -6 -14 -12 -32 -13 -17 -1 -44 -11 -58 -22 -14 -12 -33 -18 -41 -15 -10 4 -12 0 -8 -11 5 -12 2 -15 -10 -10 -8 3 -23 -1 -31 -10 -9 -9 -23 -16 -31 -16 -8 0 -12 -4 -9 -10 3 -5 0 -7 -8 -4 -8 3 -28 -8 -44 -25 -17 -17 -33 -28 -36 -25 -3 4 -18 -6 -34 -20 -15 -14 -31 -26 -35 -26 -16 0 -23 -2 -39 -11 -13 -6 -21 -2 -34 18 -17 25 -17 27 1 40 10 7 21 13 26 13 4 0 5 7 1 16 -3 8 0 27 8 40 14 28 2 62 -21 56 -7 -1 -26 13 -42 33 -35 41 -48 44 -48 12 0 -12 -9 -28 -20 -35 -11 -7 -20 -23 -20 -36 0 -14 -7 -26 -18 -28 -12 -4 -17 -14 -16 -34 2 -54 15 -73 55 -85 30 -9 39 -18 44 -40 7 -29 19 -37 30 -19 3 5 12 7 20 3 8 -3 15 0 15 7 0 6 -4 9 -9 6 -15 -10 -29 18 -20 39 7 19 8 19 8 -2 1 -14 7 -23 17 -23 12 0 15 -6 10 -25 -5 -18 -3 -23 8 -19 8 3 16 13 18 22 3 10 23 26 46 37 22 11 39 22 37 25 -2 3 31 22 73 43 43 21 69 31 60 24 -24 -19 -23 -28 12 -99 17 -33 24 -56 17 -50 -7 6 -24 34 -37 62 -23 49 -45 64 -56 36 -3 -8 6 -37 20 -64 14 -28 22 -53 18 -55 -4 -2 -25 -10 -47 -17 -71 -23 -125 -67 -152 -126 -20 -45 -23 -65 -21 -136 l3 -83 605 0 605 0 3 83 c2 71 -1 91 -21 136 -27 59 -81 103 -152 126 -22 7 -43 15 -47 17 -4 2 5 30 21 61 119 236 115 531 -10 737 -58 95 -168 204 -256 254 -12 6 -12 13 6 42 30 48 29 134 -2 180 -37 55 -81 79 -147 79 -66 0 -110 -24 -147 -79 -30 -45 -32 -132 -3 -179 l20 -33 -26 -22 -26 -23 47 -70 c59 -88 117 -209 143 -299 37 -127 37 -120 -12 -149 -25 -14 -49 -26 -54 -26 -5 0 -17 28 -26 63 -22 79 -93 227 -139 291 -29 40 -33 52 -24 67 9 14 6 29 -11 71 -12 29 -22 58 -22 64 0 6 -10 10 -22 10 -17 -1 -22 4 -21 19 5 41 -9 66 -57 101 -27 20 -49 39 -48 42 1 4 -6 24 -15 45 -11 25 -22 37 -36 37 -11 0 -23 5 -26 10 -6 10 12 76 28 97 15 20 -2 49 -38 66 -37 18 -67 22 -78 10z m661 -173 c39 -24 43 -34 5 -14 -99 51 -212 -57 -169 -160 19 -45 12 -46 -14 -3 -70 115 62 247 178 177z m-86 -277 c20 -3 51 0 69 6 28 10 37 8 73 -13 23 -14 57 -39 76 -56 l35 -32 -40 30 c-61 45 -99 62 -116 51 -18 -11 -100 -11 -118 0 -9 6 -23 5 -37 -1 l-22 -10 33 -52 c89 -139 155 -308 174 -446 12 -87 10 -90 -64 -90 -46 1 -48 2 -31 15 11 8 33 15 49 15 l30 0 -7 65 c-14 134 -90 334 -176 462 -30 44 -31 48 -14 60 10 7 25 11 34 7 8 -3 32 -8 52 -11z m317 -1043 c78 -13 170 -45 190 -65 11 -10 0 -9 -40 6 -95 37 -209 50 -429 50 -304 0 -457 -32 -520 -109 -32 -39 -40 -67 -49 -170 0 -7 -5 -10 -11 -7 -17 10 -11 107 9 150 44 96 133 134 366 159 71 7 418 -3 484 -14z M475 584 c-27 -18 -46 -34 -42 -34 10 0 97 59 97 65 0 7 -1 7 -55 -31z"/>
    </g>
    <g transform="translate(0.000000,200.000000) scale(0.100000,-0.100000)" fill="#6c6c6c" stroke="none">
      <path d="M341 1980 c0 -14 4 -34 9 -45 8 -18 9 -18 9 5 0 14 -4 34 -9 45 -8 18 -9 18 -9 -5z M933 1820 c-58 -35 -79 -110 -48 -170 20 -39 27 -38 13 0 -33 95 67 195 162 162 38 -14 39 -7 0 13 -40 21 -89 19 -127 -5z M331 1719 c-1 -15 -8 -32 -16 -39 -21 -17 -19 -30 5 -30 29 0 40 29 25 65 l-13 30 -1 -26z M315 1629 c-4 -6 -5 -12 -2 -15 2 -3 7 2 10 11 7 17 1 20 -8 4z M260 1610 c0 -5 5 -10 10 -10 6 0 10 5 10 10 0 6 -4 10 -10 10 -5 0 -10 -4 -10 -10z M897 1547 c-15 -10 -15 -15 -5 -27 7 -8 12 -13 11 -11 -2 2 5 10 15 17 14 9 28 10 59 1 46 -12 122 0 113 18 -3 6 -14 8 -25 6 -33 -8 -109 -7 -131 2 -12 4 -27 2 -37 -6z M1110 1536 c0 -3 9 -10 20 -16 11 -6 20 -8 20 -6 0 3 -9 10 -20 16 -11 6 -20 8 -20 6z M36 1494 c-18 -46 6 -183 36 -211 17 -15 19 -15 34 3 11 14 17 15 20 6 3 -7 15 -17 26 -23 20 -11 21 -9 14 29 -3 24 -2 43 4 47 24 15 8 26 -31 20 l-41 -6 6 33 c3 18 2 39 -3 47 -5 8 -6 24 -1 37 7 16 5 24 -6 28 -28 11 -52 6 -58 -10z M965 1398 c45 -83 91 -210 110 -300 16 -75 19 -138 8 -139 -5 0 -20 -2 -35 -3 -15 -1 -33 -7 -40 -14 -9 -9 -2 -12 34 -12 74 0 75 1 66 77 -4 36 -17 100 -28 142 -22 78 -104 260 -134 296 -10 11 -1 -10 19 -47z M663 1333 c-63 -101 -73 -121 -90 -184 -12 -47 -17 -100 -16 -199 1 -74 3 -146 5 -159 3 -22 -7 -30 -87 -72 -49 -26 -91 -53 -93 -59 -2 -6 2 -17 8 -25 9 -11 10 -15 1 -15 -7 0 -9 -5 -6 -11 5 -7 14 -4 26 7 10 9 19 13 20 8 0 -5 4 1 9 13 5 13 15 20 23 17 7 -2 27 8 43 23 16 15 32 26 37 25 4 -1 7 3 7 9 0 6 6 9 14 6 8 -3 17 1 20 9 3 9 10 12 16 9 6 -4 7 1 3 11 -5 14 -3 15 15 5 18 -10 21 -9 16 4 -4 10 0 15 10 15 9 0 16 5 16 10 0 6 4 10 10 10 5 0 7 -8 4 -17 -2 -10 1 -8 7 5 7 12 21 22 33 23 21 0 21 1 1 9 -17 7 -14 9 13 9 18 1 31 5 28 10 -3 5 1 11 9 15 8 3 15 1 15 -5 0 -8 23 2 79 36 9 6 27 20 41 32 13 13 32 25 42 29 18 5 25 38 10 47 -4 3 -87 -41 -184 -98 -98 -57 -180 -100 -182 -97 -7 13 -17 110 -18 175 -1 111 45 254 111 351 21 31 30 51 24 57 -7 7 -21 -7 -40 -38z M156 1118 c-7 -13 -17 -43 -20 -68 -4 -25 -16 -73 -27 -107 l-20 -62 45 -83 c43 -79 45 -81 52 -53 3 17 12 35 19 40 6 6 20 24 29 40 9 17 25 44 35 60 13 21 16 37 10 52 -8 21 -3 52 10 63 21 18 30 51 21 75 -7 19 -17 25 -40 25 -17 0 -40 9 -52 20 -28 26 -44 25 -62 -2z M611 662 c-1 -18 46 -109 61 -118 10 -6 11 -5 1 7 -7 9 -24 40 -37 70 -14 30 -25 48 -25 41z M364 585 c6 -18 -10 -30 -18 -13 -3 7 -3 0 -1 -16 5 -35 5 -35 30 -25 11 4 14 8 8 8 -16 1 -17 27 -1 37 8 5 9 2 5 -10 -4 -10 -3 -15 3 -11 17 11 11 32 -11 38 -15 4 -19 2 -15 -8z M785 510 c-262 -30 -355 -98 -355 -257 0 -23 5 -45 10 -48 6 -3 10 5 10 19 0 14 5 48 11 76 31 143 178 194 559 193 220 -1 356 -17 437 -53 24 -10 43 -17 43 -14 0 13 -119 57 -188 70 -96 17 -420 26 -527 14z"/>
    </g>
  </g>
</svg>
