<svg xmlns="http://www.w3.org/2000/svg" viewBox="0 0 200 200" role="img" aria-labelledby="title">
  <title id="title">Buschkrieger White Pawn</title>
  <g shape-rendering="geometricPrecision">
    <g transform="translate(0.000000,200.000000) scale(0.100000,-0.100000)" fill="#151515" stroke="none">
      <path d="M890 1549 c-179 -81 -217 -320 -72 -451 23 -21 42 -41 42 -46 0 -4 -30 -16 -67 -26 -38 -11 -81 -25 -96 -33 -64 -32 -38 -73 64 -100 61 -15 69 -20 69 -41 0 -44 -51 -128 -147 -243 -165 -196 -201 -266 -188 -360 l7 -49 498 0 498 0 7 49 c13 94 -23 164 -188 360 -96 115 -147 199 -147 243 0 21 8 26 69 41 102 27 128 68 64 100 -15 8 -58 22 -95 33 -38 10 -68 22 -68 26 0 5 19 25 42 46 145 131 107 370 -72 451 -30 14 -66 21 -110 21 -44 0 -80 -7 -110 -21z"/>
    </g>
    <g transform="translate(0.000000,200.000000) scale(0.100000,-0.100000)" fill="#050505" stroke="none">
      <path d="M890 1549 c-179 -81 -217 -320 -72 -451 23 -21 42 -41 42 -46 0 -4 -30 -16 -67 -26 -38 -11 -81 -25 -96 -33 -64 -32 -38 -73 64 -100 61 -15 69 -20 69 -41 0 -44 -51 -128 -147 -243 -165 -196 -201 -266 -188 -360 l7 -49 498 0 498 0 7 49 c13 94 -23 164 -188 360 -96 115 -147 199 -147 243 0 21 8 26 69 41 102 27 128 68 64 100 -15 8 -58 22 -95 33 -38 10 -68 22 -68 26 0 5 19 25 42 46 145 131 107 370 -72 451 -30 14 -66 21 -110 21 -44 0 -80 -7 -110 -21z m180 -29 c19 -5 49 -21 65 -35 l30 -24 -38 19 c-131 65 -283 1 -323 -137 -17 -59 -8 -133 22 -183 12 -20 10 -19 -11 5 -28 33 -45 83 -45 134 0 152 150 263 300 221z m-145 -489 c-8 -35 -31 -51 -117 -76 -39 -11 -63 -13 -75 -7 -13 8 -2 14 56 32 75 22 121 55 121 87 0 12 3 14 11 6 7 -7 8 -24 4 -42z m339 -79 c-23 -3 -134 35 -134 47 0 4 35 -4 78 -18 46 -15 69 -27 56 -29z m-371 -117 c-2 -72 -50 -155 -172 -300 -114 -134 -161 -212 -161 -264 0 -34 -15 -42 -25 -12 -8 25 3 66 31 121 26 50 52 84 168 221 87 103 136 194 136 252 0 27 4 37 13 34 7 -3 11 -21 10 -52z"/>
    </g>
    <g transform="translate(0.000000,200.000000) scale(0.100000,-0.100000)" fill="#6c6c6c" stroke="none">
      <path d="M905 1506 c-60 -28 -87 -56 -114 -116 -28 -61 -26 -123 4 -187 13 -29 27 -53 30 -53 3 0 -2 15 -12 33 -11 21 -17 55 -18 98 0 56 4 73 30 115 19 30 49 60 79 79 42 26 59 30 115 30 43 -1 77 -7 99 -18 17 -10 32 -15 32 -12 0 3 -24 17 -52 30 -68 32 -128 32 -193 1z M910 1067 c0 -34 -40 -64 -116 -87 -59 -17 -73 -25 -61 -32 27 -14 152 27 176 59 23 28 27 58 11 68 -5 3 -10 0 -10 -8z M1144 992 c8 -14 111 -45 129 -39 6 2 -14 11 -45 21 -32 9 -65 19 -74 23 -12 4 -15 3 -10 -5z M870 849 c0 -63 -44 -138 -163 -281 -135 -163 -167 -217 -167 -281 0 -30 4 -46 10 -42 6 3 10 19 10 34 0 46 45 121 146 241 54 63 114 141 135 173 53 82 76 197 39 197 -5 0 -10 -18 -10 -41z"/>
    </g>
  </g>
</svg>
