<svg xmlns="http://www.w3.org/2000/svg" viewBox="0 0 200 200" role="img" aria-labelledby="title">
  <title id="title">Buschkrieger White Knight</title>
  <g shape-rendering="geometricPrecision">
    <g transform="translate(0.000000,200.000000) scale(0.100000,-0.100000)" fill="#f2f1ec" stroke="none">
      <path d="M690 1810 c-6 -11 -13 -63 -17 -115 -5 -81 -9 -98 -25 -106 -41 -22 -100 -85 -122 -128 -13 -25 -40 -90 -60 -144 -46 -119 -74 -171 -126 -230 -34 -39 -40 -52 -40 -91 0 -98 41 -140 158 -165 29 -6 66 -18 82 -26 l29 -15 56 69 c54 67 56 68 111 75 73 8 106 26 183 99 60 58 64 60 77 42 16 -22 18 -63 5 -97 -14 -37 -87 -104 -191 -176 -160 -111 -240 -199 -240 -264 0 -18 -13 -30 -53 -51 -94 -50 -130 -122 -125 -250 l3 -72 605 0 605 0 3 72 c3 88 -9 137 -45 186 -30 39 -122 92 -180 103 l-34 6 36 36 c75 76 143 201 170 316 20 82 19 234 -1 315 -60 244 -261 412 -545 456 -24 4 -63 28 -125 78 -49 41 -99 79 -111 85 -33 18 -71 15 -83 -8z"/>
    </g>
    <g transform="translate(0.000000,200.000000) scale(0.100000,-0.100000)" fill="#c6c0b6" stroke="none">
      <path d="M759 1763 c-22 -5 -32 -43 -14 -50 8 -2 17 -13 20 -24 5 -14 13 -17 38 -13 59 10 62 12 42 34 -14 15 -21 17 -41 8 -13 -6 -21 -15 -17 -21 3 -6 1 -7 -6 -3 -6 4 -9 12 -6 17 10 15 14 48 7 52 -4 2 -14 2 -23 0z m80 -56 c8 -10 7 -14 -2 -14 -8 0 -14 6 -14 14 0 7 1 13 2 13 2 0 8 -6 14 -13z M735 1690 c3 -5 8 -10 11 -10 2 0 4 5 4 10 0 6 -5 10 -11 10 -5 0 -7 -4 -4 -10z M880 1676 c0 -2 8 -10 18 -17 15 -13 16 -12 3 4 -13 16 -21 21 -21 13z M785 1630 c-3 -5 -1 -10 4 -10 6 0 11 5 11 10 0 6 -2 10 -4 10 -3 0 -8 -4 -11 -10z M934 1633 c4 -7 3 -13 -3 -13 -6 0 -8 -7 -5 -15 5 -11 -1 -13 -25 -10 -19 2 -34 -2 -38 -10 -12 -21 -60 -27 -67 -8 -8 20 -8 20 9 20 8 0 15 -4 15 -9 0 -4 5 -8 10 -8 6 0 10 7 10 15 0 12 -10 15 -40 13 -29 -1 -37 -5 -29 -14 16 -19 0 -46 -23 -38 -15 4 -18 3 -13 -6 5 -8 4 -11 -2 -7 -12 8 -89 -40 -122 -77 -21 -22 -22 -26 -8 -27 9 -1 23 -2 30 -3 6 -1 20 4 30 12 9 9 20 12 24 9 3 -4 1 -7 -6 -7 -9 0 -9 -4 1 -14 8 -9 17 -11 24 -5 6 5 19 6 28 3 16 -6 15 -9 -3 -28 -15 -16 -35 -23 -67 -25 -30 -1 -44 2 -39 8 3 6 -1 11 -10 11 -9 0 -14 -4 -11 -9 4 -5 0 -12 -6 -14 -7 -3 11 -6 40 -6 l53 -1 -3 -32 c-3 -36 -7 -37 -120 -25 -43 4 -49 -5 -16 -20 l23 -10 -25 -13 c-23 -12 -24 -12 -11 3 9 12 10 17 2 17 -12 0 -27 -27 -19 -35 6 -7 78 17 73 25 -2 3 12 7 32 8 21 2 40 -3 44 -10 7 -10 9 -10 9 0 0 6 10 11 23 11 19 -1 19 -2 3 -6 -15 -4 -16 -7 -5 -14 10 -6 8 -9 -9 -9 -20 0 -21 -3 -12 -20 6 -11 15 -18 20 -15 5 3 11 1 15 -5 5 -9 70 -4 87 6 4 2 9 0 13 -6 3 -5 17 -10 31 -10 18 0 24 -5 24 -21 0 -12 -4 -17 -11 -14 -15 10 -100 -5 -94 -16 4 -5 11 -7 16 -4 5 4 9 2 9 -4 0 -5 9 -13 21 -16 11 -4 18 -9 16 -12 -3 -2 -16 1 -28 8 -13 7 -39 12 -59 11 -30 0 -32 1 -12 8 35 15 26 28 -23 32 -45 3 -65 -5 -65 -26 0 -6 5 -4 10 4 9 13 10 13 10 0 0 -13 1 -13 10 0 6 9 10 10 10 3 0 -6 -4 -14 -10 -18 -6 -4 -5 -14 1 -29 9 -19 17 -22 46 -19 23 2 32 0 28 -7 -4 -6 -17 -10 -28 -9 -12 0 -29 1 -37 0 -13 -1 -13 -2 0 -11 13 -8 13 -10 -2 -10 -11 0 -15 -5 -12 -14 3 -9 -5 -20 -23 -30 -20 -11 -23 -15 -10 -16 9 0 17 -4 17 -8 0 -4 -15 -6 -34 -4 -28 3 -33 7 -30 28 1 13 -1 25 -4 25 -20 5 -75 6 -64 2 6 -3 9 -10 6 -16 -5 -8 -2 -8 7 1 20 18 39 15 39 -8 0 -17 -5 -19 -41 -14 -30 5 -39 3 -34 -5 4 -8 -1 -10 -17 -7 -12 3 -44 8 -70 11 -46 6 -48 5 -48 -19 0 -29 3 -31 32 -15 13 7 18 7 14 1 -3 -6 -2 -13 4 -17 5 -3 10 1 10 10 0 9 4 13 10 10 19 -12 50 -14 50 -3 0 6 3 8 6 5 4 -4 2 -13 -4 -20 -9 -11 -6 -13 16 -12 15 1 19 0 9 -2 -9 -2 -15 -9 -12 -14 10 -15 -22 -10 -39 6 -19 19 -30 19 -46 0 -19 -23 -32 -18 -19 8 12 21 11 21 -8 4 -11 -9 -23 -14 -26 -10 -4 3 -7 4 -7 0 0 -3 10 -15 21 -26 20 -18 23 -19 45 -4 15 9 24 11 24 4 0 -6 -8 -11 -17 -11 -14 0 -15 -2 -4 -12 10 -11 15 -10 24 2 15 19 47 22 47 4 0 -8 5 -14 11 -14 5 0 7 -5 3 -12 -5 -7 -2 -9 8 -5 9 3 21 0 27 -6 8 -8 11 -8 11 1 0 7 6 11 13 10 6 -2 11 3 9 10 -1 6 3 11 10 10 6 -2 14 5 16 16 3 13 0 16 -10 11 -10 -6 -11 -5 0 6 17 19 16 45 -2 30 -10 -9 -16 -8 -26 4 -9 10 -9 15 -1 15 6 0 11 -5 11 -11 0 -6 7 -3 16 5 17 17 25 20 23 9 -3 -20 2 -26 11 -13 9 13 10 13 10 -1 0 -8 -6 -21 -12 -29 -11 -12 -10 -12 5 -1 9 7 17 19 17 26 0 18 23 25 78 25 68 0 92 9 84 28 -5 14 -3 15 9 5 13 -10 23 -5 57 30 24 24 39 47 35 51 -5 4 -1 6 7 4 8 -2 14 3 12 10 -1 8 1 11 6 8 5 -3 22 3 39 14 22 13 34 15 41 8 8 -8 9 -4 5 11 -3 13 1 29 11 40 9 9 17 29 18 44 2 21 7 25 30 25 16 -1 31 2 35 5 3 4 -3 7 -15 7 -14 0 -20 6 -19 19 1 16 5 18 19 10 10 -6 23 -7 28 -4 6 3 10 -1 10 -9 0 -9 4 -16 10 -16 5 0 7 7 3 16 -4 10 1 20 12 26 23 13 3 27 -30 20 -16 -3 -22 -9 -18 -21 3 -11 -2 -9 -15 6 -16 18 -22 20 -31 10 -6 -8 -9 -23 -6 -35 2 -15 0 -19 -11 -15 -7 3 -11 10 -7 17 4 6 0 6 -9 -2 -10 -8 -19 -9 -22 -3 -4 5 3 12 14 16 11 3 20 14 20 23 0 13 -2 14 -9 4 -6 -10 -21 -12 -56 -6 -38 5 -46 4 -40 -6 6 -10 4 -12 -8 -7 -10 3 -17 3 -17 -1 0 -4 -18 -6 -40 -4 l-41 4 26 24 c22 20 24 26 13 44 -7 11 -21 23 -30 26 -10 3 -18 9 -18 14 0 5 -8 11 -17 14 -14 4 -14 4 2 3 11 -1 26 2 32 6 7 5 29 3 49 -2 28 -8 43 -7 64 4 15 8 31 11 34 7 4 -3 11 0 16 8 7 11 10 12 10 2 0 -9 7 -11 20 -7 13 4 22 1 26 -9 3 -9 11 -13 17 -9 6 4 8 0 4 -10 -3 -10 -4 -17 -1 -17 2 0 9 12 14 26 9 22 14 25 39 19 25 -5 32 -2 44 21 13 26 14 26 20 5 3 -11 1 -21 -4 -21 -6 0 -4 -6 3 -14 11 -12 14 -12 21 0 4 7 19 13 32 12 18 -2 21 -5 13 -15 -8 -10 -7 -13 5 -13 8 0 21 -7 28 -16 9 -12 3 -10 -24 5 -42 23 -51 26 -42 11 7 -12 -18 -14 -29 -2 -4 4 -20 8 -34 8 -15 1 -34 3 -42 6 -8 3 -12 3 -8 1 4 -2 4 -12 1 -21 -6 -15 -4 -15 9 -4 11 9 18 10 23 2 7 -11 5 -11 -35 -16 -61 -8 -106 -7 -118 0 -8 5 -19 3 -25 -4 -10 -10 -8 -11 8 -6 17 6 16 4 -5 -21 -14 -15 -17 -21 -8 -14 10 7 29 11 44 8 18 -3 24 -1 20 9 -5 13 30 14 51 1 6 -4 13 -3 15 2 3 9 38 18 76 20 7 1 11 5 8 10 -3 4 6 6 20 3 20 -3 23 -7 12 -14 -12 -9 15 -3 50 9 6 3 12 0 12 -6 0 -6 16 -10 35 -9 26 1 32 4 24 14 -7 8 -6 13 3 17 7 2 -1 7 -19 11 -26 6 -30 10 -20 20 9 11 14 10 25 -3 10 -12 14 -13 19 -3 4 10 8 10 19 1 8 -6 11 -16 7 -23 -3 -6 -2 -8 2 -3 5 4 18 -1 29 -10 12 -10 3 2 -19 25 -38 41 -53 53 -40 32 11 -18 -10 -10 -49 20 -22 17 -48 30 -58 30 -10 0 -18 4 -18 9 0 11 -99 42 -145 46 -16 2 -36 -2 -44 -9 -11 -8 -13 -8 -8 1 4 6 1 13 -5 16 -17 5 -48 -3 -48 -13 0 -5 8 -10 18 -12 14 -3 13 -5 -5 -10 -19 -5 -21 -2 -18 23 2 16 0 29 -5 29 -6 0 -10 4 -10 9 0 5 10 7 23 5 12 -2 15 -1 7 2 -8 4 -21 12 -29 18 -11 8 -13 8 -7 -1z m6 -57 c0 -9 -30 -14 -35 -6 -4 6 3 10 14 10 12 0 21 -2 21 -4z m161 -24 c-7 -2 -18 1 -23 6 -8 8 -4 9 13 5 13 -4 18 -8 10 -11z m-184 -54 c-3 -8 -6 -5 -6 6 -1 11 2 17 5 13 3 -3 4 -12 1 -19z m-72 2 c-3 -5 -12 -10 -18 -10 -7 0 -6 4 3 10 19 12 23 12 15 0z m312 4 c-3 -3 -12 -4 -19 -1 -8 3 -5 6 6 6 11 1 17 -2 13 -5z m-467 -24 c8 -5 11 -10 5 -10 -5 0 -17 5 -25 10 -8 5 -10 10 -5 10 6 0 17 -5 25 -10z m73 -2 c27 -13 36 -28 16 -28 -5 0 -8 -4 -5 -9 4 -5 -5 -4 -19 2 -21 10 -22 13 -7 18 14 6 13 9 -8 17 -14 6 -20 11 -14 11 5 1 22 -5 37 -11z m190 -3 c-3 -9 -8 -14 -10 -11 -3 3 -2 9 2 15 9 16 15 13 8 -4z m-97 -7 c5 -8 2 -9 -9 -5 -9 3 -19 2 -22 -3 -4 -6 -11 -10 -17 -10 -7 0 -6 6 2 15 15 18 36 19 46 3z m-46 -77 c0 -13 -61 -51 -83 -51 -14 0 -6 37 11 52 34 30 72 30 72 -1z m90 -120 c0 -13 -2 -13 -9 -2 -5 8 -16 11 -25 8 -15 -6 -22 4 -10 15 11 11 44 -5 44 -21z m35 -1 c-3 -5 -11 -10 -16 -10 -6 0 -7 5 -4 10 3 6 11 10 16 10 6 0 7 -4 4 -10z m-57 -12 c-2 -6 -23 -11 -46 -10 -60 1 -63 4 -12 12 25 4 49 8 53 8 5 1 7 -3 5 -10z m-121 -4 c-3 -3 -12 -4 -19 -1 -8 3 -5 6 6 6 11 1 17 -2 13 -5z m191 -63 c-12 -4 -29 20 -21 32 3 4 11 0 18 -10 9 -12 10 -19 3 -22z m-183 -70 c-3 -6 -14 -9 -25 -8 -24 2 -15 17 11 17 11 0 18 -4 14 -9z m-40 -61 c3 -5 1 -10 -4 -10 -6 0 -11 5 -11 10 0 6 2 10 4 10 3 0 8 -4 11 -10z m-185 -90 c0 -5 -10 -10 -22 -9 -22 0 -22 1 -3 9 11 5 21 9 23 9 1 1 2 -3 2 -9z M888 1613 c7 -3 16 -2 19 1 4 3 -2 6 -13 5 -11 0 -14 -3 -6 -6z M1028 1603 c7 -3 16 -2 19 1 4 3 -2 6 -13 5 -11 0 -14 -3 -6 -6z M730 1586 c0 -2 7 -7 16 -10 8 -3 12 -2 9 4 -6 10 -25 14 -25 6z M629 1523 c-13 -16 -12 -17 4 -4 9 7 17 15 17 17 0 8 -8 3 -21 -13z M966 1442 c-4 -7 2 -13 16 -16 40 -7 68 -5 68 6 0 6 -15 8 -35 6 -19 -2 -36 1 -38 6 -2 6 -6 5 -11 -2z M836 1432 c-3 -5 1 -9 9 -9 8 0 12 4 9 9 -3 4 -7 8 -9 8 -2 0 -6 -4 -9 -8z M1171 1390 c-9 -5 -5 -9 10 -13 28 -7 31 -6 14 10 -6 6 -18 8 -24 3z M888 1383 c7 -3 16 -2 19 1 4 3 -2 6 -13 5 -11 0 -14 -3 -6 -6z M1370 1379 c0 -5 -4 -7 -10 -4 -5 3 -10 1 -10 -5 0 -7 -8 -9 -20 -5 -11 3 -20 2 -20 -4 0 -19 18 -21 49 -5 30 15 42 34 21 34 -5 0 -10 -5 -10 -11z M1405 1358 c0 -25 -4 -33 -17 -32 -10 1 -18 -3 -18 -8 0 -6 9 -8 20 -5 13 3 20 0 20 -9 0 -7 -6 -11 -14 -8 -7 3 -16 -2 -19 -10 -4 -10 -1 -13 9 -9 17 6 18 -26 4 -135 -10 -73 -22 -97 -50 -100 -56 -7 -85 -11 -87 -12 -2 -2 -8 -3 -15 -4 -6 0 -13 -7 -16 -15 -3 -9 0 -11 7 -7 7 4 19 2 28 -6 14 -11 16 -11 8 1 -6 11 -4 13 7 8 9 -3 27 1 42 8 14 8 26 10 26 5 0 -4 3 -15 6 -24 3 -9 1 -16 -5 -16 -6 0 -11 7 -11 16 0 8 -5 12 -10 9 -6 -4 -8 -11 -5 -16 6 -9 -7 -13 -35 -10 -10 1 -6 -6 10 -20 23 -20 25 -20 37 -2 13 17 13 16 10 -4 -1 -11 -8 -28 -15 -35 -6 -8 -9 -18 -5 -21 3 -4 -1 -7 -10 -7 -14 0 -15 5 -7 26 9 22 8 25 -9 19 -11 -3 -24 1 -32 12 -12 14 -12 16 0 8 10 -6 12 -4 7 4 -5 7 -10 10 -13 7 -3 -3 -14 -1 -24 4 -20 11 -40 -7 -21 -19 7 -4 -2 -12 -19 -18 -31 -12 -31 -12 -14 7 21 23 10 27 -14 6 -22 -19 -87 -10 -70 10 9 11 8 14 -5 14 -9 0 -23 -17 -33 -37 -9 -21 -19 -42 -21 -47 -3 -5 0 -6 6 -2 5 3 13 -1 16 -10 4 -9 2 -13 -5 -8 -6 4 -16 0 -21 -7 -8 -11 -8 -10 -4 4 4 12 2 17 -6 14 -7 -2 -12 -12 -12 -21 1 -9 -6 -16 -15 -16 -14 0 -14 -2 -1 -10 12 -8 9 -10 -12 -10 -16 0 -28 -5 -28 -11 0 -5 5 -7 10 -4 6 3 10 1 10 -4 0 -6 -13 -11 -29 -11 -16 0 -35 -8 -42 -17 -11 -15 -11 -16 1 -5 18 15 60 16 60 0 0 -6 3 -8 8 -4 7 7 8 11 11 37 2 22 56 4 69 -23 7 -16 18 -28 25 -27 9 0 9 2 0 6 -10 3 -10 8 1 19 18 17 32 18 42 2 5 -7 3 -8 -5 -3 -19 11 -10 -47 9 -62 13 -11 13 -12 -3 -13 -10 0 -15 -4 -12 -10 3 -5 -1 -10 -9 -10 -9 0 -16 8 -17 18 0 14 -2 14 -8 -3 -6 -16 -4 -21 13 -26 11 -3 26 -2 33 3 6 5 14 5 16 1 7 -11 -87 -76 -108 -76 -8 0 -15 -5 -15 -10 0 -5 -6 -4 -13 2 -8 6 -16 8 -19 5 -3 -3 -19 -7 -34 -8 -16 -2 -38 -5 -49 -6 -12 -2 -7 -5 15 -10 31 -7 28 -8 -23 -9 -42 -1 -56 2 -51 11 5 8 0 9 -14 6 -12 -4 -22 -2 -22 4 0 5 -4 7 -9 4 -5 -4 -34 -7 -65 -7 -34 -1 -56 -6 -56 -13 0 -6 -4 -5 -9 3 -6 9 -11 10 -15 2 -9 -14 6 -16 61 -8 18 3 36 0 39 -5 4 -6 3 -8 -2 -5 -6 3 -16 2 -24 -4 -12 -7 -10 -9 8 -9 13 0 30 7 39 16 11 11 19 12 26 5 6 -6 43 -11 83 -11 55 0 73 4 78 15 4 11 10 13 23 6 10 -5 86 -14 168 -20 l150 -11 57 60 c66 68 117 156 149 255 19 57 23 92 23 185 0 129 -14 188 -67 284 -39 70 -52 78 -52 34z m-171 -438 c-5 -5 -16 -5 -24 1 -13 9 -12 10 3 5 11 -4 17 0 18 12 0 12 2 13 6 4 3 -8 1 -18 -3 -22z m-103 -19 c-6 -10 -7 -22 -3 -26 4 -5 2 -5 -5 -1 -16 9 -12 46 4 46 10 0 11 -5 4 -19z m159 11 c0 -13 -12 -22 -22 -16 -10 6 -1 24 13 24 5 0 9 -4 9 -8z m-93 -9 c-4 -3 -2 -12 4 -19 7 -8 6 -14 -2 -20 -8 -4 -9 -3 -5 4 7 12 -1 15 -36 15 -10 0 -18 4 -18 9 0 6 6 8 13 5 8 -3 20 -1 28 4 17 10 25 12 16 2z m38 -13 c3 -6 -1 -7 -9 -4 -18 7 -21 14 -7 14 6 0 13 -4 16 -10z m55 -15 c5 3 10 4 10 1 0 -3 -9 -10 -19 -15 -15 -9 -20 -7 -24 10 -4 16 -3 18 8 9 8 -7 19 -9 25 -5z m-190 -5 c0 -5 -2 -10 -4 -10 -3 0 -8 5 -11 10 -3 6 -1 10 4 10 6 0 11 -4 11 -10z m130 -41 c0 -3 -6 -6 -14 -6 -7 0 -12 7 -11 16 2 9 4 18 4 21 2 6 21 -23 21 -31z m-164 2 c-4 -6 -14 -7 -23 -4 -15 6 -14 7 3 13 22 9 29 6 20 -9z m59 -1 c-3 -5 -16 -10 -28 -9 -20 1 -20 2 3 9 14 4 26 8 28 9 2 1 0 -3 -3 -9z m105 -52 c0 -5 -5 -8 -11 -8 -6 0 -9 -7 -5 -15 4 -11 -1 -15 -18 -15 -14 0 -23 -6 -23 -15 0 -11 4 -12 11 -5 5 5 14 10 19 10 5 0 -5 -11 -21 -25 -33 -28 -44 -31 -41 -12 3 25 -1 38 -11 32 -5 -3 -10 -2 -10 3 0 18 22 72 30 72 8 0 24 -30 22 -42 -1 -4 4 -5 11 -2 7 2 13 15 14 27 0 12 -1 16 -4 10 -3 -7 -9 -13 -15 -13 -6 0 -6 6 2 15 9 11 16 12 31 2 10 -6 19 -15 19 -19z M560 1370 c-8 -5 -12 -12 -9 -15 4 -3 12 1 19 10 14 17 11 19 -10 5z M1106 1368 c3 -4 9 -8 15 -8 5 0 9 4 9 8 0 5 -7 9 -15 9 -8 0 -12 -4 -9 -9z M1262 1361 c-8 -4 -14 -12 -15 -17 -1 -4 -17 -8 -35 -7 -18 0 -30 -2 -27 -5 2 -3 -1 -12 -8 -20 -10 -13 -9 -15 4 -10 9 4 22 1 29 -5 10 -9 11 -9 6 1 -5 8 1 12 19 12 14 0 28 7 32 16 5 15 7 15 15 0 5 -9 19 -16 31 -15 15 0 17 2 7 6 -21 8 -50 40 -43 47 9 9 0 7 -15 -3z m-35 -37 c-3 -3 -12 -4 -19 -1 -8 3 -5 6 6 6 11 1 17 -2 13 -5z M584 1349 c-3 -5 9 -9 25 -9 17 0 31 2 31 4 0 8 -51 13 -56 5z M1330 1291 c0 -6 -8 -8 -17 -4 -10 3 -15 3 -12 -1 10 -11 49 -16 49 -6 0 5 -4 12 -10 15 -5 3 -10 2 -10 -4z M1184 1279 c-5 -8 -3 -9 6 -4 10 6 12 4 7 -8 -3 -9 -1 -19 5 -23 6 -4 8 -3 4 4 -3 5 -1 12 5 14 7 2 6 8 -4 16 -12 10 -17 10 -23 1z M618 1258 c3 -13 7 -16 12 -8 5 8 9 7 13 -4 3 -8 1 -17 -6 -20 -7 -2 -4 -5 6 -5 11 -1 17 6 17 19 0 11 1 23 3 28 1 4 -10 7 -24 8 -21 1 -25 -3 -21 -18z M580 1250 c-12 -8 -12 -10 3 -16 9 -3 17 -12 17 -20 0 -9 10 -14 28 -13 16 1 20 3 10 6 -10 2 -21 15 -24 29 -7 26 -12 28 -34 14z M1125 1251 c-6 -11 13 -26 22 -17 4 3 0 6 -8 6 -11 0 -11 2 1 10 9 6 10 10 3 10 -6 0 -14 -4 -18 -9z M504 1223 c-8 -9 -12 -18 -9 -22 4 -3 12 2 20 12 10 15 14 15 18 3 4 -9 14 -12 26 -9 26 7 19 19 -14 26 -16 2 -32 -2 -41 -10z M1345 1190 c-3 -5 -13 -6 -22 -3 -11 4 -14 3 -9 -5 4 -7 2 -12 -3 -12 -6 0 -11 5 -11 10 0 6 -5 10 -10 10 -7 0 -7 -6 -1 -19 7 -13 18 -17 36 -13 14 2 23 7 21 10 -3 3 -1 11 5 19 6 7 9 13 6 13 -3 0 -8 -4 -12 -10z M1366 1184 c-10 -25 1 -29 14 -5 6 12 7 21 1 21 -5 0 -12 -7 -15 -16z M1168 1178 c-16 -5 -28 -17 -28 -25 0 -11 -6 -8 -20 8 -10 13 -19 19 -20 13 0 -6 -15 -10 -35 -9 -21 2 -32 -1 -29 -7 4 -5 21 -8 40 -6 22 3 35 -1 39 -10 5 -13 14 -13 113 4 34 6 35 8 12 14 -14 3 -27 4 -30 1 -8 -10 -50 -9 -50 0 0 5 9 9 20 9 11 0 20 5 20 10 0 6 -1 10 -2 9 -2 0 -15 -5 -30 -11z M535 1170 c-3 -6 1 -7 9 -4 18 7 21 14 7 14 -6 0 -13 -4 -16 -10z M571 1169 c3 -26 -1 -39 -12 -39 -5 0 -7 5 -4 10 3 6 -1 10 -9 10 -9 0 -16 -8 -17 -17 0 -14 -2 -14 -9 3 -5 12 -14 25 -21 30 -8 5 -10 3 -4 -6 6 -10 4 -12 -8 -7 -9 3 -19 2 -22 -3 -3 -4 6 -7 20 -5 21 2 24 -1 20 -16 -4 -13 -1 -19 9 -19 9 0 16 -5 16 -10 0 -13 32 -9 42 5 5 6 8 5 8 -2 0 -7 5 -13 11 -13 5 0 7 5 4 10 -3 6 -1 10 4 10 6 0 11 -4 11 -9 0 -11 49 -11 56 0 6 10 -37 29 -48 22 -5 -2 -8 8 -9 24 0 25 -1 26 -9 8 -7 -16 -9 -17 -9 -3 -1 9 -6 20 -12 23 -6 4 -10 1 -8 -6z M1031 1126 c-9 -11 -9 -16 0 -22 8 -4 9 -3 5 4 -5 8 0 12 13 12 11 0 23 5 26 10 10 16 -31 12 -44 -4z M1090 1133 c0 -5 5 -15 10 -23 8 -12 10 -11 10 8 0 12 -4 22 -10 22 -5 0 -10 -3 -10 -7z M450 1122 c0 -10 43 -37 55 -33 6 1 4 -3 -3 -11 -8 -8 -15 -9 -20 -3 -4 6 -14 10 -22 10 -8 0 -18 3 -21 8 -3 5 -9 1 -12 -8 -4 -9 -3 -13 2 -10 5 3 12 1 15 -4 8 -12 105 -11 113 2 4 6 0 8 -10 4 -9 -3 -18 0 -21 9 -3 8 -12 14 -20 14 -7 0 -16 7 -20 15 -5 15 -36 21 -36 7z M1119 1094 c-10 -13 -10 -17 1 -24 8 -5 17 -6 20 -3 3 3 -1 8 -8 10 -10 4 -10 8 -1 19 6 8 9 14 6 14 -2 0 -10 -7 -18 -16z M600 1071 c0 -7 -4 -9 -10 -6 -5 3 -10 1 -10 -5 0 -6 15 -10 34 -8 19 1 33 5 30 9 -2 4 2 10 8 12 9 4 10 6 1 6 -6 1 -15 -4 -18 -9 -5 -8 -11 -7 -21 1 -11 9 -14 9 -14 0z M364 1048 l-19 -23 23 19 c21 18 27 26 19 26 -2 0 -12 -10 -23 -22z M1298 1063 c7 -3 16 -2 19 1 4 3 -2 6 -13 5 -11 0 -14 -3 -6 -6z M427 1053 c10 -3 10 -10 2 -26 -9 -20 -9 -20 4 -4 8 9 20 17 28 18 15 0 -20 18 -36 18 -5 -1 -4 -3 2 -6z M385 1030 c-3 -6 1 -7 9 -4 18 7 21 14 7 14 -6 0 -13 -4 -16 -10z M1139 1014 c-7 -8 -18 -13 -25 -10 -7 3 -16 1 -19 -5 -4 -5 -11 -7 -16 -4 -5 4 -9 1 -9 -6 0 -6 8 -9 20 -6 11 3 20 2 20 -1 0 -4 11 -12 25 -19 20 -9 25 -8 25 3 0 8 5 14 11 14 5 0 7 6 3 13 -5 7 0 6 11 -3 11 -9 16 -10 11 -2 -4 7 -2 12 4 12 7 0 10 5 8 11 -6 18 -55 19 -69 3z M342 990 c0 -19 2 -27 5 -17 2 9 2 25 0 35 -3 9 -5 1 -5 -18z M465 880 c-3 -5 -1 -10 4 -10 6 0 11 5 11 10 0 6 -2 10 -4 10 -3 0 -8 -4 -11 -10z M1000 796 c0 -2 7 -6 15 -10 8 -3 15 -1 15 4 0 6 -7 10 -15 10 -8 0 -15 -2 -15 -4z M1060 730 c0 -5 5 -10 10 -10 6 0 10 5 10 10 0 6 -4 10 -10 10 -5 0 -10 -4 -10 -10z M756 663 c-6 -14 -5 -15 5 -6 7 7 10 15 7 18 -3 3 -9 -2 -12 -12z M924 669 c1 -7 9 -13 18 -15 11 -1 15 3 11 13 -4 11 -8 12 -13 3 -6 -9 -9 -9 -13 -1 -4 8 -5 8 -3 0z M611 538 c-1 -10 6 -18 14 -18 8 0 15 5 15 11 0 5 -4 8 -9 5 -5 -4 -12 0 -14 6 -3 8 -6 6 -6 -4z M658 533 c6 -2 18 -2 25 0 6 3 1 5 -13 5 -14 0 -19 -2 -12 -5z M923 513 c42 -2 112 -2 155 0 42 1 7 3 -78 3 -85 0 -120 -2 -77 -3z M748 503 c7 -3 16 -2 19 1 4 3 -2 6 -13 5 -11 0 -14 -3 -6 -6z M1238 503 c7 -3 16 -2 19 1 4 3 -2 6 -13 5 -11 0 -14 -3 -6 -6z M678 493 c7 -3 16 -2 19 1 4 3 -2 6 -13 5 -11 0 -14 -3 -6 -6z M1308 493 c7 -3 16 -2 19 1 4 3 -2 6 -13 5 -11 0 -14 -3 -6 -6z M790 480 c-8 -5 -12 -11 -9 -14 3 -3 14 1 25 9 21 16 8 20 -16 5z M723 468 c0 -7 -4 -22 -8 -33 -5 -14 -4 -16 3 -7 5 8 12 13 16 13 23 -3 30 0 16 9 -13 9 -13 11 0 20 12 8 11 10 -6 10 -11 0 -21 -6 -21 -12z M662 450 c0 -14 2 -19 5 -12 2 6 2 18 0 25 -3 6 -5 1 -5 -13z M1320 458 c0 -6 -11 -8 -25 -6 -14 3 -25 2 -25 -3 0 -15 -42 -22 -51 -8 -7 11 -9 11 -9 -2 0 -9 -7 -16 -15 -16 -11 0 -12 4 -4 14 19 22 1 15 -21 -9 -11 -12 -20 -18 -20 -14 0 5 -8 2 -17 -5 -13 -11 -15 -11 -9 -1 6 10 -4 13 -44 11 -28 -2 -54 -7 -57 -12 -3 -6 -2 -7 4 -4 5 3 10 0 10 -8 0 -10 -5 -11 -19 -4 -13 7 -20 6 -23 -4 -3 -7 -18 -12 -35 -11 -17 1 -30 -2 -30 -8 0 -5 -4 -6 -10 -3 -5 3 -10 1 -10 -5 0 -8 14 -10 43 -6 37 5 40 4 24 -8 -16 -13 -14 -14 25 -12 24 2 53 -1 65 -5 14 -5 25 -4 29 2 3 6 15 9 25 6 10 -3 17 -2 16 2 -3 8 7 11 34 11 11 0 17 -4 14 -10 -3 -6 1 -7 9 -4 9 3 16 12 16 20 0 8 7 14 15 14 8 0 15 -4 15 -10 0 -5 -5 -10 -12 -10 -6 0 -8 -3 -5 -7 9 -9 48 27 41 38 -3 5 -10 7 -15 4 -5 -4 -6 2 -2 11 4 10 8 13 10 7 3 -7 12 -9 21 -5 16 6 16 4 1 -19 -17 -25 -17 -25 17 -25 38 0 38 -1 23 29 -10 21 -10 21 5 3 9 -11 16 -26 16 -33 0 -7 5 -13 10 -13 6 0 9 5 8 12 -3 12 3 14 43 17 18 1 19 3 9 16 -8 9 -8 15 -2 15 6 0 12 -5 14 -11 2 -7 13 -9 27 -4 18 6 21 9 10 16 -10 6 -11 9 -1 9 25 0 11 18 -28 34 -51 20 -110 28 -110 14z m-229 -57 c-8 -5 -20 -7 -28 -4 -21 8 -15 13 15 13 20 0 23 -3 13 -9z m134 -11 c-3 -5 -13 -10 -21 -10 -8 0 -12 -4 -9 -10 3 -5 4 -10 1 -10 -17 0 -13 22 6 29 30 13 30 13 23 1z m150 0 c3 -6 -4 -10 -17 -10 -18 0 -20 2 -8 10 19 12 18 12 25 0z m-210 -10 c3 -6 -4 -10 -17 -10 -18 0 -20 2 -8 10 19 12 18 12 25 0z m-55 -10 c0 -5 -5 -10 -11 -10 -5 0 -7 5 -4 10 3 6 8 10 11 10 2 0 4 -4 4 -10z m-57 -17 c-7 -2 -21 -2 -30 0 -10 3 -4 5 12 5 17 0 24 -2 18 -5z M748 409 c-10 -5 -18 -7 -18 -3 0 3 -7 1 -15 -6 -8 -7 -15 -9 -15 -5 0 4 -7 2 -15 -5 -13 -11 -15 -10 -9 6 5 16 4 17 -5 3 -8 -12 -23 -16 -56 -14 -25 2 -43 0 -40 -5 3 -5 -14 -8 -38 -7 -52 1 -62 -5 -75 -42 -9 -26 -8 -29 5 -24 10 4 14 2 10 -3 -4 -7 12 -8 44 -4 39 5 49 4 45 -7 -4 -9 4 -13 28 -13 20 0 36 6 39 14 6 15 84 13 99 -2 4 -4 -8 -6 -27 -4 -21 3 -35 0 -35 -7 0 -6 -3 -10 -7 -9 -5 2 -9 0 -10 -4 -6 -17 -2 -28 9 -28 6 0 9 3 5 6 -10 10 16 30 41 31 16 1 22 -3 20 -14 -2 -9 3 -18 10 -20 7 -3 10 1 6 11 -4 11 0 16 12 17 11 0 14 3 7 6 -7 2 -13 13 -13 24 0 13 5 17 17 12 13 -5 15 -2 10 11 -5 13 -3 17 7 13 7 -3 19 0 25 6 6 6 11 8 11 5 0 -4 -8 -15 -17 -24 -16 -15 -16 -17 -2 -12 9 4 21 2 26 -3 6 -6 15 -3 24 8 13 16 12 17 -3 5 -9 -8 -19 -9 -22 -4 -8 13 20 35 34 27 5 -3 10 -2 10 4 0 6 6 8 14 5 11 -4 13 0 9 16 -4 16 -8 18 -14 8 -5 -7 -18 -14 -29 -14 -16 -1 -19 3 -15 20 2 11 2 15 -1 8 -3 -6 -10 -10 -14 -7 -5 3 -12 0 -16 -6 -5 -8 -3 -9 6 -4 9 5 11 4 6 -3 -11 -19 -26 -14 -26 8 0 11 -7 20 -16 20 -8 0 -12 5 -9 10 8 12 5 12 -17 -1z m-218 -81 c0 -10 -46 -5 -57 5 -4 4 7 7 25 5 18 -1 32 -6 32 -10z m55 2 c-3 -5 -12 -10 -18 -10 -7 0 -6 4 3 10 19 12 23 12 15 0z M1436 364 c-23 -23 -20 -30 4 -9 11 10 20 20 20 22 0 7 -9 2 -24 -13z M1290 340 c0 -5 5 -10 10 -10 6 0 10 5 10 10 0 6 -4 10 -10 10 -5 0 -10 -4 -10 -10z M1542 341 c-11 -7 -11 -9 0 -13 8 -4 14 -26 16 -64 1 -33 -1 -54 -6 -47 -5 8 -13 9 -22 3 -8 -6 -72 -10 -142 -10 -115 0 -128 2 -129 18 0 15 -1 15 -8 -2 -5 -14 -10 -16 -15 -8 -4 7 -12 12 -17 12 -6 0 -7 -4 -4 -10 4 -6 -8 -10 -30 -10 -20 0 -34 4 -31 8 3 5 -1 9 -9 9 -8 0 -11 -5 -8 -10 4 -6 -1 -8 -11 -4 -10 4 -20 7 -22 7 -3 0 -2 6 2 13 4 6 -2 4 -12 -5 -19 -16 -50 -18 -337 -18 l-316 0 -4 58 -4 57 1 -60 1 -60 565 0 565 0 3 50 c4 62 -8 98 -26 86z M928 333 c7 -3 16 -2 19 1 4 3 -2 6 -13 5 -11 0 -14 -3 -6 -6z M1339 313 c-13 -16 -12 -17 4 -4 9 7 17 15 17 17 0 8 -8 3 -21 -13z M1387 314 c3 -8 10 -11 16 -7 6 3 7 1 3 -5 -5 -9 -13 -9 -26 -2 -15 8 -21 6 -30 -10 -6 -11 -8 -25 -5 -30 3 -6 1 -10 -4 -10 -6 0 -11 5 -11 11 0 5 -5 7 -10 4 -6 -4 -8 -11 -4 -16 6 -11 62 -5 72 7 4 4 -1 4 -12 0 -14 -5 -17 -3 -12 10 3 8 6 18 6 20 0 2 5 4 11 4 5 0 7 -4 4 -10 -3 -6 1 -7 9 -4 11 4 16 0 16 -11 0 -9 4 -14 9 -11 5 3 9 21 9 38 0 27 -4 33 -23 34 -16 1 -22 -3 -18 -12z M1188 313 c7 -3 16 -2 19 1 4 3 -2 6 -13 5 -11 0 -14 -3 -6 -6z M1444 312 c3 -5 0 -13 -6 -15 -9 -4 -10 -6 -1 -6 17 -1 25 16 12 25 -7 4 -9 3 -5 -4z M1515 310 c-3 -5 -1 -10 4 -10 6 0 11 5 11 10 0 6 -2 10 -4 10 -3 0 -8 -4 -11 -10z M1070 300 c0 -6 7 -10 15 -10 8 0 15 2 15 4 0 2 -7 6 -15 10 -8 3 -15 1 -15 -4z M1116 301 c-4 -5 3 -7 14 -4 23 6 26 13 6 13 -8 0 -17 -4 -20 -9z M768 293 c7 -3 16 -2 19 1 4 3 -2 6 -13 5 -11 0 -14 -3 -6 -6z M528 283 c7 -3 16 -2 19 1 4 3 -2 6 -13 5 -11 0 -14 -3 -6 -6z M580 250 c-12 -8 -10 -10 8 -10 13 0 20 4 17 10 -7 12 -6 12 -25 0z M1275 250 c-3 -6 1 -7 9 -4 18 7 21 14 7 14 -6 0 -13 -4 -16 -10z"/>
    </g>
    <g transform="translate(0.000000,200.000000) scale(0.100000,-0.100000)" fill="#171412" stroke="none">
      <path d="M690 1810 c-6 -11 -13 -63 -17 -115 -5 -81 -9 -98 -25 -106 -41 -22 -100 -85 -122 -128 -13 -25 -40 -90 -60 -144 -46 -119 -74 -171 -126 -230 -34 -39 -40 -52 -40 -91 0 -98 41 -140 158 -165 29 -6 66 -18 82 -26 l29 -15 56 69 c54 67 56 68 111 75 73 8 106 26 183 99 60 58 64 60 77 42 16 -22 18 -63 5 -97 -14 -37 -87 -104 -191 -176 -160 -111 -240 -199 -240 -264 0 -18 -13 -30 -53 -51 -94 -50 -130 -122 -125 -250 l3 -72 605 0 605 0 3 72 c3 88 -9 137 -45 186 -30 39 -122 92 -180 103 l-34 6 36 36 c75 76 143 201 170 316 20 82 19 234 -1 315 -60 244 -261 412 -545 456 -24 4 -63 28 -125 78 -49 41 -99 79 -111 85 -33 18 -71 15 -83 -8z m160 -105 c73 -59 115 -87 140 -91 170 -27 283 -78 374 -168 65 -64 122 -162 147 -251 23 -81 18 -256 -10 -340 -32 -98 -83 -186 -149 -256 l-57 -59 -110 10 c-126 12 -373 4 -490 -16 -43 -7 -81 -11 -83 -9 -2 2 1 19 7 37 15 46 82 108 234 218 71 51 141 110 158 133 54 75 57 139 9 207 -21 29 -22 29 -48 13 -15 -9 -54 -42 -87 -74 -69 -66 -96 -79 -169 -79 l-52 0 -53 -65 c-36 -46 -57 -64 -69 -61 -9 3 -46 12 -80 21 -80 20 -99 32 -112 69 -16 47 -12 73 19 108 53 61 91 131 143 267 44 114 60 143 98 181 25 25 60 53 78 62 l32 17 0 99 c0 91 4 112 19 112 4 0 53 -38 111 -85z m449 -1205 c191 -33 278 -112 269 -246 l-3 -49 -565 0 -565 0 -3 49 c-2 29 3 67 12 91 39 101 134 144 371 169 71 7 418 -3 484 -14z M770 1412 c-26 -8 -50 -34 -50 -54 0 -22 4 -22 51 0 51 23 50 71 -1 54z"/>
    </g>
  </g>
</svg>
