<svg xmlns="http://www.w3.org/2000/svg" viewBox="0 0 200 200" role="img" aria-labelledby="title">
  <title id="title">Buschkrieger White King</title>
  <g shape-rendering="geometricPrecision">
    <g transform="translate(0.000000,200.000000) scale(0.100000,-0.100000)" fill="#f2f1ec" stroke="none">
      <path d="M994 1925 c-15 -29 -27 -41 -47 -43 -25 -3 -27 -6 -27 -53 l0 -51 -27 32 c-14 17 -39 44 -55 60 -31 32 -36 22 -17 -40 19 -65 19 -70 -2 -70 -12 0 -19 -7 -19 -20 0 -21 -7 -21 -72 -3 -10 2 2 -15 27 -39 31 -30 45 -51 45 -70 0 -27 1 -28 60 -28 33 0 60 -4 60 -10 0 -5 -8 -10 -17 -10 -9 0 -44 -8 -77 -17 l-61 -17 40 -8 c22 -4 57 -7 78 -7 30 -1 37 -5 37 -21 0 -11 -12 -27 -26 -37 -31 -20 -74 -105 -74 -148 0 -16 -3 -40 -6 -51 l-6 -22 -41 23 c-200 111 -437 46 -526 -144 -23 -49 -26 -69 -26 -157 0 -98 1 -103 42 -185 48 -97 123 -185 212 -249 l62 -45 -28 -12 c-15 -7 -39 -13 -53 -14 -17 -1 -20 -3 -7 -6 22 -6 22 -10 -8 -45 -33 -39 -46 -94 -43 -181 l3 -72 605 0 605 0 3 72 c2 40 -2 90 -7 111 -13 48 -56 105 -98 129 l-33 19 62 44 c88 65 163 153 211 249 41 82 42 87 42 185 0 88 -3 108 -26 157 -89 190 -326 255 -526 144 l-41 -23 -6 22 c-3 11 -6 35 -6 51 0 43 -43 128 -74 148 -16 11 -26 26 -26 42 0 24 2 25 73 25 l72 1 -35 15 c-19 9 -53 22 -75 29 l-40 13 63 1 c61 1 62 1 62 29 0 33 53 102 79 103 9 0 11 3 4 5 -6 3 -28 1 -47 -5 -32 -8 -36 -7 -36 10 0 12 -7 19 -19 19 -17 0 -18 4 -6 58 6 33 15 65 19 73 4 8 -20 -15 -53 -50 l-61 -65 0 52 c0 45 -3 52 -20 52 -14 0 -23 11 -32 43 l-13 43 -21 -41z"/>
    </g>
    <g transform="translate(0.000000,200.000000) scale(0.100000,-0.100000)" fill="#c6c0b6" stroke="none">
      <path d="M992 1913 c-4 -10 -8 -25 -7 -33 0 -8 -4 -18 -10 -22 -6 -5 -5 -8 3 -8 10 0 10 -5 -2 -22 -19 -27 -21 -42 -3 -32 10 6 10 4 0 -7 -7 -7 -13 -24 -13 -37 0 -13 -7 -30 -15 -39 -14 -14 -15 -13 -9 11 5 20 0 32 -25 57 -17 17 -31 35 -31 41 0 6 -3 9 -6 5 -3 -3 -16 6 -29 21 -13 15 -26 24 -30 21 -3 -4 1 -14 10 -22 10 -10 12 -18 5 -22 -8 -5 -7 -11 1 -21 6 -8 9 -17 6 -21 -3 -3 0 -18 8 -33 8 -15 11 -30 8 -34 -10 -10 16 -7 40 5 20 9 20 9 4 -4 -10 -8 -15 -21 -11 -30 4 -12 1 -14 -15 -10 -12 3 -21 9 -21 13 0 4 -17 11 -37 15 -21 4 -43 11 -50 16 -7 6 -13 6 -17 0 -6 -10 58 -71 75 -71 6 0 8 -4 5 -9 -3 -5 25 -19 63 -31 51 -17 68 -27 64 -37 -4 -11 -8 -12 -13 -2 -5 7 -18 9 -36 5 -16 -3 -40 -9 -53 -12 -47 -10 -57 -21 -25 -27 42 -9 112 -1 129 13 13 11 14 10 9 -4 -3 -9 -1 -16 6 -16 6 0 8 -5 5 -10 -4 -6 -10 -8 -15 -5 -5 3 -8 -4 -7 -15 1 -20 2 -19 23 2 12 13 22 25 22 28 0 22 3 30 12 25 5 -3 7 -12 4 -19 -3 -8 4 -15 20 -18 22 -4 23 -3 16 18 -8 19 -6 22 7 17 12 -5 14 -3 8 7 -5 9 -4 11 4 6 6 -4 9 -12 6 -17 -4 -5 20 -9 57 -9 37 0 58 4 50 9 -7 4 -25 6 -40 4 -15 -2 -21 0 -14 3 6 3 10 10 6 15 -3 5 -13 5 -25 -1 -15 -9 -21 -7 -25 5 -3 8 -11 12 -18 8 -7 -4 -8 -3 -1 4 6 5 30 15 54 22 28 8 45 19 48 32 3 11 14 19 25 19 14 0 18 5 14 16 -3 8 -2 13 3 10 4 -3 18 6 30 20 l21 24 -27 -6 c-16 -4 -35 -11 -45 -15 -11 -6 -24 -2 -40 11 -12 11 -18 19 -11 20 7 0 10 7 6 17 -5 12 -3 14 7 8 9 -6 12 -4 8 6 -3 8 0 23 7 32 7 10 11 27 8 38 -5 18 -9 16 -40 -18 -18 -21 -36 -48 -39 -60 -4 -13 -10 -23 -15 -23 -5 0 -9 -8 -9 -17 0 -15 -2 -16 -10 -3 -5 8 -10 11 -10 7 0 -4 -6 -2 -14 5 -10 9 -10 15 -3 20 14 8 17 57 5 64 -5 3 -3 13 4 22 7 9 8 13 2 9 -7 -4 -17 0 -24 8 -11 13 -10 14 3 9 14 -5 15 -1 7 28 -6 18 -10 34 -10 35 0 11 -21 0 -28 -14z m48 -127 c0 -2 -7 -6 -15 -10 -8 -3 -15 -1 -15 4 0 6 7 10 15 10 8 0 15 -2 15 -4z m99 -75 c7 -5 10 -14 7 -20 -9 -14 -33 -14 -41 -1 -3 6 1 7 9 4 9 -3 16 -2 16 4 0 6 -6 13 -12 15 -7 3 -8 6 -3 6 6 0 16 -3 24 -8z m-146 -61 c3 -11 3 -20 1 -20 -2 0 -8 9 -14 20 -6 11 -7 20 -2 20 6 0 12 -9 15 -20z m-73 -30 c0 -15 -5 -12 -26 11 -19 22 -19 22 4 10 12 -6 22 -16 22 -21z m220 9 c0 -12 -39 -6 -44 7 -3 7 5 9 20 6 13 -2 24 -8 24 -13z m-143 -23 c-1 -6 8 -11 20 -11 30 -1 25 -18 -5 -20 -13 0 -28 7 -33 16 -12 23 -12 26 5 26 8 0 14 -5 13 -11z M973 1453 c15 -2 39 -2 55 0 15 2 2 4 -28 4 -30 0 -43 -2 -27 -4z M1087 1423 c5 -24 -3 -27 -52 -24 -19 1 -19 1 -2 -10 10 -6 21 -8 24 -5 4 3 12 1 20 -5 9 -9 13 -8 13 0 0 6 4 11 8 11 14 0 12 -48 -3 -60 -12 -10 -15 -10 -15 0 0 10 -3 10 -15 0 -8 -7 -14 -19 -13 -28 2 -8 -3 -17 -11 -20 -9 -3 -11 0 -6 8 5 9 4 11 -4 6 -6 -4 -9 -16 -6 -26 4 -13 -1 -22 -15 -30 -11 -6 -20 -8 -20 -5 0 3 -9 -4 -21 -16 -12 -12 -29 -19 -40 -16 -10 3 -17 1 -13 -4 3 -5 -2 -9 -11 -9 -12 0 -2 -17 31 -57 27 -32 51 -62 55 -67 5 -5 20 6 36 25 15 19 47 55 70 80 40 42 43 50 43 100 0 65 -13 115 -40 149 -19 24 -19 24 -13 3z M980 1426 c0 -2 9 -6 20 -9 11 -3 20 -1 20 4 0 5 -9 9 -20 9 -11 0 -20 -2 -20 -4z M964 1398 c-5 -8 -2 -9 12 -4 15 6 14 2 -6 -21 -14 -15 -18 -22 -10 -15 8 6 22 12 32 12 21 0 23 11 6 28 -15 15 -25 15 -34 0z M861 1324 c0 -11 3 -14 6 -6 3 7 2 16 -1 19 -3 4 -6 -2 -5 -13z M1028 1328 c-2 -6 -27 -12 -61 -12 -31 -1 -57 -5 -57 -9 0 -5 -5 -5 -10 -2 -7 4 -9 -3 -5 -22 5 -21 4 -24 -4 -13 -9 13 -11 12 -11 -3 0 -11 9 -21 20 -24 11 -3 17 -10 13 -15 -3 -6 0 -8 8 -6 8 3 13 11 11 18 -2 8 5 11 20 7 22 -6 22 -5 5 8 -11 7 -26 11 -35 8 -10 -4 -13 -2 -8 5 9 15 42 16 51 2 4 -6 13 -5 25 2 10 7 17 15 14 19 -2 4 5 10 16 14 11 3 20 13 20 21 0 17 -7 18 -12 2z m-75 -35 c-7 -2 -19 -2 -25 0 -7 3 -2 5 12 5 14 0 19 -2 13 -5z M533 1283 c15 -2 39 -2 55 0 15 2 2 4 -28 4 -30 0 -43 -2 -27 -4z M1413 1283 c15 -2 39 -2 55 0 15 2 2 4 -28 4 -30 0 -43 -2 -27 -4z M995 1260 c3 -5 10 -10 16 -10 5 0 9 5 9 10 0 6 -7 10 -16 10 -8 0 -12 -4 -9 -10z M580 1250 c-12 -8 -12 -10 3 -16 9 -3 17 -12 17 -20 0 -9 10 -14 28 -13 16 1 20 3 10 6 -10 2 -21 15 -24 29 -7 26 -12 28 -34 14z M643 1247 c3 -9 1 -18 -6 -21 -7 -2 -4 -5 6 -5 19 -1 23 24 5 35 -7 5 -9 2 -5 -9z M430 1225 c-18 -10 -20 -14 -8 -15 9 0 20 5 23 10 9 14 21 12 41 -7 15 -16 17 -16 29 0 11 15 14 15 18 3 4 -9 14 -12 27 -9 34 9 8 23 -51 28 -35 2 -63 -1 -79 -10z M860 1221 c0 -11 4 -22 9 -25 4 -3 6 6 3 19 -5 30 -12 33 -12 6z M1655 1190 c27 -30 51 -57 53 -60 3 -3 0 4 -6 15 -6 11 -30 38 -53 60 -43 39 -43 39 6 -15z M720 1220 c0 -5 5 -10 11 -10 5 0 7 5 4 10 -3 6 -8 10 -11 10 -2 0 -4 -4 -4 -10z M1438 1198 c5 -5 16 -8 23 -6 8 3 3 7 -10 11 -17 4 -21 3 -13 -5z M1345 1190 c-3 -5 -13 -6 -22 -3 -11 4 -14 3 -9 -5 4 -7 2 -12 -3 -12 -6 0 -11 5 -11 10 0 6 -5 10 -10 10 -7 0 -7 -6 -1 -19 7 -13 18 -17 36 -13 14 2 23 7 21 10 -3 3 -1 11 5 19 6 7 9 13 6 13 -3 0 -8 -4 -12 -10z M1366 1185 c-10 -27 -6 -31 9 -11 8 11 15 15 15 9 0 -6 7 -10 15 -9 21 3 31 16 12 16 -8 0 -22 3 -30 6 -8 3 -17 -2 -21 -11z M650 1176 c-6 -6 -10 -15 -10 -20 0 -6 5 -4 10 4 9 13 10 13 10 0 0 -13 1 -13 10 0 6 9 10 10 10 3 0 -6 -4 -14 -10 -18 -6 -4 -5 -14 1 -29 9 -19 17 -22 44 -19 29 3 33 1 28 -17 -3 -12 0 -20 7 -20 8 0 10 -8 7 -22 -5 -21 -5 -21 7 -5 9 11 27 17 51 17 21 0 35 3 31 8 -4 4 -26 7 -48 7 -47 0 -62 20 -26 34 22 9 22 10 -7 12 -16 1 -34 1 -38 0 -5 -1 -5 4 -2 10 5 6 20 8 39 5 23 -5 33 -3 33 7 0 9 -14 12 -46 10 -36 -2 -41 0 -23 7 12 5 22 14 22 19 0 12 -88 19 -100 7z M825 1177 c4 -9 11 -17 17 -17 5 0 6 -5 2 -12 -4 -7 -3 -8 4 -4 7 4 12 1 12 -8 0 -9 -11 -16 -27 -18 -30 -3 -39 -28 -13 -35 12 -4 12 -3 2 5 -10 7 -1 11 29 16 40 6 45 5 76 -30 18 -20 30 -41 26 -47 -3 -6 -1 -7 6 -3 9 6 9 12 0 24 -33 44 -73 81 -82 75 -6 -3 -7 -2 -4 4 4 5 -7 23 -24 39 -19 18 -28 23 -24 11z M1154 1168 l-19 -23 23 19 c21 18 27 26 19 26 -2 0 -12 -10 -23 -22z M427 1167 c-3 -9 -18 -13 -41 -12 -20 2 -39 -2 -43 -8 -3 -6 -1 -7 5 -3 7 4 12 2 12 -3 0 -6 -9 -11 -19 -11 -10 0 -21 -7 -25 -15 -3 -9 0 -15 8 -15 8 0 16 -7 20 -15 3 -8 1 -15 -4 -15 -6 0 -10 5 -10 10 0 16 -27 11 -34 -6 -9 -23 3 -37 20 -23 7 6 20 9 28 6 8 -3 17 1 20 9 4 12 14 14 37 9 25 -6 31 -4 36 14 6 25 25 27 43 6 7 -8 17 -12 24 -8 6 3 5 0 -2 -8 -8 -9 -15 -10 -20 -4 -9 13 -32 13 -32 0 0 -15 73 -12 77 2 3 7 -4 16 -14 20 -10 4 -22 12 -28 19 -12 15 -60 30 -52 17 4 -5 0 -10 -8 -10 -13 0 -13 4 1 25 8 13 14 26 11 28 -2 3 -7 -1 -10 -9z m-14 -71 c4 -10 1 -13 -8 -9 -8 3 -12 9 -9 14 7 12 11 11 17 -5z M467 1166 c5 -14 3 -17 -7 -11 -8 5 -11 4 -7 -3 4 -5 18 -9 32 -7 21 2 24 -1 20 -16 -4 -13 -1 -19 9 -19 9 0 16 -5 16 -10 0 -13 32 -9 42 5 5 6 8 5 8 -2 0 -7 5 -13 11 -13 5 0 7 5 4 10 -3 6 -1 10 4 10 6 0 11 -4 11 -9 0 -11 49 -11 56 0 6 10 -37 29 -48 22 -5 -2 -8 8 -9 24 0 25 -1 26 -9 8 -7 -16 -9 -17 -9 -3 -1 9 -6 20 -12 23 -6 4 -10 1 -8 -6 3 -26 -1 -39 -12 -39 -5 0 -7 5 -4 10 3 6 -1 10 -9 10 -9 0 -16 -8 -17 -17 0 -14 -2 -14 -9 3 -5 12 -14 25 -21 30 -8 4 -10 3 -5 -4 11 -19 -5 -14 -20 6 -13 16 -14 16 -7 -2z M535 1170 c-3 -6 1 -7 9 -4 18 7 21 14 7 14 -6 0 -13 -4 -16 -10z M765 1160 c4 -6 11 -8 16 -5 14 9 11 15 -7 15 -8 0 -12 -5 -9 -10z M1210 1158 c0 -5 -4 -7 -9 -3 -5 3 -12 1 -16 -5 -7 -12 30 -12 60 -1 17 7 17 8 -8 13 -15 3 -27 1 -27 -4z M810 1139 c0 -5 5 -7 10 -4 6 3 10 8 10 11 0 2 -4 4 -10 4 -5 0 -10 -5 -10 -11z M1069 1083 l-24 -28 28 24 c15 14 27 26 27 28 0 8 -8 1 -31 -24z M679 1079 c-11 -7 -9 -9 6 -10 l20 0 -20 -9 c-13 -6 -15 -9 -5 -9 8 0 23 6 33 13 17 13 17 14 -2 19 -10 2 -25 1 -32 -4z M1637 1070 c3 -11 9 -20 15 -20 5 0 4 9 -2 20 -6 11 -12 20 -14 20 -2 0 -2 -9 1 -20z M535 1070 c-3 -5 -2 -10 4 -10 5 0 13 5 16 10 3 6 2 10 -4 10 -5 0 -13 -4 -16 -10z M600 1071 c0 -7 -4 -9 -10 -6 -5 3 -10 1 -10 -5 0 -6 15 -10 34 -8 19 1 33 5 30 9 -2 4 2 10 8 12 9 4 10 6 1 6 -6 1 -15 -4 -18 -9 -5 -8 -11 -7 -21 1 -11 9 -14 9 -14 0z M1110 1076 c0 -2 7 -6 15 -10 8 -3 15 -1 15 4 0 6 -7 10 -15 10 -8 0 -15 -2 -15 -4z M1435 1070 c-4 -6 -15 -8 -26 -5 -10 4 -19 2 -19 -4 0 -6 -7 -8 -15 -5 -8 4 -15 1 -15 -4 0 -6 -8 -11 -17 -11 -24 -1 -87 -9 -90 -11 -2 -2 -8 -3 -15 -4 -6 0 -13 -7 -16 -15 -3 -9 0 -11 7 -7 7 4 19 2 28 -6 14 -11 16 -11 8 1 -6 11 -4 13 7 8 9 -3 27 0 40 7 23 12 25 11 35 -15 9 -22 8 -26 -3 -22 -8 3 -14 12 -14 20 0 8 -5 11 -10 8 -6 -4 -8 -11 -5 -16 6 -9 -7 -13 -35 -10 -10 1 -6 -6 10 -20 22 -19 25 -19 37 -4 11 16 12 16 10 -3 -1 -15 -6 -19 -22 -15 -11 3 -28 5 -37 5 -10 -1 -21 4 -24 10 -5 7 -2 8 6 3 9 -6 11 -4 6 4 -5 7 -10 10 -13 7 -3 -3 -14 -1 -24 4 -20 11 -40 -7 -21 -19 7 -4 -2 -12 -19 -18 -31 -12 -31 -12 -14 7 21 23 10 27 -14 6 -22 -19 -87 -10 -70 10 9 11 8 14 -4 14 -17 0 -33 -17 -40 -45 -4 -17 -5 -16 -6 5 -1 22 -3 23 -12 8 -5 -10 -17 -18 -25 -18 -10 0 -12 -5 -8 -12 6 -9 3 -9 -9 0 -10 9 -27 11 -45 7 -21 -4 -35 -1 -47 11 -16 17 -16 18 1 31 13 9 21 10 31 2 10 -9 13 -8 13 0 0 8 8 10 20 6 11 -3 26 -3 34 2 13 7 12 12 -4 33 -16 22 -18 22 -17 5 2 -22 -31 -32 -61 -20 -21 9 -128 9 -142 0 -5 -3 -10 -1 -10 4 0 6 -5 11 -11 11 -5 0 -7 -4 -4 -10 3 -5 2 -10 -4 -10 -5 0 -12 6 -14 13 -4 9 -6 9 -6 0 -1 -18 -31 -3 -31 16 0 13 -4 12 -18 -5 -13 -17 -25 -20 -53 -17 -31 4 -36 8 -33 29 1 13 -1 25 -4 25 -20 5 -75 6 -64 2 6 -3 9 -10 6 -16 -5 -8 -2 -8 7 1 20 18 39 15 39 -8 0 -17 -5 -19 -41 -14 -30 5 -39 3 -34 -5 4 -8 -1 -10 -17 -7 -12 3 -44 8 -70 11 -36 5 -46 10 -41 21 4 10 -1 13 -18 11 -13 -2 -25 -10 -27 -17 -3 -9 1 -11 12 -7 12 5 16 3 13 -5 -2 -8 -16 -12 -35 -10 -29 3 -32 1 -32 -22 0 -14 6 -26 13 -26 7 0 8 -3 2 -8 -6 -4 -12 -19 -13 -35 -3 -23 2 -30 30 -42 26 -11 28 -14 12 -15 -14 0 -24 -8 -27 -22 -6 -22 -6 -22 8 -4 18 23 20 13 4 -16 -9 -16 -8 -19 2 -13 8 6 11 4 7 -7 -4 -9 0 -15 8 -15 8 0 14 4 14 7 0 4 14 6 30 5 17 -1 30 1 30 6 0 5 -6 9 -12 9 -8 0 -4 8 7 17 18 14 18 15 1 9 -15 -5 -17 -2 -13 13 3 14 1 18 -10 14 -8 -3 -13 0 -11 8 2 8 -3 13 -9 12 -18 -4 -16 12 2 27 10 8 19 9 27 3 21 -17 58 -22 66 -10 10 17 42 17 42 1 0 -8 5 -14 12 -14 6 0 8 -3 5 -7 -4 -3 -1 -13 6 -21 9 -13 9 -14 0 -8 -9 5 -11 2 -7 -9 5 -12 10 -13 17 -6 18 18 57 13 56 -6 0 -11 -3 -13 -6 -5 -9 22 -41 13 -47 -14 -9 -33 -3 -39 22 -25 25 13 35 14 27 2 -3 -5 -1 -12 5 -16 5 -3 10 2 10 12 0 14 2 15 9 4 5 -8 23 -14 39 -13 23 0 29 -3 25 -14 -4 -11 3 -14 30 -12 19 2 33 6 31 9 -2 4 3 12 10 18 10 8 16 9 21 1 3 -5 12 -10 18 -10 8 0 7 3 -2 9 -7 5 -11 14 -7 20 5 7 1 9 -9 5 -11 -5 -14 -2 -9 12 5 18 5 18 -10 0 -16 -20 -22 -11 -8 11 8 13 44 17 100 10 35 -3 53 10 32 23 -7 4 -10 12 -6 18 3 6 3 12 -1 15 -5 2 -3 3 3 1 6 -1 17 2 25 7 10 6 7 9 -13 9 -21 0 -29 6 -34 26 -4 15 -10 22 -16 16 -13 -13 -18 -52 -7 -52 5 0 9 -5 9 -11 0 -5 -4 -8 -9 -4 -5 3 -12 1 -15 -4 -4 -5 4 -12 16 -14 13 -2 1 -5 -27 -6 -27 -2 -60 -4 -72 -5 -18 -2 -20 0 -11 11 9 11 13 12 19 1 5 -8 9 -9 9 -2 0 7 11 9 26 6 19 -3 25 -1 20 7 -4 6 -1 11 7 11 7 0 14 7 14 15 0 9 -6 14 -13 11 -9 -3 -9 2 1 21 8 15 12 29 10 33 -3 5 29 6 61 2 16 -3 24 -40 10 -45 -6 -2 -3 -3 8 -1 11 2 20 -5 23 -17 3 -10 9 -16 14 -13 5 3 9 -1 9 -9 0 -20 27 -42 32 -27 2 7 13 2 28 -11 l25 -22 -27 5 c-20 4 -28 1 -28 -9 0 -8 5 -11 10 -8 6 3 10 1 10 -4 0 -6 -13 -11 -29 -11 -16 0 -35 -8 -42 -17 -11 -15 -11 -16 1 -5 18 15 60 16 60 0 0 -6 3 -8 8 -4 7 7 8 11 11 37 2 22 56 4 69 -23 7 -16 18 -28 25 -27 9 0 9 2 0 6 -10 3 -10 8 1 19 18 17 32 18 42 2 5 -7 3 -8 -5 -3 -19 11 -10 -47 9 -62 13 -11 13 -12 -3 -13 -10 0 -15 -4 -12 -10 3 -5 -1 -10 -9 -10 -9 0 -16 8 -17 18 0 14 -2 14 -8 -3 -6 -16 -4 -21 13 -26 11 -3 25 -3 30 2 5 4 14 5 21 3 7 -3 11 3 9 18 -1 13 -3 27 -3 31 -1 5 -5 5 -11 2 -5 -3 -10 -2 -10 3 0 18 22 72 30 72 8 0 24 -30 22 -42 -1 -4 4 -5 11 -2 7 2 14 14 14 27 2 17 0 18 -7 7 -5 -8 -12 -12 -15 -9 -3 4 0 11 7 17 9 7 19 6 33 -4 17 -12 17 -16 6 -24 -12 -7 -12 -11 -2 -24 7 -8 10 -20 6 -26 -3 -5 -2 -10 3 -10 5 0 14 12 20 26 7 14 8 23 2 19 -5 -3 -10 0 -10 8 0 21 12 28 27 16 17 -15 18 11 1 31 -11 12 -10 12 5 1 10 -8 17 -9 17 -3 0 5 9 8 20 5 26 -7 26 -23 0 -18 -13 2 -18 0 -14 -6 3 -6 17 -9 30 -6 l23 4 -19 -38 c-17 -32 -17 -38 -5 -43 15 -5 19 4 16 37 -1 9 3 17 9 17 6 0 8 -4 5 -10 -3 -5 1 -10 10 -10 29 0 12 -34 -30 -57 -29 -16 -43 -19 -52 -11 -10 8 -12 7 -7 -6 3 -9 1 -17 -5 -17 -20 -2 -26 -5 -47 -17 -17 -9 -24 -9 -33 2 -6 7 -7 16 -3 21 4 4 -3 2 -15 -6 -19 -11 -19 -14 -6 -24 15 -11 11 -12 -74 -16 -13 -1 -20 -5 -17 -10 3 -5 0 -9 -5 -9 -19 0 -26 -2 -42 -11 -11 -6 -21 -4 -29 6 -6 7 -18 11 -27 8 -8 -3 -24 -7 -36 -8 -58 -6 -61 -8 -27 -15 31 -6 28 -8 -24 -9 -33 0 -56 2 -53 6 4 3 -1 12 -11 20 -16 12 -16 14 1 27 23 18 22 29 -3 16 -11 -6 -20 -17 -20 -25 0 -8 -5 -15 -11 -15 -6 0 -19 -10 -29 -22 l-17 -22 -11 21 c-9 17 -9 22 4 27 12 5 14 1 9 -15 -5 -14 -3 -19 3 -15 16 10 11 66 -7 76 -14 8 -14 9 1 10 22 0 32 17 21 33 -5 7 -8 24 -7 39 2 23 0 25 -11 15 -9 -9 -10 -14 -1 -19 8 -6 8 -10 0 -15 -6 -5 -14 -18 -18 -30 -4 -13 -10 -23 -14 -23 -4 0 -8 -11 -9 -25 -4 -45 -6 -52 -18 -52 -7 0 -10 9 -7 20 3 13 1 18 -5 14 -6 -4 -14 4 -17 18 -4 14 -12 25 -19 25 -9 0 -8 3 1 9 10 6 7 10 -12 15 -14 3 -26 13 -26 22 0 8 -5 12 -10 9 -7 -4 -7 -12 0 -24 5 -10 7 -21 3 -24 -3 -3 -2 -14 3 -24 11 -26 13 -53 3 -53 -5 0 -9 -4 -9 -10 0 -5 5 -10 11 -10 10 0 89 -77 89 -87 0 -8 -32 19 -54 45 -10 13 -21 21 -24 18 -3 -3 -10 0 -16 8 -6 7 -31 18 -54 25 -24 7 -42 14 -40 17 3 2 19 -1 37 -7 24 -9 35 -9 44 0 8 8 1 11 -27 11 -22 0 -35 4 -31 10 10 16 -12 12 -29 -5 -8 -9 -12 -23 -9 -32 4 -11 8 -13 11 -5 2 7 8 12 13 12 6 0 7 -5 4 -10 -4 -6 -3 -10 2 -9 4 1 15 1 23 0 12 -1 13 -3 1 -10 -10 -7 -4 -15 25 -35 21 -14 32 -26 24 -27 -8 0 -26 -2 -40 -3 -14 -1 -38 -3 -54 -4 l-28 -2 22 -18 c14 -11 38 -18 64 -17 22 0 44 -4 48 -10 5 -6 8 -5 8 3 0 6 10 12 21 12 17 0 19 -3 10 -13 -6 -8 -7 -18 -3 -22 4 -5 2 -5 -4 -2 -16 9 -64 -15 -65 -33 0 -8 -3 -10 -5 -4 -6 14 -76 3 -82 -14 -3 -10 16 -17 41 -13 4 0 7 -4 7 -10 0 -6 -12 -8 -29 -6 -23 4 -29 1 -28 -12 1 -14 8 -16 49 -11 38 5 48 4 44 -7 -4 -9 4 -13 28 -13 20 0 36 6 39 14 6 15 84 13 99 -2 4 -4 -8 -6 -27 -4 -21 3 -35 0 -35 -7 0 -6 -4 -10 -9 -8 -5 1 -9 -1 -10 -5 -3 -21 0 -28 11 -28 6 0 9 3 5 6 -10 10 16 30 41 31 16 1 22 -3 20 -14 -2 -9 3 -18 10 -20 7 -3 10 1 6 11 -4 11 0 16 12 17 11 0 14 3 7 6 -7 2 -13 13 -13 23 0 20 27 46 37 37 3 -4 12 -2 20 4 19 16 16 3 -4 -17 -16 -15 -16 -17 -2 -12 9 4 21 2 26 -3 6 -6 15 -3 24 8 13 16 12 17 -3 5 -9 -8 -19 -9 -22 -4 -8 13 20 35 34 27 5 -3 10 -2 10 4 0 6 6 8 14 5 11 -4 13 0 9 16 -4 16 -8 18 -14 8 -5 -7 -18 -14 -29 -14 -16 -1 -19 3 -15 20 2 11 2 15 -1 8 -3 -6 -10 -10 -14 -7 -5 3 -12 0 -16 -6 -5 -8 -3 -9 6 -4 9 5 11 4 6 -3 -11 -18 -26 -14 -26 6 0 11 -13 37 -28 58 -29 41 -33 57 -18 71 5 5 6 2 1 -6 -6 -10 -2 -12 14 -6 28 9 27 -3 -1 -14 l-22 -8 21 -11 c17 -9 25 -9 35 1 7 8 18 12 25 10 6 -2 14 1 18 6 4 7 -4 11 -18 11 -30 0 -40 19 -22 43 9 13 28 17 83 17 52 0 71 4 75 15 5 11 13 12 34 5 15 -4 93 -13 173 -19 80 -6 170 -17 200 -25 l55 -14 60 43 c58 41 143 123 183 175 33 43 72 127 83 181 12 54 4 159 -12 159 -5 0 -8 -3 -7 -7 4 -16 -23 -53 -34 -47 -7 4 -8 2 -4 -5 9 -15 -63 -113 -77 -104 -6 3 -7 2 -4 -4 11 -18 -56 -71 -95 -75 -45 -5 -51 7 -8 16 17 3 30 11 30 17 0 7 -10 9 -24 7 -18 -4 -22 -1 -19 13 3 9 0 20 -6 23 -7 5 -7 13 2 27 16 26 -7 42 -37 28 -18 -9 -18 -7 2 10 21 18 23 49 2 36 -4 -3 -13 2 -19 9 -8 9 -8 16 -2 20 5 4 12 2 16 -4 9 -14 25 -12 25 4 0 7 15 18 33 24 26 9 28 11 7 9 -14 -1 -31 2 -37 6 -12 8 -18 -4 -14 -26 1 -5 -3 -6 -8 -2 -6 3 -8 12 -4 20 6 17 -3 20 -12 5z m-5 -76 c0 -19 -19 -18 -26 1 -4 8 -18 16 -33 16 -25 1 -25 2 4 8 32 8 55 -3 55 -25z m-46 -10 c5 -14 4 -15 -9 -4 -17 14 -19 20 -6 20 5 0 12 -7 15 -16z m-994 -14 c13 7 20 8 16 2 -3 -6 -2 -13 4 -17 5 -3 10 1 10 10 0 9 4 13 10 10 19 -12 50 -14 50 -3 0 6 3 8 6 5 4 -4 2 -13 -4 -20 -9 -11 -6 -13 16 -12 15 1 19 0 9 -2 -9 -2 -15 -9 -12 -14 10 -15 -22 -10 -39 6 -8 8 -19 15 -24 15 -5 0 -15 -7 -22 -15 -19 -23 -32 -18 -19 8 12 22 12 22 -10 3 -11 -11 -21 -16 -21 -11 0 4 -7 2 -15 -5 -12 -10 -19 -10 -27 -2 -9 9 -8 12 4 12 9 0 18 10 22 23 5 17 8 19 15 8 7 -10 13 -11 31 -1z m145 0 c-3 -5 -14 -10 -23 -9 -14 0 -13 2 3 9 27 11 27 11 20 0z m70 1 c-3 -5 -1 -12 5 -16 5 -3 10 -1 10 6 0 7 7 4 16 -7 11 -13 14 -14 11 -3 -3 9 1 16 9 16 7 0 10 -5 7 -10 -3 -5 1 -14 8 -19 9 -6 1 -7 -26 -3 -22 4 -42 11 -43 16 -2 5 -8 7 -13 3 -5 -3 -9 -1 -9 5 0 5 6 12 13 14 18 8 19 8 12 -2z m132 -20 c10 -15 10 -20 0 -24 -18 -6 -47 4 -47 15 0 6 7 8 15 4 8 -3 15 -1 15 3 0 5 -6 12 -12 14 -9 4 -8 6 2 6 8 1 21 -8 27 -18z m678 10 c3 -5 1 -12 -5 -16 -5 -3 -10 1 -10 9 0 18 6 21 15 7z m-639 -16 c-3 -24 -11 -25 -24 -5 -10 17 -10 20 7 20 11 0 18 -6 17 -15z m458 -25 c-5 -5 -16 -5 -24 1 -13 9 -12 10 3 5 11 -4 17 0 18 12 0 12 2 13 6 4 3 -8 1 -18 -3 -22z m-794 -10 c0 -5 -8 -10 -17 -10 -15 0 -16 2 -3 10 19 12 20 12 20 0z m691 -9 c-6 -10 -7 -22 -3 -26 4 -5 2 -5 -5 -1 -16 9 -12 46 4 46 10 0 11 -5 4 -19z m-821 -1 c0 -5 -2 -10 -4 -10 -3 0 -8 5 -11 10 -3 6 -1 10 4 10 6 0 11 -4 11 -10z m887 3 c-4 -3 -2 -12 4 -19 7 -8 6 -14 -2 -20 -8 -4 -9 -3 -5 4 7 12 -1 15 -36 15 -10 0 -18 4 -18 9 0 6 6 8 13 5 8 -3 20 -1 28 4 17 10 25 12 16 2z m-157 -18 c4 3 11 -2 14 -11 4 -9 2 -13 -5 -8 -6 4 -16 0 -21 -7 -7 -11 -8 -9 -4 5 5 15 2 17 -14 13 -11 -3 -20 -1 -20 3 0 11 34 18 38 8 2 -5 7 -6 12 -3z m195 5 c3 -6 -1 -7 -9 -4 -18 7 -21 14 -7 14 6 0 13 -4 16 -10z m245 0 c0 -5 -2 -10 -4 -10 -3 0 -8 5 -11 10 -3 6 -1 10 4 10 6 0 11 -4 11 -10z m-880 -21 c0 -14 -17 -10 -23 5 -4 10 -1 13 9 9 7 -3 14 -9 14 -14z m690 6 c5 3 10 4 10 1 0 -3 -9 -10 -19 -15 -15 -9 -20 -7 -24 10 -4 16 -3 18 8 9 8 -7 19 -9 25 -5z m-635 -4 c5 -1 5 -5 -1 -11 -11 -11 -44 -3 -44 10 0 5 8 7 18 5 9 -2 21 -4 27 -4z m445 -1 c0 -5 -2 -10 -4 -10 -3 0 -8 5 -11 10 -3 6 -1 10 4 10 6 0 11 -4 11 -10z m130 -41 c0 -3 -6 -6 -14 -6 -7 0 -12 7 -11 16 2 9 4 18 4 21 2 6 21 -23 21 -31z m-164 2 c-4 -6 -14 -7 -23 -4 -15 6 -14 7 3 13 22 9 29 6 20 -9z m-458 -16 c-3 -3 -9 2 -12 12 -6 14 -5 15 5 6 7 -7 10 -15 7 -18z m517 15 c-3 -5 -16 -10 -28 -9 -20 1 -20 2 3 9 14 4 26 8 28 9 2 1 0 -3 -3 -9z m182 4 c-3 -3 -12 -4 -19 -1 -8 3 -5 6 6 6 11 1 17 -2 13 -5z m208 -34 c-3 -5 -18 -10 -33 -10 -21 0 -24 2 -12 10 20 13 53 13 45 0z m-795 -30 c0 -5 -8 -10 -17 -10 -15 0 -16 2 -3 10 19 12 20 12 20 0z m687 -6 c-3 -3 -12 -4 -19 -1 -8 3 -5 6 6 6 11 1 17 -2 13 -5z m7 -36 c-3 -4 -9 -8 -15 -8 -5 0 -9 4 -9 8 0 5 7 9 15 9 8 0 12 -4 9 -9z m-717 -220 c-3 -8 -6 -5 -6 6 -1 11 2 17 5 13 3 -3 4 -12 1 -19z m23 -47 c0 -15 -47 -22 -72 -11 -21 9 -20 10 10 7 18 -2 35 0 38 5 7 11 24 10 24 -1z m50 -54 c0 -4 -4 -6 -9 -3 -5 4 -20 2 -33 -3 -15 -5 -31 -5 -41 0 -11 6 -17 6 -17 1 0 -6 7 -12 15 -16 8 -3 15 -11 15 -17 0 -8 -6 -7 -17 3 -10 9 -25 13 -33 10 -12 -4 -11 -1 3 15 9 11 14 23 10 27 -4 4 1 4 12 0 11 -4 23 -12 27 -18 5 -7 8 -5 8 6 0 9 6 18 13 21 14 4 47 -14 47 -26z m-185 -77 c-3 -5 -12 -10 -18 -10 -7 0 -6 4 3 10 19 12 23 12 15 0z M1670 1060 c6 -11 13 -20 16 -20 2 0 0 9 -6 20 -6 11 -13 20 -16 20 -2 0 0 -9 6 -20z M1298 1063 c7 -3 16 -2 19 1 4 3 -2 6 -13 5 -11 0 -14 -3 -6 -6z M1608 1063 c7 -3 16 -2 19 1 4 3 -2 6 -13 5 -11 0 -14 -3 -6 -6z M427 1053 c10 -3 10 -10 2 -26 -9 -20 -9 -20 4 -4 8 9 20 17 28 18 15 0 -20 18 -36 18 -5 -1 -4 -3 2 -6z M1029 1033 c-13 -16 -12 -17 4 -4 9 7 17 15 17 17 0 8 -8 3 -21 -13z M385 1030 c-3 -6 1 -7 9 -4 18 7 21 14 7 14 -6 0 -13 -4 -16 -10z M780 1030 c0 -4 9 -10 20 -13 11 -3 20 -2 20 3 0 4 -9 10 -20 13 -11 3 -20 2 -20 -3z M253 980 c0 -30 2 -43 4 -27 2 15 2 39 0 55 -2 15 -4 2 -4 -28z M1139 1014 c-7 -8 -18 -13 -25 -10 -7 3 -16 1 -19 -5 -4 -5 -13 -6 -22 0 -19 10 -63 -31 -63 -58 1 -11 5 -8 15 9 8 14 14 22 15 18 0 -4 16 0 35 8 19 8 35 11 35 7 0 -5 11 -13 25 -20 20 -9 25 -8 25 3 0 8 5 14 11 14 5 0 7 6 3 13 -5 7 0 6 11 -3 11 -9 16 -10 11 -2 -4 7 -2 12 4 12 7 0 10 5 8 11 -6 18 -55 19 -69 3z M920 1002 c0 -4 12 -8 28 -9 23 -1 24 -1 7 7 -26 11 -35 12 -35 2z M360 896 c0 -2 7 -7 16 -10 8 -3 12 -2 9 4 -6 10 -25 14 -25 6z M467 877 c-6 -15 -34 -16 -57 -2 -6 3 -10 2 -10 -3 0 -5 8 -12 18 -15 9 -4 27 -13 38 -22 20 -14 22 -14 28 1 5 12 2 15 -10 10 -14 -5 -15 -4 -4 8 6 9 10 21 8 28 -3 8 -6 6 -11 -5z M871 852 c6 -10 21 -19 33 -19 20 -2 20 -1 -3 11 -18 10 -20 15 -10 19 8 3 5 6 -9 6 -19 1 -21 -2 -11 -17z M416 836 c6 -16 34 -30 34 -18 0 10 -22 32 -32 32 -4 0 -5 -6 -2 -14z M847 813 c-9 -2 -15 -9 -12 -14 4 -5 -1 -9 -10 -9 -9 0 -13 5 -9 11 4 8 0 7 -15 0 -19 -11 -20 -13 -6 -27 13 -14 18 -14 32 -2 10 7 14 8 10 1 -5 -7 -1 -10 10 -8 10 2 21 4 26 4 4 1 7 12 7 26 0 25 -1 26 -33 18z M900 812 c0 -4 9 -8 20 -9 11 -1 20 2 20 8 0 5 -9 9 -20 9 -11 0 -20 -4 -20 -8z M486 795 c-3 -8 -1 -15 3 -15 5 0 11 7 15 15 3 8 1 15 -3 15 -5 0 -11 -7 -15 -15z M1000 796 c0 -2 7 -6 15 -10 8 -3 15 -1 15 4 0 6 -7 10 -15 10 -8 0 -15 -2 -15 -4z M1290 759 c0 -5 -4 -8 -9 -4 -5 3 -8 -9 -7 -27 1 -17 7 -33 14 -36 7 -2 10 7 8 25 -2 15 1 34 6 41 7 8 7 12 -1 12 -6 0 -11 -5 -11 -11z M352 737 c-8 -10 1 -26 37 -65 26 -29 54 -52 62 -52 8 1 2 7 -13 16 -31 16 -52 49 -42 65 4 7 12 5 24 -6 12 -11 20 -13 25 -5 3 5 11 8 16 5 5 -4 9 -1 9 4 0 14 -17 14 -25 0 -5 -7 -16 -2 -31 12 -22 20 -29 19 -25 -4 1 -5 -3 -6 -8 -3 -5 3 -7 15 -4 26 6 23 -9 27 -25 7z M1060 730 c0 -5 5 -10 10 -10 6 0 10 5 10 10 0 6 -4 10 -10 10 -5 0 -10 -4 -10 -10z M1173 725 c0 -12 3 -12 16 -3 9 7 18 14 20 15 2 2 -5 3 -16 3 -11 0 -20 -7 -20 -15z M520 723 c0 -7 5 -15 11 -19 8 -5 6 -10 -5 -16 -21 -12 -20 -24 2 -24 9 -1 25 -4 35 -9 9 -4 17 -3 17 3 0 5 -9 12 -21 15 -12 3 -19 9 -16 14 3 4 -1 17 -9 28 -8 10 -14 14 -14 8z M575 720 c-3 -6 1 -7 9 -4 18 7 21 14 7 14 -6 0 -13 -4 -16 -10z M680 721 c0 -7 -5 -9 -12 -5 -7 5 -8 3 -3 -5 5 -9 10 -10 18 -2 6 6 8 14 4 18 -4 3 -7 1 -7 -6z M775 710 c-3 -5 1 -10 10 -10 9 0 13 5 10 10 -3 6 -8 10 -10 10 -2 0 -7 -4 -10 -10z M1190 695 c0 -8 8 -12 20 -10 13 2 20 -2 20 -11 0 -8 5 -14 11 -14 5 0 7 5 4 10 -3 6 -1 10 4 10 6 0 11 5 11 12 0 6 -3 9 -6 6 -3 -4 -19 -2 -35 2 -22 7 -29 5 -29 -5z M638 683 c7 -3 16 -2 19 1 4 3 -2 6 -13 5 -11 0 -14 -3 -6 -6z M670 686 c0 -2 7 -6 15 -10 8 -3 15 -1 15 4 0 6 -7 10 -15 10 -8 0 -15 -2 -15 -4z M1161 674 c0 -11 3 -14 6 -6 3 7 2 16 -1 19 -3 4 -6 -2 -5 -13z M924 669 c1 -7 9 -13 18 -15 11 -1 15 3 11 13 -4 11 -8 12 -13 3 -6 -9 -9 -9 -13 -1 -4 8 -5 8 -3 0z M1120 630 c-9 -6 -10 -10 -3 -10 6 0 15 5 18 10 8 12 4 12 -15 0z M923 513 c42 -2 112 -2 155 0 42 1 7 3 -78 3 -85 0 -120 -2 -77 -3z M1223 503 c9 -2 23 -2 30 0 6 3 -1 5 -18 5 -16 0 -22 -2 -12 -5z M1298 493 c6 -2 18 -2 25 0 6 3 1 5 -13 5 -14 0 -19 -2 -12 -5z M1320 458 c0 -6 -11 -8 -25 -6 -14 3 -25 2 -25 -3 0 -15 -42 -22 -51 -8 -7 11 -9 11 -9 -2 0 -9 -7 -16 -15 -16 -11 0 -12 4 -4 14 19 22 1 15 -21 -9 -11 -12 -20 -18 -20 -14 0 5 -8 2 -17 -5 -13 -11 -15 -11 -9 -1 6 10 -4 13 -44 11 -28 -2 -54 -7 -57 -12 -3 -6 -2 -7 4 -4 5 3 10 0 10 -8 0 -10 -5 -11 -19 -4 -13 7 -20 6 -23 -4 -3 -7 -18 -12 -35 -11 -17 1 -30 -2 -30 -8 0 -5 -4 -6 -10 -3 -5 3 -10 1 -10 -5 0 -8 14 -10 43 -6 37 5 40 4 24 -8 -16 -13 -14 -14 25 -12 24 2 53 -1 65 -5 14 -5 25 -4 29 2 3 6 15 9 25 6 10 -3 17 -2 16 2 -3 8 7 11 34 11 11 0 17 -4 14 -10 -3 -6 1 -7 9 -4 9 3 16 12 16 20 0 8 7 14 15 14 8 0 15 -4 15 -10 0 -5 -5 -10 -12 -10 -6 0 -8 -3 -5 -7 9 -9 48 27 41 38 -3 5 -10 7 -15 4 -5 -4 -6 2 -2 11 4 10 8 13 10 7 3 -7 12 -9 21 -5 16 6 16 4 1 -19 -17 -25 -17 -25 17 -25 38 0 38 -1 23 29 -10 21 -10 21 5 3 9 -11 16 -26 16 -33 0 -7 5 -13 10 -13 6 0 9 5 8 12 -3 12 3 14 43 17 18 1 19 3 9 16 -8 9 -8 15 -2 15 6 0 12 -6 14 -12 4 -10 10 -10 29 -1 13 6 18 12 10 12 -11 1 -10 5 4 15 11 8 24 12 28 9 5 -3 3 -9 -4 -14 -11 -7 -9 -9 6 -9 12 0 26 -4 33 -10 7 -5 -3 6 -22 26 -27 29 -43 37 -78 40 -23 2 -58 6 -75 8 -19 2 -33 -1 -33 -6z m150 -18 c13 -8 13 -10 -2 -10 -9 0 -20 5 -23 10 -8 13 5 13 25 0z m-379 -39 c-8 -5 -20 -7 -28 -4 -21 8 -15 13 15 13 20 0 23 -3 13 -9z m134 -11 c-3 -5 -13 -10 -21 -10 -8 0 -12 -4 -9 -10 3 -5 4 -10 1 -10 -17 0 -13 22 6 29 30 13 30 13 23 1z m150 0 c3 -6 -4 -10 -17 -10 -18 0 -20 2 -8 10 19 12 18 12 25 0z m-210 -10 c3 -6 -4 -10 -17 -10 -18 0 -20 2 -8 10 19 12 18 12 25 0z m-55 -10 c0 -5 -5 -10 -11 -10 -5 0 -7 5 -4 10 3 6 8 10 11 10 2 0 4 -4 4 -10z m-57 -17 c-7 -2 -21 -2 -30 0 -10 3 -4 5 12 5 17 0 24 -2 18 -5z M1436 364 c-23 -23 -20 -30 4 -9 11 10 20 20 20 22 0 7 -9 2 -24 -13z M1290 340 c0 -5 5 -10 10 -10 6 0 10 5 10 10 0 6 -4 10 -10 10 -5 0 -10 -4 -10 -10z M1542 341 c-11 -7 -11 -9 2 -14 10 -4 16 -1 16 8 0 17 -1 17 -18 6z M928 333 c7 -3 16 -2 19 1 4 3 -2 6 -13 5 -11 0 -14 -3 -6 -6z M765 320 c-3 -5 -1 -10 4 -10 6 0 11 5 11 10 0 6 -2 10 -4 10 -3 0 -8 -4 -11 -10z M1339 313 c-13 -16 -12 -17 4 -4 9 7 17 15 17 17 0 8 -8 3 -21 -13z M1387 314 c3 -8 10 -11 16 -7 6 3 7 1 3 -5 -5 -9 -13 -9 -26 -2 -15 8 -21 6 -30 -10 -6 -11 -8 -25 -5 -30 3 -6 1 -10 -4 -10 -6 0 -11 5 -11 11 0 5 -5 7 -10 4 -6 -4 -8 -11 -4 -16 6 -11 62 -5 72 7 4 4 -1 4 -12 0 -14 -5 -17 -3 -12 10 3 8 6 18 6 20 0 2 5 4 11 4 5 0 7 -4 4 -10 -3 -6 1 -7 9 -4 11 4 16 0 16 -11 0 -9 4 -14 9 -11 5 3 9 21 9 38 0 27 -4 33 -23 34 -16 1 -22 -3 -18 -12z M434 263 l1 -58 565 0 565 0 3 53 c2 28 -1 52 -6 52 -5 0 -7 -24 -5 -52 2 -30 1 -48 -4 -41 -6 8 -14 9 -23 3 -8 -6 -72 -10 -142 -10 -115 0 -128 2 -129 18 0 15 -1 15 -8 -2 -5 -14 -10 -16 -15 -8 -4 7 -12 12 -17 12 -6 0 -7 -4 -4 -10 4 -6 -8 -10 -30 -10 -20 0 -34 4 -31 8 3 5 -1 9 -9 9 -8 0 -11 -5 -8 -10 4 -6 -1 -8 -11 -4 -10 4 -20 7 -22 7 -3 0 -2 6 2 13 4 6 -2 4 -12 -5 -19 -16 -50 -18 -337 -18 l-316 0 -4 55 -4 55 1 -57z M1188 313 c7 -3 16 -2 19 1 4 3 -2 6 -13 5 -11 0 -14 -3 -6 -6z M1444 312 c3 -5 0 -13 -6 -15 -9 -4 -10 -6 -1 -6 17 -1 25 16 12 25 -7 4 -9 3 -5 -4z M1515 310 c-3 -5 -1 -10 4 -10 6 0 11 5 11 10 0 6 -2 10 -4 10 -3 0 -8 -4 -11 -10z M1070 300 c0 -6 7 -10 15 -10 8 0 15 2 15 4 0 2 -7 6 -15 10 -8 3 -15 1 -15 -4z M1116 301 c-4 -5 3 -7 14 -4 23 6 26 13 6 13 -8 0 -17 -4 -20 -9z M768 293 c7 -3 16 -2 19 1 4 3 -2 6 -13 5 -11 0 -14 -3 -6 -6z M528 283 c7 -3 16 -2 19 1 4 3 -2 6 -13 5 -11 0 -14 -3 -6 -6z M580 250 c-12 -8 -10 -10 8 -10 13 0 20 4 17 10 -7 12 -6 12 -25 0z M1275 250 c-3 -6 1 -7 9 -4 18 7 21 14 7 14 -6 0 -13 -4 -16 -10z"/>
    </g>
    <g transform="translate(0.000000,200.000000) scale(0.100000,-0.100000)" fill="#171412" stroke="none">
      <path d="M1007 1944 c-3 -5 1 -15 9 -22 16 -14 18 -5 5 17 -5 7 -11 9 -14 5z M810 1890 c0 -5 14 -22 30 -38 17 -17 30 -27 30 -22 0 5 -13 22 -30 38 -16 17 -30 27 -30 22z M1034 1882 c4 -18 1 -22 -11 -18 -13 5 -14 4 -3 -9 7 -8 17 -12 24 -8 6 4 5 0 -2 -9 -7 -9 -9 -19 -4 -22 12 -7 9 -56 -5 -64 -7 -5 -7 -11 3 -20 8 -7 14 -9 14 -5 0 4 5 1 10 -7 8 -13 10 -12 10 3 0 9 5 17 10 17 6 0 10 6 10 14 0 7 9 25 20 39 29 36 25 48 -5 12 l-24 -30 -1 53 c0 44 -3 52 -19 52 -11 0 -22 6 -25 13 -4 6 -4 2 -2 -11z M1165 1870 c-16 -16 -24 -30 -18 -30 6 0 14 6 17 13 4 6 4 1 2 -11 -3 -13 -2 -21 2 -18 6 6 32 76 28 76 -1 0 -15 -13 -31 -30z M947 1883 l-29 -4 6 -62 c3 -34 7 -74 8 -89 1 -22 3 -24 14 -13 8 7 14 24 14 37 0 13 6 30 13 37 10 11 10 13 0 7 -18 -10 -16 5 3 32 12 17 12 22 2 22 -8 0 -9 3 -3 8 12 9 18 33 8 31 -5 -1 -21 -4 -36 -6z M820 1831 c0 -6 4 -12 8 -15 5 -3 9 1 9 9 0 8 -4 15 -9 15 -4 0 -8 -4 -8 -9z M880 1811 c0 -5 7 -12 16 -15 14 -5 15 -4 4 9 -14 17 -20 19 -20 6z M1155 1791 c-3 -5 -1 -12 5 -16 5 -3 10 1 10 9 0 18 -6 21 -15 7z M1010 1780 c0 -5 7 -7 15 -4 8 4 15 8 15 10 0 2 -7 4 -15 4 -8 0 -15 -4 -15 -10z M1144 1753 c3 -7 0 -13 -7 -13 -7 -1 -2 -9 11 -20 28 -23 52 -16 52 15 0 18 -7 24 -30 27 -23 3 -30 1 -26 -9z M800 1740 c0 -15 -6 -18 -27 -15 -16 2 -37 6 -48 10 -18 6 -18 5 -2 -5 9 -6 27 -13 40 -16 12 -2 37 -7 55 -10 17 -3 32 -10 32 -14 0 -4 9 -10 20 -13 26 -7 26 10 -1 18 -11 4 -18 12 -16 18 7 20 -12 47 -33 47 -13 0 -20 -7 -20 -20z M1258 1733 c6 -2 18 -2 25 0 6 3 1 5 -13 5 -14 0 -19 -2 -12 -5z M890 1720 c-9 -6 -10 -10 -3 -10 6 0 15 5 18 10 8 12 4 12 -15 0z M1210 1726 c0 -2 9 -6 20 -9 11 -3 18 -1 14 4 -5 9 -34 13 -34 5z M1130 1690 c-9 -6 -10 -10 -3 -10 6 0 15 5 18 10 8 12 4 12 -15 0z M800 1630 c0 -29 1 -30 50 -30 28 0 50 2 50 5 0 2 -18 9 -40 15 -22 6 -38 15 -35 19 3 5 -2 11 -10 15 -11 4 -15 -2 -15 -24z M1170 1645 c0 -9 -15 -22 -32 -30 l-33 -14 48 -1 c46 0 47 1 47 30 0 20 -5 30 -15 30 -8 0 -15 -7 -15 -15z M894 1631 c21 -23 26 -26 26 -11 0 5 -10 15 -22 21 -23 12 -23 12 -4 -10z M1096 1636 c5 -13 44 -19 44 -7 0 5 -11 11 -24 13 -15 3 -23 1 -20 -6z M970 1616 c0 -4 4 -15 9 -25 10 -17 55 -22 58 -5 1 5 -5 8 -14 6 -8 -2 -24 4 -34 14 -10 9 -19 14 -19 10z M920 1593 c0 -2 6 -11 14 -18 12 -12 15 -12 19 -1 3 8 -2 16 -14 19 -10 3 -19 3 -19 0z M1063 1588 c-3 -6 -1 -8 4 -5 6 4 13 0 17 -8 3 -8 12 -12 21 -9 8 3 13 10 10 14 -8 13 -45 19 -52 8z M865 1570 c-3 -6 1 -7 9 -4 18 7 21 14 7 14 -6 0 -13 -4 -16 -10z M1134 1571 c4 -5 0 -12 -6 -15 -7 -2 1 -5 17 -5 17 1 41 -2 55 -6 14 -4 5 3 -19 14 -48 23 -55 25 -47 12z M1065 1560 c6 -10 4 -12 -8 -7 -13 5 -15 2 -7 -17 7 -21 6 -22 -16 -18 -16 3 -23 10 -20 18 3 7 1 16 -4 19 -9 5 -12 -3 -12 -25 0 -3 -10 -15 -22 -28 -21 -21 -22 -22 -23 -2 -1 11 2 18 7 15 5 -3 11 -1 15 5 3 5 1 10 -5 10 -7 0 -10 6 -7 14 4 11 1 11 -19 2 -15 -7 -24 -20 -24 -33 0 -13 -11 -30 -26 -40 -31 -20 -74 -105 -74 -148 0 -16 -3 -40 -6 -51 l-6 -22 -41 23 c-200 111 -437 46 -526 -144 -23 -49 -26 -69 -26 -157 0 -98 1 -103 42 -185 48 -97 123 -185 212 -249 l62 -45 -28 -12 c-25 -11 -23 -11 27 -8 30 2 59 4 65 5 5 0 -8 12 -29 26 -29 20 -35 28 -25 35 12 7 11 9 -1 10 -8 1 -19 1 -23 0 -5 -1 -5 3 -2 10 4 6 19 8 34 5 18 -4 21 -3 11 3 -20 12 -68 25 -54 14 9 -6 8 -11 -2 -21 -14 -13 -19 -6 -15 24 1 6 -15 19 -35 30 -49 26 -120 115 -163 204 -32 67 -36 84 -36 155 0 96 24 158 87 222 61 62 126 88 223 88 72 0 88 -4 158 -37 60 -29 96 -55 155 -115 43 -43 87 -91 99 -108 l22 -30 22 30 c12 17 57 65 100 108 60 59 96 86 156 115 70 33 86 37 158 37 97 0 162 -26 223 -88 62 -63 86 -126 86 -222 1 -70 -4 -89 -31 -148 -18 -38 -42 -80 -53 -95 -42 -55 -127 -136 -185 -177 l-60 -43 -54 14 c-145 37 -545 41 -568 5 -9 -15 10 -16 206 -16 225 -1 320 -11 419 -45 100 -35 158 -120 150 -223 l-3 -42 -565 0 -565 0 -3 45 c-5 60 12 113 49 154 l30 34 -23 16 c-12 9 -32 15 -43 15 -17 -1 -17 -2 -2 -6 22 -6 22 -10 -8 -45 -33 -39 -46 -94 -43 -181 l3 -72 605 0 605 0 3 72 c2 40 -2 90 -7 111 -13 48 -56 105 -98 129 l-33 19 62 44 c88 65 163 153 211 249 41 82 42 87 42 185 0 88 -3 108 -26 157 -89 190 -326 255 -526 144 l-41 -23 -6 22 c-3 11 -6 35 -6 51 -1 43 -36 116 -70 145 -20 17 -30 36 -32 58 -1 19 -7 36 -12 39 -5 4 -6 1 -1 -7z m0 -112 c43 -19 68 -72 73 -154 l5 -74 -44 -48 c-24 -26 -57 -62 -72 -81 l-29 -35 -26 35 c-14 19 -46 54 -70 78 l-44 43 4 78 c5 84 29 138 70 158 31 14 101 15 133 0z M1012 1385 c0 -16 2 -22 5 -12 2 9 2 23 0 30 -3 6 -5 -1 -5 -18z M785 1550 c-13 -6 -15 -9 -5 -9 8 0 22 4 30 9 18 12 2 12 -25 0z M878 1548 c-8 -20 17 -18 35 2 10 12 9 12 -5 2 -13 -10 -17 -10 -20 0 -3 8 -6 7 -10 -4z M600 691 c0 -5 7 -12 16 -15 14 -5 15 -4 4 9 -14 17 -20 19 -20 6z M717 676 c-4 -11 -5 -21 -2 -24 3 -3 5 0 5 7 0 7 4 10 9 6 5 -3 13 0 17 6 4 7 3 9 -4 5 -5 -3 -12 -1 -14 6 -3 7 -7 5 -11 -6z M730 646 c0 -2 7 -6 15 -10 8 -3 15 -1 15 4 0 6 -7 10 -15 10 -8 0 -15 -2 -15 -4z M697 621 c-4 -17 -3 -21 5 -13 5 5 8 16 6 23 -3 8 -7 3 -11 -10z M590 610 c0 -5 5 -10 10 -10 6 0 10 5 10 10 0 6 -4 10 -10 10 -5 0 -10 -4 -10 -10z M815 609 c-4 -6 -5 -12 -2 -15 2 -3 7 2 10 11 7 17 1 20 -8 4z M738 596 c-15 -11 -15 -16 -5 -30 12 -17 14 -17 28 1 13 16 13 17 -3 4 -20 -15 -23 -9 -8 20 12 22 11 23 -12 5z M785 600 c-3 -5 -1 -10 4 -10 6 0 11 5 11 10 0 6 -2 10 -4 10 -3 0 -8 -4 -11 -10z M596 547 c3 -10 9 -15 12 -12 3 3 0 11 -7 18 -10 9 -11 8 -5 -6z M642 510 c7 -11 18 -20 25 -20 19 0 16 6 -12 24 -25 17 -25 16 -13 -4z M691 514 c0 -11 3 -14 6 -6 3 7 2 16 -1 19 -3 4 -6 -2 -5 -13z M739 505 c-8 -30 4 -55 25 -55 6 0 2 6 -9 12 -19 11 -19 11 0 19 18 7 18 8 2 8 -10 1 -15 6 -12 11 3 6 4 10 1 10 -3 0 -7 -2 -7 -5z M813 493 c9 -2 25 -2 35 0 9 3 1 5 -18 5 -19 0 -27 -2 -17 -5z M696 462 c-3 -5 -20 -7 -38 -5 -30 3 -31 2 -10 -7 25 -11 72 -4 72 11 0 11 -17 12 -24 1z M742 424 c10 -10 20 -16 22 -13 3 3 -5 11 -17 18 -21 13 -21 12 -5 -5z M613 413 c-10 -10 -13 -14 -6 -10 6 5 16 6 21 3 5 -3 9 1 9 9 0 19 -1 19 -24 -2z M664 423 c3 -4 0 -13 -6 -22 -10 -13 -10 -14 2 -4 9 8 19 9 31 2 14 -7 17 -6 13 5 -3 8 -15 16 -26 19 -11 3 -17 3 -14 0z M680 381 c0 -5 5 -13 10 -16 6 -3 10 -2 10 4 0 5 -4 13 -10 16 -5 3 -10 2 -10 -4z"/>
    </g>
  </g>
</svg>
