<svg xmlns="http://www.w3.org/2000/svg" viewBox="0 0 200 200" role="img" aria-labelledby="title">
  <title id="title">Black Pawn</title>
  <g shape-rendering="geometricPrecision">
    <g transform="translate(0.000000,200.000000) scale(0.100000,-0.100000)" fill="#000000" stroke="none">
      <path d="M919 1524 c-181 -55 -245 -281 -128 -446 l22 -30 -37 -32 c-54 -45 -76 -84 -76 -133 l0 -43 60 0 60 0 0 -33 c0 -44 -40 -105 -140 -213 -179 -195 -238 -354 -142 -382 35 -9 889 -9 924 0 96 28 37 187 -142 382 -100 108 -140 169 -140 213 l0 33 60 0 60 0 0 43 c0 49 -22 88 -76 133 l-37 32 22 30 c162 228 -31 526 -290 446z"/>
    </g>
    <g transform="translate(0.000000,200.000000) scale(0.100000,-0.100000)" fill="#4c4c4c" stroke="none">
      <path d="M938 1481 c-250 -81 -199 -444 62 -444 231 0 313 302 114 419 -47 28 -131 39 -176 25z M806 981 c-30 -20 -66 -68 -66 -88 0 -10 59 -13 260 -13 281 0 275 -1 240 55 -33 54 -78 71 -143 56 -51 -13 -135 -11 -227 4 -25 4 -43 0 -64 -14z M876 818 c-3 -7 -12 -37 -21 -65 -13 -40 -37 -76 -103 -149 -163 -181 -202 -242 -202 -316 l0 -38 450 0 450 0 0 38 c0 74 -39 135 -202 316 -73 82 -91 108 -107 159 l-19 62 -121 3 c-92 2 -122 0 -125 -10z"/>
    </g>
  </g>
</svg>
