<svg xmlns="http://www.w3.org/2000/svg" viewBox="0 0 200 200" role="img" aria-labelledby="title">
  <title id="title">Black Queen</title>
  <g shape-rendering="geometricPrecision">
    <g transform="translate(0.000000,200.000000) scale(0.100000,-0.100000)" fill="#000000" stroke="none">
      <path d="M945 1682 c-84 -52 -92 -137 -21 -211 l34 -36 -42 -240 c-23 -132 -45 -235 -49 -229 -3 6 -49 109 -102 229 l-95 219 25 26 c97 101 -9 264 -132 203 -103 -51 -103 -172 0 -228 l37 -20 0 -237 c0 -131 -3 -238 -7 -238 -5 0 -68 85 -141 189 l-132 189 21 37 c79 133 -86 272 -191 160 -67 -71 -15 -215 79 -215 26 0 28 -9 104 -347 l64 -281 56 -88 c65 -100 63 -89 37 -174 -51 -166 36 -200 510 -200 474 0 561 34 510 200 -26 85 -28 74 37 174 l56 88 64 281 c76 338 78 347 104 347 94 0 146 144 79 215 -105 112 -270 -27 -191 -160 l21 -37 -132 -189 c-73 -104 -136 -189 -140 -189 -5 0 -8 107 -8 238 l0 237 37 20 c103 56 103 177 0 228 -123 61 -229 -102 -132 -203 l25 -26 -95 -219 c-53 -120 -99 -223 -102 -229 -4 -6 -26 97 -49 229 l-42 240 34 36 c107 111 -4 288 -131 211z"/>
    </g>
    <g transform="translate(0.000000,200.000000) scale(0.100000,-0.100000)" fill="#4c4c4c" stroke="none">
      <path d="M949 1621 c-35 -36 -37 -61 -6 -97 44 -51 137 -19 137 47 0 27 -53 79 -80 79 -12 0 -35 -13 -51 -29z M559 1581 c-35 -36 -37 -61 -6 -97 46 -53 130 -23 130 46 0 71 -73 102 -124 51z M1340 1585 c-47 -50 -17 -128 51 -128 69 0 99 74 50 124 -36 36 -70 37 -101 4z M189 1461 c-35 -36 -37 -61 -6 -97 46 -53 130 -23 130 46 0 71 -73 102 -124 51z M1710 1465 c-47 -50 -17 -128 51 -128 69 0 99 74 50 124 -36 36 -70 37 -101 4z M957 1159 c-66 -370 -68 -370 -228 3 -40 93 -75 165 -78 162 -3 -3 -8 -114 -11 -247 l-5 -242 -24 0 c-19 0 -44 28 -130 151 -58 83 -118 166 -133 185 l-27 34 13 -60 c8 -33 33 -147 57 -253 l42 -193 34 33 33 32 35 -17 c60 -28 108 -23 151 18 l38 36 57 -26 c87 -39 129 -30 188 42 l31 38 31 -38 c59 -72 101 -81 188 -42 l57 26 38 -36 c43 -41 91 -46 151 -18 l35 17 33 -32 34 -33 42 193 c24 106 49 220 57 253 l13 60 -27 -34 c-15 -19 -75 -102 -133 -185 -86 -123 -111 -151 -130 -151 l-24 0 -5 242 c-3 133 -8 244 -11 247 -3 3 -38 -69 -78 -162 -160 -373 -162 -373 -228 -3 -20 116 -40 211 -43 211 -3 0 -23 -95 -43 -211z M953 724 c-50 -30 -120 -34 -178 -10 -36 15 -38 15 -72 -11 -40 -31 -126 -43 -163 -23 -69 37 -82 -51 -19 -129 l20 -24 117 21 c254 47 430 47 684 0 l117 -21 20 24 c63 78 50 166 -19 129 -37 -20 -123 -8 -163 23 -34 26 -36 26 -72 11 -58 -24 -128 -20 -179 10 -53 31 -42 31 -93 0z M774 510 c-211 -32 -224 -40 -241 -145 l-5 -32 88 20 c132 30 636 30 768 0 l88 -20 -5 32 c-17 106 -28 113 -250 146 -161 23 -284 23 -443 -1z M760 314 c-179 -22 -214 -34 -153 -52 174 -52 871 -36 816 19 -25 24 -527 49 -663 33z"/>
    </g>
  </g>
</svg>
