<svg xmlns="http://www.w3.org/2000/svg" viewBox="0 0 200 200" role="img" aria-labelledby="title">
  <title id="title">Black King</title>
  <g shape-rendering="geometricPrecision">
    <g transform="translate(0.000000,200.000000) scale(0.100000,-0.100000)" fill="#000000" stroke="none">
      <path d="M985 1718 c-2 -7 -6 -29 -7 -48 -3 -34 -5 -35 -48 -40 -31 -3 -45 -10 -45 -20 0 -10 14 -17 45 -20 64 -7 75 -77 16 -98 -46 -17 -93 -65 -113 -114 -8 -21 -18 -37 -22 -36 -3 2 -29 15 -58 30 -452 238 -810 -355 -384 -636 64 -42 72 -51 85 -97 28 -93 28 -111 2 -208 -43 -159 61 -196 544 -196 483 0 587 37 544 196 -26 97 -26 115 2 208 13 46 21 55 85 97 426 281 68 874 -384 636 -29 -15 -55 -28 -58 -30 -4 -1 -14 15 -22 36 -20 49 -67 97 -113 114 -59 21 -48 91 16 98 31 3 45 10 45 20 0 10 -14 17 -45 20 -45 5 -45 5 -50 49 -5 43 -25 66 -35 39z"/>
    </g>
    <g transform="translate(0.000000,200.000000) scale(0.100000,-0.100000)" fill="#4c4c4c" stroke="none">
      <path d="M965 1444 c-59 -14 -95 -58 -95 -119 0 -25 117 -265 130 -265 12 0 130 239 130 264 0 84 -77 140 -165 120z M460 1366 c-294 -85 -325 -450 -51 -599 l47 -26 80 24 c116 33 254 55 351 55 l83 0 0 81 0 82 -67 125 c-129 237 -257 312 -443 258z M1345 1366 c-106 -34 -151 -80 -247 -258 l-68 -125 0 -82 0 -81 83 0 c97 0 235 -22 351 -55 l80 -24 47 26 c359 195 143 722 -246 599z M833 760 c-246 -22 -328 -52 -327 -119 2 -66 1 -65 65 -47 202 56 656 56 858 0 64 -18 63 -19 65 47 l1 53 -60 18 c-139 43 -415 65 -602 48z M745 569 c-38 -5 -103 -17 -144 -27 l-75 -17 -17 -70 c-21 -83 -27 -76 46 -60 204 47 686 47 890 0 73 -16 67 -23 46 60 l-17 70 -100 23 c-113 26 -496 39 -629 21z M725 364 c-168 -17 -215 -36 -133 -54 223 -47 593 -47 816 1 64 13 58 23 -23 39 -58 12 -574 22 -660 14z"/>
    </g>
  </g>
</svg>
