<svg xmlns="http://www.w3.org/2000/svg" viewBox="0 0 200 200" role="img" aria-labelledby="title">
  <title id="title">Black Bishop</title>
  <g shape-rendering="geometricPrecision">
    <g transform="translate(0.000000,200.000000) scale(0.100000,-0.100000)" fill="#000000" stroke="none">
      <path d="M955 1651 c-83 -36 -104 -137 -44 -206 l30 -33 -49 -59 c-26 -32 -114 -139 -194 -238 l-146 -181 84 -109 c99 -130 101 -135 74 -231 -26 -91 -22 -98 76 -140 70 -30 73 -33 45 -58 -31 -28 -80 -29 -216 -5 -247 43 -358 28 -421 -58 l-22 -29 40 -67 c44 -76 45 -76 112 -42 59 30 144 33 301 10 221 -32 365 1 365 84 0 12 5 21 10 21 6 0 10 -9 10 -21 0 -83 144 -116 365 -84 157 23 242 20 301 -10 67 -34 68 -34 112 42 l40 67 -22 29 c-63 86 -174 101 -421 58 -136 -24 -185 -23 -216 5 -28 25 -25 28 45 58 98 42 102 49 76 140 -27 96 -25 101 74 231 l84 109 -146 181 c-80 99 -168 206 -195 239 l-48 59 25 26 c94 98 -8 265 -129 212z"/>
    </g>
    <g transform="translate(0.000000,200.000000) scale(0.100000,-0.100000)" fill="#4c4c4c" stroke="none">
      <path d="M949 1581 c-35 -36 -37 -61 -6 -97 44 -51 137 -19 137 47 0 27 -53 79 -80 79 -12 0 -35 -13 -51 -29z M907 1293 c-71 -84 -252 -302 -280 -340 -20 -27 124 -218 157 -209 115 34 317 34 432 0 33 -9 177 182 157 209 -83 111 -361 437 -373 437 -5 0 -47 -44 -93 -97z m123 -218 l0 -45 45 0 c43 0 45 -1 45 -30 0 -29 -2 -30 -45 -30 l-45 0 0 -45 c0 -43 -1 -45 -30 -45 -29 0 -30 2 -30 45 l0 45 -45 0 c-43 0 -45 1 -45 30 0 29 2 30 45 30 l45 0 0 45 c0 43 1 45 30 45 29 0 30 -2 30 -45z M855 704 c-61 -15 -75 -27 -89 -73 -17 -57 -20 -55 55 -41 82 16 276 16 358 0 75 -14 72 -16 55 41 -19 65 -39 72 -214 75 -80 2 -154 1 -165 -2z M863 540 c-120 -18 -128 -30 -35 -49 106 -22 375 -9 406 19 29 28 -238 49 -371 30z M909 413 c-9 -2 -21 -15 -28 -29 -25 -56 -124 -67 -306 -34 -239 44 -379 8 -329 -85 21 -40 20 -40 68 -20 65 27 169 29 326 5 237 -35 302 -9 323 133 6 39 -3 44 -54 30z M1037 383 c21 -142 86 -168 323 -133 157 24 261 22 326 -5 48 -20 47 -20 68 20 50 93 -90 129 -329 85 -181 -33 -281 -22 -306 34 -11 23 -35 36 -71 36 -14 0 -16 -7 -11 -37z"/>
    </g>
  </g>
</svg>
