<svg xmlns="http://www.w3.org/2000/svg" viewBox="0 0 200 200" role="img" aria-labelledby="title">
  <title id="title">Black Knight</title>
  <g shape-rendering="geometricPrecision">
    <g transform="translate(0.000000,200.000000) scale(0.100000,-0.100000)" fill="#000000" stroke="none">
      <path d="M515 1605 c-32 -31 -33 -83 -4 -160 21 -56 21 -57 1 -78 -35 -39 -54 -89 -63 -162 -9 -82 -40 -158 -108 -265 -112 -175 -133 -255 -88 -333 44 -74 138 -127 189 -106 22 9 35 9 58 -1 51 -21 75 -7 119 69 51 86 102 132 225 200 53 29 107 67 121 83 34 40 36 35 24 -46 -14 -103 -47 -154 -169 -261 -157 -138 -190 -198 -190 -347 l0 -68 373 0 c204 0 456 3 558 7 l187 6 12 112 c74 663 -238 1197 -724 1241 -74 7 -76 7 -86 40 -38 113 -132 108 -195 -10 -18 -34 -35 -47 -35 -28 0 68 -161 152 -205 107z"/>
    </g>
    <g transform="translate(0.000000,200.000000) scale(0.100000,-0.100000)" fill="#4c4c4c" stroke="none">
      <path d="M538 1558 c-6 -36 12 -101 33 -124 26 -28 25 -34 -20 -94 -33 -44 -41 -66 -56 -145 -18 -99 -54 -186 -119 -288 -127 -197 -126 -303 3 -356 38 -16 50 -8 97 64 69 109 118 92 59 -19 -53 -99 -7 -79 63 27 51 78 111 130 215 184 97 51 139 94 167 171 32 88 79 95 73 10 -22 -297 -24 -302 -193 -468 -160 -157 -189 -209 -190 -337 0 -10 110 -13 519 -13 l518 0 7 61 c40 392 -67 819 -254 1010 -145 148 -460 272 -480 189 -14 -57 -51 -31 -65 45 -23 132 -69 127 -139 -13 -43 -85 -76 -98 -87 -32 -14 90 -140 196 -151 128z m165 -363 c-2 -61 -36 -98 -87 -93 -57 6 -48 72 16 118 58 42 73 37 71 -25z m-305 -452 c5 -31 -15 -63 -38 -63 -23 0 -27 37 -9 71 13 26 43 20 47 -8z"/>
    </g>
  </g>
</svg>
