<svg xmlns="http://www.w3.org/2000/svg" viewBox="0 0 200 200" role="img" aria-labelledby="title">
  <title id="title">White Rook</title>
  <g shape-rendering="geometricPrecision">
    <g transform="translate(0.000000,200.000000) scale(0.100000,-0.100000)" fill="#000000" stroke="none">
      <path d="M490 1426 l0 -153 76 -64 c122 -102 114 -81 114 -307 l0 -194 -70 -77 -69 -78 -3 -79 -3 -79 -69 -3 c-65 -3 -68 -4 -62 -25 3 -12 6 -59 6 -104 l0 -83 590 0 590 0 0 83 c0 45 3 92 6 104 6 21 3 22 -62 25 l-69 3 -3 79 -3 79 -69 78 -70 77 0 194 c0 226 -8 205 114 307 l76 64 0 153 0 154 -119 0 -120 0 -3 -52 -3 -53 -60 0 -60 0 -3 53 -3 52 -139 0 -139 0 -3 -52 -3 -53 -60 0 -60 0 -3 53 -3 52 -120 0 -119 0 0 -154z"/>
    </g>
    <g transform="translate(0.000000,200.000000) scale(0.100000,-0.100000)" fill="#ffffff" stroke="none">
      <path d="M530 1425 l0 -115 470 0 470 0 0 115 0 115 -80 0 -80 0 0 -55 0 -55 -105 0 -105 0 0 55 0 55 -100 0 -100 0 0 -55 0 -55 -105 0 -105 0 0 55 0 55 -80 0 -80 0 0 -115z M720 1250 l-125 -5 58 -47 59 -48 288 0 288 0 59 48 58 47 -140 6 c-162 8 -367 7 -545 -1z M720 910 l0 -190 280 0 280 0 0 190 0 190 -280 0 -280 0 0 -190z M839 662 l-137 -3 -43 -47 -44 -47 193 -3 c105 -1 279 -1 385 0 l192 3 -45 47 -45 46 -160 4 c-88 2 -221 2 -296 0z M580 455 l0 -55 420 0 420 0 0 55 0 55 -420 0 -420 0 0 -55z M450 285 l0 -65 550 0 550 0 0 65 0 65 -550 0 -550 0 0 -65z"/>
    </g>
  </g>
</svg>
