<svg xmlns="http://www.w3.org/2000/svg" viewBox="0 0 1200 420" role="img" aria-labelledby="title desc">
  <title id="title">ChessRTK FEN Helix signature logo concept</title>
  <desc id="desc">Encoded chess state as a living, repeatable strand.</desc>
  <defs>
    <filter id="shadow" x="-12%" y="-12%" width="124%" height="124%">
      <feDropShadow dx="0" dy="16" stdDeviation="18" flood-color="#07100c" flood-opacity="0.24"/>
    </filter>
  </defs>
  <rect width="1200" height="420" rx="48" fill="#f4f7f3"/><rect x="42" y="42" width="1116" height="336" rx="38" fill="#fffefb" stroke="#d6dfd7" stroke-width="2"/>
  <g transform="translate(82 70)" filter="url(#shadow)">
    <rect width="280" height="280" rx="36" fill="#07110c"/>
    
<rect x="38" y="38" width="204" height="204" rx="28" fill="#eef5ef"/>
<path d="M76 70 C128 98 154 182 210 210" fill="none" stroke="#d8a63a" stroke-width="10" stroke-linecap="round"/>
<path d="M210 70 C154 98 128 182 76 210" fill="none" stroke="#2e7d57" stroke-width="10" stroke-linecap="round"/>
<g stroke="#123b2b" stroke-width="5" stroke-linecap="round" opacity="0.68">
  <path d="M94 88 H192"/><path d="M86 120 H166"/><path d="M96 158 H158"/><path d="M86 190 H188"/>
</g>
<g font-family="ui-monospace, Menlo, Consolas, monospace" font-size="18" font-weight="900" fill="#123b2b">
  <text x="66" y="74">FEN</text>
  <text x="178" y="224">0 1</text>
</g>

  </g>
  <g transform="translate(424 112)">
    <text x="0" y="76" fill="#123b2b" font-family="Inter, Segoe UI, Arial, sans-serif" font-size="86" font-weight="850" letter-spacing="0">ChessRTK</text>
    <text x="3" y="123" fill="#2e7d57" font-family="Inter, Segoe UI, Arial, sans-serif" font-size="26" font-weight="850" letter-spacing="0">FEN HELIX</text>
    <text x="3" y="172" fill="#3e4b42" font-family="Inter, Segoe UI, Arial, sans-serif" font-size="30" font-weight="500" letter-spacing="0">Encoded chess state as a living, repeatable strand.</text>
    <text x="3" y="224" fill="#2e7d57" opacity="0.76" font-family="ui-monospace, Menlo, Consolas, monospace" font-size="22" font-weight="850">concept 02 / signature candidate</text>
  </g>
</svg>
