<svg xmlns="http://www.w3.org/2000/svg" viewBox="0 0 1200 420" role="img" aria-labelledby="title desc">
  <title id="title">ChessRTK Engine Pulse signature logo concept</title>
  <desc id="desc">Evaluation as a signal with a stable center line.</desc>
  <defs>
    <filter id="shadow" x="-12%" y="-12%" width="124%" height="124%">
      <feDropShadow dx="0" dy="16" stdDeviation="18" flood-color="#07100c" flood-opacity="0.24"/>
    </filter>
  </defs>
  <rect width="1200" height="420" rx="48" fill="#f4f7f3"/><rect x="42" y="42" width="1116" height="336" rx="38" fill="#fffefb" stroke="#d6dfd7" stroke-width="2"/>
  <g transform="translate(82 70)" filter="url(#shadow)">
    <rect width="280" height="280" rx="36" fill="#07110c"/>
    
<rect x="38" y="38" width="204" height="204" rx="28" fill="#eef5ef"/>
<path d="M62 154 C92 96 116 204 146 142 S192 82 222 118" fill="none" stroke="#d8a63a" stroke-width="12" stroke-linecap="round"/>
<path d="M62 184 C96 150 124 154 154 122 S196 86 222 88" fill="none" stroke="#2e7d57" stroke-width="7" stroke-linecap="round"/>
<path d="M64 88 H204" stroke="#123b2b" stroke-width="6" stroke-linecap="round" opacity="0.35"/>
<text x="72" y="78" fill="#123b2b" font-family="ui-monospace, Menlo, Consolas, monospace" font-size="20" font-weight="900">pv</text>
<circle cx="146" cy="142" r="10" fill="#d8a63a" stroke="#fffefb" stroke-width="4"/><circle cx="222" cy="118" r="9" fill="#2e7d57" stroke="#fffefb" stroke-width="4"/>

  </g>
  <g transform="translate(424 112)">
    <text x="0" y="76" fill="#123b2b" font-family="Inter, Segoe UI, Arial, sans-serif" font-size="86" font-weight="850" letter-spacing="0">ChessRTK</text>
    <text x="3" y="123" fill="#2e7d57" font-family="Inter, Segoe UI, Arial, sans-serif" font-size="26" font-weight="850" letter-spacing="0">ENGINE PULSE</text>
    <text x="3" y="172" fill="#3e4b42" font-family="Inter, Segoe UI, Arial, sans-serif" font-size="30" font-weight="500" letter-spacing="0">Evaluation as a signal with a stable center line.</text>
    <text x="3" y="224" fill="#2e7d57" opacity="0.76" font-family="ui-monospace, Menlo, Consolas, monospace" font-size="22" font-weight="850">concept 08 / signature candidate</text>
  </g>
</svg>
