<svg xmlns="http://www.w3.org/2000/svg" viewBox="0 0 200 200" role="img" aria-labelledby="title">
  <title id="title">Book Pawn</title>
  <g shape-rendering="geometricPrecision">
    <g transform="translate(0.000000,200.000000) scale(0.100000,-0.100000)" fill="#f2f1ec" stroke="none">
      <path d="M917 1730 c-46 -14 -93 -56 -117 -104 -24 -50 -29 -132 -11 -179 14 -36 14 -37 -4 -37 -28 0 -82 -33 -99 -60 -9 -16 -16 -47 -16 -70 0 -34 6 -48 34 -76 19 -19 43 -34 54 -34 37 0 52 -11 52 -40 0 -21 10 -37 37 -59 l36 -30 -6 -88 c-6 -85 -23 -157 -54 -235 -11 -29 -21 -37 -48 -42 -42 -8 -88 -60 -82 -92 3 -20 -1 -22 -45 -26 -27 -3 -62 -14 -76 -25 -43 -31 -72 -98 -72 -165 l0 -58 501 0 502 0 -5 69 c-8 112 -55 170 -145 178 -45 5 -48 7 -49 34 -1 38 -38 77 -80 85 -28 5 -35 13 -53 57 -31 80 -41 125 -48 219 l-6 87 37 34 c23 22 36 44 36 60 0 25 16 37 51 37 10 0 33 13 50 28 26 23 33 38 37 80 4 49 2 54 -31 87 -19 19 -49 38 -66 41 -27 6 -30 10 -24 28 5 11 8 55 8 97 0 65 -4 81 -27 116 -50 76 -171 113 -271 83z"/>
    </g>
    <g transform="translate(0.000000,200.000000) scale(0.100000,-0.100000)" fill="#c6c0b6" stroke="none">
      <path d="M978 1673 c12 -2 32 -2 45 0 12 2 2 4 -23 4 -25 0 -35 -2 -22 -4z M870 1436 c0 -2 8 -10 18 -17 15 -13 16 -12 3 4 -13 16 -21 21 -21 13z M1109 1423 c-13 -16 -12 -17 4 -4 16 13 21 21 13 21 -2 0 -10 -8 -17 -17z M893 1233 c59 -2 155 -2 215 0 59 1 10 3 -108 3 -118 0 -167 -2 -107 -3z M880 1141 c0 -6 4 -13 10 -16 6 -3 7 1 4 9 -7 18 -14 21 -14 7z M992 1053 c33 -3 48 -9 51 -21 3 -12 4 -11 3 3 -1 17 -8 20 -51 21 l-50 1 47 -4z M941 894 c0 -11 3 -14 6 -6 3 7 2 16 -1 19 -3 4 -6 -2 -5 -13z M1051 894 c0 -11 3 -14 6 -6 3 7 2 16 -1 19 -3 4 -6 -2 -5 -13z M931 834 c0 -11 3 -14 6 -6 3 7 2 16 -1 19 -3 4 -6 -2 -5 -13z M943 673 c31 -2 83 -2 115 0 31 2 5 3 -58 3 -63 0 -89 -1 -57 -3z M777 603 c-3 -5 61 -7 141 -5 271 4 299 8 80 10 -119 1 -219 -1 -221 -5z"/>
    </g>
    <g transform="translate(0.000000,200.000000) scale(0.100000,-0.100000)" fill="#171412" stroke="none">
      <path d="M917 1730 c-46 -14 -93 -56 -117 -104 -24 -50 -29 -132 -11 -179 14 -36 14 -37 -4 -37 -28 0 -82 -33 -99 -60 -9 -16 -16 -47 -16 -70 0 -34 6 -48 34 -76 19 -19 43 -34 54 -34 37 0 52 -11 52 -40 0 -21 10 -37 37 -59 l36 -30 -6 -88 c-6 -85 -23 -157 -54 -235 -11 -29 -21 -37 -48 -42 -42 -8 -88 -60 -82 -92 3 -20 -1 -22 -45 -26 -27 -3 -62 -14 -76 -25 -43 -31 -72 -98 -72 -165 l0 -58 501 0 502 0 -5 69 c-8 112 -55 170 -145 178 -45 5 -48 7 -49 34 -1 38 -38 77 -80 85 -28 5 -35 13 -53 57 -31 80 -41 125 -48 219 l-6 87 37 34 c23 22 36 44 36 60 0 25 16 37 51 37 10 0 33 13 50 28 26 23 33 38 37 80 4 49 2 54 -31 87 -19 19 -49 38 -66 41 -27 6 -30 10 -24 28 5 11 8 55 8 97 0 65 -4 81 -27 116 -50 76 -171 113 -271 83z m153 -68 c75 -37 105 -146 60 -219 l-20 -33 -110 0 -110 0 -20 33 c-24 39 -26 116 -4 162 30 65 131 93 204 57z m168 -334 c7 -7 12 -23 12 -38 0 -54 -3 -55 -222 -58 -112 -2 -218 0 -236 3 -43 8 -60 46 -37 81 l15 24 228 0 c164 0 231 -3 240 -12z m-131 -169 c6 -6 9 -18 6 -25 -4 -11 -31 -14 -113 -14 -109 0 -125 5 -114 34 5 13 24 16 108 16 62 0 106 -4 113 -11z m-55 -203 c4 -56 18 -139 33 -188 14 -49 25 -91 25 -93 0 -3 -50 -5 -111 -5 -111 0 -111 0 -105 23 35 119 48 187 53 270 l6 98 46 -3 46 -3 7 -99z m167 -355 c8 -5 11 -16 8 -25 -6 -14 -34 -16 -226 -16 -220 0 -240 3 -227 35 4 13 41 15 218 15 117 0 219 -4 227 -9z m154 -122 c14 -6 30 -22 36 -36 25 -56 47 -53 -409 -53 -373 0 -420 2 -420 15 0 22 27 72 42 78 27 11 727 7 751 -4z"/>
    </g>
  </g>
</svg>
