<svg xmlns="http://www.w3.org/2000/svg" viewBox="0 0 200 200" role="img" aria-labelledby="title">
  <title id="title">Lava White Rook</title>
  <g shape-rendering="geometricPrecision">
    <g transform="translate(0.000000,200.000000) scale(0.100000,-0.100000)" fill="#f2f1ec" stroke="none">
      <path d="M386 1808 c-13 -18 -16 -51 -16 -154 l0 -132 80 -78 80 -77 0 -376 0 -376 -60 -67 -60 -66 0 -64 c0 -60 -2 -64 -30 -80 -29 -17 -30 -19 -30 -97 0 -69 3 -82 19 -91 13 -6 230 -10 634 -10 709 0 647 -10 647 103 0 62 -2 68 -30 89 -28 20 -30 26 -30 84 l0 62 -60 64 -60 63 0 386 0 387 75 67 75 67 0 143 c0 117 -3 146 -16 159 -12 13 -40 16 -140 16 l-124 0 0 -70 0 -69 -53 -16 c-46 -13 -59 -13 -93 -2 l-39 14 -3 71 -3 72 -149 0 -150 0 0 -69 0 -69 -48 -16 c-44 -15 -52 -15 -95 0 l-47 16 0 69 0 69 -129 0 c-123 0 -131 -1 -145 -22z"/>
    </g>
    <g transform="translate(0.000000,200.000000) scale(0.100000,-0.100000)" fill="#c6c0b6" stroke="none">
      <path d="M438 1753 c-2 -16 -2 -70 0 -121 l4 -92 574 0 574 1 0 114 0 115 -67 1 c-126 2 -136 -2 -126 -53 13 -64 -17 -93 -107 -105 -19 -2 -36 -5 -38 -7 -6 -6 -107 35 -124 51 -13 11 -18 31 -18 67 l0 51 -98 0 c-54 0 -100 -4 -105 -10 -4 -5 -6 -34 -5 -62 1 -29 0 -54 -3 -56 -11 -9 -77 -36 -101 -42 -33 -9 -124 20 -155 48 -18 16 -23 31 -23 69 0 46 -1 48 -27 48 -16 1 -56 3 -89 5 -61 5 -62 5 -66 -22z m1069 -135 c-3 -8 -6 -5 -6 6 -1 11 2 17 5 13 3 -3 4 -12 1 -19z M526 1482 l-49 -3 39 -40 38 -39 451 0 451 0 39 40 39 40 -44 2 c-74 3 -911 3 -964 0z M620 1330 l-35 -5 0 -112 c0 -62 1 -221 3 -353 l2 -240 420 0 419 0 1 358 0 357 -387 0 c-214 0 -404 -2 -423 -5z m583 -205 c-3 -9 -8 -14 -10 -11 -3 3 -2 9 2 15 9 16 15 13 8 -4z m35 -130 c-6 -14 -13 -24 -14 -22 -6 6 9 47 17 47 5 0 3 -11 -3 -25z m70 -41 c6 3 13 2 17 -4 3 -5 -1 -10 -9 -10 -9 0 -16 -7 -16 -15 0 -18 16 -20 24 -2 5 12 -2 -37 -9 -60 -2 -6 -13 -9 -24 -6 -23 6 -27 18 -10 29 7 4 9 22 5 48 -4 26 -3 36 3 27 5 -7 13 -11 19 -7z m-21 -151 c-3 -10 -5 -4 -5 12 0 17 2 24 5 18 2 -7 2 -21 0 -30z m30 -5 c-3 -8 -6 -5 -6 6 -1 11 2 17 5 13 3 -3 4 -12 1 -19z m20 -10 c-3 -7 -5 -2 -5 12 0 14 2 19 5 13 2 -7 2 -19 0 -25z m50 -50 c-3 -7 -5 -2 -5 12 0 14 2 19 5 13 2 -7 2 -19 0 -25z M604 560 c-31 -4 -48 -13 -68 -37 l-27 -33 511 0 512 0 -31 31 c-17 17 -31 34 -31 37 0 4 -119 7 -265 8 -149 0 -265 -3 -265 -8 0 -5 -6 -6 -12 -1 -14 8 -260 11 -324 3z M543 432 l-73 -3 0 -44 0 -45 540 0 540 0 0 48 0 47 -468 0 c-257 0 -500 -1 -539 -3z M478 282 l-66 -3 -4 -54 -3 -55 148 0 c143 0 147 1 137 19 -13 25 -14 53 -1 32 7 -11 10 -11 15 0 3 8 3 4 0 -9 -4 -15 -1 -22 8 -20 7 2 12 -3 10 -9 -3 -18 868 -19 886 -1 7 7 12 34 12 60 l0 48 -537 -2 c-296 -2 -568 -4 -605 -6z m199 -34 c-3 -8 -6 -5 -6 6 -1 11 2 17 5 13 3 -3 4 -12 1 -19z"/>
    </g>
    <g transform="translate(0.000000,200.000000) scale(0.100000,-0.100000)" fill="#171412" stroke="none">
      <path d="M386 1808 c-13 -18 -16 -51 -16 -154 l0 -132 80 -78 80 -77 0 -376 0 -376 -60 -67 -60 -66 0 -64 c0 -60 -2 -64 -30 -80 -29 -17 -30 -19 -30 -97 0 -69 3 -82 19 -91 13 -6 230 -10 634 -10 709 0 647 -10 647 103 0 62 -2 68 -30 89 -28 20 -30 26 -30 84 l0 62 -60 64 -60 63 0 386 0 387 75 67 75 67 0 143 c0 117 -3 146 -16 159 -12 13 -40 16 -140 16 l-124 0 0 -70 0 -69 -53 -16 c-46 -13 -59 -13 -93 -2 l-39 14 -3 71 -3 72 -149 0 -150 0 0 -69 0 -69 -48 -16 c-44 -15 -52 -15 -95 0 l-47 16 0 69 0 69 -129 0 c-123 0 -131 -1 -145 -22z m236 -75 l3 -66 65 -22 65 -22 62 21 63 20 0 68 0 68 115 0 114 0 3 -66 3 -66 60 -23 60 -22 65 22 65 22 3 67 3 67 107 -3 107 -3 3 -127 3 -128 -591 0 -590 0 0 123 c0 68 3 127 7 130 3 4 50 7 104 7 l98 0 3 -67z m888 -278 l-54 -55 -455 0 -454 0 -58 55 -58 55 567 0 566 0 -54 -55z m-80 -465 l0 -370 -435 0 -435 0 0 370 0 370 435 0 435 0 0 -370z m58 -450 l43 -50 -532 0 c-594 0 -544 -7 -475 68 l30 32 445 0 446 0 43 -50z m62 -140 l0 -60 -555 0 -555 0 0 60 0 60 555 0 555 0 0 -60z m64 -106 c11 -29 6 -101 -8 -113 -9 -8 -179 -10 -617 -9 l-604 3 -3 54 c-2 29 -1 60 2 67 4 12 108 14 615 14 546 0 609 -2 615 -16z"/>
    </g>
  </g>
</svg>
