<svg xmlns="http://www.w3.org/2000/svg" viewBox="0 0 200 200" role="img" aria-labelledby="title">
  <title id="title">Lava White King</title>
  <g shape-rendering="geometricPrecision">
    <g transform="translate(0.000000,200.000000) scale(0.100000,-0.100000)" fill="#f2f1ec" stroke="none">
      <path d="M782 1540 l3 -250 -33 -6 c-21 -4 -47 -1 -70 9 -61 26 -113 37 -184 37 -243 0 -375 -212 -289 -463 31 -89 82 -164 170 -252 44 -44 86 -92 92 -107 11 -28 8 -120 -5 -150 -6 -13 0 -22 26 -38 42 -25 189 -74 288 -96 100 -21 339 -22 435 -1 91 20 218 62 275 90 48 24 47 20 34 109 -3 26 -3 59 0 74 4 15 46 65 95 113 144 141 196 251 196 411 0 83 -4 101 -27 145 -56 106 -139 156 -268 163 -73 4 -96 0 -164 -22 -58 -20 -90 -25 -118 -21 -33 6 -37 9 -28 25 6 11 10 116 10 249 l0 231 -220 0 -221 0 3 -250z"/>
    </g>
    <g transform="translate(0.000000,200.000000) scale(0.100000,-0.100000)" fill="#c6c0b6" stroke="none">
      <path d="M885 1720 c-3 -4 22 -31 55 -60 l60 -52 58 52 c31 29 58 56 60 59 3 9 -227 10 -233 1z M830 1574 l0 -116 65 57 c71 63 71 65 15 110 -14 11 -35 30 -46 42 -12 13 -24 23 -28 23 -3 0 -6 -52 -6 -116z M1110 1632 l-65 -60 20 -22 c26 -29 115 -104 118 -99 1 2 0 57 -3 122 l-5 119 -65 -60z M970 1502 c-19 -14 -45 -38 -58 -54 l-24 -28 128 0 128 0 -29 30 c-16 17 -33 30 -38 30 -5 0 -18 11 -29 25 -24 31 -34 30 -78 -3z M1212 1365 c0 -16 2 -22 5 -12 2 9 2 23 0 30 -3 6 -5 -1 -5 -18z M827 1349 c-3 -10 0 -25 7 -34 10 -14 13 -12 22 14 10 25 9 30 -6 34 -12 3 -20 -2 -23 -14z M1130 1365 c0 -2 8 -18 19 -35 15 -25 20 -28 25 -15 12 34 6 51 -19 53 -14 1 -25 0 -25 -3z M931 1323 c-17 -16 -33 -40 -37 -55 -5 -23 -1 -30 28 -48 38 -23 110 -27 147 -7 35 17 64 61 57 84 -10 30 -59 53 -115 53 -41 0 -56 -5 -80 -27z M480 1270 c-8 -5 -23 -7 -32 -4 -20 6 -127 -46 -148 -72 -25 -31 -51 -83 -54 -107 -1 -12 -6 -30 -11 -40 -11 -27 0 -150 17 -183 9 -16 25 -50 38 -77 12 -26 43 -70 68 -98 l47 -51 120 30 c196 50 255 56 480 56 227 -1 363 -18 520 -68 l75 -24 35 39 c95 106 147 227 148 345 0 60 -3 75 -21 95 -12 12 -22 32 -22 42 0 11 -8 26 -17 34 -105 83 -195 99 -345 60 -61 -16 -165 -85 -173 -114 -3 -13 -9 -22 -13 -21 -22 7 -101 -66 -136 -126 -21 -36 -43 -66 -47 -66 -5 0 -18 19 -29 43 -22 47 -56 88 -127 160 -53 52 -205 134 -263 141 -19 3 -48 7 -65 11 -16 3 -37 1 -45 -5z m758 -275 c-6 -14 -13 -24 -14 -22 -6 6 9 47 17 47 5 0 3 -11 -3 -25z m70 -41 c6 3 13 2 17 -4 3 -5 -1 -10 -9 -10 -9 0 -16 -7 -16 -15 0 -18 16 -20 24 -2 5 12 -2 -37 -9 -60 -2 -6 -13 -9 -24 -6 -23 6 -27 18 -10 29 7 4 9 22 5 48 -4 26 -3 36 3 27 5 -7 13 -11 19 -7z m-21 -151 c-3 -10 -5 -4 -5 12 0 17 2 24 5 18 2 -7 2 -21 0 -30z m30 -5 c-3 -8 -6 -5 -6 6 -1 11 2 17 5 13 3 -3 4 -12 1 -19z m20 -10 c-3 -7 -5 -2 -5 12 0 14 2 19 5 13 2 -7 2 -19 0 -25z m163 -33 c0 -5 -5 -3 -10 5 -5 8 -10 20 -10 25 0 6 5 3 10 -5 5 -8 10 -19 10 -25z m-113 -17 c-3 -7 -5 -2 -5 12 0 14 2 19 5 13 2 -7 2 -19 0 -25z M813 1233 c-8 -3 4 -19 28 -39 56 -47 123 -122 143 -162 l17 -33 38 58 c37 56 95 116 155 161 23 18 25 22 10 22 -11 0 -35 -18 -54 -40 -31 -36 -42 -42 -102 -52 -63 -10 -70 -9 -122 15 -30 14 -57 35 -60 45 -7 21 -32 32 -53 25z M955 671 c-11 -5 -45 -9 -75 -9 -30 0 -66 -3 -80 -6 -14 -3 -48 -8 -76 -10 -60 -6 -186 -34 -225 -50 l-28 -12 30 -51 29 -51 58 18 c31 10 66 20 77 22 17 3 15 6 -12 18 -27 12 -51 38 -41 45 2 1 18 11 35 24 29 20 36 21 72 10 51 -15 60 -44 20 -64 -16 -9 -29 -17 -29 -18 0 -2 33 2 73 9 39 7 102 13 140 14 71 0 86 11 37 29 -42 14 -39 43 5 64 34 16 38 16 74 -3 21 -10 41 -26 45 -35 8 -23 8 -25 -8 -25 -7 0 -25 -6 -40 -14 -24 -12 -18 -14 76 -20 57 -3 119 -9 138 -12 34 -7 35 -6 18 13 -28 31 -22 49 22 62 37 11 43 10 75 -15 43 -32 44 -51 5 -68 l-30 -12 68 -22 c83 -27 82 -27 82 -3 0 10 11 35 25 55 l25 37 -26 10 c-51 19 -362 70 -409 67 -11 0 -45 2 -75 5 -30 4 -64 3 -75 -2z M847 493 c-40 -7 -76 -12 -82 -11 -5 1 -28 -4 -50 -10 -22 -7 -52 -12 -66 -12 -15 0 -32 -6 -38 -14 -6 -7 -25 -16 -41 -20 -17 -3 -30 -12 -30 -20 0 -11 19 -8 90 15 252 81 515 79 763 -5 96 -33 97 -33 97 -12 0 24 -7 26 -175 64 -172 39 -335 48 -468 25z M938 419 c-10 -5 -36 -8 -58 -5 -39 4 -63 -7 -38 -17 9 -4 10 -6 1 -6 -6 -1 -15 3 -18 9 -3 5 -20 7 -38 3 -53 -9 -175 -50 -198 -66 -20 -15 -18 -17 61 -41 239 -76 501 -72 729 10 72 26 73 27 48 40 -42 23 -111 43 -163 49 -27 3 -56 8 -65 11 -9 2 -42 6 -75 9 -32 2 -84 6 -114 9 -30 3 -63 1 -72 -5z"/>
    </g>
    <g transform="translate(0.000000,200.000000) scale(0.100000,-0.100000)" fill="#171412" stroke="none">
      <path d="M782 1536 c2 -140 0 -252 -3 -250 -3 2 -19 -1 -35 -5 -21 -6 -37 -4 -59 9 -66 39 -230 49 -311 19 -30 -11 -54 -25 -54 -30 0 -5 -6 -9 -13 -9 -14 0 -67 -51 -67 -64 0 -4 -7 -14 -15 -22 -23 -23 -39 -93 -38 -164 0 -57 7 -115 12 -115 2 0 4 -8 6 -18 2 -10 7 -26 11 -35 4 -9 8 -23 10 -31 1 -8 12 -27 23 -42 12 -16 21 -33 21 -39 0 -5 5 -10 10 -10 6 0 10 -6 10 -13 0 -7 8 -20 17 -28 10 -9 34 -34 53 -56 20 -22 45 -45 57 -51 12 -7 32 -35 46 -63 21 -40 25 -60 20 -97 -3 -26 -10 -52 -15 -59 -13 -16 -3 -30 35 -49 25 -14 166 -65 175 -64 1 0 3 0 5 -1 7 -2 45 -11 65 -15 12 -2 34 -6 50 -9 117 -24 288 -24 402 -1 14 3 40 7 58 10 18 3 37 8 42 11 6 4 22 9 37 11 15 3 33 10 40 16 7 6 13 7 13 3 0 -4 7 -2 15 5 8 7 15 9 15 5 0 -4 12 0 26 10 14 9 35 18 47 20 41 8 46 27 29 108 -8 42 -7 54 14 95 13 26 36 55 52 64 16 10 48 39 71 65 56 64 61 70 61 83 0 5 4 10 8 10 4 0 14 16 21 35 7 19 17 35 22 35 5 0 8 3 7 8 -1 4 3 16 9 27 18 32 25 84 25 170 0 89 0 93 -28 150 -32 67 -109 130 -184 153 -36 11 -212 4 -227 -8 -2 -2 -6 -3 -10 -4 -5 -1 -14 -5 -20 -9 -7 -5 -13 -6 -13 -3 0 3 -14 -1 -31 -8 -24 -10 -39 -11 -63 -2 -41 14 -40 14 -29 28 6 8 11 112 12 246 l3 232 -222 0 -222 0 4 -254z m368 211 c0 -2 -34 -34 -75 -71 l-75 -68 -80 71 -81 71 156 0 c85 0 155 -1 155 -3z m-191 -150 c9 -12 -3 -27 -63 -81 -41 -36 -77 -66 -80 -66 -3 0 -6 63 -6 141 l0 141 69 -61 c37 -33 73 -67 80 -74z m226 -7 c0 -77 -2 -140 -5 -140 -11 0 -151 132 -148 140 2 5 149 140 152 140 1 0 1 -63 1 -140z m-105 -100 l75 -69 -159 -1 -158 0 48 44 c84 75 109 95 114 95 3 1 39 -31 80 -69z m-201 -129 c-16 -16 -29 -37 -29 -45 0 -9 -4 -16 -10 -16 -14 0 -30 35 -30 64 0 24 3 26 49 26 l49 0 -29 -29z m301 -3 c0 -18 -5 -40 -10 -48 -6 -9 -10 -10 -10 -3 0 7 -14 28 -31 48 l-31 35 41 0 c40 0 41 -1 41 -32z m-98 -4 c54 -28 61 -69 19 -116 -24 -27 -36 -32 -87 -36 -50 -3 -65 0 -94 20 -27 18 -36 32 -38 59 -7 79 107 121 200 73z m-499 -69 c146 -31 305 -150 378 -283 19 -34 37 -62 40 -62 4 0 24 30 45 66 53 91 164 193 256 238 131 62 246 68 346 17 186 -96 179 -377 -13 -590 l-35 -39 -75 24 c-159 51 -292 68 -525 68 -223 -1 -309 -10 -471 -54 -132 -36 -122 -37 -165 10 -120 129 -171 298 -130 434 27 89 103 157 197 175 63 13 77 12 152 -4z m278 -53 c22 -39 81 -65 145 -64 61 0 105 21 136 62 21 30 50 38 76 21 10 -6 6 -13 -15 -26 -52 -35 -126 -110 -164 -168 l-37 -57 -25 42 c-31 52 -110 135 -166 176 -42 31 -40 40 9 41 17 1 30 -8 41 -27z m284 -542 c138 -11 257 -32 351 -61 l65 -20 -31 -35 c-17 -20 -33 -49 -37 -65 -3 -16 -8 -29 -12 -29 -3 0 -40 11 -82 25 -121 38 -247 56 -398 56 -147 0 -256 -16 -394 -56 -104 -30 -97 -29 -97 -6 0 11 -16 40 -35 65 l-34 45 64 20 c89 28 215 50 332 60 141 12 174 12 308 1z m124 -185 c41 -9 106 -27 145 -39 66 -20 71 -24 74 -53 l3 -31 -98 34 c-254 86 -519 86 -778 0 -55 -19 -102 -32 -104 -31 -1 2 1 16 6 31 6 19 22 31 58 45 45 17 193 52 270 63 67 10 352 -3 424 -19z m2 -89 c51 -13 121 -34 154 -47 l59 -22 -84 -33 c-260 -100 -581 -95 -835 11 -33 15 -37 18 -21 27 59 33 242 82 346 92 99 9 286 -5 381 -28z M963 653 c-18 -9 -33 -20 -33 -23 0 -4 17 -15 39 -24 37 -17 40 -17 77 2 l38 20 -42 21 c-22 11 -43 21 -44 20 -2 0 -18 -8 -35 -16z M643 607 c-18 -12 -33 -25 -33 -28 0 -4 19 -11 42 -17 38 -10 44 -8 76 16 l34 26 -33 12 c-45 17 -49 16 -86 -9z M1283 618 c-18 -6 -33 -14 -33 -17 0 -3 15 -16 34 -28 30 -19 39 -20 70 -11 20 6 36 14 36 18 0 8 -57 50 -67 49 -4 -1 -23 -6 -40 -11z"/>
    </g>
  </g>
</svg>
