<svg xmlns="http://www.w3.org/2000/svg" viewBox="0 0 200 200" role="img" aria-labelledby="title">
  <title id="title">Lava White Queen</title>
  <g shape-rendering="geometricPrecision">
    <g transform="translate(0.000000,200.000000) scale(0.100000,-0.100000)" fill="#f2f1ec" stroke="none">
      <path d="M948 1777 c-53 -44 -56 -117 -5 -157 24 -19 24 -20 11 -97 -7 -43 -26 -166 -44 -273 -34 -217 -39 -236 -50 -224 -4 5 -54 114 -110 242 -99 225 -102 233 -86 257 27 41 17 102 -23 132 -25 19 -85 15 -114 -7 -50 -39 -40 -126 18 -152 16 -7 26 -22 30 -42 13 -81 44 -481 37 -488 -4 -4 -80 81 -169 189 -132 160 -160 200 -152 214 29 56 -19 129 -86 129 -48 0 -95 -44 -95 -89 0 -37 44 -89 80 -93 22 -3 31 -18 74 -128 26 -69 87 -222 134 -340 l86 -215 2 -164 c3 -182 -3 -169 84 -202 277 -106 607 -103 888 8 73 29 84 39 76 66 -3 10 -6 80 -5 155 l0 137 121 305 c67 168 127 321 134 340 8 19 19 36 25 36 6 1 18 2 26 3 32 2 65 48 65 90 0 100 -137 128 -176 36 -10 -25 -11 -41 -3 -64 10 -30 7 -35 -151 -226 -90 -108 -166 -193 -170 -188 -5 4 -4 49 1 98 5 50 13 140 19 200 21 220 22 225 35 225 7 0 25 14 40 32 76 90 -53 202 -136 119 -34 -35 -38 -77 -10 -112 18 -24 18 -24 -87 -264 -58 -132 -107 -242 -109 -244 -8 -11 -14 18 -47 224 -20 121 -41 249 -47 285 l-11 65 31 34 c44 47 43 91 -3 137 -41 41 -87 45 -128 11z"/>
    </g>
    <g transform="translate(0.000000,200.000000) scale(0.100000,-0.100000)" fill="#c6c0b6" stroke="none">
      <path d="M1005 1737 c-47 -25 -57 -65 -26 -96 24 -24 54 -18 81 17 28 34 25 59 -8 76 -21 11 -32 12 -47 3z M1419 1605 c-29 -16 -47 -47 -30 -53 6 -2 11 -10 11 -18 0 -17 40 -19 62 -1 23 17 26 49 8 70 -17 20 -18 20 -51 2z M572 1598 c-21 -21 -15 -67 11 -78 18 -7 27 -4 45 17 32 35 26 67 -13 71 -17 2 -36 -3 -43 -10z M1511 1584 c0 -11 3 -14 6 -6 3 7 2 16 -1 19 -3 4 -6 -2 -5 -13z M1331 1574 c0 -11 3 -14 6 -6 3 7 2 16 -1 19 -3 4 -6 -2 -5 -13z M1012 1488 c-1 -24 -7 -58 -13 -76 -6 -19 -13 -50 -14 -70 -2 -21 -8 -56 -14 -79 -6 -23 -13 -65 -15 -95 -9 -113 -15 -148 -28 -175 -15 -32 -50 -39 -77 -14 -10 9 -60 113 -111 231 -85 195 -124 274 -105 212 3 -12 8 -53 11 -90 2 -37 6 -87 10 -112 3 -25 7 -70 8 -100 2 -30 7 -86 11 -124 7 -61 6 -71 -10 -83 -11 -7 -28 -13 -40 -13 -20 0 -38 21 -242 277 -19 23 -39 48 -46 55 -7 7 -22 26 -35 42 -12 16 -22 22 -22 15 0 -14 72 -204 89 -236 12 -22 73 -171 96 -233 9 -25 20 -54 25 -65 4 -11 14 -35 21 -53 8 -23 17 -32 28 -29 327 97 649 98 919 3 l43 -15 18 43 c18 41 178 441 200 499 6 16 7 26 2 22 -6 -3 -67 -75 -136 -160 -70 -85 -134 -159 -143 -164 -23 -13 -70 14 -78 43 -5 22 18 320 32 421 8 51 -5 38 -36 -35 -12 -30 -36 -82 -52 -115 -30 -61 -70 -177 -66 -192 4 -16 -14 -53 -23 -48 -5 4 -9 1 -9 -6 0 -15 -68 -3 -86 15 -7 7 -32 131 -55 280 -24 146 -46 266 -50 266 -3 0 -6 -19 -7 -42z m296 -534 c6 3 13 2 17 -4 3 -5 -1 -10 -9 -10 -9 0 -16 -7 -16 -15 0 -18 16 -20 24 -2 5 12 -2 -37 -9 -60 -2 -6 -13 -9 -24 -6 -23 6 -27 18 -10 29 7 4 9 22 5 48 -4 26 -3 36 3 27 5 -7 13 -11 19 -7z m-21 -151 c-3 -10 -5 -4 -5 12 0 17 2 24 5 18 2 -7 2 -21 0 -30z m30 -5 c-3 -8 -6 -5 -6 6 -1 11 2 17 5 13 3 -3 4 -12 1 -19z m20 -10 c-3 -7 -5 -2 -5 12 0 14 2 19 5 13 2 -7 2 -19 0 -25z m163 -33 c0 -5 -5 -3 -10 5 -5 8 -10 20 -10 25 0 6 5 3 10 -5 5 -8 10 -19 10 -25z m-113 -17 c-3 -7 -5 -2 -5 12 0 14 2 19 5 13 2 -7 2 -19 0 -25z M185 1426 c-35 -35 -22 -71 26 -71 27 0 36 6 47 27 28 59 -26 91 -73 44z M1808 1439 c-48 -27 -46 -89 2 -89 50 0 81 68 41 90 -23 12 -22 12 -43 -1z M292 1410 c0 -14 2 -19 5 -12 2 6 2 18 0 25 -3 6 -5 1 -5 -13z M985 690 c-12 -4 -48 -8 -80 -9 -60 0 -262 -39 -322 -61 -28 -10 -32 -16 -35 -58 -2 -26 0 -61 5 -77 l9 -30 111 27 c254 62 509 53 795 -28 23 -6 23 -6 20 76 l-3 82 -40 13 c-92 29 -235 56 -313 59 -46 2 -86 6 -89 10 -8 8 -33 7 -58 -4z m73 -60 c41 -25 41 -43 -3 -59 -37 -13 -64 -5 -98 30 -16 18 -16 19 10 33 37 20 52 20 91 -4z m-280 -36 c29 -19 28 -28 -6 -52 -33 -24 -77 -19 -106 10 -18 20 -18 20 10 43 31 25 60 25 102 -1z m550 12 c35 -18 66 -52 58 -65 -22 -35 -121 -12 -142 34 -10 21 -8 24 20 33 17 5 32 10 34 11 2 1 15 -5 30 -13z M868 459 c-7 -4 -42 -11 -78 -15 -36 -3 -83 -12 -105 -19 -22 -7 -59 -18 -82 -25 -23 -7 -44 -19 -47 -26 -6 -17 -1 -17 24 -4 10 5 62 21 117 35 245 61 539 50 734 -30 35 -14 64 -25 66 -25 3 0 3 10 1 23 -2 15 -11 23 -28 26 -14 1 -28 8 -31 13 -4 6 -24 12 -45 14 -22 1 -61 8 -89 14 -27 6 -63 13 -80 16 -55 8 -344 11 -357 3z M968 386 c-1 -2 -44 -6 -95 -9 -50 -4 -108 -13 -130 -21 -21 -8 -47 -17 -58 -22 -11 -4 -25 -8 -31 -9 -33 -7 -54 -17 -54 -25 0 -11 71 -33 179 -56 96 -21 319 -23 421 -5 98 17 271 73 245 79 -11 2 -24 8 -30 12 -19 14 -81 30 -136 35 -30 3 -67 8 -82 11 -30 6 -223 14 -229 10z M933 193 c9 -2 23 -2 30 0 6 3 -1 5 -18 5 -16 0 -22 -2 -12 -5z M1048 193 c6 -2 18 -2 25 0 6 3 1 5 -13 5 -14 0 -19 -2 -12 -5z"/>
    </g>
    <g transform="translate(0.000000,200.000000) scale(0.100000,-0.100000)" fill="#171412" stroke="none">
      <path d="M947 1776 c-53 -45 -54 -117 -4 -156 18 -14 23 -27 20 -47 -2 -15 -6 -41 -8 -58 -2 -16 -7 -46 -10 -65 -4 -19 -8 -46 -10 -60 -2 -14 -6 -38 -9 -55 -3 -16 -8 -48 -12 -70 -3 -22 -7 -47 -9 -55 -1 -8 -5 -31 -8 -50 -4 -19 -9 -52 -12 -74 -8 -61 -19 -72 -39 -42 -9 14 -14 26 -10 26 3 0 -6 20 -20 45 -15 25 -24 45 -21 45 3 0 -1 13 -10 30 -8 16 -15 32 -14 35 0 3 -11 26 -26 50 -14 25 -23 45 -19 45 3 0 -6 20 -20 45 -15 25 -24 45 -20 45 3 0 -5 19 -19 43 -24 40 -23 61 3 87 19 19 1 94 -28 116 -26 19 -87 16 -115 -6 -15 -12 -25 -25 -22 -30 3 -5 1 -11 -5 -15 -5 -3 -10 -13 -10 -21 0 -21 43 -84 58 -84 24 0 31 -35 47 -235 2 -22 6 -71 10 -110 4 -38 7 -81 6 -94 -1 -13 3 -39 8 -57 7 -26 6 -34 -7 -39 -8 -3 -19 0 -23 7 -9 17 -37 53 -69 89 -14 16 -36 43 -50 60 -14 18 -34 42 -45 55 -11 12 -31 37 -45 55 -14 18 -34 42 -45 53 -33 33 -54 72 -46 84 16 26 3 83 -25 107 -86 74 -200 -40 -124 -124 14 -17 39 -31 54 -34 16 -2 30 -10 32 -18 1 -8 6 -25 12 -39 5 -14 11 -29 12 -35 1 -5 7 -19 13 -30 6 -11 12 -25 13 -31 1 -6 9 -27 17 -45 17 -38 29 -69 33 -84 1 -5 7 -23 14 -40 6 -16 11 -31 10 -33 -1 -2 6 -14 14 -28 9 -13 14 -24 10 -24 -3 0 1 -11 10 -25 9 -14 14 -25 11 -25 -3 0 0 -10 7 -22 7 -13 13 -25 14 -28 2 -11 27 -74 44 -115 16 -36 20 -51 25 -90 5 -30 7 -227 4 -255 -4 -34 3 -46 34 -60 17 -8 34 -15 37 -16 3 0 18 -6 34 -13 16 -6 38 -13 50 -16 11 -2 21 -4 21 -5 0 -1 7 -3 15 -5 8 -2 26 -7 40 -10 132 -34 401 -39 520 -10 14 3 37 8 52 10 15 2 37 9 48 15 11 6 20 8 20 4 0 -3 7 -1 15 6 8 7 15 9 15 5 0 -4 7 -2 15 5 8 7 15 9 15 5 0 -4 11 0 25 9 14 9 25 14 25 10 0 -3 11 1 25 10 14 9 25 13 25 9 0 -5 5 0 11 10 5 9 7 22 3 29 -7 11 -7 279 -1 308 2 8 14 38 26 65 13 28 24 55 25 60 1 6 8 20 14 33 7 12 10 22 7 22 -3 0 2 11 11 25 9 14 13 25 10 25 -4 0 1 11 10 25 9 14 13 25 10 25 -4 0 1 11 10 25 9 14 13 25 10 25 -4 0 1 11 10 24 8 14 15 26 14 28 -2 3 10 34 33 91 9 20 14 37 11 37 -2 0 3 11 12 24 8 14 15 26 14 28 -2 5 10 41 21 60 5 10 9 25 9 33 0 9 6 15 13 14 21 -4 66 12 79 28 15 18 20 103 6 103 -5 0 -7 4 -3 9 3 5 -4 12 -15 16 -11 3 -20 10 -20 14 0 12 -69 12 -91 1 -30 -17 -51 -73 -39 -105 14 -36 13 -38 -15 -71 -14 -16 -34 -40 -45 -54 -12 -14 -33 -39 -48 -56 -15 -17 -38 -45 -52 -63 -14 -18 -35 -44 -48 -59 -13 -15 -34 -40 -48 -57 -64 -78 -75 -79 -69 -7 8 92 15 168 20 217 7 65 16 171 19 214 1 20 8 37 16 39 8 3 27 18 42 33 23 24 26 33 21 66 -13 79 -92 108 -150 54 -26 -24 -31 -34 -28 -66 2 -21 10 -44 18 -52 15 -16 8 -46 -26 -110 -10 -18 -15 -33 -12 -33 3 0 -6 -20 -21 -45 -14 -25 -23 -45 -20 -45 4 0 -5 -20 -19 -45 -15 -24 -26 -47 -26 -50 1 -3 -6 -19 -14 -35 -9 -17 -13 -30 -10 -30 3 0 -7 -21 -22 -47 -15 -27 -27 -50 -25 -53 1 -3 -3 -5 -9 -5 -7 0 -14 14 -16 30 -5 36 -10 69 -18 110 -3 17 -7 46 -10 65 -4 35 -12 82 -20 130 -5 25 -12 72 -20 120 -4 26 -9 54 -18 103 -3 15 -1 27 4 27 6 0 21 12 33 27 31 36 28 95 -7 130 -34 35 -95 39 -130 9z m86 -17 c14 -6 31 -22 38 -36 11 -21 11 -29 -2 -51 -8 -15 -25 -31 -37 -37 -18 -8 -22 -16 -19 -35 3 -14 26 -157 52 -317 l48 -293 32 0 32 0 114 259 c62 143 114 259 115 258 2 -1 -8 -117 -22 -257 -30 -325 -31 -306 6 -319 l30 -10 172 209 c95 115 174 208 176 206 2 -2 -57 -154 -131 -337 -87 -219 -138 -333 -146 -331 -7 1 -52 14 -100 28 -124 36 -216 47 -386 47 -170 0 -262 -11 -386 -47 -48 -14 -93 -27 -99 -28 -7 -2 -24 23 -38 57 -64 156 -239 614 -232 610 4 -3 83 -97 176 -209 l168 -205 30 13 c26 10 31 17 28 42 -20 239 -43 486 -47 512 -4 21 -12 32 -22 32 -25 0 -53 30 -53 58 0 56 61 81 100 42 26 -26 25 -51 -1 -84 l-20 -26 113 -260 113 -260 32 0 c22 0 33 5 37 18 2 9 26 152 53 316 38 241 45 300 34 304 -53 18 -68 88 -25 121 31 24 35 25 67 10z m435 -144 c32 -41 7 -95 -43 -95 -51 0 -76 53 -44 93 26 34 61 35 87 2z m-1215 -176 c17 -24 18 -30 6 -55 -10 -21 -23 -30 -44 -32 -59 -6 -90 47 -54 92 27 34 64 32 92 -5z m1597 11 c38 -38 13 -100 -42 -100 -55 0 -81 73 -36 104 30 21 54 20 78 -4z m-568 -762 c59 -11 129 -28 155 -38 l48 -18 3 -92 c3 -92 3 -93 -20 -86 -205 59 -384 79 -564 65 -108 -9 -280 -43 -346 -68 -25 -9 -28 -8 -29 12 0 12 -3 54 -7 94 l-8 72 56 20 c194 69 475 84 712 39z m-67 -209 c74 -10 202 -40 247 -58 25 -9 49 -54 36 -66 -3 -3 -33 6 -67 20 -230 94 -606 91 -854 -6 -60 -24 -59 -24 -55 8 2 23 12 31 52 45 172 64 428 87 641 57z m20 -84 c101 -19 237 -64 230 -75 -8 -14 -180 -66 -265 -81 -104 -19 -325 -16 -425 6 -106 22 -238 66 -228 76 13 12 173 60 248 74 100 18 342 18 440 0z M966 633 l-30 -16 37 -19 c36 -18 38 -18 74 0 l37 19 -32 17 c-38 20 -49 20 -86 -1z M678 597 c-16 -13 -28 -25 -28 -29 0 -3 16 -9 35 -12 25 -5 44 -2 65 11 44 25 40 31 -30 48 -8 2 -27 -6 -42 -18z M1261 606 l-34 -12 30 -22 c35 -25 50 -27 89 -12 l27 11 -33 24 c-38 28 -34 28 -79 11z"/>
    </g>
  </g>
</svg>
