<svg xmlns="http://www.w3.org/2000/svg" viewBox="0 0 200 200" role="img" aria-labelledby="title">
  <title id="title">Lava White Bishop</title>
  <g shape-rendering="geometricPrecision">
    <g transform="translate(0.000000,200.000000) scale(0.100000,-0.100000)" fill="#f2f1ec" stroke="none">
      <path d="M868 1859 c-37 -14 -63 -71 -49 -110 5 -16 6 -29 2 -29 -22 0 -104 -67 -145 -120 -62 -78 -137 -222 -172 -330 -25 -76 -28 -100 -28 -220 -1 -191 35 -306 151 -481 l51 -77 -14 -93 c-8 -51 -16 -94 -18 -97 -3 -2 -48 10 -102 27 -158 52 -232 44 -355 -38 -114 -76 -126 -88 -111 -103 10 -10 19 -10 45 2 63 27 206 7 387 -53 85 -29 107 -32 205 -31 96 1 122 5 203 32 52 18 101 32 110 32 10 0 58 -14 107 -32 79 -27 104 -31 200 -32 98 -1 121 3 205 30 187 61 331 84 378 60 38 -20 62 -20 62 -2 0 19 -124 110 -194 142 -82 37 -152 35 -288 -10 -59 -20 -115 -36 -125 -36 -16 0 -21 16 -35 105 l-16 105 62 93 c103 151 139 240 156 384 21 190 -54 427 -195 608 -41 54 -111 119 -136 127 -5 2 -4 16 3 35 16 43 2 82 -40 106 -39 23 -73 17 -109 -19 -21 -21 -25 -32 -20 -65 5 -36 3 -41 -20 -50 -35 -13 -41 -6 -36 48 4 41 1 51 -19 70 -29 27 -65 35 -100 22z"/>
    </g>
    <g transform="translate(0.000000,200.000000) scale(0.100000,-0.100000)" fill="#c6c0b6" stroke="none">
      <path d="M894 1785 c-20 -20 -23 -28 -14 -45 23 -42 77 -7 71 46 -2 24 -33 23 -57 -1z M1119 1789 c-14 -14 -18 -27 -13 -42 10 -32 12 -33 42 -16 30 16 41 57 20 70 -19 13 -26 11 -49 -12z M870 1667 c-41 -13 -165 -133 -197 -192 -45 -80 -92 -181 -99 -210 -4 -16 -10 -34 -14 -40 -26 -36 -28 -248 -3 -360 8 -38 30 -102 49 -141 19 -39 34 -74 34 -78 0 -4 7 -17 15 -30 l16 -24 49 33 c124 84 388 88 554 9 31 -14 56 -31 57 -38 0 -6 7 3 14 19 7 17 11 33 8 38 -2 4 0 7 6 7 11 0 26 56 22 84 -2 10 3 22 9 26 18 11 14 210 -5 305 -34 162 -89 286 -179 403 -72 93 -107 124 -181 161 -73 36 -109 43 -155 28z m137 -316 c37 -38 39 -44 19 -61 -10 -8 -14 -26 -11 -58 2 -26 4 -53 4 -59 1 -19 115 -17 131 2 18 22 24 20 81 -35 l51 -49 -32 -41 c-35 -45 -41 -47 -74 -25 -15 10 -51 17 -92 18 l-68 2 -3 -87 c-3 -78 -1 -88 17 -101 20 -14 19 -15 -18 -53 -22 -21 -44 -39 -50 -39 -7 0 -32 22 -57 49 l-45 50 20 21 c18 19 21 33 18 91 l-3 69 -64 -2 c-44 -1 -69 -7 -83 -19 -19 -18 -21 -17 -68 36 l-49 55 39 39 c37 37 39 38 61 22 17 -11 45 -16 96 -16 l73 0 0 58 c0 41 -6 64 -20 82 l-19 25 41 42 c46 47 45 47 105 -16z m231 -356 c-6 -14 -13 -24 -14 -22 -6 6 9 47 17 47 5 0 3 -11 -3 -25z m70 -41 c6 3 13 2 17 -4 3 -5 -1 -10 -9 -10 -9 0 -16 -7 -16 -15 0 -18 16 -20 24 -2 5 12 -2 -37 -9 -60 -2 -6 -13 -9 -24 -6 -23 6 -27 18 -10 29 7 4 9 22 5 48 -4 26 -3 36 3 27 5 -7 13 -11 19 -7z m-21 -151 c-3 -10 -5 -4 -5 12 0 17 2 24 5 18 2 -7 2 -21 0 -30z m30 -5 c-3 -8 -6 -5 -6 6 -1 11 2 17 5 13 3 -3 4 -12 1 -19z m20 -10 c-3 -7 -5 -2 -5 12 0 14 2 19 5 13 2 -7 2 -19 0 -25z M937 1326 c-14 -20 -14 -26 -3 -36 10 -8 13 -31 10 -88 -2 -42 -4 -80 -4 -83 0 -8 -172 -4 -192 5 -23 10 -47 1 -55 -20 -7 -19 17 -38 31 -24 13 13 196 13 196 0 0 -5 7 -10 15 -10 14 0 15 -13 10 -92 -4 -51 -12 -103 -18 -116 -16 -34 10 -49 38 -22 16 17 18 23 7 40 -7 12 -12 57 -12 115 l0 95 91 0 c50 0 99 -5 110 -11 16 -8 25 -7 40 7 10 9 16 20 14 24 -6 9 -31 7 -41 -3 -4 -3 -15 -2 -25 3 -10 6 -51 8 -91 7 -58 -3 -76 0 -85 12 -18 24 -17 165 1 181 17 13 10 40 -9 40 -7 0 -20 -11 -28 -24z M1214 1068 l-19 -23 23 19 c21 18 27 26 19 26 -2 0 -12 -10 -23 -22z M1096 1662 c-3 -4 16 -26 42 -48 25 -21 49 -43 53 -49 5 -5 19 -23 33 -40 91 -108 182 -281 210 -395 19 -80 35 -180 39 -240 l2 -45 14 60 c21 92 18 226 -8 320 -49 179 -175 381 -264 424 -43 21 -111 28 -121 13z M471 984 c0 -11 3 -14 6 -6 3 7 2 16 -1 19 -3 4 -6 -2 -5 -13z M930 623 c-53 -6 -150 -36 -161 -49 -6 -8 -17 -14 -25 -14 -7 0 -15 -4 -19 -10 -3 -5 18 -1 48 9 29 10 78 22 108 25 89 11 106 16 106 31 0 7 -7 13 -16 12 -9 -1 -27 -3 -41 -4z M1034 618 c-11 -17 7 -25 64 -31 32 -4 90 -17 130 -31 68 -23 90 -23 74 0 -4 5 -27 18 -52 28 -25 10 -54 23 -65 29 -24 13 -144 17 -151 5z M945 532 c-16 -2 -37 -6 -45 -9 -8 -4 -22 -8 -30 -9 -8 -1 -35 -9 -59 -18 -24 -9 -47 -14 -52 -11 -12 8 -29 -29 -29 -65 0 -26 3 -31 16 -26 10 4 58 14 108 22 112 20 280 13 380 -15 l68 -19 -6 30 c-3 17 -6 38 -6 47 0 21 -38 38 -114 52 -34 6 -70 15 -81 20 -18 9 -70 9 -150 1z M978 363 c12 -2 30 -2 40 0 9 3 -1 5 -23 4 -22 0 -30 -2 -17 -4z M1058 363 c6 -2 18 -2 25 0 6 3 1 5 -13 5 -14 0 -19 -2 -12 -5z M1130 360 c-12 -8 -10 -10 8 -10 13 0 20 4 17 10 -7 12 -6 12 -25 0z M858 353 c6 -2 18 -2 25 0 6 3 1 5 -13 5 -14 0 -19 -2 -12 -5z M808 343 c7 -3 16 -2 19 1 4 3 -2 6 -13 5 -11 0 -14 -3 -6 -6z M1240 331 c61 -18 82 -20 67 -5 -6 7 -21 10 -92 19 -29 3 -23 0 25 -14z M1640 299 c-25 -4 -79 -19 -120 -33 -41 -15 -99 -29 -130 -32 -51 -5 -168 -34 -215 -53 -38 -16 62 -36 175 -35 89 0 116 4 178 28 40 15 98 31 130 36 85 14 184 42 175 50 -10 9 -91 37 -123 43 -14 2 -45 1 -70 -4z M306 275 c-32 -13 -60 -26 -63 -28 -6 -6 128 -37 161 -37 14 0 56 -11 92 -25 37 -14 69 -23 72 -20 3 3 11 0 18 -6 8 -6 21 -9 29 -5 8 3 15 1 15 -5 0 -15 172 -6 228 11 48 15 40 30 -16 30 -18 0 -41 4 -51 9 -9 5 -36 12 -58 14 -33 4 -40 2 -36 -9 3 -7 9 -12 15 -11 6 1 12 -9 14 -23 l4 -25 -25 28 c-14 15 -25 34 -25 41 0 8 -20 18 -47 24 -27 5 -72 19 -102 31 -84 32 -156 34 -225 6z M858 286 c-65 -11 -87 -20 -76 -31 11 -11 163 -35 224 -35 61 0 189 21 237 39 72 27 -251 49 -385 27z"/>
    </g>
    <g transform="translate(0.000000,200.000000) scale(0.100000,-0.100000)" fill="#171412" stroke="none">
      <path d="M868 1859 c-37 -14 -63 -71 -49 -110 9 -27 8 -31 -17 -42 -43 -19 -88 -58 -127 -111 -11 -14 -25 -32 -31 -39 -12 -13 -116 -208 -116 -217 0 -3 -5 -16 -10 -30 -33 -86 -47 -175 -44 -278 2 -59 7 -118 11 -132 3 -14 8 -34 9 -45 2 -11 4 -20 5 -20 2 0 4 -10 7 -23 2 -12 11 -33 19 -45 7 -12 14 -26 14 -32 0 -17 44 -105 53 -105 4 0 8 -5 8 -10 0 -6 17 -37 38 -68 39 -58 40 -68 29 -152 -6 -39 -18 -91 -24 -102 -2 -4 -12 -4 -21 1 -18 10 -92 38 -104 40 -5 1 -9 1 -10 2 -41 12 -132 28 -139 23 -3 -2 -21 -6 -40 -9 -42 -7 -109 -35 -109 -47 0 -4 -6 -8 -13 -8 -7 0 -23 -9 -35 -20 -12 -11 -26 -20 -31 -20 -6 0 -14 -6 -18 -14 -4 -7 -18 -18 -30 -25 -13 -6 -23 -16 -23 -22 0 -20 33 -22 66 -4 41 22 98 23 132 2 6 -5 12 -6 12 -2 0 3 9 1 19 -4 10 -6 43 -13 72 -15 30 -3 71 -12 92 -20 20 -9 37 -13 37 -10 0 4 7 1 15 -6 8 -7 15 -9 15 -5 0 4 7 2 15 -5 8 -7 15 -9 15 -5 0 4 6 3 12 -2 17 -13 47 -16 153 -16 78 0 126 8 185 30 8 3 23 8 33 10 10 1 30 9 45 17 25 13 37 11 132 -21 91 -30 119 -35 205 -36 55 0 111 2 125 5 32 6 102 29 115 37 6 3 13 6 18 7 4 1 8 2 10 4 1 1 16 3 32 6 78 10 151 27 162 36 20 16 108 12 134 -6 13 -9 31 -16 41 -16 27 0 22 27 -9 47 -16 10 -33 22 -40 28 -7 5 -19 16 -27 23 -8 6 -20 12 -26 12 -5 0 -10 4 -10 9 0 4 -28 21 -61 36 -85 38 -156 37 -274 -5 -50 -18 -106 -34 -126 -37 -36 -5 -37 -4 -42 34 -7 52 -16 112 -22 149 -4 23 1 38 20 60 14 16 25 33 25 37 0 4 8 17 18 28 11 10 25 32 33 47 8 15 17 29 20 32 11 9 50 90 43 90 -4 0 -1 6 5 14 26 31 56 178 55 271 0 46 -15 159 -22 170 -4 5 -8 17 -9 26 -1 9 -8 29 -14 45 -7 16 -13 36 -15 44 -5 27 -86 180 -95 180 -5 0 -9 6 -9 13 0 33 -145 177 -178 177 -10 0 -10 4 0 23 30 55 15 104 -41 127 -57 23 -121 -22 -117 -82 1 -15 5 -30 9 -34 11 -11 8 -20 -5 -22 -66 -8 -63 -11 -61 45 1 42 -3 55 -23 72 -30 26 -62 33 -96 20z m66 -42 c36 -26 13 -96 -31 -97 -18 0 -53 37 -53 55 0 18 35 55 53 55 7 0 21 -6 31 -13z m230 -6 c24 -26 17 -62 -16 -80 -24 -14 -28 -14 -47 3 -25 23 -27 53 -4 78 21 23 45 23 67 -1z m-157 -148 c124 -62 266 -244 333 -425 50 -137 72 -300 59 -428 -8 -74 -54 -220 -69 -220 -4 0 -13 7 -21 16 -39 47 -172 84 -307 84 -123 0 -219 -22 -285 -67 l-51 -35 -20 24 c-35 42 -104 202 -121 282 -27 123 -18 264 27 393 46 135 109 243 188 324 94 96 156 108 267 52z m155 25 c112 -33 258 -246 319 -463 40 -144 26 -321 -36 -450 -16 -33 -22 -40 -17 -20 4 17 6 89 6 160 -1 105 -7 149 -28 230 -50 191 -181 405 -307 500 -50 38 -51 40 -28 46 36 10 48 10 91 -3z m-177 -1061 c2 -29 -2 -30 -105 -43 -30 -3 -83 -17 -118 -29 -74 -27 -92 -15 -42 27 39 32 111 58 190 68 71 9 74 9 75 -23z m170 11 c60 -13 113 -38 138 -66 32 -36 11 -41 -61 -17 -38 13 -91 26 -118 30 -97 13 -104 15 -104 39 0 13 3 25 6 28 6 7 71 0 139 -14z m-30 -92 c98 -21 146 -39 154 -55 5 -9 11 -37 15 -62 l7 -47 -68 21 c-125 37 -398 27 -516 -19 -16 -6 -18 -3 -12 32 15 95 10 90 140 124 83 22 197 24 280 6z m57 -170 c95 -19 128 -32 128 -52 0 -10 -5 -14 -15 -10 -84 32 -148 41 -295 40 -132 0 -165 -3 -220 -22 -82 -27 -94 -28 -81 -3 9 17 48 30 166 54 48 11 250 6 317 -7z m-657 -83 c38 -13 97 -30 130 -38 33 -7 96 -22 139 -34 44 -12 97 -21 120 -21 52 0 37 -12 -44 -36 -46 -13 -95 -19 -165 -19 -86 1 -113 5 -190 32 -49 17 -112 34 -140 37 -27 3 -79 14 -115 25 l-65 18 52 27 c99 50 157 52 278 9z m660 11 c102 -21 109 -29 44 -48 -166 -48 -291 -48 -459 1 l-55 17 60 18 c114 36 273 41 410 12z m576 -1 c26 -9 56 -23 68 -32 21 -16 19 -17 -67 -39 -49 -12 -99 -22 -111 -22 -11 0 -60 -14 -109 -32 -76 -27 -100 -31 -192 -32 -84 -1 -120 4 -180 23 l-75 23 90 24 c50 13 123 28 164 34 41 5 115 23 165 39 132 43 156 45 247 14z M902 1367 c-42 -43 -43 -43 -22 -62 16 -15 20 -30 20 -82 l0 -63 -77 0 c-57 0 -81 4 -95 17 -18 16 -21 15 -58 -22 l-40 -39 42 -43 c40 -41 42 -42 55 -23 12 17 26 20 94 20 l79 0 0 -83 c0 -72 -3 -87 -20 -102 -20 -19 -20 -19 17 -57 20 -21 42 -38 48 -38 6 0 26 16 45 35 32 33 33 36 17 53 -13 14 -17 38 -17 105 l0 87 72 0 c58 0 76 -4 93 -20 l21 -20 39 40 39 40 -41 42 c-40 40 -43 41 -61 25 -14 -13 -37 -17 -90 -17 l-72 0 0 67 c0 48 5 71 17 85 16 18 15 21 -23 59 l-40 39 -42 -43z m74 -55 c-13 -16 -16 -35 -14 -97 l3 -77 93 0 c51 0 99 5 106 11 9 8 19 4 36 -14 l23 -25 -23 -25 c-21 -22 -25 -23 -40 -10 -12 11 -41 15 -108 15 l-92 0 0 -97 c0 -72 4 -101 15 -113 13 -15 12 -19 -10 -40 l-25 -23 -25 23 c-22 21 -23 25 -10 40 11 12 15 41 15 113 l0 97 -93 0 c-58 0 -97 -4 -105 -12 -9 -9 -18 -6 -37 12 l-26 24 25 25 c21 20 27 22 40 12 10 -8 47 -13 103 -13 l88 0 3 86 c2 72 0 87 -13 92 -14 6 -12 11 11 36 l28 28 25 -24 c24 -24 24 -26 7 -44z"/>
    </g>
  </g>
</svg>
