<svg xmlns="http://www.w3.org/2000/svg" viewBox="0 0 200 200" role="img" aria-labelledby="title">
  <title id="title">Lava White Knight</title>
  <g shape-rendering="geometricPrecision">
    <g transform="translate(0.000000,200.000000) scale(0.100000,-0.100000)" fill="#f2f1ec" stroke="none">
      <path d="M602 1803 c-5 -10 -15 -54 -22 -98 l-12 -80 -73 -75 c-86 -90 -109 -129 -107 -191 1 -41 -10 -65 -80 -190 -157 -282 -159 -286 -164 -341 -7 -66 15 -109 76 -156 32 -25 51 -33 72 -30 16 3 33 -1 39 -9 15 -18 79 -17 106 2 12 8 38 37 58 64 20 28 66 71 103 97 37 26 82 63 100 83 32 32 36 34 65 23 33 -12 109 -1 132 18 14 11 2 -113 -16 -168 -28 -89 -102 -173 -260 -298 -58 -45 -120 -99 -138 -119 -27 -31 -81 -124 -81 -140 0 -3 331 -5 737 -5 l736 0 -6 107 c-5 86 -10 110 -24 120 -15 12 -16 15 -2 29 14 13 14 25 -7 116 -14 66 -28 106 -39 115 -13 9 -15 16 -7 25 8 10 2 36 -20 98 -16 47 -32 93 -35 103 -3 9 -14 17 -25 17 -15 0 -17 3 -9 18 7 13 -1 37 -36 105 -26 48 -53 87 -60 87 -8 0 -13 6 -11 14 4 20 -99 166 -117 166 -8 0 -15 8 -15 18 0 20 -119 142 -138 142 -7 0 -11 4 -8 9 6 9 -65 73 -129 118 -27 20 -32 20 -78 6 -92 -27 -130 0 -161 118 -20 75 -25 84 -47 87 -21 2 -37 -10 -83 -62 -32 -37 -61 -66 -64 -66 -4 0 -18 17 -32 37 -39 58 -81 103 -96 103 -7 0 -17 -8 -22 -17z"/>
    </g>
    <g transform="translate(0.000000,200.000000) scale(0.100000,-0.100000)" fill="#c6c0b6" stroke="none">
      <path d="M648 1714 c-3 -21 -4 -40 -3 -42 2 -2 14 0 29 4 27 6 26 14 -7 58 -13 18 -15 17 -19 -20z M878 1715 c-16 -16 -42 -47 -59 -67 -25 -31 -36 -37 -55 -32 -13 4 -44 3 -68 0 -36 -6 -56 -19 -119 -79 -100 -95 -127 -137 -127 -196 0 -26 -4 -51 -9 -56 -4 -6 -39 -71 -77 -145 -38 -74 -75 -139 -81 -143 -7 -4 -13 -17 -13 -27 0 -11 -8 -27 -19 -37 -10 -10 -21 -27 -25 -38 -5 -16 -1 -20 19 -20 19 0 25 5 25 23 0 36 18 62 89 129 45 43 68 58 73 50 4 -7 8 -7 8 -2 0 6 5 2 11 -7 13 -23 -8 -55 -69 -105 -60 -48 -62 -50 -62 -100 0 -40 -15 -65 -29 -47 -10 15 -74 16 -83 2 -12 -19 2 -91 21 -109 53 -50 78 -42 131 41 18 27 34 50 36 50 3 0 14 -9 26 -19 l20 -20 -21 -29 c-11 -17 -21 -35 -21 -42 0 -6 -5 -8 -10 -5 -11 7 -26 -22 -17 -31 14 -14 50 12 98 69 28 34 75 77 103 96 28 19 73 57 99 85 47 48 50 49 81 38 78 -28 134 -4 172 74 14 29 28 78 30 110 8 83 10 87 31 69 19 -16 23 -75 8 -132 l-7 -28 27 25 c15 14 34 40 41 58 16 37 19 38 42 16 14 -15 14 -20 -8 -60 -12 -25 -41 -60 -63 -80 l-39 -36 49 3 c36 3 54 -1 67 -12 16 -15 15 -17 -10 -34 -21 -14 -31 -15 -51 -6 -13 6 -38 11 -55 11 -27 0 -30 -2 -24 -26 4 -14 2 -53 -4 -87 -12 -64 -57 -177 -72 -177 -4 0 -8 -4 -8 -9 0 -14 -44 -80 -53 -81 -5 0 -20 -14 -34 -30 -13 -17 -31 -30 -39 -30 -7 0 -18 -9 -24 -20 -6 -11 -15 -20 -21 -20 -16 0 -115 -89 -129 -115 -7 -14 -17 -22 -22 -19 -9 6 -16 -1 -58 -58 l-20 -27 622 0 c524 -1 620 1 606 13 -14 10 -18 28 -18 76 0 207 -83 500 -202 715 -59 105 -148 231 -213 300 -16 18 -37 41 -47 51 -9 11 -43 46 -76 78 -33 32 -58 65 -55 72 3 8 -2 11 -15 7 -25 -6 -114 42 -133 71 -7 12 -20 48 -29 81 l-15 60 -27 -30z m-128 -255 c0 -5 7 -10 15 -10 21 0 19 -17 -4 -29 -11 -7 -20 -26 -24 -52 -9 -68 -60 -106 -134 -100 -23 2 -53 40 -53 66 0 65 53 113 140 126 25 3 48 7 53 8 4 0 7 -3 7 -9z m453 -335 c-3 -9 -8 -14 -10 -11 -3 3 -2 9 2 15 9 16 15 13 8 -4z m35 -130 c-6 -14 -13 -24 -14 -22 -6 6 9 47 17 47 5 0 3 -11 -3 -25z m70 -41 c6 3 13 2 17 -4 3 -5 -1 -10 -9 -10 -9 0 -16 -7 -16 -15 0 -18 16 -20 24 -2 5 12 -2 -37 -9 -60 -2 -6 -13 -9 -24 -6 -23 6 -27 18 -10 29 7 4 9 22 5 48 -4 26 -3 36 3 27 5 -7 13 -11 19 -7z m-21 -151 c-3 -10 -5 -4 -5 12 0 17 2 24 5 18 2 -7 2 -21 0 -30z m30 -5 c-3 -8 -6 -5 -6 6 -1 11 2 17 5 13 3 -3 4 -12 1 -19z m20 -10 c-3 -7 -5 -2 -5 12 0 14 2 19 5 13 2 -7 2 -19 0 -25z m163 -33 c0 -5 -5 -3 -10 5 -5 8 -10 20 -10 25 0 6 5 3 10 -5 5 -8 10 -19 10 -25z m-113 -17 c-3 -7 -5 -2 -5 12 0 14 2 19 5 13 2 -7 2 -19 0 -25z m-710 -490 c-3 -8 -6 -5 -6 6 -1 11 2 17 5 13 3 -3 4 -12 1 -19z M626 1369 c-29 -35 -34 -59 -10 -59 20 0 74 54 74 74 0 27 -37 18 -64 -15z M549 1603 c-13 -16 -12 -17 4 -4 9 7 17 15 17 17 0 8 -8 3 -21 -13z M1138 1548 c-16 -5 -28 -13 -28 -17 0 -4 19 -22 41 -41 23 -19 47 -40 55 -47 18 -19 38 -16 60 8 19 21 18 21 -6 40 -14 10 -32 25 -40 33 -29 26 -54 34 -82 24z M1296 1397 c-16 -12 -17 -17 -6 -37 7 -13 27 -37 44 -55 31 -30 34 -31 59 -18 35 18 34 36 -5 84 -33 41 -61 49 -92 26z M1439 1243 l-36 -16 41 -61 c22 -34 41 -63 43 -65 5 -8 62 21 67 35 4 10 -70 127 -78 123 -1 0 -17 -7 -37 -16z M1544 1059 c-21 -11 -21 -11 14 -82 19 -40 36 -73 37 -75 7 -8 63 29 69 44 4 10 -5 38 -22 68 -31 54 -56 65 -98 45z M1643 864 l-32 -14 26 -67 c14 -38 28 -78 31 -91 4 -20 9 -22 31 -17 14 3 34 15 45 25 18 17 18 19 -4 84 -20 62 -42 97 -58 95 -4 0 -21 -7 -39 -15z M142 810 c0 -14 2 -19 5 -12 2 6 2 18 0 25 -3 6 -5 1 -5 -13z M1730 631 c-40 -7 -40 -6 -21 -118 14 -79 16 -83 41 -83 15 0 36 10 47 23 20 21 20 24 4 101 -9 44 -20 80 -26 81 -5 1 -26 -1 -45 -4z M1750 380 c-11 -7 -15 -29 -15 -85 l0 -75 50 0 51 0 -4 73 c-2 39 -5 78 -7 85 -5 14 -53 16 -75 2z"/>
    </g>
    <g transform="translate(0.000000,200.000000) scale(0.100000,-0.100000)" fill="#171412" stroke="none">
      <path d="M603 1808 c-3 -6 -7 -21 -9 -32 -2 -12 -5 -34 -8 -51 -3 -16 -8 -47 -11 -68 -4 -32 -18 -51 -75 -105 -39 -36 -70 -72 -70 -79 0 -7 -4 -13 -9 -13 -9 0 -17 -18 -29 -60 -2 -8 -4 -28 -3 -45 1 -28 -43 -144 -59 -155 -7 -5 -76 -127 -102 -180 -7 -14 -15 -27 -19 -30 -9 -7 -49 -91 -56 -115 -9 -37 -9 -100 0 -112 5 -7 6 -13 3 -13 -4 0 2 -14 14 -31 32 -44 92 -81 124 -75 14 3 32 -1 38 -7 7 -7 29 -14 48 -15 44 -4 74 18 121 86 19 28 48 58 65 67 17 9 45 29 61 43 17 15 39 32 49 38 11 6 23 20 29 32 10 23 58 31 70 12 7 -12 73 -3 93 13 6 5 12 6 12 2 0 -4 6 -3 13 3 9 8 12 1 10 -31 -2 -49 -17 -136 -23 -144 -3 -3 -7 -19 -9 -31 0 -5 -12 -22 -26 -38 -14 -16 -25 -32 -25 -35 0 -12 -137 -141 -191 -178 -39 -28 -45 -33 -116 -97 -29 -26 -53 -52 -53 -60 0 -7 -3 -14 -7 -16 -14 -5 -53 -85 -46 -92 3 -3 334 -6 734 -6 l728 0 -3 100 c-2 80 -6 104 -21 120 -17 19 -17 21 0 40 10 11 14 20 9 20 -5 0 -10 10 -11 23 0 12 -4 33 -7 47 -3 14 -7 36 -10 50 -11 60 -17 76 -31 86 -17 12 -20 31 -6 36 10 3 -23 114 -40 134 -6 8 -8 14 -5 14 4 0 1 10 -6 23 -7 12 -11 25 -10 29 1 5 -1 7 -6 7 -25 -4 -32 2 -23 18 7 13 1 33 -21 78 -17 33 -34 62 -38 65 -4 3 -10 15 -14 28 -4 12 -14 22 -22 22 -8 0 -14 6 -12 13 3 14 -33 77 -44 77 -4 0 -8 7 -8 15 0 7 -6 18 -12 22 -7 4 -18 17 -24 28 -7 11 -19 19 -28 19 -10 -1 -16 6 -16 18 0 23 -116 148 -137 148 -7 0 -12 4 -11 9 3 7 -28 39 -82 85 -38 32 -76 53 -90 49 -8 -3 -22 -7 -30 -10 -36 -14 -67 -13 -101 4 -28 14 -40 27 -50 58 -7 22 -12 43 -11 48 1 4 -4 22 -11 40 -8 17 -13 37 -13 42 1 6 -9 11 -22 13 -17 3 -34 -7 -59 -35 -77 -83 -87 -93 -92 -93 -3 0 -15 14 -26 30 -11 16 -23 30 -27 30 -5 0 -8 6 -8 13 0 17 -45 60 -65 63 -8 1 -18 -3 -22 -8z m66 -75 l31 -48 -42 -12 c-23 -7 -43 -12 -44 -10 -6 6 9 117 16 117 4 0 22 -21 39 -47z m261 -85 c8 -28 21 -43 61 -68 l51 -31 54 16 55 16 47 -35 c26 -19 56 -44 67 -56 l20 -22 -28 -24 -28 -24 -62 54 c-98 88 -87 53 15 -48 265 -261 441 -599 492 -949 9 -58 16 -134 16 -171 0 -54 3 -66 16 -66 15 0 16 10 10 79 l-7 80 36 7 c21 4 47 2 61 -5 22 -10 24 -16 24 -80 0 -38 3 -76 6 -85 6 -15 -59 -16 -690 -16 -383 0 -696 4 -696 8 0 15 55 85 96 123 22 19 81 68 131 108 114 89 175 157 212 236 28 59 51 160 51 224 0 26 3 31 18 28 73 -20 132 -17 132 6 0 8 -16 11 -47 9 -27 -2 -59 1 -71 5 -23 9 -23 10 19 39 60 41 123 144 89 144 -6 0 -15 -12 -21 -27 -10 -28 -86 -113 -101 -113 -4 0 -1 19 7 41 16 45 21 164 6 155 -4 -3 -11 -35 -13 -71 -4 -41 -15 -85 -31 -118 -39 -79 -95 -103 -173 -75 -31 11 -34 10 -81 -38 -26 -28 -71 -66 -99 -85 -28 -19 -75 -62 -104 -97 -55 -66 -92 -85 -117 -60 -13 14 -11 21 21 65 20 28 36 55 36 62 0 24 -19 9 -53 -44 -49 -72 -66 -81 -107 -52 -55 37 -75 72 -73 128 1 43 14 72 96 217 131 231 147 265 147 312 0 61 34 117 123 203 86 82 131 104 192 93 30 -6 36 -1 96 66 l64 72 13 -50 c7 -27 17 -66 22 -86z m452 -270 c51 -55 52 -70 6 -94 -30 -15 -30 -15 -66 27 -21 24 -47 55 -58 68 l-22 26 27 16 c36 24 59 15 113 -43z m133 -162 c26 -36 43 -70 40 -79 -6 -15 -47 -37 -69 -37 -7 0 -35 34 -63 75 l-51 75 26 14 c52 27 68 20 117 -48z m118 -187 c23 -41 35 -72 31 -83 -6 -16 -53 -46 -73 -46 -8 0 -105 171 -99 175 70 40 96 31 141 -46z m59 -141 c9 -7 29 -48 44 -91 25 -73 26 -79 10 -95 -9 -9 -31 -22 -49 -28 l-32 -11 -37 106 c-21 58 -36 106 -35 107 5 4 63 23 73 23 5 1 17 -5 26 -11z m77 -237 c8 -5 22 -47 32 -93 17 -83 17 -83 -5 -105 -11 -12 -37 -23 -56 -25 -32 -3 -35 -1 -38 27 -1 17 -9 63 -18 104 -8 41 -11 78 -7 82 18 17 72 22 92 10z M690 1461 c-25 -4 -60 -15 -77 -24 -57 -30 -84 -115 -44 -137 63 -33 141 22 141 99 0 20 7 35 20 43 20 13 27 29 13 27 -5 -1 -28 -5 -53 -8z m-4 -56 c12 -49 -56 -113 -94 -88 -25 16 -16 54 18 86 38 34 68 35 76 2z M360 1032 c-68 -67 -90 -100 -90 -132 0 -21 -5 -25 -30 -26 -29 -1 -48 -10 -39 -18 2 -2 25 -6 51 -9 l46 -6 -5 39 c-6 39 -3 42 66 110 39 38 71 77 71 85 0 23 -10 17 -70 -43z"/>
    </g>
  </g>
</svg>
