<svg xmlns="http://www.w3.org/2000/svg" viewBox="0 0 200 200" role="img" aria-labelledby="title">
  <title id="title">Newspaper Resources Bishop</title>
  <g shape-rendering="geometricPrecision">
    <g transform="translate(0.000000,200.000000) scale(0.100000,-0.100000)" fill="#151515" stroke="none">
      <path d="M934 1936 c-66 -29 -109 -126 -85 -189 10 -26 8 -31 -16 -50 -64 -49 -147 -135 -184 -190 -60 -90 -83 -178 -76 -291 6 -112 32 -188 93 -278 l45 -66 -36 -127 c-20 -70 -34 -128 -33 -129 2 -1 15 -9 29 -18 24 -15 81 -34 164 -53 l30 -8 -30 -8 c-16 -5 -99 -15 -183 -23 l-154 -14 -59 -58 c-56 -55 -60 -61 -54 -94 3 -19 20 -63 36 -98 32 -65 94 -125 158 -152 31 -13 31 -12 94 55 34 37 63 71 65 74 1 3 -19 17 -44 30 -42 22 -84 63 -84 81 0 4 33 13 74 19 120 17 181 46 253 115 l63 62 63 -62 c72 -69 133 -98 253 -115 41 -6 74 -15 74 -19 0 -18 -42 -59 -84 -81 -25 -13 -46 -26 -46 -29 1 -3 30 -36 65 -74 l64 -69 32 13 c64 27 126 87 158 152 16 35 33 79 36 98 6 33 2 39 -54 94 l-59 58 -154 14 c-84 8 -166 18 -183 23 l-30 8 30 8 c83 19 140 38 164 53 14 9 27 17 29 18 1 1 -13 59 -33 129 l-36 128 20 26 c74 94 111 194 118 317 7 112 -16 198 -76 289 -38 58 -125 148 -183 190 -26 19 -27 22 -17 56 39 125 -94 238 -217 185z"/>
    </g>
    <g transform="translate(0.000000,200.000000) scale(0.100000,-0.100000)" fill="#050505" stroke="none">
      <path d="M934 1936 c-66 -29 -109 -126 -85 -189 10 -26 8 -31 -16 -50 -64 -49 -147 -135 -184 -190 -60 -90 -83 -178 -76 -291 6 -112 32 -188 93 -278 l45 -66 -36 -127 c-20 -70 -34 -128 -33 -129 2 -1 15 -9 29 -18 24 -15 81 -34 164 -53 l30 -8 -30 -8 c-16 -5 -99 -15 -183 -23 l-154 -14 -59 -58 c-56 -55 -60 -61 -54 -94 3 -19 20 -63 36 -98 32 -65 94 -125 158 -152 31 -13 31 -12 94 55 34 37 63 71 65 74 1 3 -19 17 -44 30 -42 22 -84 63 -84 81 0 4 33 13 74 19 120 17 181 46 253 115 l63 62 63 -62 c72 -69 133 -98 253 -115 41 -6 74 -15 74 -19 0 -18 -42 -59 -84 -81 -25 -13 -46 -26 -46 -29 1 -3 30 -36 65 -74 l64 -69 32 13 c64 27 126 87 158 152 16 35 33 79 36 98 6 33 2 39 -54 94 l-59 58 -154 14 c-84 8 -166 18 -183 23 l-30 8 30 8 c83 19 140 38 164 53 14 9 27 17 29 18 1 1 -13 59 -33 129 l-36 128 20 26 c74 94 111 194 118 317 7 112 -16 198 -76 289 -38 58 -125 148 -183 190 -26 19 -27 22 -17 56 39 125 -94 238 -217 185z m12 -88 c0 -24 2 -52 7 -64 6 -16 2 -23 -17 -32 -31 -14 -39 -4 -39 48 0 35 26 90 43 90 4 0 7 -19 6 -42z m84 -323 l0 -85 80 0 80 0 0 -30 0 -29 -77 -3 -78 -3 -3 -187 -2 -188 -30 0 -30 0 -2 188 -3 187 -77 3 -78 3 0 29 0 30 80 0 80 0 0 85 0 85 30 0 30 0 0 -85z m-322 -351 c23 -74 80 -162 134 -208 l39 -34 -48 -11 c-47 -10 -49 -10 -76 22 -37 42 -77 119 -93 182 -17 63 -18 172 -2 233 l13 47 7 -85 c4 -47 16 -113 26 -146z m155 -439 l-8 -60 -54 -8 c-30 -4 -56 -5 -58 -3 -2 2 0 22 6 45 6 23 16 59 21 80 10 36 14 41 53 48 40 8 42 8 45 -17 1 -14 -1 -52 -5 -85z m9 -264 c-55 -47 -191 -81 -327 -81 l-70 0 27 26 c24 24 37 28 130 35 125 10 228 27 248 39 29 18 25 9 -8 -19z m425 -12 c171 -15 177 -17 203 -44 l23 -25 -69 0 c-135 0 -270 34 -326 81 l-33 28 42 -14 c23 -8 95 -20 160 -26z"/>
    </g>
    <g transform="translate(0.000000,200.000000) scale(0.100000,-0.100000)" fill="#6c6c6c" stroke="none">
      <path d="M927 1872 c-23 -26 -36 -65 -30 -95 7 -35 15 -39 41 -21 18 12 19 18 10 45 -6 16 -8 43 -4 59 6 35 5 36 -17 12z M970 1525 l0 -85 -80 0 -80 0 0 -30 0 -30 80 0 80 0 0 -190 0 -190 30 0 30 0 0 190 0 190 80 0 80 0 0 30 0 30 -80 0 -80 0 0 85 0 85 -30 0 -30 0 0 -85z M664 1365 c-5 -16 -9 -75 -8 -130 0 -78 5 -112 22 -156 31 -77 99 -171 120 -165 10 2 30 7 46 11 l28 6 -49 52 c-90 95 -129 184 -142 328 -6 73 -9 80 -17 54z M826 838 c-22 -5 -42 -10 -44 -13 -6 -5 -41 -159 -38 -163 2 -1 27 1 57 5 l54 8 8 70 c11 100 10 103 -37 93z M880 491 c-26 -15 -120 -30 -238 -39 -104 -8 -116 -11 -140 -35 l-27 -27 65 0 c140 1 282 36 338 86 28 24 29 30 2 15z M1122 477 c54 -50 196 -86 338 -87 l65 0 -27 27 c-24 24 -36 27 -140 35 -118 9 -209 24 -243 40 -14 6 -12 2 7 -15z"/>
    </g>
  </g>
</svg>
