<svg xmlns="http://www.w3.org/2000/svg" viewBox="0 0 200 200" role="img" aria-labelledby="title">
  <title id="title">Newspaper Resources Knight</title>
  <g shape-rendering="geometricPrecision">
    <g transform="translate(0.000000,200.000000) scale(0.100000,-0.100000)" fill="#151515" stroke="none">
      <path d="M997 1740 c-4 -33 -10 -72 -13 -85 -6 -24 -7 -23 -51 26 -50 54 -88 78 -116 71 -14 -3 -17 -10 -13 -26 3 -12 8 -47 12 -78 l6 -55 -43 -24 c-46 -26 -89 -79 -89 -112 0 -11 -29 -51 -65 -88 -36 -38 -88 -98 -116 -134 -28 -36 -55 -65 -60 -65 -18 0 -69 -83 -69 -114 0 -17 15 -60 33 -96 56 -112 152 -141 235 -71 42 35 172 101 199 101 34 0 90 20 127 45 32 22 36 23 36 6 0 -33 -61 -111 -156 -198 -191 -176 -244 -312 -193 -495 l10 -38 454 0 455 0 5 23 c12 50 35 287 35 357 0 100 -14 182 -52 299 -59 184 -131 305 -286 475 -58 64 -86 105 -101 145 -11 31 -44 86 -72 124 -41 54 -56 67 -78 67 -27 0 -28 -3 -34 -60z"/>
    </g>
    <g transform="translate(0.000000,200.000000) scale(0.100000,-0.100000)" fill="#050505" stroke="none">
      <path d="M997 1740 c-4 -33 -10 -72 -13 -85 -6 -24 -7 -23 -51 26 -50 54 -88 78 -116 71 -14 -3 -17 -10 -13 -26 3 -12 8 -47 12 -78 l6 -55 -43 -24 c-46 -26 -89 -79 -89 -112 0 -11 -29 -51 -65 -88 -36 -38 -88 -98 -116 -134 -28 -36 -55 -65 -60 -65 -18 0 -69 -83 -69 -114 0 -17 15 -60 33 -96 56 -112 152 -141 235 -71 42 35 172 101 199 101 34 0 90 20 127 45 32 22 36 23 36 6 0 -33 -61 -111 -156 -198 -191 -176 -244 -312 -193 -495 l10 -38 454 0 455 0 5 23 c12 50 35 287 35 357 0 100 -14 182 -52 299 -59 184 -131 305 -286 475 -58 64 -86 105 -101 145 -11 31 -44 86 -72 124 -41 54 -56 67 -78 67 -27 0 -28 -3 -34 -60z"/>
    </g>
  </g>
</svg>
