<svg xmlns="http://www.w3.org/2000/svg" viewBox="0 0 200 200" role="img" aria-labelledby="title">
  <title id="title">Newspaper Resources Rook</title>
  <g shape-rendering="geometricPrecision">
    <g transform="translate(0.000000,200.000000) scale(0.100000,-0.100000)" fill="#151515" stroke="none">
      <path d="M520 1535 l0 -185 35 0 c32 0 40 -6 85 -67 l50 -68 0 -200 -1 -200 -50 -67 c-44 -61 -53 -68 -84 -68 l-35 0 0 -70 0 -69 -67 -3 -68 -3 0 -110 0 -110 615 0 615 0 0 110 0 110 -67 3 -68 3 0 69 0 70 -37 0 c-35 1 -41 5 -85 70 l-48 68 0 197 0 197 48 69 c44 65 49 69 85 69 l37 0 0 185 0 185 -110 0 -110 0 0 -55 0 -55 -55 0 -55 0 0 55 0 55 -150 0 -150 0 0 -55 0 -55 -55 0 -55 0 0 55 0 55 -110 0 -110 0 0 -185z"/>
    </g>
    <g transform="translate(0.000000,200.000000) scale(0.100000,-0.100000)" fill="#050505" stroke="none">
      <path d="M520 1535 l0 -185 35 0 c32 0 40 -6 85 -67 l50 -68 0 -200 -1 -200 -50 -67 c-44 -61 -53 -68 -84 -68 l-35 0 0 -70 0 -69 -67 -3 -68 -3 0 -110 0 -110 615 0 615 0 0 110 0 110 -67 3 -68 3 0 69 0 70 -37 0 c-35 1 -41 5 -85 70 l-48 68 0 197 0 197 48 69 c44 65 49 69 85 69 l37 0 0 185 0 185 -110 0 -110 0 0 -55 0 -55 -55 0 -55 0 0 55 0 55 -150 0 -150 0 0 -55 0 -55 -55 0 -55 0 0 55 0 55 -110 0 -110 0 0 -185z m890 -65 c0 -20 -7 -20 -410 -20 -403 0 -410 0 -410 20 0 20 7 20 410 20 403 0 410 0 410 -20z m-120 -124 c0 -2 -3 -11 -6 -20 -5 -14 -40 -16 -285 -16 -153 0 -279 2 -279 4 0 2 -3 11 -6 20 -6 14 24 16 285 16 160 0 291 -2 291 -4z m-10 -600 c0 -2 3 -11 6 -20 6 -14 -24 -16 -285 -16 -160 0 -291 2 -291 4 0 2 3 11 6 20 5 14 40 16 285 16 153 0 279 -2 279 -4z m130 -156 c0 -20 -7 -20 -410 -20 -403 0 -410 0 -410 20 0 20 7 20 410 20 403 0 410 0 410 -20z"/>
    </g>
    <g transform="translate(0.000000,200.000000) scale(0.100000,-0.100000)" fill="#6c6c6c" stroke="none">
      <path d="M592 1473 c3 -17 32 -18 411 -21 402 -2 407 -2 407 18 0 20 -6 20 -411 20 -386 0 -410 -1 -407 -17z M716 1325 c5 -13 46 -15 284 -15 238 0 279 2 284 15 5 13 -31 15 -284 15 -253 0 -289 -2 -284 -15z M722 738 c-7 -7 -12 -16 -12 -20 0 -4 131 -8 291 -8 261 0 291 2 285 16 -3 9 -6 18 -6 20 0 2 -123 4 -273 4 -199 0 -276 -3 -285 -12z M597 603 c-4 -3 -7 -12 -7 -20 0 -11 75 -13 410 -13 403 0 410 0 410 20 0 20 -7 20 -403 20 -222 0 -407 -3 -410 -7z"/>
    </g>
  </g>
</svg>
