<svg xmlns="http://www.w3.org/2000/svg" viewBox="0 0 1640 1640" width="480" height="480" role="img" aria-labelledby="title">
  <title id="title">Chess position</title>
  <rect x="0" y="0" width="1640" height="1640" fill="#646464"/>
  <g transform="translate(20 20)">
    <g shape-rendering="crispEdges">
        <rect x="0" y="0" width="1600" height="1600" fill="#b2b2b2"/>
        <path fill="#e5e5e5" stroke="none" d="M0 0 L197 0 L197 197 L0 197 Z"/>
        <path fill="#cccccc" stroke="none" d="M203 0 L397 0 L397 197 L203 197 Z"/>
        <path fill="#e5e5e5" stroke="none" d="M403 0 L597 0 L597 197 L403 197 Z"/>
        <path fill="#cccccc" stroke="none" d="M603 0 L797 0 L797 197 L603 197 Z"/>
        <path fill="#e5e5e5" stroke="none" d="M803 0 L997 0 L997 197 L803 197 Z"/>
        <path fill="#cccccc" stroke="none" d="M1003 0 L1197 0 L1197 197 L1003 197 Z"/>
        <path fill="#e5e5e5" stroke="none" d="M1203 0 L1397 0 L1397 197 L1203 197 Z"/>
        <path fill="#cccccc" stroke="none" d="M1403 0 L1600 0 L1600 197 L1403 197 Z"/>
        <path fill="#cccccc" stroke="none" d="M0 203 L197 203 L197 397 L0 397 Z"/>
        <path fill="#e5e5e5" stroke="none" d="M203 203 L397 203 L397 397 L203 397 Z"/>
        <path fill="#cccccc" stroke="none" d="M403 203 L597 203 L597 397 L403 397 Z"/>
        <path fill="#e5e5e5" stroke="none" d="M603 203 L797 203 L797 397 L603 397 Z"/>
        <path fill="#cccccc" stroke="none" d="M803 203 L997 203 L997 397 L803 397 Z"/>
        <path fill="#e5e5e5" stroke="none" d="M1003 203 L1197 203 L1197 397 L1003 397 Z"/>
        <path fill="#cccccc" stroke="none" d="M1203 203 L1397 203 L1397 397 L1203 397 Z"/>
        <path fill="#e5e5e5" stroke="none" d="M1403 203 L1600 203 L1600 397 L1403 397 Z"/>
        <path fill="#e5e5e5" stroke="none" d="M0 403 L197 403 L197 597 L0 597 Z"/>
        <path fill="#cccccc" stroke="none" d="M203 403 L397 403 L397 597 L203 597 Z"/>
        <path fill="#e5e5e5" stroke="none" d="M403 403 L597 403 L597 597 L403 597 Z"/>
        <path fill="#cccccc" stroke="none" d="M603 403 L797 403 L797 597 L603 597 Z"/>
        <path fill="#e5e5e5" stroke="none" d="M803 403 L997 403 L997 597 L803 597 Z"/>
        <path fill="#cccccc" stroke="none" d="M1003 403 L1197 403 L1197 597 L1003 597 Z"/>
        <path fill="#e5e5e5" stroke="none" d="M1203 403 L1397 403 L1397 597 L1203 597 Z"/>
        <path fill="#cccccc" stroke="none" d="M1403 403 L1600 403 L1600 597 L1403 597 Z"/>
        <path fill="#cccccc" stroke="none" d="M0 603 L197 603 L197 797 L0 797 Z"/>
        <path fill="#e5e5e5" stroke="none" d="M203 603 L397 603 L397 797 L203 797 Z"/>
        <path fill="#cccccc" stroke="none" d="M403 603 L597 603 L597 797 L403 797 Z"/>
        <path fill="#e5e5e5" stroke="none" d="M603 603 L797 603 L797 797 L603 797 Z"/>
        <path fill="#cccccc" stroke="none" d="M803 603 L997 603 L997 797 L803 797 Z"/>
        <path fill="#e5e5e5" stroke="none" d="M1003 603 L1197 603 L1197 797 L1003 797 Z"/>
        <path fill="#cccccc" stroke="none" d="M1203 603 L1397 603 L1397 797 L1203 797 Z"/>
        <path fill="#e5e5e5" stroke="none" d="M1403 603 L1600 603 L1600 797 L1403 797 Z"/>
        <path fill="#e5e5e5" stroke="none" d="M0 803 L197 803 L197 997 L0 997 Z"/>
        <path fill="#cccccc" stroke="none" d="M203 803 L397 803 L397 997 L203 997 Z"/>
        <path fill="#e5e5e5" stroke="none" d="M403 803 L597 803 L597 997 L403 997 Z"/>
        <path fill="#cccccc" stroke="none" d="M603 803 L797 803 L797 997 L603 997 Z"/>
        <path fill="#e5e5e5" stroke="none" d="M803 803 L997 803 L997 997 L803 997 Z"/>
        <path fill="#cccccc" stroke="none" d="M1003 803 L1197 803 L1197 997 L1003 997 Z"/>
        <path fill="#e5e5e5" stroke="none" d="M1203 803 L1397 803 L1397 997 L1203 997 Z"/>
        <path fill="#cccccc" stroke="none" d="M1403 803 L1600 803 L1600 997 L1403 997 Z"/>
        <path fill="#cccccc" stroke="none" d="M0 1003 L197 1003 L197 1197 L0 1197 Z"/>
        <path fill="#e5e5e5" stroke="none" d="M203 1003 L397 1003 L397 1197 L203 1197 Z"/>
        <path fill="#cccccc" stroke="none" d="M403 1003 L597 1003 L597 1197 L403 1197 Z"/>
        <path fill="#e5e5e5" stroke="none" d="M603 1003 L797 1003 L797 1197 L603 1197 Z"/>
        <path fill="#cccccc" stroke="none" d="M803 1003 L997 1003 L997 1197 L803 1197 Z"/>
        <path fill="#e5e5e5" stroke="none" d="M1003 1003 L1197 1003 L1197 1197 L1003 1197 Z"/>
        <path fill="#cccccc" stroke="none" d="M1203 1003 L1397 1003 L1397 1197 L1203 1197 Z"/>
        <path fill="#e5e5e5" stroke="none" d="M1403 1003 L1600 1003 L1600 1197 L1403 1197 Z"/>
        <path fill="#e5e5e5" stroke="none" d="M0 1203 L197 1203 L197 1397 L0 1397 Z"/>
        <path fill="#cccccc" stroke="none" d="M203 1203 L397 1203 L397 1397 L203 1397 Z"/>
        <path fill="#e5e5e5" stroke="none" d="M403 1203 L597 1203 L597 1397 L403 1397 Z"/>
        <path fill="#cccccc" stroke="none" d="M603 1203 L797 1203 L797 1397 L603 1397 Z"/>
        <path fill="#e5e5e5" stroke="none" d="M803 1203 L997 1203 L997 1397 L803 1397 Z"/>
        <path fill="#cccccc" stroke="none" d="M1003 1203 L1197 1203 L1197 1397 L1003 1397 Z"/>
        <path fill="#e5e5e5" stroke="none" d="M1203 1203 L1397 1203 L1397 1397 L1203 1397 Z"/>
        <path fill="#cccccc" stroke="none" d="M1403 1203 L1600 1203 L1600 1397 L1403 1397 Z"/>
        <path fill="#cccccc" stroke="none" d="M0 1403 L197 1403 L197 1600 L0 1600 Z"/>
        <path fill="#e5e5e5" stroke="none" d="M203 1403 L397 1403 L397 1600 L203 1600 Z"/>
        <path fill="#cccccc" stroke="none" d="M403 1403 L597 1403 L597 1600 L403 1600 Z"/>
        <path fill="#e5e5e5" stroke="none" d="M603 1403 L797 1403 L797 1600 L603 1600 Z"/>
        <path fill="#cccccc" stroke="none" d="M803 1403 L997 1403 L997 1600 L803 1600 Z"/>
        <path fill="#e5e5e5" stroke="none" d="M1003 1403 L1197 1403 L1197 1600 L1003 1600 Z"/>
        <path fill="#cccccc" stroke="none" d="M1203 1403 L1397 1403 L1397 1600 L1203 1600 Z"/>
        <path fill="#e5e5e5" stroke="none" d="M1403 1403 L1600 1403 L1600 1600 L1403 1600 Z"/>
      </g>
  </g>
  <g transform="translate(1220 20)">
    <g shape-rendering="geometricPrecision">
        <g transform="translate(0.000000,200.000000) scale(0.100000,-0.100000)" fill="#000000" stroke="none">
          <path d="M985 1718 c-2 -7 -6 -29 -7 -48 -3 -34 -5 -35 -48 -40 -31 -3 -45 -10 -45 -20 0 -10 14 -17 45 -20 64 -7 75 -77 16 -98 -46 -17 -93 -65 -113 -114 -8 -21 -18 -37 -22 -36 -3 2 -29 15 -58 30 -452 238 -810 -355 -384 -636 64 -42 72 -51 85 -97 28 -93 28 -111 2 -208 -43 -159 61 -196 544 -196 483 0 587 37 544 196 -26 97 -26 115 2 208 13 46 21 55 85 97 426 281 68 874 -384 636 -29 -15 -55 -28 -58 -30 -4 -1 -14 15 -22 36 -20 49 -67 97 -113 114 -59 21 -48 91 16 98 31 3 45 10 45 20 0 10 -14 17 -45 20 -45 5 -45 5 -50 49 -5 43 -25 66 -35 39z"/>
        </g>
        <g transform="translate(0.000000,200.000000) scale(0.100000,-0.100000)" fill="#4c4c4c" stroke="none">
          <path d="M965 1444 c-59 -14 -95 -58 -95 -119 0 -25 117 -265 130 -265 12 0 130 239 130 264 0 84 -77 140 -165 120z M460 1366 c-294 -85 -325 -450 -51 -599 l47 -26 80 24 c116 33 254 55 351 55 l83 0 0 81 0 82 -67 125 c-129 237 -257 312 -443 258z M1345 1366 c-106 -34 -151 -80 -247 -258 l-68 -125 0 -82 0 -81 83 0 c97 0 235 -22 351 -55 l80 -24 47 26 c359 195 143 722 -246 599z M833 760 c-246 -22 -328 -52 -327 -119 2 -66 1 -65 65 -47 202 56 656 56 858 0 64 -18 63 -19 65 47 l1 53 -60 18 c-139 43 -415 65 -602 48z M745 569 c-38 -5 -103 -17 -144 -27 l-75 -17 -17 -70 c-21 -83 -27 -76 46 -60 204 47 686 47 890 0 73 -16 67 -23 46 60 l-17 70 -100 23 c-113 26 -496 39 -629 21z M725 364 c-168 -17 -215 -36 -133 -54 223 -47 593 -47 816 1 64 13 58 23 -23 39 -58 12 -574 22 -660 14z"/>
        </g>
      </g>
  </g>
  <g transform="translate(1020 220)">
    <g shape-rendering="geometricPrecision">
        <g transform="translate(0.000000,200.000000) scale(0.100000,-0.100000)" fill="#000000" stroke="none">
          <path d="M919 1524 c-181 -55 -245 -281 -128 -446 l22 -30 -37 -32 c-54 -45 -76 -84 -76 -133 l0 -43 60 0 60 0 0 -33 c0 -44 -40 -105 -140 -213 -179 -195 -238 -354 -142 -382 35 -9 889 -9 924 0 96 28 37 187 -142 382 -100 108 -140 169 -140 213 l0 33 60 0 60 0 0 43 c0 49 -22 88 -76 133 l-37 32 22 30 c162 228 -31 526 -290 446z"/>
        </g>
        <g transform="translate(0.000000,200.000000) scale(0.100000,-0.100000)" fill="#4c4c4c" stroke="none">
          <path d="M938 1481 c-250 -81 -199 -444 62 -444 231 0 313 302 114 419 -47 28 -131 39 -176 25z M806 981 c-30 -20 -66 -68 -66 -88 0 -10 59 -13 260 -13 281 0 275 -1 240 55 -33 54 -78 71 -143 56 -51 -13 -135 -11 -227 4 -25 4 -43 0 -64 -14z M876 818 c-3 -7 -12 -37 -21 -65 -13 -40 -37 -76 -103 -149 -163 -181 -202 -242 -202 -316 l0 -38 450 0 450 0 0 38 c0 74 -39 135 -202 316 -73 82 -91 108 -107 159 l-19 62 -121 3 c-92 2 -122 0 -125 -10z"/>
        </g>
      </g>
  </g>
  <g transform="translate(1220 220)">
    <g shape-rendering="geometricPrecision">
        <g transform="translate(0.000000,200.000000) scale(0.100000,-0.100000)" fill="#000000" stroke="none">
          <path d="M919 1524 c-181 -55 -245 -281 -128 -446 l22 -30 -37 -32 c-54 -45 -76 -84 -76 -133 l0 -43 60 0 60 0 0 -33 c0 -44 -40 -105 -140 -213 -179 -195 -238 -354 -142 -382 35 -9 889 -9 924 0 96 28 37 187 -142 382 -100 108 -140 169 -140 213 l0 33 60 0 60 0 0 43 c0 49 -22 88 -76 133 l-37 32 22 30 c162 228 -31 526 -290 446z"/>
        </g>
        <g transform="translate(0.000000,200.000000) scale(0.100000,-0.100000)" fill="#4c4c4c" stroke="none">
          <path d="M938 1481 c-250 -81 -199 -444 62 -444 231 0 313 302 114 419 -47 28 -131 39 -176 25z M806 981 c-30 -20 -66 -68 -66 -88 0 -10 59 -13 260 -13 281 0 275 -1 240 55 -33 54 -78 71 -143 56 -51 -13 -135 -11 -227 4 -25 4 -43 0 -64 -14z M876 818 c-3 -7 -12 -37 -21 -65 -13 -40 -37 -76 -103 -149 -163 -181 -202 -242 -202 -316 l0 -38 450 0 450 0 0 38 c0 74 -39 135 -202 316 -73 82 -91 108 -107 159 l-19 62 -121 3 c-92 2 -122 0 -125 -10z"/>
        </g>
      </g>
  </g>
  <g transform="translate(1420 220)">
    <g shape-rendering="geometricPrecision">
        <g transform="translate(0.000000,200.000000) scale(0.100000,-0.100000)" fill="#000000" stroke="none">
          <path d="M919 1524 c-181 -55 -245 -281 -128 -446 l22 -30 -37 -32 c-54 -45 -76 -84 -76 -133 l0 -43 60 0 60 0 0 -33 c0 -44 -40 -105 -140 -213 -179 -195 -238 -354 -142 -382 35 -9 889 -9 924 0 96 28 37 187 -142 382 -100 108 -140 169 -140 213 l0 33 60 0 60 0 0 43 c0 49 -22 88 -76 133 l-37 32 22 30 c162 228 -31 526 -290 446z"/>
        </g>
        <g transform="translate(0.000000,200.000000) scale(0.100000,-0.100000)" fill="#4c4c4c" stroke="none">
          <path d="M938 1481 c-250 -81 -199 -444 62 -444 231 0 313 302 114 419 -47 28 -131 39 -176 25z M806 981 c-30 -20 -66 -68 -66 -88 0 -10 59 -13 260 -13 281 0 275 -1 240 55 -33 54 -78 71 -143 56 -51 -13 -135 -11 -227 4 -25 4 -43 0 -64 -14z M876 818 c-3 -7 -12 -37 -21 -65 -13 -40 -37 -76 -103 -149 -163 -181 -202 -242 -202 -316 l0 -38 450 0 450 0 0 38 c0 74 -39 135 -202 316 -73 82 -91 108 -107 159 l-19 62 -121 3 c-92 2 -122 0 -125 -10z"/>
        </g>
      </g>
  </g>
  <g transform="translate(1020 1220)">
    <g shape-rendering="geometricPrecision">
        <g transform="translate(0.000000,200.000000) scale(0.100000,-0.100000)" fill="#000000" stroke="none">
          <path d="M919 1524 c-181 -55 -245 -281 -128 -446 l22 -30 -37 -32 c-54 -45 -76 -84 -76 -133 l0 -43 60 0 60 0 0 -33 c0 -44 -40 -105 -140 -213 -179 -195 -238 -354 -142 -382 35 -9 889 -9 924 0 96 28 37 187 -142 382 -100 108 -140 169 -140 213 l0 33 60 0 60 0 0 43 c0 49 -22 88 -76 133 l-37 32 22 30 c162 228 -31 526 -290 446z"/>
        </g>
        <g transform="translate(0.000000,200.000000) scale(0.100000,-0.100000)" fill="#ffffff" stroke="none">
          <path d="M938 1481 c-250 -81 -199 -444 62 -444 231 0 313 302 114 419 -47 28 -131 39 -176 25z M806 981 c-30 -20 -66 -68 -66 -88 0 -10 59 -13 260 -13 281 0 275 -1 240 55 -33 54 -78 71 -143 56 -51 -13 -135 -11 -227 4 -25 4 -43 0 -64 -14z M876 818 c-3 -7 -12 -37 -21 -65 -13 -40 -37 -76 -103 -149 -163 -181 -202 -242 -202 -316 l0 -38 450 0 450 0 0 38 c0 74 -39 135 -202 316 -73 82 -91 108 -107 159 l-19 62 -121 3 c-92 2 -122 0 -125 -10z"/>
        </g>
      </g>
  </g>
  <g transform="translate(1220 1220)">
    <g shape-rendering="geometricPrecision">
        <g transform="translate(0.000000,200.000000) scale(0.100000,-0.100000)" fill="#000000" stroke="none">
          <path d="M919 1524 c-181 -55 -245 -281 -128 -446 l22 -30 -37 -32 c-54 -45 -76 -84 -76 -133 l0 -43 60 0 60 0 0 -33 c0 -44 -40 -105 -140 -213 -179 -195 -238 -354 -142 -382 35 -9 889 -9 924 0 96 28 37 187 -142 382 -100 108 -140 169 -140 213 l0 33 60 0 60 0 0 43 c0 49 -22 88 -76 133 l-37 32 22 30 c162 228 -31 526 -290 446z"/>
        </g>
        <g transform="translate(0.000000,200.000000) scale(0.100000,-0.100000)" fill="#ffffff" stroke="none">
          <path d="M938 1481 c-250 -81 -199 -444 62 -444 231 0 313 302 114 419 -47 28 -131 39 -176 25z M806 981 c-30 -20 -66 -68 -66 -88 0 -10 59 -13 260 -13 281 0 275 -1 240 55 -33 54 -78 71 -143 56 -51 -13 -135 -11 -227 4 -25 4 -43 0 -64 -14z M876 818 c-3 -7 -12 -37 -21 -65 -13 -40 -37 -76 -103 -149 -163 -181 -202 -242 -202 -316 l0 -38 450 0 450 0 0 38 c0 74 -39 135 -202 316 -73 82 -91 108 -107 159 l-19 62 -121 3 c-92 2 -122 0 -125 -10z"/>
        </g>
      </g>
  </g>
  <g transform="translate(1420 1220)">
    <g shape-rendering="geometricPrecision">
        <g transform="translate(0.000000,200.000000) scale(0.100000,-0.100000)" fill="#000000" stroke="none">
          <path d="M919 1524 c-181 -55 -245 -281 -128 -446 l22 -30 -37 -32 c-54 -45 -76 -84 -76 -133 l0 -43 60 0 60 0 0 -33 c0 -44 -40 -105 -140 -213 -179 -195 -238 -354 -142 -382 35 -9 889 -9 924 0 96 28 37 187 -142 382 -100 108 -140 169 -140 213 l0 33 60 0 60 0 0 43 c0 49 -22 88 -76 133 l-37 32 22 30 c162 228 -31 526 -290 446z"/>
        </g>
        <g transform="translate(0.000000,200.000000) scale(0.100000,-0.100000)" fill="#ffffff" stroke="none">
          <path d="M938 1481 c-250 -81 -199 -444 62 -444 231 0 313 302 114 419 -47 28 -131 39 -176 25z M806 981 c-30 -20 -66 -68 -66 -88 0 -10 59 -13 260 -13 281 0 275 -1 240 55 -33 54 -78 71 -143 56 -51 -13 -135 -11 -227 4 -25 4 -43 0 -64 -14z M876 818 c-3 -7 -12 -37 -21 -65 -13 -40 -37 -76 -103 -149 -163 -181 -202 -242 -202 -316 l0 -38 450 0 450 0 0 38 c0 74 -39 135 -202 316 -73 82 -91 108 -107 159 l-19 62 -121 3 c-92 2 -122 0 -125 -10z"/>
        </g>
      </g>
  </g>
  <g transform="translate(20 1420)">
    <g shape-rendering="geometricPrecision">
        <g transform="translate(0.000000,200.000000) scale(0.100000,-0.100000)" fill="#000000" stroke="none">
          <path d="M490 1426 l0 -153 76 -64 c122 -102 114 -81 114 -307 l0 -194 -70 -77 -69 -78 -3 -79 -3 -79 -69 -3 c-65 -3 -68 -4 -62 -25 3 -12 6 -59 6 -104 l0 -83 590 0 590 0 0 83 c0 45 3 92 6 104 6 21 3 22 -62 25 l-69 3 -3 79 -3 79 -69 78 -70 77 0 194 c0 226 -8 205 114 307 l76 64 0 153 0 154 -119 0 -120 0 -3 -52 -3 -53 -60 0 -60 0 -3 53 -3 52 -139 0 -139 0 -3 -52 -3 -53 -60 0 -60 0 -3 53 -3 52 -120 0 -119 0 0 -154z"/>
        </g>
        <g transform="translate(0.000000,200.000000) scale(0.100000,-0.100000)" fill="#ffffff" stroke="none">
          <path d="M530 1425 l0 -115 470 0 470 0 0 115 0 115 -80 0 -80 0 0 -55 0 -55 -105 0 -105 0 0 55 0 55 -100 0 -100 0 0 -55 0 -55 -105 0 -105 0 0 55 0 55 -80 0 -80 0 0 -115z M720 1250 l-125 -5 58 -47 59 -48 288 0 288 0 59 48 58 47 -140 6 c-162 8 -367 7 -545 -1z M720 910 l0 -190 280 0 280 0 0 190 0 190 -280 0 -280 0 0 -190z M839 662 l-137 -3 -43 -47 -44 -47 193 -3 c105 -1 279 -1 385 0 l192 3 -45 47 -45 46 -160 4 c-88 2 -221 2 -296 0z M580 455 l0 -55 420 0 420 0 0 55 0 55 -420 0 -420 0 0 -55z M450 285 l0 -65 550 0 550 0 0 65 0 65 -550 0 -550 0 0 -65z"/>
        </g>
      </g>
  </g>
  <g transform="translate(1220 1420)">
    <g shape-rendering="geometricPrecision">
        <g transform="translate(0.000000,200.000000) scale(0.100000,-0.100000)" fill="#000000" stroke="none">
          <path d="M985 1718 c-2 -7 -6 -29 -7 -48 -3 -34 -5 -35 -48 -40 -31 -3 -45 -10 -45 -20 0 -10 14 -17 45 -20 64 -7 75 -77 16 -98 -46 -17 -93 -65 -113 -114 -8 -21 -18 -37 -22 -36 -3 2 -29 15 -58 30 -452 238 -810 -355 -384 -636 64 -42 72 -51 85 -97 28 -93 28 -111 2 -208 -43 -159 61 -196 544 -196 483 0 587 37 544 196 -26 97 -26 115 2 208 13 46 21 55 85 97 426 281 68 874 -384 636 -29 -15 -55 -28 -58 -30 -4 -1 -14 15 -22 36 -20 49 -67 97 -113 114 -59 21 -48 91 16 98 31 3 45 10 45 20 0 10 -14 17 -45 20 -45 5 -45 5 -50 49 -5 43 -25 66 -35 39z"/>
        </g>
        <g transform="translate(0.000000,200.000000) scale(0.100000,-0.100000)" fill="#ffffff" stroke="none">
          <path d="M965 1444 c-59 -14 -95 -58 -95 -119 0 -25 117 -265 130 -265 12 0 130 239 130 264 0 84 -77 140 -165 120z M460 1366 c-294 -85 -325 -450 -51 -599 l47 -26 80 24 c116 33 254 55 351 55 l83 0 0 81 0 82 -67 125 c-129 237 -257 312 -443 258z M1345 1366 c-106 -34 -151 -80 -247 -258 l-68 -125 0 -82 0 -81 83 0 c97 0 235 -22 351 -55 l80 -24 47 26 c359 195 143 722 -246 599z M833 760 c-246 -22 -328 -52 -327 -119 2 -66 1 -65 65 -47 202 56 656 56 858 0 64 -18 63 -19 65 47 l1 53 -60 18 c-139 43 -415 65 -602 48z M745 569 c-38 -5 -103 -17 -144 -27 l-75 -17 -17 -70 c-21 -83 -27 -76 46 -60 204 47 686 47 890 0 73 -16 67 -23 46 60 l-17 70 -100 23 c-113 26 -496 39 -629 21z M725 364 c-168 -17 -215 -36 -133 -54 223 -47 593 -47 816 1 64 13 58 23 -23 39 -58 12 -574 22 -660 14z"/>
        </g>
      </g>
  </g>
  <polygon points="120,170 166,250 136,250 136,1470 104,1470 104,250 74,250" fill="#ffffff" stroke="#000000" stroke-linejoin="round" stroke-width="3"/>
</svg>
