<svg xmlns="http://www.w3.org/2000/svg" viewBox="0 0 200 200" role="img" aria-labelledby="title">
  <title id="title">Modern Glass White King</title>
  <g shape-rendering="geometricPrecision">
    <g transform="translate(0.000000,200.000000) scale(0.100000,-0.100000)" fill="#151515" stroke="none">
      <path d="M920 1820 l0 -60 -60 0 -60 0 0 -80 0 -80 60 0 60 0 0 -55 c0 -48 -3 -57 -26 -72 -31 -20 -74 -105 -74 -148 0 -16 -3 -40 -6 -51 l-6 -22 -41 23 c-200 111 -437 46 -526 -144 -23 -49 -26 -69 -26 -157 0 -98 1 -103 42 -185 48 -96 123 -184 211 -249 l62 -44 -33 -19 c-42 -24 -85 -81 -98 -129 -5 -21 -9 -71 -7 -111 l3 -72 605 0 605 0 3 72 c2 40 -2 90 -7 111 -13 48 -56 105 -98 129 l-33 19 62 44 c88 65 163 153 211 249 41 82 42 87 42 185 0 88 -3 108 -26 157 -89 190 -326 255 -526 144 l-41 -23 -6 22 c-3 11 -6 35 -6 51 0 43 -43 128 -74 148 -23 15 -26 24 -26 72 l0 55 60 0 60 0 0 80 0 80 -60 0 -60 0 0 60 0 60 -80 0 -80 0 0 -60z m110 -52 c0 -56 21 -78 77 -78 36 0 43 -3 43 -20 0 -16 -8 -19 -57 -22 l-58 -3 -3 -57 c-3 -50 -6 -58 -22 -58 -17 0 -20 7 -20 42 0 56 -21 78 -77 78 -36 0 -43 3 -43 20 0 16 8 19 58 22 l57 3 3 58 c3 49 6 57 22 57 17 0 20 -7 20 -42z m55 -344 c29 -11 47 -64 48 -139 l2 -73 -65 -69 c-36 -37 -67 -68 -70 -68 -3 0 -30 26 -60 59 l-55 58 1 72 c1 77 18 124 56 150 23 16 111 22 143 10z m-388 -180 c81 -27 176 -98 248 -185 37 -44 71 -79 76 -77 5 2 37 37 72 77 71 85 175 161 254 186 37 12 77 16 131 13 178 -8 272 -118 260 -303 -9 -133 -93 -265 -241 -378 l-75 -58 -83 16 c-168 34 -539 30 -706 -6 l-51 -12 -64 45 c-153 109 -239 252 -239 395 0 141 66 239 196 290 44 17 167 16 222 -3z m613 -768 c193 -32 242 -70 249 -193 l3 -73 -552 0 -552 0 4 65 c3 53 9 71 34 102 37 46 115 80 224 98 106 18 483 19 590 1z"/>
    </g>
    <g transform="translate(0.000000,200.000000) scale(0.100000,-0.100000)" fill="#050505" stroke="none">
      <path d="M920 1820 l0 -60 -60 0 -60 0 0 -80 0 -80 60 0 60 0 0 -55 c0 -48 -3 -57 -26 -72 -31 -20 -74 -105 -74 -148 0 -16 -3 -40 -6 -51 l-6 -22 -41 23 c-200 111 -437 46 -526 -144 -23 -49 -26 -69 -26 -157 0 -98 1 -103 42 -185 48 -96 123 -184 211 -249 l62 -44 -33 -19 c-42 -24 -85 -81 -98 -129 -5 -21 -9 -71 -7 -111 l3 -72 605 0 605 0 3 72 c2 40 -2 90 -7 111 -13 48 -56 105 -98 129 l-33 19 62 44 c88 65 163 153 211 249 41 82 42 87 42 185 0 88 -3 108 -26 157 -89 190 -326 255 -526 144 l-41 -23 -6 22 c-3 11 -6 35 -6 51 0 43 -43 128 -74 148 -23 15 -26 24 -26 72 l0 55 60 0 60 0 0 80 0 80 -60 0 -60 0 0 60 0 60 -80 0 -80 0 0 -60z m115 -44 l0 -60 52 3 c65 3 71 0 65 -38 -4 -29 -6 -30 -61 -33 l-56 -3 -3 -56 c-3 -55 -4 -57 -33 -61 -38 -6 -41 0 -38 65 l3 52 -60 0 -59 0 0 35 0 35 58 3 57 3 0 53 c0 62 4 68 44 64 30 -3 31 -4 31 -62z m30 -328 c41 -19 67 -79 68 -163 l2 -72 -70 -75 -70 -76 -24 31 c-14 18 -45 52 -69 76 l-44 43 4 78 c5 84 29 138 70 158 31 15 101 15 133 0z m-339 -202 c74 -35 151 -102 237 -206 l37 -45 22 30 c13 17 57 65 100 108 59 60 95 86 155 115 70 33 86 37 158 37 103 0 167 -28 230 -97 58 -64 79 -133 73 -233 -9 -133 -93 -265 -241 -378 l-75 -58 -83 16 c-168 34 -539 30 -706 -6 l-51 -12 -65 46 c-122 87 -201 183 -243 292 -27 72 -26 185 4 250 78 170 264 229 448 141z m484 -736 c182 -19 262 -48 314 -113 27 -34 31 -48 34 -113 l4 -74 -556 0 c-306 0 -559 0 -563 0 -15 0 -14 95 1 135 48 123 191 169 541 173 72 1 173 -3 225 -8z"/>
    </g>
    <g transform="translate(0.000000,200.000000) scale(0.100000,-0.100000)" fill="#6c6c6c" stroke="none">
      <path d="M967 1834 c-4 -4 -7 -31 -7 -60 l0 -53 -57 -3 -58 -3 0 -32 c0 -36 18 -46 23 -14 3 17 12 21 60 23 l57 3 3 57 c3 50 6 57 25 60 12 2 22 8 22 13 0 12 -57 19 -68 9z M1055 1710 c-3 -5 0 -13 8 -16 23 -8 92 0 92 11 0 14 -92 19 -100 5z M965 1618 c-9 -24 -2 -93 10 -93 14 0 19 85 6 98 -7 7 -12 5 -16 -5z M938 1449 c-45 -17 -71 -71 -76 -158 -3 -57 -1 -80 9 -88 12 -9 14 1 15 60 1 125 41 171 144 165 66 -3 77 4 29 21 -38 13 -84 13 -121 0z M487 1279 c-90 -21 -169 -86 -209 -174 -18 -39 -23 -67 -23 -130 1 -70 5 -90 34 -153 19 -39 41 -78 50 -85 10 -8 8 -1 -6 23 -54 90 -69 216 -38 310 21 62 79 128 141 160 97 49 241 38 348 -26 35 -21 37 -22 16 -3 -37 32 -109 65 -168 78 -61 13 -91 13 -145 0z M1355 1277 c-107 -28 -220 -111 -311 -228 -30 -39 -40 -60 -32 -65 6 -4 21 5 36 22 92 111 119 137 179 177 93 62 154 80 250 76 57 -3 90 -10 122 -27 27 -14 40 -18 33 -9 -40 48 -188 76 -277 54z M830 1176 c0 -2 8 -10 18 -17 15 -13 16 -12 3 4 -13 16 -21 21 -21 13z M950 1116 c0 -2 8 -10 18 -17 15 -13 16 -12 3 4 -13 16 -21 21 -21 13z M350 716 c0 -2 8 -10 18 -17 15 -13 16 -12 3 4 -13 16 -21 21 -21 13z M780 509 c-97 -11 -187 -32 -236 -55 -73 -35 -119 -119 -112 -205 5 -64 23 -50 29 24 5 55 11 74 36 105 64 80 213 112 523 112 220 0 336 -13 430 -49 49 -18 53 -19 31 -2 -29 22 -104 46 -191 61 -90 15 -407 21 -510 9z"/>
    </g>
  </g>
</svg>
