<svg xmlns="http://www.w3.org/2000/svg" viewBox="0 0 200 200" role="img" aria-labelledby="title">
  <title id="title">Modern Glass White Rook</title>
  <g shape-rendering="geometricPrecision">
    <g transform="translate(0.000000,200.000000) scale(0.100000,-0.100000)" fill="#151515" stroke="none">
      <path d="M873 1783 c-9 -3 -13 -33 -13 -98 l0 -93 -57 -8 -58 -9 -20 85 -21 85 -39 -3 c-22 -2 -78 -11 -125 -20 l-85 -17 -3 -88 c-5 -149 39 -270 118 -325 22 -15 41 -33 44 -40 3 -7 9 -88 12 -180 7 -182 -3 -296 -38 -422 -33 -121 -47 -148 -87 -171 -45 -26 -88 -81 -102 -131 -5 -21 -9 -71 -7 -111 l3 -72 605 0 605 0 3 72 c2 40 -2 90 -7 111 -14 50 -57 105 -102 131 -40 23 -54 50 -87 171 -35 126 -45 240 -38 422 3 92 9 173 12 180 3 7 22 25 44 40 79 55 123 176 118 325 l-3 88 -85 17 c-47 9 -103 18 -125 20 l-39 3 -21 -85 -20 -85 -57 9 -58 8 0 93 c0 75 -3 94 -16 99 -19 7 -233 7 -251 -1z m217 -133 c0 -94 17 -113 126 -133 48 -9 83 -11 90 -6 6 5 19 45 28 88 14 64 20 78 34 75 9 -2 43 -8 76 -15 l59 -11 -6 -91 c-7 -123 -40 -195 -109 -237 -26 -15 -34 -16 -86 -4 -154 36 -451 36 -605 0 -54 -13 -59 -12 -89 8 -53 35 -79 103 -87 221 l-6 102 68 11 c96 17 92 19 106 -52 8 -41 21 -71 34 -84 21 -19 25 -20 101 -5 44 8 85 21 93 28 9 9 13 40 13 94 l0 81 80 0 80 0 0 -70z m188 -390 l62 -12 -7 -52 c-4 -28 -7 -127 -7 -221 0 -177 14 -278 55 -395 10 -30 19 -55 19 -56 0 0 -33 6 -72 14 -91 20 -529 22 -627 4 -36 -6 -66 -10 -67 -9 -1 1 8 42 22 91 36 136 49 304 36 470 -6 77 -9 143 -6 147 2 4 43 12 91 19 49 6 95 13 103 15 32 8 338 -4 398 -15z m32 -784 c193 -32 242 -70 249 -193 l3 -73 -552 0 -552 0 4 65 c3 53 9 71 34 102 37 46 115 80 224 98 106 18 483 19 590 1z"/>
    </g>
    <g transform="translate(0.000000,200.000000) scale(0.100000,-0.100000)" fill="#050505" stroke="none">
      <path d="M873 1783 c-9 -3 -13 -33 -13 -98 l0 -93 -57 -8 -58 -9 -20 85 -21 85 -39 -3 c-22 -2 -78 -11 -125 -20 l-85 -17 -3 -88 c-5 -149 39 -270 118 -325 22 -15 41 -33 44 -40 3 -7 9 -88 12 -180 7 -182 -3 -296 -38 -422 -33 -121 -47 -148 -87 -171 -45 -26 -88 -81 -102 -131 -5 -21 -9 -71 -7 -111 l3 -72 605 0 605 0 3 72 c2 40 -2 90 -7 111 -14 50 -57 105 -102 131 -40 23 -54 50 -87 171 -35 126 -45 240 -38 422 3 92 9 173 12 180 3 7 22 25 44 40 79 55 123 176 118 325 l-3 88 -85 17 c-47 9 -103 18 -125 20 l-39 3 -21 -85 -20 -85 -57 9 -58 8 0 93 c0 75 -3 94 -16 99 -19 7 -233 7 -251 -1z m218 -120 c-2 -59 1 -86 11 -96 19 -19 166 -41 182 -28 7 6 19 43 26 81 7 39 17 73 21 76 7 4 170 -22 174 -29 1 -1 -2 -47 -6 -102 -10 -134 -41 -202 -111 -245 -26 -15 -34 -16 -86 -4 -153 36 -451 36 -604 0 -54 -12 -59 -12 -96 10 -67 40 -112 153 -112 284 0 33 2 60 4 60 2 0 40 7 85 15 45 9 86 13 91 10 6 -3 10 -17 10 -31 0 -32 20 -116 31 -128 9 -10 158 12 177 27 8 6 12 38 12 92 0 45 3 85 7 89 4 4 48 5 97 4 l91 -3 -4 -82z m192 -383 l58 -13 -8 -76 c-23 -219 -3 -465 48 -611 10 -30 19 -55 19 -56 0 0 -30 5 -67 13 -161 33 -597 25 -705 -12 -21 -7 -38 -11 -38 -9 0 1 5 15 11 31 55 141 73 284 66 525 l-6 196 72 12 c40 7 77 14 82 16 25 9 415 -4 468 -16z m-73 -770 c182 -19 262 -48 314 -113 27 -34 31 -48 34 -113 l4 -74 -556 0 c-306 0 -559 0 -563 0 -15 0 -14 95 1 135 48 123 191 169 541 173 72 1 173 -3 225 -8z"/>
    </g>
    <g transform="translate(0.000000,200.000000) scale(0.100000,-0.100000)" fill="#6c6c6c" stroke="none">
      <path d="M907 1744 c-4 -4 -7 -44 -7 -89 0 -54 -4 -86 -12 -93 -7 -5 -48 -16 -91 -23 -61 -10 -75 -15 -65 -25 16 -15 163 10 185 31 9 9 13 40 13 94 l0 80 80 3 c44 2 81 8 83 13 2 11 -175 20 -186 9z M568 1683 l-78 -15 0 -52 c0 -79 19 -166 47 -219 32 -58 41 -56 12 3 -15 32 -23 73 -28 146 l-6 101 77 13 c54 8 78 17 78 26 0 16 -2 16 -102 -3z M1321 1663 c-5 -21 -13 -55 -16 -75 -11 -62 -25 -66 -142 -42 -20 4 -33 2 -33 -4 0 -13 162 -42 176 -31 6 5 19 44 28 88 l17 78 72 -13 c85 -16 87 -17 87 -5 0 4 -28 14 -62 20 -35 6 -75 14 -90 17 -24 5 -28 2 -37 -33z M820 1294 c-14 -3 -55 -9 -91 -15 l-67 -10 5 -212 c6 -232 -5 -334 -51 -471 -13 -39 -23 -73 -21 -74 13 -13 45 49 63 119 35 139 46 295 34 460 -6 79 -8 147 -4 150 15 14 142 30 272 36 120 5 252 -4 349 -23 19 -4 31 -2 31 4 0 19 -125 34 -310 37 -102 2 -196 1 -210 -1z M780 509 c-97 -11 -187 -32 -236 -55 -73 -35 -119 -119 -112 -205 5 -64 23 -50 29 24 5 55 11 74 36 105 64 80 213 112 523 112 220 0 336 -13 430 -49 49 -18 53 -19 31 -2 -29 22 -104 46 -191 61 -90 15 -407 21 -510 9z"/>
    </g>
  </g>
</svg>
