<svg xmlns="http://www.w3.org/2000/svg" viewBox="0 0 200 200" role="img" aria-labelledby="title">
  <title id="title">Modern Glass White Bishop</title>
  <g shape-rendering="geometricPrecision">
    <g transform="translate(0.000000,200.000000) scale(0.100000,-0.100000)" fill="#151515" stroke="none">
      <path d="M909 1857 c-18 -12 -44 -38 -56 -56 -31 -46 -32 -132 -2 -180 l21 -34 -27 -21 -26 -21 46 -70 c86 -128 154 -290 172 -413 l10 -62 -57 0 -56 0 -22 73 c-45 146 -176 367 -217 367 -18 0 -97 -111 -130 -181 -42 -94 -58 -175 -58 -299 0 -133 23 -237 78 -357 30 -66 32 -75 17 -79 -9 -3 -44 -19 -77 -35 -101 -49 -138 -119 -133 -252 l3 -72 605 0 605 0 3 72 c5 133 -32 203 -133 252 -33 16 -68 32 -77 35 -15 4 -13 13 17 79 55 120 78 224 78 357 0 133 -16 211 -68 315 -56 115 -146 212 -274 295 l-23 16 21 34 c30 49 29 135 -2 181 -37 55 -81 79 -147 79 -43 0 -65 -6 -91 -23z m177 -62 c29 -19 45 -75 33 -117 -29 -103 -168 -126 -212 -36 -53 108 78 219 179 153z m-64 -275 c24 0 49 4 57 9 27 17 155 -69 224 -150 44 -50 100 -157 120 -226 48 -164 22 -389 -66 -556 l-30 -57 -66 7 c-85 10 -415 10 -508 0 l-73 -7 -31 61 c-51 102 -72 197 -73 339 -1 161 26 252 112 382 l25 38 25 -32 c37 -49 118 -224 138 -298 25 -96 31 -100 133 -100 47 0 91 4 98 8 9 6 9 26 2 82 -20 139 -84 306 -173 444 -34 53 -34 54 -13 64 13 5 29 6 39 1 9 -5 36 -9 60 -9z m288 -1044 c193 -32 242 -70 249 -193 l3 -73 -552 0 -552 0 4 65 c3 53 9 71 34 102 37 46 115 80 224 98 106 18 483 19 590 1z"/>
    </g>
    <g transform="translate(0.000000,200.000000) scale(0.100000,-0.100000)" fill="#050505" stroke="none">
      <path d="M909 1857 c-18 -12 -44 -38 -56 -56 -31 -46 -32 -132 -2 -180 l21 -34 -27 -21 -26 -21 46 -70 c86 -128 154 -290 172 -413 l10 -62 -57 0 -56 0 -22 73 c-45 146 -176 367 -217 367 -18 0 -97 -111 -130 -181 -42 -94 -58 -175 -58 -299 0 -133 23 -237 78 -357 30 -66 32 -75 17 -79 -9 -3 -44 -19 -77 -35 -101 -49 -138 -119 -133 -252 l3 -72 605 0 605 0 3 72 c5 133 -32 203 -133 252 -33 16 -68 32 -77 35 -15 4 -13 13 17 79 55 120 78 224 78 357 0 133 -16 211 -68 315 -56 115 -146 212 -274 295 l-23 16 21 34 c30 49 29 135 -2 181 -37 55 -81 79 -147 79 -43 0 -65 -6 -91 -23z m151 -32 c81 -42 83 -170 5 -221 -54 -36 -151 -11 -180 46 -58 111 64 233 175 175z m-87 -280 c19 -4 51 -2 72 4 45 12 66 3 153 -67 107 -85 189 -206 225 -329 48 -164 22 -389 -66 -556 l-30 -57 -66 7 c-74 9 -394 11 -516 3 l-80 -5 -27 50 c-53 96 -80 199 -85 330 -8 170 18 271 98 396 l41 63 29 -34 c43 -51 127 -223 153 -315 l23 -80 94 4 c52 1 96 5 98 7 10 9 -19 166 -44 241 -31 91 -89 212 -136 279 -31 45 -31 48 -13 61 10 7 24 11 31 9 6 -3 27 -8 46 -11z m237 -1035 c182 -19 262 -48 314 -113 27 -34 31 -48 34 -113 l4 -74 -556 0 c-306 0 -559 0 -563 0 -15 0 -14 95 1 135 48 123 191 169 541 173 72 1 173 -3 225 -8z"/>
    </g>
    <g transform="translate(0.000000,200.000000) scale(0.100000,-0.100000)" fill="#6c6c6c" stroke="none">
      <path d="M933 1820 c-61 -37 -81 -116 -43 -177 26 -44 33 -42 14 4 -41 96 63 199 160 159 45 -19 46 -12 4 14 -42 25 -94 25 -135 0z M898 1548 c-15 -12 -11 -23 42 -111 84 -140 150 -336 150 -443 l0 -34 -74 0 c-79 0 -109 -6 -100 -21 6 -11 174 -12 191 -1 9 6 9 26 2 82 -20 139 -84 306 -173 444 l-34 54 22 10 c14 6 28 7 37 1 18 -11 100 -11 118 0 10 6 25 4 43 -5 39 -20 35 -10 -6 15 -28 18 -38 19 -65 10 -31 -11 -88 -8 -121 5 -9 4 -23 1 -32 -6z M1160 1507 c0 -3 17 -17 37 -33 20 -15 33 -23 29 -16 -8 13 -66 56 -66 49z M651 1320 c-79 -121 -107 -236 -98 -398 3 -62 14 -138 27 -180 21 -77 72 -186 90 -197 6 -4 -3 21 -20 55 -63 124 -92 311 -71 447 14 91 40 161 92 247 28 47 38 71 31 78 -7 7 -23 -9 -51 -52z M780 509 c-97 -11 -187 -32 -236 -55 -73 -35 -119 -119 -112 -205 5 -64 23 -50 29 24 5 55 11 74 36 105 64 80 213 112 523 112 220 0 336 -13 430 -49 49 -18 53 -19 31 -2 -29 22 -104 46 -191 61 -90 15 -407 21 -510 9z"/>
    </g>
  </g>
</svg>
