<svg xmlns="http://www.w3.org/2000/svg" viewBox="0 0 200 200" role="img" aria-labelledby="title">
  <title id="title">Modern Glass White Pawn</title>
  <g shape-rendering="geometricPrecision">
    <g transform="translate(0.000000,200.000000) scale(0.100000,-0.100000)" fill="#151515" stroke="none">
      <path d="M890 1549 c-179 -81 -217 -320 -72 -451 23 -21 42 -41 42 -46 0 -4 -30 -16 -67 -26 -38 -11 -81 -25 -96 -33 -64 -32 -38 -73 64 -100 61 -15 69 -20 69 -41 0 -44 -51 -128 -147 -243 -165 -196 -201 -266 -188 -360 l7 -49 498 0 498 0 7 49 c13 94 -23 164 -188 360 -96 115 -147 199 -147 243 0 21 8 26 69 41 102 27 128 68 64 100 -15 8 -58 22 -95 33 -38 10 -68 22 -68 26 0 5 19 25 42 46 145 131 107 370 -72 451 -30 14 -66 21 -110 21 -44 0 -80 -7 -110 -21z m235 -70 c132 -62 132 -278 0 -368 -64 -43 -35 -105 65 -142 33 -12 60 -23 60 -25 0 -1 -24 -8 -54 -14 -70 -14 -80 -27 -71 -87 12 -85 37 -123 238 -368 58 -71 97 -147 97 -192 l0 -33 -450 0 -450 0 0 25 c0 53 41 119 172 275 109 128 153 202 163 273 7 42 4 51 -15 72 -13 14 -39 28 -59 31 -58 11 -56 15 15 39 108 36 124 82 50 137 -52 39 -72 69 -86 131 -41 186 149 330 325 246z"/>
    </g>
    <g transform="translate(0.000000,200.000000) scale(0.100000,-0.100000)" fill="#050505" stroke="none">
      <path d="M890 1549 c-179 -81 -217 -320 -72 -451 23 -21 42 -41 42 -46 0 -4 -30 -16 -67 -26 -38 -11 -81 -25 -96 -33 -64 -32 -38 -73 64 -100 61 -15 69 -20 69 -41 0 -44 -51 -128 -147 -243 -165 -196 -201 -266 -188 -360 l7 -49 498 0 498 0 7 49 c13 94 -23 164 -188 360 -96 115 -147 199 -147 243 0 21 8 26 69 41 102 27 128 68 64 100 -15 8 -58 22 -95 33 -38 10 -68 22 -68 26 0 5 19 25 42 46 145 131 107 370 -72 451 -30 14 -66 21 -110 21 -44 0 -80 -7 -110 -21z m228 -51 c138 -92 141 -296 7 -387 -36 -24 -43 -47 -25 -80 5 -11 43 -29 95 -46 48 -15 85 -29 83 -31 -2 -2 -33 -11 -69 -20 -87 -22 -92 -28 -84 -87 11 -87 36 -125 238 -372 58 -71 97 -147 97 -192 l0 -33 -457 -2 c-297 -2 -461 1 -466 7 -11 14 1 72 25 120 24 46 58 92 138 185 129 150 170 222 170 303 0 53 -8 59 -94 72 -25 4 -49 11 -51 16 -3 4 27 18 66 29 74 22 119 55 119 88 0 11 -19 32 -44 50 -58 42 -86 89 -93 154 -8 80 11 133 67 189 56 56 93 70 178 65 46 -3 73 -10 100 -28z"/>
    </g>
    <g transform="translate(0.000000,200.000000) scale(0.100000,-0.100000)" fill="#6c6c6c" stroke="none">
      <path d="M905 1506 c-27 -13 -60 -34 -72 -47 -34 -37 -63 -110 -63 -159 0 -43 36 -140 58 -154 5 -3 0 13 -11 36 -24 49 -27 137 -5 188 19 45 73 99 118 118 51 22 139 19 188 -5 23 -11 39 -16 36 -11 -4 6 -30 21 -58 34 -66 31 -126 31 -191 0z M910 1067 c0 -34 -40 -64 -116 -87 -61 -18 -73 -25 -60 -32 22 -13 149 25 176 52 21 21 27 65 10 75 -5 3 -10 0 -10 -8z M1125 1000 c8 -12 112 -50 137 -50 12 0 19 2 17 4 -9 10 -159 53 -154 46z M870 850 c0 -64 -43 -137 -168 -288 -130 -157 -162 -211 -162 -277 0 -28 4 -44 10 -40 6 3 10 17 10 30 0 53 42 119 172 275 118 139 158 209 161 281 1 34 -2 53 -10 56 -9 3 -13 -8 -13 -37z"/>
    </g>
  </g>
</svg>
