<svg xmlns="http://www.w3.org/2000/svg" viewBox="0 0 200 200" role="img" aria-labelledby="title">
  <title id="title">Modern Glass White Queen</title>
  <g shape-rendering="geometricPrecision">
    <g transform="translate(0.000000,200.000000) scale(0.100000,-0.100000)" fill="#151515" stroke="none">
      <path d="M679 1777 c-55 -37 -79 -81 -79 -146 0 -64 21 -106 69 -142 31 -23 31 -24 31 -114 0 -51 -3 -140 -7 -199 l-6 -107 -78 77 c-63 63 -76 81 -68 95 5 10 9 42 9 72 0 99 -70 167 -170 167 -66 0 -110 -24 -147 -79 -27 -40 -31 -126 -8 -170 17 -34 68 -79 98 -87 19 -4 38 -51 129 -319 l106 -315 -46 -25 c-90 -50 -125 -122 -120 -248 l3 -72 605 0 605 0 3 72 c2 40 -2 90 -7 111 -14 51 -57 105 -104 132 -21 12 -37 27 -34 34 2 6 51 149 108 318 l104 307 36 14 c20 8 49 31 65 52 25 34 29 47 29 105 0 57 -4 72 -27 102 -39 51 -88 71 -159 66 -62 -5 -97 -23 -132 -70 -23 -31 -34 -115 -19 -156 10 -28 7 -33 -62 -101 l-73 -72 -6 98 c-4 54 -7 140 -7 192 l0 94 39 34 c47 40 65 88 59 155 -9 87 -65 139 -157 146 -51 4 -67 1 -105 -22 -78 -45 -107 -141 -66 -220 l19 -38 -46 -169 c-25 -93 -49 -169 -52 -169 -4 0 -29 76 -57 168 -49 167 -50 168 -32 198 27 43 24 132 -5 175 -37 55 -81 79 -147 79 -43 0 -65 -6 -91 -23z m178 -62 c12 -8 28 -33 34 -54 11 -37 9 -45 -16 -94 -20 -41 -25 -59 -17 -73 5 -11 35 -104 67 -209 31 -104 63 -197 71 -206 8 -9 24 -15 37 -14 20 1 28 23 89 220 65 216 66 219 48 242 -41 53 -37 125 11 172 76 76 189 33 189 -71 0 -41 -32 -95 -65 -110 -14 -6 -28 -22 -32 -36 -3 -13 -3 -124 1 -246 7 -216 8 -222 31 -246 l25 -24 112 111 c62 61 113 117 112 125 0 7 -6 27 -13 43 -39 94 51 195 148 166 29 -8 43 -20 56 -47 31 -66 2 -131 -79 -177 -42 -24 -36 -8 -203 -497 -31 -91 -57 -166 -57 -166 -1 -1 -32 4 -71 12 -150 31 -578 28 -693 -5 l-28 -8 -102 307 c-108 323 -116 339 -185 368 -40 17 -62 74 -48 123 32 108 177 129 218 32 14 -35 14 -42 -3 -91 l-18 -53 122 -122 c104 -104 125 -120 139 -111 16 10 19 38 26 248 l7 237 -49 48 c-53 52 -68 91 -51 137 32 82 118 114 187 69z m453 -1239 c193 -32 242 -70 249 -193 l3 -73 -552 0 -552 0 4 65 c3 53 9 71 34 102 37 46 115 80 224 98 106 18 483 19 590 1z"/>
    </g>
    <g transform="translate(0.000000,200.000000) scale(0.100000,-0.100000)" fill="#050505" stroke="none">
      <path d="M679 1777 c-55 -37 -79 -81 -79 -146 0 -64 21 -106 69 -142 31 -23 31 -24 31 -114 0 -51 -3 -140 -7 -199 l-6 -107 -78 77 c-63 63 -76 81 -68 95 5 10 9 42 9 72 0 99 -70 167 -170 167 -66 0 -110 -24 -147 -79 -27 -40 -31 -126 -8 -170 17 -34 68 -79 98 -87 19 -4 38 -51 129 -319 l106 -315 -46 -25 c-90 -50 -125 -122 -120 -248 l3 -72 605 0 605 0 3 72 c2 40 -2 90 -7 111 -14 51 -57 105 -104 132 -21 12 -37 27 -34 34 2 6 51 149 108 318 l104 307 36 14 c20 8 49 31 65 52 25 34 29 47 29 105 0 57 -4 72 -27 102 -39 51 -88 71 -159 66 -62 -5 -97 -23 -132 -70 -23 -31 -34 -115 -19 -156 10 -28 7 -33 -62 -101 l-73 -72 -6 98 c-4 54 -7 140 -7 192 l0 94 39 34 c47 40 65 88 59 155 -9 87 -65 139 -157 146 -51 4 -67 1 -105 -22 -78 -45 -107 -141 -66 -220 l19 -38 -46 -169 c-25 -93 -49 -169 -52 -169 -4 0 -29 76 -57 168 -49 167 -50 168 -32 198 27 43 24 132 -5 175 -37 55 -81 79 -147 79 -43 0 -65 -6 -91 -23z m152 -33 c30 -15 68 -80 69 -115 0 -9 -11 -37 -25 -63 l-25 -48 19 -56 c11 -32 41 -127 67 -212 25 -85 49 -158 52 -161 4 -4 16 -3 27 1 16 6 31 46 74 191 30 101 60 197 67 213 10 25 8 33 -12 64 -43 62 -28 137 35 179 87 59 191 -1 191 -111 0 -39 -32 -93 -65 -108 -14 -6 -28 -22 -32 -36 -3 -13 -3 -124 1 -246 9 -290 4 -285 149 -136 59 62 107 115 107 120 0 4 -7 21 -15 36 -19 37 -19 68 1 110 38 81 151 99 206 33 64 -76 42 -156 -59 -214 -39 -22 -35 -13 -200 -495 -31 -91 -57 -166 -57 -167 -1 0 -35 6 -76 15 -97 20 -520 23 -625 4 -38 -7 -78 -13 -89 -15 -15 -2 -34 44 -124 313 -59 173 -113 322 -121 330 -8 8 -31 22 -52 32 -120 53 -71 238 63 238 51 0 93 -32 113 -84 16 -43 16 -48 0 -93 l-17 -49 113 -111 c100 -98 116 -110 129 -98 11 12 15 59 18 235 3 120 2 230 -2 244 -3 14 -20 33 -36 41 -16 8 -36 29 -45 45 -58 112 64 233 176 174z m379 -1234 c182 -19 262 -48 314 -113 27 -34 31 -48 34 -113 l4 -74 -556 0 c-306 0 -559 0 -563 0 -15 0 -14 95 1 135 48 123 191 169 541 173 72 1 173 -3 225 -8z"/>
    </g>
    <g transform="translate(0.000000,200.000000) scale(0.100000,-0.100000)" fill="#6c6c6c" stroke="none">
      <path d="M703 1740 c-61 -37 -81 -116 -43 -177 26 -44 33 -42 14 4 -41 96 63 199 160 159 45 -19 46 -12 4 14 -42 25 -94 25 -135 0z M1183 1740 c-58 -35 -79 -110 -48 -170 20 -39 27 -38 13 0 -32 94 66 195 156 160 41 -15 43 -6 2 14 -45 21 -84 20 -123 -4z M1112 1353 c-28 -93 -56 -188 -63 -212 -8 -27 -20 -46 -31 -49 -26 -6 -16 -26 13 -26 22 0 28 12 91 219 36 121 64 223 62 227 -13 21 -25 -5 -72 -159z M738 1256 c-3 -213 -5 -236 -22 -255 -17 -19 -17 -21 -2 -27 38 -15 43 7 49 252 6 199 5 238 -7 250 -13 13 -15 -15 -18 -220z M313 1420 c-61 -37 -81 -116 -43 -177 26 -44 33 -42 14 4 -41 96 63 199 160 159 45 -19 46 -12 4 14 -42 25 -94 25 -135 0z M1573 1424 c-21 -10 -40 -32 -54 -61 -22 -46 -22 -46 -4 -100 l19 -54 -113 -113 c-74 -75 -109 -116 -101 -121 14 -9 236 206 234 227 0 7 -6 27 -13 43 -38 92 47 193 142 168 45 -12 47 -9 7 12 -37 19 -76 19 -117 -1z M390 1149 c0 -2 44 -138 99 -300 91 -273 120 -351 121 -324 0 19 -199 608 -210 619 -5 5 -10 8 -10 5z M780 509 c-97 -11 -187 -32 -236 -55 -73 -35 -119 -119 -112 -205 5 -64 23 -50 29 24 5 55 11 74 36 105 64 80 213 112 523 112 220 0 336 -13 430 -49 49 -18 53 -19 31 -2 -29 22 -104 46 -191 61 -90 15 -407 21 -510 9z"/>
    </g>
  </g>
</svg>
