<svg xmlns="http://www.w3.org/2000/svg" viewBox="0 0 200 200" role="img" aria-labelledby="title">
  <title id="title">Modern Glass White Knight</title>
  <g shape-rendering="geometricPrecision">
    <g transform="translate(0.000000,200.000000) scale(0.100000,-0.100000)" fill="#151515" stroke="none">
      <path d="M690 1810 c-6 -11 -13 -63 -17 -115 -5 -81 -9 -98 -25 -106 -41 -22 -100 -85 -122 -128 -13 -25 -40 -90 -60 -144 -46 -119 -74 -171 -126 -230 -34 -39 -40 -52 -40 -91 0 -98 41 -140 158 -165 29 -6 66 -18 82 -26 l29 -15 56 69 c54 67 56 68 111 75 73 8 106 26 183 99 60 58 64 60 77 42 16 -22 18 -63 5 -97 -14 -37 -87 -104 -191 -176 -160 -111 -240 -199 -240 -264 0 -18 -13 -30 -53 -51 -94 -50 -130 -122 -125 -250 l3 -72 605 0 605 0 3 72 c3 88 -9 137 -45 186 -30 39 -122 92 -180 103 l-34 6 36 36 c75 76 143 201 170 316 20 82 19 234 -1 315 -60 244 -261 412 -545 456 -24 4 -63 28 -125 78 -49 41 -99 79 -111 85 -33 18 -71 15 -83 -8z m115 -85 c30 -25 80 -65 110 -90 36 -29 66 -45 84 -45 45 0 179 -39 242 -70 131 -67 240 -207 269 -347 18 -85 8 -254 -19 -333 -31 -90 -90 -186 -150 -245 l-52 -51 -57 7 c-132 17 -460 7 -574 -17 -72 -15 10 79 166 191 70 51 146 110 168 131 46 44 78 105 78 149 0 31 -27 96 -54 129 -15 18 -16 18 -58 -7 -24 -14 -64 -48 -90 -76 -51 -54 -90 -71 -168 -71 -43 -1 -47 -3 -92 -64 l-48 -63 -85 22 c-46 12 -91 28 -100 35 -9 7 -15 29 -15 52 0 30 9 50 40 89 46 58 95 156 139 279 40 109 73 155 138 192 l53 30 0 86 c0 79 7 132 16 132 2 0 28 -20 59 -45z m495 -1249 c110 -18 189 -48 225 -87 26 -27 30 -38 33 -104 l4 -75 -557 0 -557 0 4 65 c3 53 9 71 34 102 37 46 115 80 224 98 106 18 483 19 590 1z"/>
    </g>
    <g transform="translate(0.000000,200.000000) scale(0.100000,-0.100000)" fill="#050505" stroke="none">
      <path d="M690 1810 c-6 -11 -13 -63 -17 -115 -5 -81 -9 -98 -25 -106 -41 -22 -100 -85 -122 -128 -13 -25 -40 -90 -60 -144 -46 -119 -74 -171 -126 -230 -34 -39 -40 -52 -40 -91 0 -98 41 -140 158 -165 29 -6 66 -18 82 -26 l29 -15 56 69 c54 67 56 68 111 75 73 8 106 26 183 99 60 58 64 60 77 42 16 -22 18 -63 5 -97 -14 -37 -87 -104 -191 -176 -160 -111 -240 -199 -240 -264 0 -18 -13 -30 -53 -51 -94 -50 -130 -122 -125 -250 l3 -72 605 0 605 0 3 72 c3 88 -9 137 -45 186 -30 39 -122 92 -180 103 l-34 6 36 36 c75 76 143 201 170 316 20 82 19 234 -1 315 -60 244 -261 412 -545 456 -24 4 -63 28 -125 78 -49 41 -99 79 -111 85 -33 18 -71 15 -83 -8z m160 -105 c73 -59 115 -87 140 -91 289 -46 454 -181 516 -427 23 -87 15 -260 -15 -347 -31 -90 -90 -186 -150 -245 l-52 -51 -57 7 c-145 18 -506 5 -586 -21 -37 -13 -40 -9 -27 32 15 46 82 108 234 218 131 94 179 145 197 208 11 43 -2 106 -31 141 l-19 23 -42 -25 c-24 -14 -64 -48 -90 -76 -51 -54 -90 -71 -168 -71 -43 -1 -47 -3 -92 -64 l-48 -63 -86 23 c-98 25 -123 44 -131 101 -4 34 -1 45 25 74 54 62 91 132 144 268 44 114 60 143 98 181 25 25 60 53 78 62 l32 17 0 99 c0 91 4 112 19 112 4 0 53 -38 111 -85z m449 -1205 c191 -33 261 -95 261 -230 l0 -60 -565 0 -565 0 0 53 c0 61 25 121 67 160 47 44 148 73 318 91 71 7 418 -3 484 -14z"/>
    </g>
    <g transform="translate(0.000000,200.000000) scale(0.100000,-0.100000)" fill="#6c6c6c" stroke="none">
      <path d="M727 1783 c-4 -3 -7 -51 -7 -105 l0 -98 -42 -26 c-85 -53 -113 -92 -165 -237 -36 -102 -85 -194 -132 -251 -41 -49 -49 -79 -31 -121 7 -16 9 -12 9 18 1 28 11 50 41 88 46 58 95 156 139 279 40 109 73 155 138 192 l53 30 1 91 c1 136 3 139 72 83 31 -25 82 -66 112 -91 36 -29 66 -45 84 -45 45 0 179 -39 242 -70 32 -17 88 -58 126 -92 39 -37 58 -51 46 -33 -37 52 -115 115 -189 153 -47 24 -184 62 -223 62 -33 0 -66 21 -171 109 -86 73 -92 76 -103 64z M1051 992 c-17 -69 -76 -130 -231 -238 -142 -100 -210 -173 -210 -225 0 -18 18 -8 24 14 10 41 63 92 182 177 199 141 262 215 252 296 -3 25 -5 21 -17 -24z M780 509 c-97 -11 -187 -32 -236 -55 -71 -34 -114 -109 -114 -201 0 -68 17 -50 22 22 3 53 9 71 34 102 65 81 214 113 522 113 279 0 426 -25 505 -87 20 -15 16 -10 -9 14 -45 41 -104 65 -214 83 -90 15 -407 21 -510 9z"/>
    </g>
  </g>
</svg>
