<svg xmlns="http://www.w3.org/2000/svg" viewBox="0 0 1200 420" role="img" aria-labelledby="title desc">
  <title id="title">ChessRTK Engine Line logo concept</title>
  <desc id="desc">A technical ChessRTK wordmark with an evaluation line, principal variation nodes, and a chess board tile.</desc>
  <defs>
    <linearGradient id="bg" x1="0" y1="0" x2="1" y2="1">
      <stop offset="0" stop-color="#14251b"/>
      <stop offset="1" stop-color="#0d1c14"/>
    </linearGradient>
  </defs>
  <rect width="1200" height="420" rx="48" fill="url(#bg)"/>
  <g transform="translate(74 86)">
    <rect width="290" height="248" rx="28" fill="#fffefb"/>
    <g transform="translate(32 32)">
      <rect x="0" y="0" width="92" height="92" rx="12" fill="#eef5ef"/>
      <g fill="#123b2b">
        <rect x="0" y="0" width="23" height="23"/><rect x="46" y="0" width="23" height="23"/>
        <rect x="23" y="23" width="23" height="23"/><rect x="69" y="23" width="23" height="23"/>
        <rect x="0" y="46" width="23" height="23"/><rect x="46" y="46" width="23" height="23"/>
        <rect x="23" y="69" width="23" height="23"/><rect x="69" y="69" width="23" height="23"/>
      </g>
      <path d="M0 154 C24 128 46 146 70 118 S114 72 146 92 184 146 226 98" fill="none" stroke="#2e7d57" stroke-width="10" stroke-linecap="round"/>
      <path d="M0 154 C34 118 60 112 88 118 S142 156 184 132 210 106 226 98" fill="none" stroke="#d8a63a" stroke-width="5" stroke-linecap="round"/>
      <g fill="#123b2b">
        <circle cx="70" cy="118" r="8"/>
        <circle cx="146" cy="92" r="8"/>
        <circle cx="226" cy="98" r="8"/>
      </g>
      <g font-family="ui-monospace, SFMono-Regular, Menlo, Consolas, monospace" font-size="18" font-weight="800">
        <text x="114" y="34" fill="#123b2b">+0.42</text>
        <text x="114" y="62" fill="#647268">pv e4 e5 Nf3</text>
      </g>
    </g>
  </g>
  <g transform="translate(420 112)">
    <text x="0" y="76" fill="#fffefb" font-family="Inter, Segoe UI, Arial, sans-serif" font-size="88" font-weight="850" letter-spacing="0">ChessRTK</text>
    <text x="4" y="124" fill="#d8a63a" font-family="Inter, Segoe UI, Arial, sans-serif" font-size="27" font-weight="800" letter-spacing="0">ENGINE LINE AND DATASET FLOW</text>
    <text x="4" y="173" fill="#dce9df" font-family="Inter, Segoe UI, Arial, sans-serif" font-size="30" font-weight="500" letter-spacing="0">Analysis output you can test, mine, filter, and reproduce.</text>
  </g>
</svg>
