        <svg xmlns="http://www.w3.org/2000/svg" viewBox="0 0 1024 1024" role="img" aria-label="ChessRTK chemical-board flask logo">
          <defs>
            <clipPath id="tileClip"><path d="M948.00 512.00 L947.91 623.02 L947.63 658.46 L947.16 684.19 L946.50 705.09 L945.66 722.98 L944.63 738.77 L943.41 752.97 L942.00 765.91 L940.39 777.84 L938.59 788.90 L936.60 799.23 L934.41 808.91 L932.02 818.02 L929.43 826.61 L926.63 834.73 L923.62 842.43 L920.40 849.72 L916.97 856.65 L913.32 863.24 L909.44 869.49 L905.33 875.44 L900.99 881.09 L896.40 886.46 L891.56 891.56 L886.46 896.40 L881.09 900.99 L875.44 905.33 L869.49 909.44 L863.24 913.32 L856.65 916.97 L849.72 920.40 L842.43 923.62 L834.73 926.63 L826.61 929.43 L818.02 932.02 L808.91 934.41 L799.23 936.60 L788.90 938.59 L777.84 940.39 L765.91 942.00 L752.97 943.41 L738.77 944.63 L722.98 945.66 L705.09 946.50 L684.19 947.16 L658.46 947.63 L623.02 947.91 L512.00 948.00 L400.98 947.91 L365.54 947.63 L339.81 947.16 L318.91 946.50 L301.02 945.66 L285.23 944.63 L271.03 943.41 L258.09 942.00 L246.16 940.39 L235.10 938.59 L224.77 936.60 L215.09 934.41 L205.98 932.02 L197.39 929.43 L189.27 926.63 L181.57 923.62 L174.28 920.40 L167.35 916.97 L160.76 913.32 L154.51 909.44 L148.56 905.33 L142.91 900.99 L137.54 896.40 L132.44 891.56 L127.60 886.46 L123.01 881.09 L118.67 875.44 L114.56 869.49 L110.68 863.24 L107.03 856.65 L103.60 849.72 L100.38 842.43 L97.37 834.73 L94.57 826.61 L91.98 818.02 L89.59 808.91 L87.40 799.23 L85.41 788.90 L83.61 777.84 L82.00 765.91 L80.59 752.97 L79.37 738.77 L78.34 722.98 L77.50 705.09 L76.84 684.19 L76.37 658.46 L76.09 623.02 L76.00 512.00 L76.09 400.98 L76.37 365.54 L76.84 339.81 L77.50 318.91 L78.34 301.02 L79.37 285.23 L80.59 271.03 L82.00 258.09 L83.61 246.16 L85.41 235.10 L87.40 224.77 L89.59 215.09 L91.98 205.98 L94.57 197.39 L97.37 189.27 L100.38 181.57 L103.60 174.28 L107.03 167.35 L110.68 160.76 L114.56 154.51 L118.67 148.56 L123.01 142.91 L127.60 137.54 L132.44 132.44 L137.54 127.60 L142.91 123.01 L148.56 118.67 L154.51 114.56 L160.76 110.68 L167.35 107.03 L174.28 103.60 L181.57 100.38 L189.27 97.37 L197.39 94.57 L205.98 91.98 L215.09 89.59 L224.77 87.40 L235.10 85.41 L246.16 83.61 L258.09 82.00 L271.03 80.59 L285.23 79.37 L301.02 78.34 L318.91 77.50 L339.81 76.84 L365.54 76.37 L400.98 76.09 L512.00 76.00 L623.02 76.09 L658.46 76.37 L684.19 76.84 L705.09 77.50 L722.98 78.34 L738.77 79.37 L752.97 80.59 L765.91 82.00 L777.84 83.61 L788.90 85.41 L799.23 87.40 L808.91 89.59 L818.02 91.98 L826.61 94.57 L834.73 97.37 L842.43 100.38 L849.72 103.60 L856.65 107.03 L863.24 110.68 L869.49 114.56 L875.44 118.67 L881.09 123.01 L886.46 127.60 L891.56 132.44 L896.40 137.54 L900.99 142.91 L905.33 148.56 L909.44 154.51 L913.32 160.76 L916.97 167.35 L920.40 174.28 L923.62 181.57 L926.63 189.27 L929.43 197.39 L932.02 205.98 L934.41 215.09 L936.60 224.77 L938.59 235.10 L940.39 246.16 L942.00 258.09 L943.41 271.03 L944.63 285.23 L945.66 301.02 L946.50 318.91 L947.16 339.81 L947.63 365.54 L947.91 400.98 Z"/></clipPath>
            <linearGradient id="lightTile" x1="0" x2="0" y1="76.0" y2="948.0" gradientUnits="userSpaceOnUse">
              <stop offset="0" stop-color="#c4e9f3"/>
              <stop offset="1" stop-color="#97d2e3"/>
            </linearGradient>
            <linearGradient id="darkTile" x1="0" x2="0" y1="76.0" y2="948.0" gradientUnits="userSpaceOnUse">
              <stop offset="0" stop-color="#4fa3c0"/>
              <stop offset="1" stop-color="#2d7589"/>
            </linearGradient>
            <linearGradient id="gloss" x1="0" x2="0" y1="76.0" y2="948.0" gradientUnits="userSpaceOnUse">
              <stop offset="0" stop-color="#ffffff" stop-opacity="0.30"/>
              <stop offset="0.28" stop-color="#ffffff" stop-opacity="0.05"/>
              <stop offset="0.58" stop-color="#ffffff" stop-opacity="0"/>
              <stop offset="1" stop-color="#0a2f3e" stop-opacity="0.20"/>
            </linearGradient>
            <radialGradient id="topSheen" cx="0.5" cy="0.06" r="0.75">
              <stop offset="0" stop-color="#ffffff" stop-opacity="0.34"/>
              <stop offset="0.45" stop-color="#ffffff" stop-opacity="0"/>
            </radialGradient>
            <linearGradient id="glassGrad" x1="0.12" y1="0.05" x2="0.9" y2="1">
              <stop offset="0" stop-color="#ffffff"/>
              <stop offset="0.5" stop-color="#eaf7fb"/>
              <stop offset="1" stop-color="#cfe7ee"/>
            </linearGradient>
            <linearGradient id="rimGrad" x1="0" y1="0" x2="0" y2="1">
              <stop offset="0" stop-color="#3a90ab"/>
              <stop offset="1" stop-color="#1f5e77"/>
            </linearGradient>
            <linearGradient id="liquidGrad" x1="0" y1="0" x2="0" y2="1">
              <stop offset="0" stop-color="#2aa7c9"/>
              <stop offset="0.55" stop-color="#1b8cad"/>
              <stop offset="1" stop-color="#13708f"/>
            </linearGradient>
            <linearGradient id="knightGrad" x1="0.15" y1="0.05" x2="0.85" y2="1">
              <stop offset="0" stop-color="#dcf3f9"/>
              <stop offset="0.5" stop-color="#85cadc"/>
              <stop offset="1" stop-color="#46a1bd"/>
            </linearGradient>
            <filter id="tileShadow" x="-12%" y="-10%" width="124%" height="128%" color-interpolation-filters="sRGB">
              <feGaussianBlur in="SourceAlpha" stdDeviation="16" result="b"/>
              <feOffset in="b" dx="0" dy="14" result="o"/>
              <feFlood flood-color="#0a2f3e" flood-opacity="0.26" result="c"/>
              <feComposite in="c" in2="o" operator="in" result="s"/>
              <feMerge><feMergeNode in="s"/><feMergeNode in="SourceGraphic"/></feMerge>
            </filter>
            <filter id="flaskShadow" x="-35%" y="-20%" width="170%" height="165%" color-interpolation-filters="sRGB">
              <feGaussianBlur in="SourceAlpha" stdDeviation="17" result="b"/>
              <feOffset in="b" dx="0" dy="18" result="o"/>
              <feFlood flood-color="#06303f" flood-opacity="0.34" result="c"/>
              <feComposite in="c" in2="o" operator="in" result="s"/>
              <feMerge><feMergeNode in="s"/><feMergeNode in="SourceGraphic"/></feMerge>
            </filter>
            <filter id="knightShadow" x="-30%" y="-15%" width="155%" height="150%" color-interpolation-filters="sRGB">
              <feGaussianBlur in="SourceAlpha" stdDeviation="13" result="b"/>
              <feOffset in="b" dx="2" dy="12" result="o"/>
              <feFlood flood-color="#06303f" flood-opacity="0.24" result="c"/>
              <feComposite in="c" in2="o" operator="in" result="s"/>
              <feMerge><feMergeNode in="s"/><feMergeNode in="SourceGraphic"/></feMerge>
            </filter>
            <style>
              .source-rim { fill: url(#rimGrad); }
              .source-glass { fill: url(#glassGrad); }
              .source-liquid { fill: url(#liquidGrad); }
              .source-sheen { fill: #ffffff; }
              .source-bubble { fill: #e3f5fa; opacity: 0.9; }
              .source-neck-line { fill: #ffffff; opacity: 0.5; }
            </style>
          </defs>

          <g filter="url(#tileShadow)">
            <path d="M948.00 512.00 L947.91 623.02 L947.63 658.46 L947.16 684.19 L946.50 705.09 L945.66 722.98 L944.63 738.77 L943.41 752.97 L942.00 765.91 L940.39 777.84 L938.59 788.90 L936.60 799.23 L934.41 808.91 L932.02 818.02 L929.43 826.61 L926.63 834.73 L923.62 842.43 L920.40 849.72 L916.97 856.65 L913.32 863.24 L909.44 869.49 L905.33 875.44 L900.99 881.09 L896.40 886.46 L891.56 891.56 L886.46 896.40 L881.09 900.99 L875.44 905.33 L869.49 909.44 L863.24 913.32 L856.65 916.97 L849.72 920.40 L842.43 923.62 L834.73 926.63 L826.61 929.43 L818.02 932.02 L808.91 934.41 L799.23 936.60 L788.90 938.59 L777.84 940.39 L765.91 942.00 L752.97 943.41 L738.77 944.63 L722.98 945.66 L705.09 946.50 L684.19 947.16 L658.46 947.63 L623.02 947.91 L512.00 948.00 L400.98 947.91 L365.54 947.63 L339.81 947.16 L318.91 946.50 L301.02 945.66 L285.23 944.63 L271.03 943.41 L258.09 942.00 L246.16 940.39 L235.10 938.59 L224.77 936.60 L215.09 934.41 L205.98 932.02 L197.39 929.43 L189.27 926.63 L181.57 923.62 L174.28 920.40 L167.35 916.97 L160.76 913.32 L154.51 909.44 L148.56 905.33 L142.91 900.99 L137.54 896.40 L132.44 891.56 L127.60 886.46 L123.01 881.09 L118.67 875.44 L114.56 869.49 L110.68 863.24 L107.03 856.65 L103.60 849.72 L100.38 842.43 L97.37 834.73 L94.57 826.61 L91.98 818.02 L89.59 808.91 L87.40 799.23 L85.41 788.90 L83.61 777.84 L82.00 765.91 L80.59 752.97 L79.37 738.77 L78.34 722.98 L77.50 705.09 L76.84 684.19 L76.37 658.46 L76.09 623.02 L76.00 512.00 L76.09 400.98 L76.37 365.54 L76.84 339.81 L77.50 318.91 L78.34 301.02 L79.37 285.23 L80.59 271.03 L82.00 258.09 L83.61 246.16 L85.41 235.10 L87.40 224.77 L89.59 215.09 L91.98 205.98 L94.57 197.39 L97.37 189.27 L100.38 181.57 L103.60 174.28 L107.03 167.35 L110.68 160.76 L114.56 154.51 L118.67 148.56 L123.01 142.91 L127.60 137.54 L132.44 132.44 L137.54 127.60 L142.91 123.01 L148.56 118.67 L154.51 114.56 L160.76 110.68 L167.35 107.03 L174.28 103.60 L181.57 100.38 L189.27 97.37 L197.39 94.57 L205.98 91.98 L215.09 89.59 L224.77 87.40 L235.10 85.41 L246.16 83.61 L258.09 82.00 L271.03 80.59 L285.23 79.37 L301.02 78.34 L318.91 77.50 L339.81 76.84 L365.54 76.37 L400.98 76.09 L512.00 76.00 L623.02 76.09 L658.46 76.37 L684.19 76.84 L705.09 77.50 L722.98 78.34 L738.77 79.37 L752.97 80.59 L765.91 82.00 L777.84 83.61 L788.90 85.41 L799.23 87.40 L808.91 89.59 L818.02 91.98 L826.61 94.57 L834.73 97.37 L842.43 100.38 L849.72 103.60 L856.65 107.03 L863.24 110.68 L869.49 114.56 L875.44 118.67 L881.09 123.01 L886.46 127.60 L891.56 132.44 L896.40 137.54 L900.99 142.91 L905.33 148.56 L909.44 154.51 L913.32 160.76 L916.97 167.35 L920.40 174.28 L923.62 181.57 L926.63 189.27 L929.43 197.39 L932.02 205.98 L934.41 215.09 L936.60 224.77 L938.59 235.10 L940.39 246.16 L942.00 258.09 L943.41 271.03 L944.63 285.23 L945.66 301.02 L946.50 318.91 L947.16 339.81 L947.63 365.54 L947.91 400.98 Z" fill="url(#lightTile)"/>
            <g clip-path="url(#tileClip)">
              <rect x="76.0" y="76.0" width="436.0" height="436.0" fill="url(#darkTile)"/>
              <rect x="512.0" y="512.0" width="436.0" height="436.0" fill="url(#darkTile)"/>
              <path d="M512.0 76.0 V948.0 M76.0 512.0 H948.0" stroke="#15536b" stroke-opacity="0.16" stroke-width="4"/>
              <rect x="76.0" y="76.0" width="872.0" height="872.0" fill="url(#gloss)"/>
              <rect x="76.0" y="76.0" width="872.0" height="872.0" fill="url(#topSheen)"/>
            </g>
            <path d="M942.00 512.00 L941.91 621.49 L941.63 656.45 L941.17 681.82 L940.52 702.44 L939.69 720.08 L938.68 735.65 L937.47 749.65 L936.08 762.42 L934.50 774.18 L932.72 785.09 L930.76 795.28 L928.60 804.82 L926.24 813.80 L923.68 822.28 L920.92 830.29 L917.96 837.88 L914.78 845.08 L911.40 851.91 L907.80 858.40 L903.97 864.57 L899.92 870.44 L895.64 876.01 L891.11 881.31 L886.34 886.34 L881.31 891.11 L876.01 895.64 L870.44 899.92 L864.57 903.97 L858.40 907.80 L851.91 911.40 L845.08 914.78 L837.88 917.96 L830.29 920.92 L822.28 923.68 L813.80 926.24 L804.82 928.60 L795.28 930.76 L785.09 932.72 L774.18 934.50 L762.42 936.08 L749.65 937.47 L735.65 938.68 L720.08 939.69 L702.44 940.52 L681.82 941.17 L656.45 941.63 L621.49 941.91 L512.00 942.00 L402.51 941.91 L367.55 941.63 L342.18 941.17 L321.56 940.52 L303.92 939.69 L288.35 938.68 L274.35 937.47 L261.58 936.08 L249.82 934.50 L238.91 932.72 L228.72 930.76 L219.18 928.60 L210.20 926.24 L201.72 923.68 L193.71 920.92 L186.12 917.96 L178.92 914.78 L172.09 911.40 L165.60 907.80 L159.43 903.97 L153.56 899.92 L147.99 895.64 L142.69 891.11 L137.66 886.34 L132.89 881.31 L128.36 876.01 L124.08 870.44 L120.03 864.57 L116.20 858.40 L112.60 851.91 L109.22 845.08 L106.04 837.88 L103.08 830.29 L100.32 822.28 L97.76 813.80 L95.40 804.82 L93.24 795.28 L91.28 785.09 L89.50 774.18 L87.92 762.42 L86.53 749.65 L85.32 735.65 L84.31 720.08 L83.48 702.44 L82.83 681.82 L82.37 656.45 L82.09 621.49 L82.00 512.00 L82.09 402.51 L82.37 367.55 L82.83 342.18 L83.48 321.56 L84.31 303.92 L85.32 288.35 L86.53 274.35 L87.92 261.58 L89.50 249.82 L91.28 238.91 L93.24 228.72 L95.40 219.18 L97.76 210.20 L100.32 201.72 L103.08 193.71 L106.04 186.12 L109.22 178.92 L112.60 172.09 L116.20 165.60 L120.03 159.43 L124.08 153.56 L128.36 147.99 L132.89 142.69 L137.66 137.66 L142.69 132.89 L147.99 128.36 L153.56 124.08 L159.43 120.03 L165.60 116.20 L172.09 112.60 L178.92 109.22 L186.12 106.04 L193.71 103.08 L201.72 100.32 L210.20 97.76 L219.18 95.40 L228.72 93.24 L238.91 91.28 L249.82 89.50 L261.58 87.92 L274.35 86.53 L288.35 85.32 L303.92 84.31 L321.56 83.48 L342.18 82.83 L367.55 82.37 L402.51 82.09 L512.00 82.00 L621.49 82.09 L656.45 82.37 L681.82 82.83 L702.44 83.48 L720.08 84.31 L735.65 85.32 L749.65 86.53 L762.42 87.92 L774.18 89.50 L785.09 91.28 L795.28 93.24 L804.82 95.40 L813.80 97.76 L822.28 100.32 L830.29 103.08 L837.88 106.04 L845.08 109.22 L851.91 112.60 L858.40 116.20 L864.57 120.03 L870.44 124.08 L876.01 128.36 L881.31 132.89 L886.34 137.66 L891.11 142.69 L895.64 147.99 L899.92 153.56 L903.97 159.43 L907.80 165.60 L911.40 172.09 L914.78 178.92 L917.96 186.12 L920.92 193.71 L923.68 201.72 L926.24 210.20 L928.60 219.18 L930.76 228.72 L932.72 238.91 L934.50 249.82 L936.08 261.58 L937.47 274.35 L938.68 288.35 L939.69 303.92 L940.52 321.56 L941.17 342.18 L941.63 367.55 L941.91 402.51 Z" fill="none" stroke="#ffffff" stroke-opacity="0.40" stroke-width="3"/>
            <path d="M948.00 512.00 L947.91 623.02 L947.63 658.46 L947.16 684.19 L946.50 705.09 L945.66 722.98 L944.63 738.77 L943.41 752.97 L942.00 765.91 L940.39 777.84 L938.59 788.90 L936.60 799.23 L934.41 808.91 L932.02 818.02 L929.43 826.61 L926.63 834.73 L923.62 842.43 L920.40 849.72 L916.97 856.65 L913.32 863.24 L909.44 869.49 L905.33 875.44 L900.99 881.09 L896.40 886.46 L891.56 891.56 L886.46 896.40 L881.09 900.99 L875.44 905.33 L869.49 909.44 L863.24 913.32 L856.65 916.97 L849.72 920.40 L842.43 923.62 L834.73 926.63 L826.61 929.43 L818.02 932.02 L808.91 934.41 L799.23 936.60 L788.90 938.59 L777.84 940.39 L765.91 942.00 L752.97 943.41 L738.77 944.63 L722.98 945.66 L705.09 946.50 L684.19 947.16 L658.46 947.63 L623.02 947.91 L512.00 948.00 L400.98 947.91 L365.54 947.63 L339.81 947.16 L318.91 946.50 L301.02 945.66 L285.23 944.63 L271.03 943.41 L258.09 942.00 L246.16 940.39 L235.10 938.59 L224.77 936.60 L215.09 934.41 L205.98 932.02 L197.39 929.43 L189.27 926.63 L181.57 923.62 L174.28 920.40 L167.35 916.97 L160.76 913.32 L154.51 909.44 L148.56 905.33 L142.91 900.99 L137.54 896.40 L132.44 891.56 L127.60 886.46 L123.01 881.09 L118.67 875.44 L114.56 869.49 L110.68 863.24 L107.03 856.65 L103.60 849.72 L100.38 842.43 L97.37 834.73 L94.57 826.61 L91.98 818.02 L89.59 808.91 L87.40 799.23 L85.41 788.90 L83.61 777.84 L82.00 765.91 L80.59 752.97 L79.37 738.77 L78.34 722.98 L77.50 705.09 L76.84 684.19 L76.37 658.46 L76.09 623.02 L76.00 512.00 L76.09 400.98 L76.37 365.54 L76.84 339.81 L77.50 318.91 L78.34 301.02 L79.37 285.23 L80.59 271.03 L82.00 258.09 L83.61 246.16 L85.41 235.10 L87.40 224.77 L89.59 215.09 L91.98 205.98 L94.57 197.39 L97.37 189.27 L100.38 181.57 L103.60 174.28 L107.03 167.35 L110.68 160.76 L114.56 154.51 L118.67 148.56 L123.01 142.91 L127.60 137.54 L132.44 132.44 L137.54 127.60 L142.91 123.01 L148.56 118.67 L154.51 114.56 L160.76 110.68 L167.35 107.03 L174.28 103.60 L181.57 100.38 L189.27 97.37 L197.39 94.57 L205.98 91.98 L215.09 89.59 L224.77 87.40 L235.10 85.41 L246.16 83.61 L258.09 82.00 L271.03 80.59 L285.23 79.37 L301.02 78.34 L318.91 77.50 L339.81 76.84 L365.54 76.37 L400.98 76.09 L512.00 76.00 L623.02 76.09 L658.46 76.37 L684.19 76.84 L705.09 77.50 L722.98 78.34 L738.77 79.37 L752.97 80.59 L765.91 82.00 L777.84 83.61 L788.90 85.41 L799.23 87.40 L808.91 89.59 L818.02 91.98 L826.61 94.57 L834.73 97.37 L842.43 100.38 L849.72 103.60 L856.65 107.03 L863.24 110.68 L869.49 114.56 L875.44 118.67 L881.09 123.01 L886.46 127.60 L891.56 132.44 L896.40 137.54 L900.99 142.91 L905.33 148.56 L909.44 154.51 L913.32 160.76 L916.97 167.35 L920.40 174.28 L923.62 181.57 L926.63 189.27 L929.43 197.39 L932.02 205.98 L934.41 215.09 L936.60 224.77 L938.59 235.10 L940.39 246.16 L942.00 258.09 L943.41 271.03 L944.63 285.23 L945.66 301.02 L946.50 318.91 L947.16 339.81 L947.63 365.54 L947.91 400.98 Z" fill="none" stroke="#0a2f3e" stroke-opacity="0.10" stroke-width="3"/>
          </g>

          <g>
            <svg x="150" y="162" width="578" height="578" viewBox="0 0 200 200"><g shape-rendering="geometricPrecision">
    <g transform="translate(0.000000,200.000000) scale(0.100000,-0.100000)" fill="url(#rimGrad)" stroke="none">
      <path d="M515 1605 c-32 -31 -33 -83 -4 -160 21 -56 21 -57 1 -78 -35 -39 -54 -89 -63 -162 -9 -82 -40 -158 -108 -265 -112 -175 -133 -255 -88 -333 44 -74 138 -127 189 -106 22 9 35 9 58 -1 51 -21 75 -7 119 69 51 86 102 132 225 200 53 29 107 67 121 83 34 40 36 35 24 -46 -14 -103 -47 -154 -169 -261 -157 -138 -190 -198 -190 -347 l0 -68 373 0 c204 0 456 3 558 7 l187 6 12 112 c74 663 -238 1197 -724 1241 -74 7 -76 7 -86 40 -38 113 -132 108 -195 -10 -18 -34 -35 -47 -35 -28 0 68 -161 152 -205 107z"/>
    </g>
    <g transform="translate(0.000000,200.000000) scale(0.100000,-0.100000)" fill="url(#glassGrad)" stroke="none">
      <path d="M538 1558 c-6 -36 12 -101 33 -124 26 -28 25 -34 -20 -94 -33 -44 -41 -66 -56 -145 -18 -99 -54 -186 -119 -288 -127 -197 -126 -303 3 -356 38 -16 50 -8 97 64 69 109 118 92 59 -19 -53 -99 -7 -79 63 27 51 78 111 130 215 184 97 51 139 94 167 171 32 88 79 95 73 10 -22 -297 -24 -302 -193 -468 -160 -157 -189 -209 -190 -337 0 -10 110 -13 519 -13 l518 0 7 61 c40 392 -67 819 -254 1010 -145 148 -460 272 -480 189 -14 -57 -51 -31 -65 45 -23 132 -69 127 -139 -13 -43 -85 -76 -98 -87 -32 -14 90 -140 196 -151 128z m165 -363 c-2 -61 -36 -98 -87 -93 -57 6 -48 72 16 118 58 42 73 37 71 -25z m-305 -452 c5 -31 -15 -63 -38 -63 -23 0 -27 37 -9 71 13 26 43 20 47 -8z"/>
    </g>
  </g>
</svg>
          </g>

          <g>
            <svg x="426.000" y="240.000" width="417.266" height="510" viewBox="0 0 428.99 524.33" overflow="visible">
        <g transform="translate(-180.31 -244.48)">
  <path class="source-rim" d="m333.27 244.48c-9.0304 0-16.342 10.519-16.342 19.55v7.7384c0 6.3886 3.685 11.885 9.0111 14.56-0.0798 1.0586-0.15314 2.1275-0.15314 3.2074v153.8c-2.4178 4.5548-4.7734 9.2986-7.3312 14l-132.17 239.08c-21.284 39.127 19.219 72.395 43.071 72.395h330.72c23.851 0 64.789-32.472 43.071-72.395l-132.16-239.08c-2.5578-4.7019-4.9134-9.4456-7.3312-14v-153.8c0-1.0798-0.0733-2.1487-0.15314-3.2074 5.3262-2.6758 9.0111-8.1719 9.0111-14.56v-7.7384c0-9.0306-7.2608-19.55-16.291-19.55z"/>
  <g class="source-glass" transform="matrix(1.6291 0 0 1.6291 -1390.6 -814.74)">
    <path d="m1080.3 768.8h31.307c12.456 0 16.531 11.607 22.483 22.611l70.701 130.71c14.28 26.399-10.028 38.012-22.484 38.012h-172.71c-12.456 0-35.208-14.489-22.483-38.012l70.701-130.71c5.9522-11.004 10.028-22.611 22.483-22.611z"/>
    <rect x="1063.8" y="670.49" width="64.23" height="117.7" ry="0"/>
    <rect transform="rotate(-90)" x="-671.96" y="1058.1" width="13.263" height="75.529" ry="4.3"/>
  </g>
  <path class="source-liquid" d="m461.99 505.91 91.927 174.75c20.125 38.256-14.442 54.746-32.381 54.746h-248.74c-17.939 0-50.781-20.907-32.381-54.746l90.127-165.75c79.68 31.256 108.66-55.62 131.45-8.999z"/>
  <path class="source-sheen" d="m360 300 14 0 0 150c-2.4 4.6-4.8 9.3-7.3 14l-70 126c-9-22 2-44 22-58 22-15 38-36 41-62 3-26-1-52 0.3-78z" opacity="0.5"/>
  <circle class="source-bubble" cx="470" cy="600" r="11"/>
  <circle class="source-bubble" cx="490" cy="578" r="6"/>
  <rect class="source-neck-line" x="413.88" y="281.54" width="15.08" height="164.1" ry="7.5399"/>
</g>

            </svg>
          </g>
        </svg>
