<svg xmlns="http://www.w3.org/2000/svg" viewBox="0 0 1600 1600" role="img" aria-labelledby="title">
  <title id="title">Chessboard</title>
  <g shape-rendering="crispEdges">
    <path fill="#b2b2b2" stroke="none" d="M0 0 L1600 0 L1600 1600 L0 1600 Z"/>
    <path fill="#e5e5e5" stroke="none" d="M0 0 L197 0 L197 197 L0 197 Z"/>
    <path fill="#cccccc" stroke="none" d="M203 0 L397 0 L397 197 L203 197 Z"/>
    <path fill="#e5e5e5" stroke="none" d="M403 0 L597 0 L597 197 L403 197 Z"/>
    <path fill="#cccccc" stroke="none" d="M603 0 L797 0 L797 197 L603 197 Z"/>
    <path fill="#e5e5e5" stroke="none" d="M803 0 L997 0 L997 197 L803 197 Z"/>
    <path fill="#cccccc" stroke="none" d="M1003 0 L1197 0 L1197 197 L1003 197 Z"/>
    <path fill="#e5e5e5" stroke="none" d="M1203 0 L1397 0 L1397 197 L1203 197 Z"/>
    <path fill="#cccccc" stroke="none" d="M1403 0 L1600 0 L1600 197 L1403 197 Z"/>
    <path fill="#cccccc" stroke="none" d="M0 203 L197 203 L197 397 L0 397 Z"/>
    <path fill="#e5e5e5" stroke="none" d="M203 203 L397 203 L397 397 L203 397 Z"/>
    <path fill="#cccccc" stroke="none" d="M403 203 L597 203 L597 397 L403 397 Z"/>
    <path fill="#e5e5e5" stroke="none" d="M603 203 L797 203 L797 397 L603 397 Z"/>
    <path fill="#cccccc" stroke="none" d="M803 203 L997 203 L997 397 L803 397 Z"/>
    <path fill="#e5e5e5" stroke="none" d="M1003 203 L1197 203 L1197 397 L1003 397 Z"/>
    <path fill="#cccccc" stroke="none" d="M1203 203 L1397 203 L1397 397 L1203 397 Z"/>
    <path fill="#e5e5e5" stroke="none" d="M1403 203 L1600 203 L1600 397 L1403 397 Z"/>
    <path fill="#e5e5e5" stroke="none" d="M0 403 L197 403 L197 597 L0 597 Z"/>
    <path fill="#cccccc" stroke="none" d="M203 403 L397 403 L397 597 L203 597 Z"/>
    <path fill="#e5e5e5" stroke="none" d="M403 403 L597 403 L597 597 L403 597 Z"/>
    <path fill="#cccccc" stroke="none" d="M603 403 L797 403 L797 597 L603 597 Z"/>
    <path fill="#e5e5e5" stroke="none" d="M803 403 L997 403 L997 597 L803 597 Z"/>
    <path fill="#cccccc" stroke="none" d="M1003 403 L1197 403 L1197 597 L1003 597 Z"/>
    <path fill="#e5e5e5" stroke="none" d="M1203 403 L1397 403 L1397 597 L1203 597 Z"/>
    <path fill="#cccccc" stroke="none" d="M1403 403 L1600 403 L1600 597 L1403 597 Z"/>
    <path fill="#cccccc" stroke="none" d="M0 603 L197 603 L197 797 L0 797 Z"/>
    <path fill="#e5e5e5" stroke="none" d="M203 603 L397 603 L397 797 L203 797 Z"/>
    <path fill="#cccccc" stroke="none" d="M403 603 L597 603 L597 797 L403 797 Z"/>
    <path fill="#e5e5e5" stroke="none" d="M603 603 L797 603 L797 797 L603 797 Z"/>
    <path fill="#cccccc" stroke="none" d="M803 603 L997 603 L997 797 L803 797 Z"/>
    <path fill="#e5e5e5" stroke="none" d="M1003 603 L1197 603 L1197 797 L1003 797 Z"/>
    <path fill="#cccccc" stroke="none" d="M1203 603 L1397 603 L1397 797 L1203 797 Z"/>
    <path fill="#e5e5e5" stroke="none" d="M1403 603 L1600 603 L1600 797 L1403 797 Z"/>
    <path fill="#e5e5e5" stroke="none" d="M0 803 L197 803 L197 997 L0 997 Z"/>
    <path fill="#cccccc" stroke="none" d="M203 803 L397 803 L397 997 L203 997 Z"/>
    <path fill="#e5e5e5" stroke="none" d="M403 803 L597 803 L597 997 L403 997 Z"/>
    <path fill="#cccccc" stroke="none" d="M603 803 L797 803 L797 997 L603 997 Z"/>
    <path fill="#e5e5e5" stroke="none" d="M803 803 L997 803 L997 997 L803 997 Z"/>
    <path fill="#cccccc" stroke="none" d="M1003 803 L1197 803 L1197 997 L1003 997 Z"/>
    <path fill="#e5e5e5" stroke="none" d="M1203 803 L1397 803 L1397 997 L1203 997 Z"/>
    <path fill="#cccccc" stroke="none" d="M1403 803 L1600 803 L1600 997 L1403 997 Z"/>
    <path fill="#cccccc" stroke="none" d="M0 1003 L197 1003 L197 1197 L0 1197 Z"/>
    <path fill="#e5e5e5" stroke="none" d="M203 1003 L397 1003 L397 1197 L203 1197 Z"/>
    <path fill="#cccccc" stroke="none" d="M403 1003 L597 1003 L597 1197 L403 1197 Z"/>
    <path fill="#e5e5e5" stroke="none" d="M603 1003 L797 1003 L797 1197 L603 1197 Z"/>
    <path fill="#cccccc" stroke="none" d="M803 1003 L997 1003 L997 1197 L803 1197 Z"/>
    <path fill="#e5e5e5" stroke="none" d="M1003 1003 L1197 1003 L1197 1197 L1003 1197 Z"/>
    <path fill="#cccccc" stroke="none" d="M1203 1003 L1397 1003 L1397 1197 L1203 1197 Z"/>
    <path fill="#e5e5e5" stroke="none" d="M1403 1003 L1600 1003 L1600 1197 L1403 1197 Z"/>
    <path fill="#e5e5e5" stroke="none" d="M0 1203 L197 1203 L197 1397 L0 1397 Z"/>
    <path fill="#cccccc" stroke="none" d="M203 1203 L397 1203 L397 1397 L203 1397 Z"/>
    <path fill="#e5e5e5" stroke="none" d="M403 1203 L597 1203 L597 1397 L403 1397 Z"/>
    <path fill="#cccccc" stroke="none" d="M603 1203 L797 1203 L797 1397 L603 1397 Z"/>
    <path fill="#e5e5e5" stroke="none" d="M803 1203 L997 1203 L997 1397 L803 1397 Z"/>
    <path fill="#cccccc" stroke="none" d="M1003 1203 L1197 1203 L1197 1397 L1003 1397 Z"/>
    <path fill="#e5e5e5" stroke="none" d="M1203 1203 L1397 1203 L1397 1397 L1203 1397 Z"/>
    <path fill="#cccccc" stroke="none" d="M1403 1203 L1600 1203 L1600 1397 L1403 1397 Z"/>
    <path fill="#cccccc" stroke="none" d="M0 1403 L197 1403 L197 1600 L0 1600 Z"/>
    <path fill="#e5e5e5" stroke="none" d="M203 1403 L397 1403 L397 1600 L203 1600 Z"/>
    <path fill="#cccccc" stroke="none" d="M403 1403 L597 1403 L597 1600 L403 1600 Z"/>
    <path fill="#e5e5e5" stroke="none" d="M603 1403 L797 1403 L797 1600 L603 1600 Z"/>
    <path fill="#cccccc" stroke="none" d="M803 1403 L997 1403 L997 1600 L803 1600 Z"/>
    <path fill="#e5e5e5" stroke="none" d="M1003 1403 L1197 1403 L1197 1600 L1003 1600 Z"/>
    <path fill="#cccccc" stroke="none" d="M1203 1403 L1397 1403 L1397 1600 L1203 1600 Z"/>
    <path fill="#e5e5e5" stroke="none" d="M1403 1403 L1600 1403 L1600 1600 L1403 1600 Z"/>
  </g>
</svg>
