<svg xmlns="http://www.w3.org/2000/svg" viewBox="0 0 200 200" role="img" aria-labelledby="title">
  <title id="title">Book Resources King</title>
  <g shape-rendering="geometricPrecision">
    <g transform="translate(0.000000,200.000000) scale(0.100000,-0.100000)" fill="#151515" stroke="none">
      <path d="M970 1899 c0 -26 -4 -29 -30 -29 -28 0 -30 -3 -30 -35 0 -32 2 -35 30 -35 28 0 30 -2 30 -39 0 -25 -14 -66 -41 -119 -46 -90 -69 -167 -69 -231 l0 -43 -45 50 c-149 165 -404 139 -485 -50 -33 -77 -26 -198 17 -290 41 -86 75 -130 140 -178 l53 -38 -31 -6 c-17 -3 -47 -6 -65 -6 l-34 0 2 -267 3 -268 110 -14 c151 -19 807 -19 955 0 l105 14 3 268 2 267 -34 0 c-18 0 -47 3 -64 6 l-31 6 52 39 c109 82 168 193 175 330 4 72 1 93 -18 137 -81 189 -336 215 -485 50 l-45 -50 0 43 c0 62 -24 143 -65 224 -25 51 -35 83 -35 118 0 43 2 47 25 47 22 0 25 4 25 35 0 30 -3 35 -24 35 -19 0 -25 6 -28 27 -3 23 -8 28 -35 29 -30 2 -33 -1 -33 -27z"/>
    </g>
    <g transform="translate(0.000000,200.000000) scale(0.100000,-0.100000)" fill="#050505" stroke="none">
      <path d="M970 1899 c0 -26 -4 -29 -30 -29 -28 0 -30 -3 -30 -35 0 -32 2 -35 30 -35 28 0 30 -2 30 -39 0 -25 -14 -66 -41 -119 -46 -90 -69 -167 -69 -231 l0 -43 -45 50 c-149 165 -404 139 -485 -50 -33 -77 -26 -198 17 -290 41 -86 75 -130 140 -178 l53 -38 -31 -6 c-17 -3 -47 -6 -65 -6 l-34 0 2 -267 3 -268 110 -14 c151 -19 807 -19 955 0 l105 14 3 268 2 267 -34 0 c-18 0 -47 3 -64 6 l-31 6 52 39 c109 82 168 193 175 330 4 72 1 93 -18 137 -81 189 -336 215 -485 50 l-45 -50 0 43 c0 62 -24 143 -65 224 -25 51 -35 83 -35 118 0 43 2 47 25 47 22 0 25 4 25 35 0 30 -3 35 -24 35 -19 0 -25 6 -28 27 -3 23 -8 28 -35 29 -30 2 -33 -1 -33 -27z m29 -661 c-1 -279 -4 -367 -11 -323 -5 33 -20 120 -34 193 -25 141 -31 274 -14 361 9 47 48 151 56 151 2 0 3 -172 3 -382z m-342 207 c88 -37 154 -120 203 -254 31 -84 60 -221 60 -281 0 -34 -3 -38 -31 -44 -90 -18 -213 3 -302 51 -69 38 -150 130 -178 200 -27 72 -31 192 -7 238 20 37 65 81 98 94 38 15 116 13 157 -4z m876 -15 c20 -14 46 -43 59 -65 31 -54 30 -165 -2 -248 -27 -70 -108 -162 -177 -200 -89 -48 -212 -69 -302 -51 -28 6 -31 10 -31 44 0 60 29 197 59 280 69 187 165 274 297 267 45 -2 71 -9 97 -27z m-213 -691 c280 -22 176 -36 -291 -38 -336 -1 -540 7 -517 20 15 8 215 26 358 33 99 4 295 -2 450 -15z m-70 -149 c214 -17 245 -21 224 -34 -25 -14 -906 -13 -949 1 -28 10 -27 11 30 18 175 23 498 30 695 15z m110 -171 c118 -11 129 -13 116 -26 -13 -13 -943 -10 -956 3 -37 37 536 52 840 23z M531 1387 c-56 -20 -76 -57 -76 -140 0 -60 5 -82 29 -130 57 -111 160 -177 290 -185 l79 -5 -7 57 c-16 123 -65 257 -123 333 -49 65 -128 93 -192 70z M1372 1389 c-96 -29 -193 -209 -218 -405 l-7 -57 79 5 c89 5 157 34 222 93 106 96 135 294 50 348 -32 21 -86 28 -126 16z"/>
    </g>
    <g transform="translate(0.000000,200.000000) scale(0.100000,-0.100000)" fill="#6c6c6c" stroke="none">
      <path d="M972 1573 c-48 -113 -54 -257 -18 -455 14 -73 29 -160 34 -193 7 -44 10 42 11 318 0 207 -1 377 -3 377 -2 0 -13 -21 -24 -47z M515 1453 c-27 -7 -82 -49 -100 -77 -39 -59 -36 -196 5 -282 30 -62 109 -145 167 -177 89 -48 212 -69 303 -51 l32 7 -6 73 c-14 152 -78 331 -151 420 -60 73 -161 108 -250 87z m158 -89 c72 -48 140 -189 170 -356 17 -91 16 -92 -89 -77 -172 24 -292 146 -301 304 -4 58 -1 76 17 103 41 65 126 76 203 26z M1322 1434 c-84 -42 -155 -147 -201 -298 -24 -76 -49 -251 -38 -262 13 -13 144 -16 199 -5 215 45 366 248 327 441 -9 44 -20 63 -54 96 -64 62 -146 71 -233 28z m153 -48 c56 -24 77 -68 72 -151 -6 -115 -77 -220 -182 -270 -51 -24 -201 -53 -213 -41 -10 11 19 168 45 240 66 182 171 266 278 222z M640 739 c-252 -22 -107 -37 360 -37 337 0 522 8 460 21 -129 26 -604 35 -820 16z M735 591 c-60 -5 -139 -12 -175 -16 -63 -8 -64 -9 -30 -17 48 -13 908 -14 939 -1 61 25 -497 50 -734 34z M765 430 c-66 -4 -151 -11 -189 -15 -57 -6 -66 -10 -50 -19 27 -16 928 -16 944 0 13 13 -34 19 -275 34 -164 10 -248 10 -430 0z"/>
    </g>
  </g>
</svg>
