<svg xmlns="http://www.w3.org/2000/svg" viewBox="0 0 200 200" role="img" aria-labelledby="title">
  <title id="title">Book Resources Queen</title>
  <g shape-rendering="geometricPrecision">
    <g transform="translate(0.000000,200.000000) scale(0.100000,-0.100000)" fill="#151515" stroke="none">
      <path d="M923 1746 c-65 -55 -65 -149 -1 -200 l31 -24 -48 -214 c-26 -117 -50 -221 -54 -230 -4 -11 -31 51 -74 173 -38 105 -71 197 -73 204 -3 7 4 16 16 20 12 4 30 21 41 38 42 70 9 159 -69 187 -37 13 -47 13 -84 0 -54 -19 -81 -57 -82 -114 -1 -52 24 -93 72 -116 28 -13 31 -19 27 -50 -3 -19 -12 -111 -20 -204 -9 -94 -17 -171 -19 -173 -3 -3 -176 258 -184 278 -2 4 9 24 23 44 44 65 30 139 -34 182 -40 27 -80 29 -127 7 -43 -21 -64 -59 -64 -118 0 -60 38 -106 95 -115 l39 -6 34 -215 c30 -192 34 -245 40 -500 l7 -285 90 -14 c127 -20 851 -20 985 0 l95 14 6 290 c6 263 10 309 41 500 l34 210 39 6 c57 9 95 55 95 115 0 25 -7 58 -15 73 -16 32 -69 61 -113 61 -35 0 -92 -36 -109 -70 -25 -49 -8 -135 31 -157 12 -6 -5 -39 -81 -156 -53 -81 -97 -146 -99 -145 -1 2 -10 80 -18 173 -9 94 -18 186 -21 205 -4 31 -1 37 27 50 47 22 73 64 73 115 0 56 -29 95 -83 115 -37 13 -47 13 -84 0 -78 -28 -111 -117 -69 -187 11 -17 29 -34 41 -38 12 -4 20 -12 17 -18 -2 -7 -35 -98 -73 -204 -45 -127 -71 -186 -75 -174 -4 9 -28 113 -54 230 l-48 213 36 29 c43 35 56 89 34 140 -22 52 -50 72 -110 77 -46 4 -57 1 -84 -22z"/>
    </g>
    <g transform="translate(0.000000,200.000000) scale(0.100000,-0.100000)" fill="#050505" stroke="none">
      <path d="M923 1746 c-65 -55 -65 -149 -1 -200 l31 -24 -48 -214 c-26 -117 -50 -221 -54 -230 -4 -11 -31 51 -74 173 -38 105 -71 197 -73 204 -3 7 4 16 16 20 12 4 30 21 41 38 42 70 9 159 -69 187 -37 13 -47 13 -84 0 -54 -19 -81 -57 -82 -114 -1 -52 24 -93 72 -116 28 -13 31 -19 27 -50 -3 -19 -12 -111 -20 -204 -9 -94 -17 -171 -19 -173 -3 -3 -176 258 -184 278 -2 4 9 24 23 44 44 65 30 139 -34 182 -40 27 -80 29 -127 7 -43 -21 -64 -59 -64 -118 0 -60 38 -106 95 -115 l39 -6 34 -215 c30 -192 34 -245 40 -500 l7 -285 90 -14 c127 -20 851 -20 985 0 l95 14 6 290 c6 263 10 309 41 500 l34 210 39 6 c57 9 95 55 95 115 0 25 -7 58 -15 73 -16 32 -69 61 -113 61 -35 0 -92 -36 -109 -70 -25 -49 -8 -135 31 -157 12 -6 -5 -39 -81 -156 -53 -81 -97 -146 -99 -145 -1 2 -10 80 -18 173 -9 94 -18 186 -21 205 -4 31 -1 37 27 50 47 22 73 64 73 115 0 56 -29 95 -83 115 -37 13 -47 13 -84 0 -78 -28 -111 -117 -69 -187 11 -17 29 -34 41 -38 12 -4 20 -12 17 -18 -2 -7 -35 -98 -73 -204 -45 -127 -71 -186 -75 -174 -4 9 -28 113 -54 230 l-48 213 36 29 c43 35 56 89 34 140 -22 52 -50 72 -110 77 -46 4 -57 1 -84 -22z m101 -42 c34 -34 9 -94 -39 -94 -44 0 -65 59 -34 96 15 19 54 18 73 -2z m-346 -67 c15 -12 16 -59 0 -75 -37 -37 -113 12 -89 57 21 38 54 45 89 18z m704 -12 c18 -41 -3 -75 -47 -75 -44 0 -65 34 -47 75 9 20 19 25 47 25 28 0 38 -5 47 -25z m-1052 -115 c34 -18 44 -48 25 -76 -17 -26 -62 -33 -83 -12 -20 20 -14 65 10 82 27 19 24 19 48 6z m1370 -10 c36 -36 16 -90 -35 -90 -52 0 -74 65 -33 94 30 21 44 20 68 -4z m-700 -375 l0 -265 -60 0 c-41 0 -60 4 -60 13 -1 16 113 517 117 517 2 0 3 -119 3 -265z m-308 -269 c-24 -4 -45 -6 -47 -4 -5 4 19 279 32 373 6 43 10 23 32 -155 l27 -205 -44 -9z m596 206 l-22 -202 -49 0 c-35 0 -48 4 -44 13 2 6 33 98 68 204 35 106 65 191 66 189 2 -1 -7 -93 -19 -204z m-803 -67 c26 -66 49 -126 52 -133 4 -10 -3 -13 -28 -10 l-33 3 -18 100 c-9 55 -20 116 -24 135 -9 52 -1 37 51 -95z m1027 -13 l-47 -132 -37 0 -38 0 82 134 c45 74 84 134 85 132 1 -1 -19 -62 -45 -134z m-187 -243 c283 -22 178 -36 -286 -38 -343 -1 -551 7 -527 20 15 8 214 27 348 33 100 4 305 -2 465 -15z m-75 -149 c214 -17 245 -21 224 -34 -25 -14 -906 -13 -949 1 -29 10 -27 11 29 18 180 23 496 30 696 15z m110 -171 c119 -12 128 -14 116 -26 -13 -14 -943 -10 -957 4 -12 12 35 19 231 34 131 9 457 3 610 -12z"/>
    </g>
    <g transform="translate(0.000000,200.000000) scale(0.100000,-0.100000)" fill="#6c6c6c" stroke="none">
      <path d="M958 1709 c-25 -14 -24 -75 1 -89 27 -14 47 -13 65 6 21 21 20 57 -2 77 -21 19 -39 21 -64 6z M602 1638 c-7 -7 -12 -24 -12 -38 0 -33 17 -50 50 -50 33 0 50 17 50 50 0 33 -17 50 -50 50 -14 0 -31 -5 -38 -12z M1296 1634 c-32 -32 -8 -84 39 -84 28 0 55 24 55 50 0 26 -27 50 -55 50 -13 0 -31 -7 -39 -16z M289 1507 c-27 -14 -38 -60 -18 -83 19 -23 71 -14 86 15 22 45 -23 90 -68 68z M1650 1512 c-8 -2 -21 -11 -27 -20 -43 -54 36 -113 82 -62 33 37 -8 97 -55 82z M937 1138 c-32 -139 -57 -259 -57 -265 0 -9 19 -13 60 -13 l60 0 0 265 c0 146 -1 265 -3 265 -1 0 -29 -114 -60 -252z M1241 1077 c-35 -106 -66 -198 -68 -204 -4 -9 9 -13 43 -13 l49 0 22 202 c12 112 21 204 19 205 -1 1 -30 -84 -65 -190z M677 1215 c-11 -79 -37 -358 -34 -361 1 -2 23 0 47 4 l45 7 -26 200 c-22 175 -26 194 -32 150z M434 1100 c32 -191 40 -230 46 -240 4 -6 19 -10 33 -8 l25 3 -54 135 c-30 74 -53 124 -50 110z M1477 991 c-42 -70 -77 -130 -77 -134 0 -4 15 -7 33 -7 l32 0 47 132 c26 73 46 133 45 134 -1 2 -37 -55 -80 -125z M640 739 c-251 -22 -105 -37 370 -37 337 0 513 8 450 21 -123 25 -605 35 -820 16z M730 591 c-58 -5 -134 -12 -170 -16 l-65 -8 45 -10 c60 -13 898 -13 929 0 62 25 -509 51 -739 34z M765 431 c-213 -15 -260 -22 -239 -35 26 -15 928 -16 944 0 25 25 -488 50 -705 35z"/>
    </g>
  </g>
</svg>
