<svg xmlns="http://www.w3.org/2000/svg" viewBox="0 0 1200 420" role="img" aria-labelledby="title desc">
  <title id="title">ChessRTK Engine Wave logo concept</title>
  <desc id="desc">Evaluation signals without board imagery.</desc>
  <defs>
    <filter id="shadow" x="-12%" y="-12%" width="124%" height="124%">
      <feDropShadow dx="0" dy="16" stdDeviation="18" flood-color="#07100c" flood-opacity="0.22"/>
    </filter>
  </defs>
  <rect width="1200" height="420" rx="48" fill="#f4f7f3"/><rect x="42" y="42" width="1116" height="336" rx="38" fill="#fffefb" stroke="#d6dfd7" stroke-width="2"/>
  <g transform="translate(82 70)" filter="url(#shadow)">
    <rect width="280" height="280" rx="34" fill="#0d1c14"/>
    
<rect x="38" y="42" width="204" height="196" rx="22" fill="#eef5ef"/>
<path d="M56 172 C82 110 110 215 142 150 S194 82 224 124" fill="none" stroke="#d8a63a" stroke-width="12" stroke-linecap="round"/>
<path d="M56 196 C88 152 118 164 150 126 S194 72 224 84" fill="none" stroke="#2e7d57" stroke-width="7" stroke-linecap="round"/>
<circle cx="142" cy="150" r="10" fill="#d8a63a" stroke="#fffefb" stroke-width="3"/>
<circle cx="224" cy="124" r="10" fill="#2e7d57" stroke="#fffefb" stroke-width="3"/>
<text x="66" y="92" fill="#123b2b" font-family="ui-monospace, Menlo, Consolas, monospace" font-size="27" font-weight="900">+0.42</text>
<text x="68" y="121" fill="#647268" font-family="ui-monospace, Menlo, Consolas, monospace" font-size="18" font-weight="850">pv e4 e5</text>

  </g>
  <g transform="translate(424 112)">
    <text x="0" y="76" fill="#123b2b" font-family="Inter, Segoe UI, Arial, sans-serif" font-size="86" font-weight="850" letter-spacing="0">ChessRTK</text>
    <text x="3" y="123" fill="#2e7d57" font-family="Inter, Segoe UI, Arial, sans-serif" font-size="26" font-weight="850" letter-spacing="0">ENGINE WAVE</text>
    <text x="3" y="172" fill="#3e4b42" font-family="Inter, Segoe UI, Arial, sans-serif" font-size="30" font-weight="500" letter-spacing="0">Evaluation signals without board imagery.</text>
    <text x="3" y="224" fill="#2e7d57" opacity="0.76" font-family="ui-monospace, Menlo, Consolas, monospace" font-size="22" font-weight="850">concept 02 / non-board mark</text>
  </g>
</svg>
