<svg xmlns="http://www.w3.org/2000/svg" viewBox="0 0 1200 420" role="img" aria-labelledby="title desc">
  <title id="title">ChessRTK Search DAG logo concept</title>
  <desc id="desc">A compact graph for explored lines.</desc>
  <defs>
    <filter id="shadow" x="-12%" y="-12%" width="124%" height="124%">
      <feDropShadow dx="0" dy="16" stdDeviation="18" flood-color="#07100c" flood-opacity="0.22"/>
    </filter>
  </defs>
  <rect width="1200" height="420" rx="48" fill="#f4f7f3"/><rect x="42" y="42" width="1116" height="336" rx="38" fill="#fffefb" stroke="#d6dfd7" stroke-width="2"/>
  <g transform="translate(82 70)" filter="url(#shadow)">
    <rect width="280" height="280" rx="34" fill="#0d1c14"/>
    
<rect x="38" y="38" width="204" height="204" rx="24" fill="#f8fbf8"/>
<g fill="none" stroke="#2e7d57" stroke-width="8" stroke-linecap="round">
  <path d="M74 198 C86 154 104 132 140 112"/>
  <path d="M140 112 C120 86 98 68 74 52"/>
  <path d="M140 112 C170 92 194 70 216 46"/>
  <path d="M140 112 C170 128 194 154 218 190"/>
  <path d="M74 198 C116 198 162 196 218 190"/>
</g>
<circle cx="74" cy="198" r="13" fill="#d8a63a" stroke="#fffefb" stroke-width="4"/><circle cx="140" cy="112" r="13" fill="#2e7d57" stroke="#fffefb" stroke-width="4"/><circle cx="74" cy="52" r="10" fill="#123b2b" stroke="#fffefb" stroke-width="4"/><circle cx="216" cy="46" r="10" fill="#d8a63a" stroke="#fffefb" stroke-width="4"/><circle cx="218" cy="190" r="10" fill="#123b2b" stroke="#fffefb" stroke-width="4"/>

  </g>
  <g transform="translate(424 112)">
    <text x="0" y="76" fill="#123b2b" font-family="Inter, Segoe UI, Arial, sans-serif" font-size="86" font-weight="850" letter-spacing="0">ChessRTK</text>
    <text x="3" y="123" fill="#2e7d57" font-family="Inter, Segoe UI, Arial, sans-serif" font-size="26" font-weight="850" letter-spacing="0">SEARCH DAG</text>
    <text x="3" y="172" fill="#3e4b42" font-family="Inter, Segoe UI, Arial, sans-serif" font-size="30" font-weight="500" letter-spacing="0">A compact graph for explored lines.</text>
    <text x="3" y="224" fill="#2e7d57" opacity="0.76" font-family="ui-monospace, Menlo, Consolas, monospace" font-size="22" font-weight="850">concept 04 / non-board mark</text>
  </g>
</svg>
