<svg xmlns="http://www.w3.org/2000/svg" viewBox="0 0 1200 420" role="img" aria-labelledby="title desc">
  <title id="title">ChessRTK Pipeline Arc logo concept</title>
  <desc id="desc">Input, analysis, export, and publishing.</desc>
  <defs>
    <filter id="shadow" x="-12%" y="-12%" width="124%" height="124%">
      <feDropShadow dx="0" dy="16" stdDeviation="18" flood-color="#07100c" flood-opacity="0.22"/>
    </filter>
  </defs>
  <rect width="1200" height="420" rx="48" fill="#0d1c14"/><rect x="32" y="32" width="1136" height="356" rx="38" fill="#123b2b" opacity="0.42"/>
  <g transform="translate(82 70)" filter="url(#shadow)">
    <rect width="280" height="280" rx="34" fill="#fffefb"/>
    
<rect x="36" y="44" width="208" height="192" rx="24" fill="#eef5ef"/>
<path d="M68 160 C95 76 185 76 212 160" fill="none" stroke="#d8a63a" stroke-width="12" stroke-linecap="round"/>
<path d="M200 140 L218 162 L190 168" fill="#d8a63a"/>
<g font-family="Inter, Arial, sans-serif" font-size="17" font-weight="900" text-anchor="middle">
  <circle cx="68" cy="160" r="24" fill="#123b2b"/><text x="68" y="166" fill="#fffefb">IN</text>
  <circle cx="140" cy="80" r="24" fill="#2e7d57"/><text x="140" y="86" fill="#fffefb">RUN</text>
  <circle cx="212" cy="160" r="24" fill="#d8a63a"/><text x="212" y="166" fill="#0d1c14">OUT</text>
</g>

  </g>
  <g transform="translate(424 112)">
    <text x="0" y="76" fill="#fffefb" font-family="Inter, Segoe UI, Arial, sans-serif" font-size="86" font-weight="850" letter-spacing="0">ChessRTK</text>
    <text x="3" y="123" fill="#d8a63a" font-family="Inter, Segoe UI, Arial, sans-serif" font-size="26" font-weight="850" letter-spacing="0">PIPELINE ARC</text>
    <text x="3" y="172" fill="#dce9df" font-family="Inter, Segoe UI, Arial, sans-serif" font-size="30" font-weight="500" letter-spacing="0">Input, analysis, export, and publishing.</text>
    <text x="3" y="224" fill="#d8a63a" opacity="0.76" font-family="ui-monospace, Menlo, Consolas, monospace" font-size="22" font-weight="850">concept 05 / non-board mark</text>
  </g>
</svg>
