<svg xmlns="http://www.w3.org/2000/svg" viewBox="0 0 1024 1024" role="img" aria-label="ChessRTK lab-board microscope logo">
  <defs>
    <clipPath id="boardClip"><rect x="152" y="152" width="720" height="720" rx="58"/></clipPath>
    <filter id="softShadow" x="-20%" y="-20%" width="140%" height="140%">
      <feDropShadow dx="14" dy="20" stdDeviation="8" flood-color="#000" flood-opacity="0.34"/>
    </filter>
  </defs>
  <g clip-path="url(#boardClip)">
    <rect x="152" y="152" width="360" height="360" fill="#acd9e2"/>
    <rect x="512" y="152" width="360" height="360" fill="#d5edf0"/>
    <rect x="152" y="512" width="360" height="360" fill="#4d9eb7"/>
    <rect x="512" y="512" width="360" height="360" fill="#256579"/>
    <path d="M512 152 V872 M152 512 H872" stroke="#153a48" stroke-opacity="0.2" stroke-width="5"/>
  </g>
  <rect x="152" y="152" width="720" height="720" rx="58" fill="none" stroke="#fff" stroke-opacity="0.12" stroke-width="3"/>
  <g filter="url(#softShadow)">
    <rect x="266" y="760" width="472" height="86" rx="42" fill="#c96d35"/>
    <rect x="326" y="690" width="248" height="86" rx="30" fill="#f2a04c"/>
    <path d="M430 690 C548 664 620 536 596 394" fill="none" stroke="#c96d35" stroke-width="104" stroke-linecap="round"/>
    <path d="M456 684 C570 640 620 526 592 408" fill="none" stroke="#f2a04c" stroke-width="70" stroke-linecap="round"/>
    <rect x="206" y="552" width="396" height="58" rx="24" fill="#183847"/>
    <rect x="214" y="562" width="376" height="34" rx="14" fill="#fff1cf"/>
    <g transform="rotate(-28 474 336)">
      <rect x="391" y="164" width="166" height="344" rx="28" fill="#f2a04c" stroke="#c96d35" stroke-width="8"/>
    </g>
    <g transform="rotate(-28 438 150)">
      <rect x="367" y="107" width="142" height="86" rx="24" fill="#ffc06d" stroke="#c96d35" stroke-width="7"/>
    </g>
    <g transform="rotate(-28 338 516)">
      <rect x="279" y="479" width="118" height="74" rx="20" fill="#c96d35" stroke="#c96d35" stroke-width="6"/>
    </g>
    <g transform="rotate(-28 326 578)">
      <rect x="241" y="559" width="170" height="38" rx="18" fill="#183847" stroke="#183847" stroke-width="4"/>
    </g>
    <circle cx="548" cy="438" r="68" fill="#183847"/>
    <circle cx="548" cy="438" r="48" fill="#fff1cf"/>
    <circle cx="548" cy="438" r="24" fill="#c96d35"/>
    <circle cx="483" cy="753" r="69" fill="#183847"/>
    <circle cx="483" cy="753" r="49" fill="#fff1cf"/>
    <circle cx="483" cy="753" r="25" fill="#c96d35"/>
    <path d="M374 244 L448 220 L438 258 L392 290 Z" fill="#ffc06d"/>
    <path d="M388 452 L454 426 L438 466 L410 488 Z" fill="#ffc06d"/>
  </g>
</svg>
