<svg xmlns="http://www.w3.org/2000/svg" viewBox="0 0 200 200" role="img" aria-labelledby="title">
  <title id="title">Modern Walnut Other White King</title>
  <g shape-rendering="geometricPrecision">
    <g transform="translate(0.000000,200.000000) scale(0.100000,-0.100000)" fill="#151515" stroke="none">
      <path d="M920 1820 l0 -60 -60 0 -60 0 0 -80 0 -80 60 0 60 0 0 -55 c0 -48 -3 -57 -26 -72 -31 -20 -74 -105 -74 -148 0 -16 -3 -40 -6 -51 l-6 -22 -41 23 c-200 111 -437 46 -526 -144 -23 -49 -26 -69 -26 -157 0 -98 1 -103 42 -185 48 -96 123 -184 211 -249 l62 -44 -33 -19 c-42 -24 -85 -81 -98 -129 -5 -21 -9 -71 -7 -111 l3 -72 605 0 605 0 3 72 c2 40 -2 90 -7 111 -13 48 -56 105 -98 129 l-33 19 62 44 c88 65 163 153 211 249 41 82 42 87 42 185 0 88 -3 108 -26 157 -89 190 -326 255 -526 144 l-41 -23 -6 22 c-3 11 -6 35 -6 51 0 43 -43 128 -74 148 -23 15 -26 24 -26 72 l0 55 60 0 60 0 0 80 0 80 -60 0 -60 0 0 60 0 60 -80 0 -80 0 0 -60z"/>
    </g>
    <g transform="translate(0.000000,200.000000) scale(0.100000,-0.100000)" fill="#050505" stroke="none">
      <path d="M920 1820 l0 -60 -60 0 -60 0 0 -80 0 -80 60 0 60 0 0 -55 c0 -48 -3 -57 -26 -72 -31 -20 -74 -105 -74 -148 0 -16 -3 -40 -6 -51 l-6 -22 -41 23 c-200 111 -437 46 -526 -144 -23 -49 -26 -69 -26 -157 0 -98 1 -103 42 -185 48 -96 123 -184 211 -249 l62 -44 -33 -19 c-42 -24 -85 -81 -98 -129 -5 -21 -9 -71 -7 -111 l3 -72 605 0 605 0 3 72 c2 40 -2 90 -7 111 -13 48 -56 105 -98 129 l-33 19 62 44 c88 65 163 153 211 249 41 82 42 87 42 185 0 88 -3 108 -26 157 -89 190 -326 255 -526 144 l-41 -23 -6 22 c-3 11 -6 35 -6 51 0 43 -43 128 -74 148 -23 15 -26 24 -26 72 l0 55 60 0 60 0 0 80 0 80 -60 0 -60 0 0 60 0 60 -80 0 -80 0 0 -60z m110 0 c0 -6 -6 -10 -12 -9 -34 4 -38 -2 -38 -56 l0 -55 -55 0 c-52 0 -55 -1 -55 -24 0 -14 -4 -28 -10 -31 -6 -4 -10 8 -10 29 0 39 3 40 78 36 34 -2 32 -4 37 70 2 19 3 38 4 43 2 11 61 8 61 -3z m117 -113 c3 -4 -15 -7 -40 -7 -26 0 -47 5 -47 11 0 11 75 8 87 -4z m-167 -134 c0 -25 -2 -44 -4 -42 -7 7 -14 78 -8 83 10 11 12 6 12 -41z m91 -130 c4 -4 -18 -8 -51 -8 -51 0 -63 -4 -88 -28 -35 -33 -52 -85 -52 -156 0 -32 -4 -50 -10 -46 -5 3 -10 34 -10 68 1 91 41 169 94 178 32 6 108 1 117 -8z m-376 -184 c28 -10 60 -26 71 -34 10 -8 -8 -3 -41 12 -80 35 -197 38 -267 6 -66 -30 -132 -94 -159 -156 -34 -78 -33 -191 4 -272 15 -33 20 -51 12 -41 -48 63 -72 201 -50 286 49 185 237 272 430 199z m873 1 c23 -11 42 -22 42 -25 0 -3 -9 -1 -20 5 -11 6 -45 15 -75 21 -149 27 -322 -64 -461 -245 -18 -24 -35 -37 -42 -32 -15 9 70 119 141 181 60 53 152 101 217 114 59 12 144 4 198 -19z m-379 -750 c126 -11 214 -31 273 -61 53 -27 48 -32 -8 -7 -180 79 -730 72 -895 -12 -41 -22 -87 -71 -94 -103 -8 -35 -13 -70 -14 -94 -1 -34 -21 -28 -21 7 0 99 40 174 111 211 111 56 390 82 648 59z"/>
    </g>
    <g transform="translate(0.000000,200.000000) scale(0.100000,-0.100000)" fill="#6c6c6c" stroke="none">
      <path d="M970 1770 l0 -60 -60 0 -60 0 1 -32 c2 -31 2 -31 6 -5 4 26 7 27 64 27 l59 0 0 59 c0 57 1 60 28 64 25 4 25 4 -5 6 l-33 1 0 -60z M1083 1703 c15 -2 37 -2 50 0 12 2 0 4 -28 4 -27 0 -38 -2 -22 -4z M973 1575 c0 -27 2 -38 4 -22 2 15 2 37 0 50 -2 12 -4 0 -4 -28z M917 1429 c-44 -34 -71 -159 -47 -214 6 -14 9 -1 9 44 1 73 29 144 64 163 12 7 45 15 72 19 l50 6 -61 2 c-48 1 -67 -3 -87 -20z M422 1249 c-108 -54 -162 -144 -161 -269 0 -41 3 -83 7 -92 4 -10 7 22 7 70 0 103 20 154 83 219 54 55 120 84 212 93 l75 7 -81 2 c-72 1 -88 -2 -142 -30z M1320 1263 c-87 -30 -190 -111 -266 -208 -21 -27 -43 -53 -49 -57 -5 -4 0 -8 13 -8 12 0 22 4 22 9 0 19 148 166 202 202 77 49 169 74 250 66 39 -4 55 -2 43 3 -33 14 -167 10 -215 -7z M708 496 c-152 -27 -219 -62 -248 -129 -20 -45 -24 -71 -20 -127 2 -26 5 -18 11 29 18 140 106 196 348 221 175 17 343 13 561 -15 23 -3 16 1 -20 11 -77 22 -522 29 -632 10z"/>
    </g>
  </g>
</svg>
