<svg xmlns="http://www.w3.org/2000/svg" viewBox="0 0 200 200" role="img" aria-labelledby="title">
  <title id="title">Modern Walnut Other White Rook</title>
  <g shape-rendering="geometricPrecision">
    <g transform="translate(0.000000,200.000000) scale(0.100000,-0.100000)" fill="#151515" stroke="none">
      <path d="M873 1783 c-9 -3 -13 -33 -13 -98 l0 -93 -57 -8 -58 -9 -20 85 -21 85 -39 -3 c-22 -2 -78 -11 -125 -20 l-85 -17 -3 -88 c-5 -149 39 -270 118 -325 22 -15 41 -33 44 -40 3 -7 9 -88 12 -180 7 -182 -3 -296 -38 -422 -33 -121 -47 -148 -87 -171 -45 -26 -88 -81 -102 -131 -5 -21 -9 -71 -7 -111 l3 -72 605 0 605 0 3 72 c2 40 -2 90 -7 111 -14 50 -57 105 -102 131 -40 23 -54 50 -87 171 -35 126 -45 240 -38 422 3 92 9 173 12 180 3 7 22 25 44 40 79 55 123 176 118 325 l-3 88 -85 17 c-47 9 -103 18 -125 20 l-39 3 -21 -85 -20 -85 -57 9 -58 8 0 93 c0 75 -3 94 -16 99 -19 7 -233 7 -251 -1z"/>
    </g>
    <g transform="translate(0.000000,200.000000) scale(0.100000,-0.100000)" fill="#050505" stroke="none">
      <path d="M873 1783 c-9 -3 -13 -33 -13 -98 l0 -93 -57 -8 -58 -9 -20 85 -21 85 -39 -3 c-22 -2 -78 -11 -125 -20 l-85 -17 -3 -88 c-5 -149 39 -270 118 -325 22 -15 41 -33 44 -40 3 -7 9 -88 12 -180 7 -182 -3 -296 -38 -422 -33 -121 -47 -148 -87 -171 -45 -26 -88 -81 -102 -131 -5 -21 -9 -71 -7 -111 l3 -72 605 0 605 0 3 72 c2 40 -2 90 -7 111 -14 50 -57 105 -102 131 -40 23 -54 50 -87 171 -35 126 -45 240 -38 422 3 92 9 173 12 180 3 7 22 25 44 40 79 55 123 176 118 325 l-3 88 -85 17 c-47 9 -103 18 -125 20 l-39 3 -21 -85 -20 -85 -57 9 -58 8 0 93 c0 75 -3 94 -16 99 -19 7 -233 7 -251 -1z m217 -50 c0 -5 -37 -8 -82 -8 l-83 0 0 -81 c0 -49 -5 -87 -13 -96 -6 -8 -43 -20 -81 -27 -83 -13 -91 -13 -91 -3 0 5 32 15 72 22 40 7 78 18 85 26 8 8 13 36 12 76 -2 107 -10 98 91 98 50 0 90 -3 90 -7z m-420 -48 c0 -8 -8 -15 -17 -15 -9 0 -45 -5 -81 -11 l-65 -12 6 -86 c3 -47 13 -105 21 -129 8 -24 11 -40 6 -37 -17 10 -40 105 -46 190 l-6 82 83 15 c46 9 87 16 92 17 4 1 7 -6 7 -14z m767 -6 c40 -7 70 -15 68 -19 -3 -4 -37 -2 -77 6 -84 16 -81 18 -98 -72 -16 -85 -23 -90 -116 -74 -41 7 -77 17 -81 23 -4 6 3 8 18 4 128 -31 142 -25 159 60 17 89 19 94 39 89 9 -2 48 -10 88 -17z m-164 -400 c37 -6 67 -16 67 -22 0 -5 -10 -7 -22 -3 -105 29 -442 32 -573 5 l-60 -12 0 -256 c0 -250 -1 -258 -28 -356 -15 -55 -32 -104 -37 -109 -20 -20 -20 4 -1 62 49 150 66 373 46 598 l-7 82 89 12 c48 6 95 13 103 15 33 8 359 -4 423 -16z m-84 -769 c126 -11 214 -31 273 -61 53 -27 48 -32 -8 -7 -180 79 -730 72 -895 -12 -41 -22 -87 -71 -94 -103 -8 -35 -13 -70 -14 -94 -1 -34 -21 -28 -21 7 0 99 40 174 111 211 111 56 390 82 648 59z"/>
    </g>
    <g transform="translate(0.000000,200.000000) scale(0.100000,-0.100000)" fill="#6c6c6c" stroke="none">
      <path d="M910 1658 c0 -46 -4 -88 -8 -94 -4 -6 -40 -17 -79 -24 -40 -7 -73 -17 -73 -23 0 -5 10 -7 23 -4 12 4 42 9 67 13 79 12 80 13 80 114 l0 89 88 4 87 3 -92 2 -93 2 0 -82z M580 1680 l-85 -15 6 -85 5 -85 2 76 c2 86 0 84 84 94 51 6 88 19 78 27 -3 2 -43 -3 -90 -12z M1321 1651 c-5 -26 -12 -62 -16 -82 -4 -23 -15 -41 -28 -47 -17 -8 -18 -11 -5 -11 28 -1 45 25 58 94 7 36 16 68 21 71 5 3 35 0 68 -7 33 -6 65 -9 72 -7 6 2 -27 11 -74 19 l-86 15 -10 -45z M1140 1540 c8 -5 26 -10 39 -10 32 0 24 6 -19 14 -25 4 -31 3 -20 -4z M1218 1523 c6 -2 18 -2 25 0 6 3 1 5 -13 5 -14 0 -19 -2 -12 -5z M511 1474 c0 -11 3 -14 6 -6 3 7 2 16 -1 19 -3 4 -6 -2 -5 -13z M870 1294 c-14 -2 -61 -9 -106 -15 -44 -6 -85 -14 -91 -17 -8 -5 -9 -41 -1 -127 18 -217 -8 -443 -69 -601 -3 -8 0 -14 6 -14 16 0 59 154 72 260 7 62 9 160 5 282 l-7 186 51 11 c79 17 272 32 342 26 155 -13 205 -14 163 -5 -44 10 -326 21 -365 14z M1281 1266 c12 -10 60 -16 54 -6 -3 5 -18 10 -32 10 -15 0 -24 -2 -22 -4z M708 496 c-152 -27 -219 -62 -248 -129 -20 -45 -24 -71 -20 -127 2 -26 5 -18 11 29 18 140 106 196 348 221 175 17 343 13 561 -15 23 -3 16 1 -20 11 -77 22 -522 29 -632 10z"/>
    </g>
  </g>
</svg>
