<svg xmlns="http://www.w3.org/2000/svg" viewBox="0 0 200 200" role="img" aria-labelledby="title">
  <title id="title">Modern Walnut Other White Pawn</title>
  <g shape-rendering="geometricPrecision">
    <g transform="translate(0.000000,200.000000) scale(0.100000,-0.100000)" fill="#151515" stroke="none">
      <path d="M890 1549 c-179 -81 -217 -320 -72 -451 23 -21 42 -41 42 -46 0 -4 -30 -16 -67 -26 -38 -11 -81 -25 -96 -33 -64 -32 -38 -73 64 -100 61 -15 69 -20 69 -41 0 -44 -51 -128 -147 -243 -165 -196 -201 -266 -188 -360 l7 -49 498 0 498 0 7 49 c13 94 -23 164 -188 360 -96 115 -147 199 -147 243 0 21 8 26 69 41 102 27 128 68 64 100 -15 8 -58 22 -95 33 -38 10 -68 22 -68 26 0 5 19 25 42 46 145 131 107 370 -72 451 -30 14 -66 21 -110 21 -44 0 -80 -7 -110 -21z"/>
    </g>
    <g transform="translate(0.000000,200.000000) scale(0.100000,-0.100000)" fill="#050505" stroke="none">
      <path d="M890 1549 c-179 -81 -217 -320 -72 -451 23 -21 42 -41 42 -46 0 -4 -30 -16 -67 -26 -38 -11 -81 -25 -96 -33 -64 -32 -38 -73 64 -100 61 -15 69 -20 69 -41 0 -44 -51 -128 -147 -243 -165 -196 -201 -266 -188 -360 l7 -49 498 0 498 0 7 49 c13 94 -23 164 -188 360 -96 115 -147 199 -147 243 0 21 8 26 69 41 102 27 128 68 64 100 -15 8 -58 22 -95 33 -38 10 -68 22 -68 26 0 5 19 25 42 46 145 131 107 370 -72 451 -30 14 -66 21 -110 21 -44 0 -80 -7 -110 -21z m200 -43 c19 -9 26 -13 15 -10 -130 42 -263 -25 -306 -153 -14 -42 -6 -120 16 -162 8 -17 13 -31 10 -31 -13 0 -47 89 -52 136 -5 44 -1 62 21 108 56 115 186 164 296 112z m-160 -456 c0 -35 -43 -68 -113 -89 -41 -13 -75 -18 -84 -13 -10 6 9 15 61 30 74 22 116 54 116 89 0 8 5 11 10 8 6 -3 10 -15 10 -25z m346 -97 c-6 -6 -126 28 -131 37 -3 4 27 -2 65 -13 39 -11 68 -22 66 -24z m-387 -147 c-11 -64 -51 -129 -164 -261 -110 -130 -165 -217 -165 -262 0 -18 -5 -33 -11 -33 -8 0 -10 17 -7 50 6 62 46 127 152 250 116 134 163 209 177 282 15 74 30 52 18 -26z"/>
    </g>
    <g transform="translate(0.000000,200.000000) scale(0.100000,-0.100000)" fill="#6c6c6c" stroke="none">
      <path d="M954 1520 c-117 -27 -197 -144 -174 -255 l8 -40 1 55 c3 132 103 230 232 230 29 0 50 2 48 4 -10 8 -87 13 -115 6z M906 1045 c-7 -28 -35 -45 -119 -71 -32 -10 -52 -21 -46 -25 18 -10 151 38 172 62 18 22 23 59 8 59 -5 0 -12 -11 -15 -25z M1235 960 c11 -5 27 -9 35 -9 9 0 8 4 -5 9 -11 5 -27 9 -35 9 -9 0 -8 -4 5 -9z M877 841 c-12 -69 -60 -148 -162 -270 -145 -172 -176 -225 -174 -295 1 -27 2 -25 14 17 19 70 43 104 233 330 63 75 104 165 100 219 l-3 43 -8 -44z"/>
    </g>
  </g>
</svg>
