<svg xmlns="http://www.w3.org/2000/svg" viewBox="0 0 200 200" role="img" aria-labelledby="title">
  <title id="title">Modern Walnut Other White Queen</title>
  <g shape-rendering="geometricPrecision">
    <g transform="translate(0.000000,200.000000) scale(0.100000,-0.100000)" fill="#151515" stroke="none">
      <path d="M679 1777 c-55 -37 -79 -81 -79 -146 0 -64 21 -106 69 -142 31 -23 31 -24 31 -114 0 -51 -3 -140 -7 -199 l-6 -107 -78 77 c-63 63 -76 81 -68 95 5 10 9 42 9 72 0 99 -70 167 -170 167 -66 0 -110 -24 -147 -79 -27 -40 -31 -126 -8 -170 17 -34 68 -79 98 -87 19 -4 38 -51 129 -319 l106 -315 -46 -25 c-90 -50 -125 -122 -120 -248 l3 -72 605 0 605 0 3 72 c2 40 -2 90 -7 111 -14 51 -57 105 -104 132 -21 12 -37 27 -34 34 2 6 51 149 108 318 l104 307 36 14 c20 8 49 31 65 52 25 34 29 47 29 105 0 57 -4 72 -27 102 -39 51 -88 71 -159 66 -62 -5 -97 -23 -132 -70 -23 -31 -34 -115 -19 -156 10 -28 7 -33 -62 -101 l-73 -72 -6 98 c-4 54 -7 140 -7 192 l0 94 39 34 c47 40 65 88 59 155 -9 87 -65 139 -157 146 -51 4 -67 1 -105 -22 -78 -45 -107 -141 -66 -220 l19 -38 -46 -169 c-25 -93 -49 -169 -52 -169 -4 0 -29 76 -57 168 -49 167 -50 168 -32 198 27 43 24 132 -5 175 -37 55 -81 79 -147 79 -43 0 -65 -6 -91 -23z"/>
    </g>
    <g transform="translate(0.000000,200.000000) scale(0.100000,-0.100000)" fill="#050505" stroke="none">
      <path d="M679 1777 c-55 -37 -79 -81 -79 -146 0 -64 21 -106 69 -142 31 -23 31 -24 31 -114 0 -51 -3 -140 -7 -199 l-6 -107 -78 77 c-63 63 -76 81 -68 95 5 10 9 42 9 72 0 99 -70 167 -170 167 -66 0 -110 -24 -147 -79 -27 -40 -31 -126 -8 -170 17 -34 68 -79 98 -87 19 -4 38 -51 129 -319 l106 -315 -46 -25 c-90 -50 -125 -122 -120 -248 l3 -72 605 0 605 0 3 72 c2 40 -2 90 -7 111 -14 51 -57 105 -104 132 -21 12 -37 27 -34 34 2 6 51 149 108 318 l104 307 36 14 c20 8 49 31 65 52 25 34 29 47 29 105 0 57 -4 72 -27 102 -39 51 -88 71 -159 66 -62 -5 -97 -23 -132 -70 -23 -31 -34 -115 -19 -156 10 -28 7 -33 -62 -101 l-73 -72 -6 98 c-4 54 -7 140 -7 192 l0 94 39 34 c47 40 65 88 59 155 -9 87 -65 139 -157 146 -51 4 -67 1 -105 -22 -78 -45 -107 -141 -66 -220 l19 -38 -46 -169 c-25 -93 -49 -169 -52 -169 -4 0 -29 76 -57 168 -49 167 -50 168 -32 198 27 43 24 132 -5 175 -37 55 -81 79 -147 79 -43 0 -65 -6 -91 -23z m152 -34 c4 -4 -11 -7 -34 -5 -81 6 -146 -67 -133 -147 4 -24 2 -31 -5 -24 -6 6 -13 28 -15 49 -10 79 61 150 140 140 21 -2 42 -8 47 -13z m469 3 c23 -13 22 -14 -20 -9 -81 8 -146 -57 -138 -138 2 -22 0 -35 -5 -30 -5 5 -11 29 -14 53 -9 96 95 169 177 124z m-129 -291 c-10 -28 -40 -125 -67 -217 -48 -165 -49 -168 -76 -168 -16 0 -28 5 -28 10 0 6 8 10 19 10 14 0 21 11 29 43 16 62 111 367 118 379 4 5 10 6 15 1 5 -5 1 -30 -10 -58z m-409 -222 c-3 -207 -6 -239 -20 -249 -11 -9 -20 -9 -27 -3 -7 7 -4 15 8 23 15 12 17 34 17 208 0 187 5 258 19 258 3 0 4 -107 3 -237z m-320 189 c7 -7 -2 -9 -28 -6 -80 10 -149 -58 -142 -139 3 -33 2 -36 -9 -21 -32 44 -1 134 58 166 35 20 101 20 121 0z m1248 3 c24 -13 23 -13 -16 -8 -81 11 -144 -46 -144 -131 0 -37 -3 -47 -10 -36 -15 24 -12 103 6 129 38 54 112 75 164 46z m-140 -223 c0 -25 -212 -233 -227 -224 -9 5 23 43 97 117 61 60 110 116 110 123 0 7 5 10 10 7 6 -3 10 -14 10 -23z m-1042 -365 c95 -283 109 -328 97 -316 -10 10 -213 619 -207 619 4 0 53 -136 110 -303z m681 -327 c126 -11 214 -31 273 -61 53 -27 48 -32 -8 -7 -180 79 -730 72 -895 -12 -41 -22 -87 -71 -94 -103 -8 -35 -13 -70 -14 -94 -1 -34 -21 -28 -21 7 0 99 40 174 111 211 111 56 390 82 648 59z"/>
    </g>
    <g transform="translate(0.000000,200.000000) scale(0.100000,-0.100000)" fill="#6c6c6c" stroke="none">
      <path d="M736 1750 c-63 -19 -109 -97 -87 -150 9 -24 10 -24 10 8 2 73 57 132 125 133 32 0 37 2 21 9 -25 11 -32 11 -69 0z M1201 1742 c-19 -9 -43 -28 -53 -42 -22 -31 -35 -90 -19 -90 6 0 11 7 11 16 0 30 30 80 59 97 16 9 46 17 68 18 30 0 34 2 18 9 -30 13 -47 12 -84 -8z M1165 1500 c-4 -6 -35 -102 -69 -213 -39 -125 -67 -201 -74 -199 -7 1 -12 -3 -12 -9 0 -6 10 -9 21 -7 18 3 28 23 60 133 22 72 51 167 65 213 24 74 28 113 9 82z M747 1378 c-2 -51 -6 -154 -6 -228 -2 -105 -5 -138 -17 -151 -9 -10 -11 -20 -6 -23 26 -16 33 30 39 258 6 235 1 319 -10 144z M340 1429 c-61 -24 -97 -89 -81 -144 l9 -30 1 35 c1 19 7 46 14 60 18 35 74 70 116 71 29 0 32 2 16 9 -26 11 -44 11 -75 -1z M1581 1422 c-39 -20 -71 -73 -71 -117 1 -26 3 -24 18 20 21 60 65 95 126 96 35 1 38 2 16 9 -39 12 -52 11 -89 -8z M1422 1093 c-55 -59 -99 -110 -96 -112 5 -5 220 200 223 212 5 28 -40 -8 -127 -100z M526 750 c3 -14 11 -32 16 -40 6 -10 7 -7 2 10 -3 14 -11 32 -16 40 -6 10 -7 7 -2 -10z M561 650 c0 -8 4 -22 9 -30 12 -18 12 -2 0 25 -6 13 -9 15 -9 5z M708 496 c-152 -27 -219 -62 -248 -129 -20 -45 -24 -71 -20 -127 2 -26 5 -18 11 29 18 140 106 196 348 221 175 17 343 13 561 -15 23 -3 16 1 -20 11 -77 22 -522 29 -632 10z"/>
    </g>
  </g>
</svg>
