<svg xmlns="http://www.w3.org/2000/svg" viewBox="0 0 200 200" role="img" aria-labelledby="title">
  <title id="title">Modern Walnut Other White Bishop</title>
  <g shape-rendering="geometricPrecision">
    <g transform="translate(0.000000,200.000000) scale(0.100000,-0.100000)" fill="#151515" stroke="none">
      <path d="M909 1857 c-55 -37 -79 -81 -79 -146 0 -38 6 -66 20 -89 l20 -33 -26 -23 -27 -22 41 -60 c88 -129 149 -272 176 -412 l14 -72 -58 0 -57 0 -17 63 c-34 123 -138 311 -204 370 -20 19 -21 18 -68 -45 -101 -135 -138 -255 -137 -433 1 -138 23 -237 78 -352 18 -40 31 -74 27 -76 -4 -3 -25 -10 -47 -17 -71 -23 -125 -67 -152 -126 -20 -45 -23 -65 -21 -136 l3 -83 605 0 605 0 3 83 c2 71 -1 91 -21 136 -27 59 -81 103 -152 126 -22 7 -43 15 -47 17 -4 2 5 30 21 61 119 236 115 531 -10 737 -58 95 -168 204 -256 254 -12 6 -12 13 6 42 30 48 29 134 -2 180 -37 55 -81 79 -147 79 -43 0 -65 -6 -91 -23z"/>
    </g>
    <g transform="translate(0.000000,200.000000) scale(0.100000,-0.100000)" fill="#050505" stroke="none">
      <path d="M903 1851 c-23 -17 -49 -44 -58 -60 -21 -42 -19 -119 4 -165 l20 -38 -26 -22 -25 -22 53 -79 c83 -124 142 -272 172 -432 l7 -33 -59 0 -58 0 -17 63 c-34 123 -138 311 -204 370 -20 19 -21 18 -68 -45 -101 -135 -138 -255 -137 -433 1 -137 21 -229 74 -341 18 -38 33 -73 33 -78 1 -5 -19 -16 -44 -24 -76 -25 -129 -68 -157 -128 -20 -45 -23 -65 -21 -136 l3 -83 605 0 605 0 3 83 c2 71 -1 91 -21 136 -27 59 -81 103 -152 126 -22 7 -43 15 -47 17 -4 2 5 30 21 61 119 236 115 531 -10 737 -58 95 -168 204 -256 254 -12 6 -12 13 6 42 30 48 29 135 -1 179 -38 55 -71 74 -141 78 -57 3 -66 1 -104 -27z m159 -29 c7 -7 -3 -9 -29 -5 -95 13 -168 -81 -133 -171 14 -39 1 -31 -16 9 -19 46 -18 73 4 114 25 46 76 74 126 67 21 -2 43 -9 48 -14z m-33 -275 c48 1 70 -2 63 -9 -16 -16 -88 -21 -123 -9 -26 9 -37 8 -55 -4 -17 -11 -24 -11 -27 -2 -6 18 25 37 48 29 11 -4 53 -6 94 -5z m2 -266 c54 -129 99 -340 73 -341 -5 -1 -48 -3 -96 -5 -53 -2 -88 0 -88 5 0 10 35 13 115 11 61 -2 63 2 49 103 -14 91 -49 203 -91 291 -13 28 -17 41 -9 31 9 -10 30 -53 47 -95z m-350 34 c-127 -177 -147 -446 -51 -680 16 -38 23 -61 15 -51 -42 56 -84 212 -92 342 -9 154 24 279 105 402 24 36 39 49 45 43 7 -7 0 -25 -22 -56z m508 -805 c126 -11 214 -31 273 -61 53 -27 48 -32 -8 -7 -180 79 -730 72 -895 -12 -41 -22 -87 -71 -94 -103 -8 -35 -13 -70 -14 -94 -1 -34 -21 -28 -21 7 0 99 40 174 111 211 111 56 390 82 648 59z"/>
    </g>
    <g transform="translate(0.000000,200.000000) scale(0.100000,-0.100000)" fill="#6c6c6c" stroke="none">
      <path d="M951 1824 c-19 -8 -40 -22 -47 -32 -22 -28 -33 -80 -24 -109 7 -25 8 -23 9 16 1 38 7 49 41 83 34 31 48 38 83 39 33 0 38 2 22 9 -29 12 -45 11 -84 -6z M895 1539 c-12 -19 5 -23 22 -6 16 16 16 17 1 17 -9 0 -20 -5 -23 -11z M1005 1540 l-50 -5 37 -7 c20 -4 53 -2 73 3 61 17 41 20 -60 9z M660 1325 c-71 -103 -110 -238 -108 -370 0 -54 2 -50 14 45 19 139 56 239 121 326 25 34 28 44 13 44 -5 0 -23 -20 -40 -45z M1042 1235 c0 -5 6 -26 13 -45 7 -19 14 -28 14 -20 0 8 -6 29 -14 45 -7 17 -13 26 -13 20z M1073 1130 c3 -14 11 -56 17 -94 9 -55 8 -71 -2 -77 -7 -5 -48 -9 -90 -9 -50 0 -78 -4 -78 -11 0 -6 7 -8 16 -5 9 3 51 6 95 6 l79 0 0 29 c0 35 -28 173 -37 180 -3 3 -3 -5 0 -19z M561 859 c1 -19 5 -47 10 -64 5 -20 6 -9 2 30 -6 66 -14 88 -12 34z M582 750 c0 -8 6 -31 13 -50 7 -19 13 -28 13 -20 0 8 -6 31 -13 50 -7 19 -13 28 -13 20z M708 496 c-152 -27 -219 -62 -248 -129 -20 -45 -24 -71 -20 -127 2 -26 5 -18 11 29 18 140 106 196 348 221 175 17 343 13 561 -15 23 -3 16 1 -20 11 -77 22 -522 29 -632 10z"/>
    </g>
  </g>
</svg>
