<svg xmlns="http://www.w3.org/2000/svg" viewBox="0 0 200 200" role="img" aria-labelledby="title">
  <title id="title">Modern Walnut Other White Knight</title>
  <g shape-rendering="geometricPrecision">
    <g transform="translate(0.000000,200.000000) scale(0.100000,-0.100000)" fill="#151515" stroke="none">
      <path d="M690 1810 c-6 -11 -13 -63 -17 -115 -5 -81 -9 -98 -25 -106 -41 -22 -100 -85 -122 -128 -13 -25 -40 -90 -60 -144 -46 -119 -74 -171 -126 -230 -34 -39 -40 -52 -40 -91 0 -98 41 -140 158 -165 29 -6 66 -18 82 -26 l29 -15 56 69 c54 67 56 68 111 75 73 8 106 26 183 99 60 58 64 60 77 42 16 -22 18 -63 5 -97 -14 -37 -87 -104 -191 -176 -160 -111 -240 -199 -240 -264 0 -18 -13 -30 -53 -51 -94 -50 -130 -122 -125 -250 l3 -72 605 0 605 0 3 72 c3 88 -9 137 -45 186 -30 39 -122 92 -180 103 l-34 6 36 36 c75 76 143 201 170 316 20 82 19 234 -1 315 -60 244 -261 412 -545 456 -24 4 -63 28 -125 78 -49 41 -99 79 -111 85 -33 18 -71 15 -83 -8z"/>
    </g>
    <g transform="translate(0.000000,200.000000) scale(0.100000,-0.100000)" fill="#050505" stroke="none">
      <path d="M690 1810 c-6 -11 -13 -63 -17 -115 -5 -81 -9 -98 -25 -106 -41 -22 -100 -85 -122 -128 -13 -25 -40 -90 -60 -144 -46 -119 -74 -171 -126 -230 -34 -39 -40 -52 -40 -91 0 -98 41 -140 158 -165 29 -6 66 -18 82 -26 l29 -15 56 69 c54 67 56 68 111 75 73 8 106 26 183 99 60 58 64 60 77 42 16 -22 18 -63 5 -97 -14 -37 -87 -104 -191 -176 -160 -111 -240 -199 -240 -264 0 -18 -13 -30 -53 -51 -94 -50 -130 -122 -125 -250 l3 -72 605 0 605 0 3 72 c3 88 -9 137 -45 186 -30 39 -122 92 -180 103 l-34 6 36 36 c75 76 143 201 170 316 20 82 19 234 -1 315 -60 244 -261 412 -545 456 -24 4 -63 28 -125 78 -49 41 -99 79 -111 85 -33 18 -71 15 -83 -8z m174 -119 c77 -64 105 -81 130 -81 98 0 280 -79 366 -160 l55 -52 -54 46 c-30 25 -80 59 -110 75 -58 31 -195 71 -241 71 -31 0 -79 30 -160 100 -69 59 -105 82 -113 73 -4 -3 -7 -52 -7 -107 l0 -101 -45 -24 c-81 -43 -93 -62 -189 -305 -22 -55 -56 -116 -90 -160 -29 -39 -56 -80 -59 -91 -3 -14 -5 -11 -6 10 -1 22 11 45 44 84 51 63 91 140 136 264 42 118 82 175 146 212 l52 30 1 92 c0 50 3 98 6 107 8 21 20 14 138 -83z m195 -729 c-17 -60 -79 -123 -219 -222 -129 -92 -176 -133 -200 -179 -12 -23 -19 -29 -20 -18 -1 52 48 101 224 227 136 97 192 156 209 218 6 24 13 38 15 32 2 -6 -2 -33 -9 -58z m251 -466 c97 -17 170 -49 206 -89 23 -26 24 -28 4 -10 -67 58 -190 87 -425 98 -216 10 -449 -16 -540 -62 -69 -35 -101 -81 -115 -171 l-9 -57 4 67 c5 73 19 111 57 144 52 48 150 78 303 94 116 11 418 3 515 -14z"/>
    </g>
    <g transform="translate(0.000000,200.000000) scale(0.100000,-0.100000)" fill="#6c6c6c" stroke="none">
      <path d="M730 1782 c0 -6 9 -12 20 -15 11 -3 20 -3 20 -1 0 2 -9 8 -20 14 -11 6 -20 7 -20 2z M722 1730 c0 -19 2 -27 5 -17 2 9 2 25 0 35 -3 9 -5 1 -5 -18z M850 1696 c0 -2 8 -10 18 -17 15 -13 16 -12 3 4 -13 16 -21 21 -21 13z M915 1640 c10 -11 20 -20 23 -20 3 0 -3 9 -13 20 -10 11 -20 20 -23 20 -3 0 3 -9 13 -20z M957 1609 c5 -5 29 -12 54 -15 72 -9 160 -35 222 -66 31 -15 57 -26 57 -23 0 9 -115 63 -170 78 -71 21 -174 37 -163 26z M665 1544 c-63 -37 -91 -79 -151 -232 -40 -101 -71 -164 -111 -219 -66 -93 -81 -125 -28 -63 72 85 91 123 170 330 31 81 86 150 141 176 19 9 34 20 34 25 0 13 -10 10 -55 -17z M1310 1486 c0 -2 8 -10 18 -17 15 -13 16 -12 3 4 -13 16 -21 21 -21 13z M1047 969 c-11 -43 -84 -116 -191 -191 -174 -123 -236 -184 -236 -229 0 -8 8 0 19 16 27 44 104 113 206 183 139 95 222 185 213 229 -3 14 -6 12 -11 -8z M885 513 c-282 -12 -424 -71 -440 -183 -4 -30 -4 -31 4 -9 39 118 166 164 481 175 282 11 492 -20 572 -82 l33 -26 -31 30 c-38 36 -132 68 -234 81 -90 11 -288 19 -385 14z M432 250 c0 -19 2 -27 5 -17 2 9 2 25 0 35 -3 9 -5 1 -5 -18z"/>
    </g>
  </g>
</svg>
