<svg xmlns="http://www.w3.org/2000/svg" viewBox="0 0 200 200" role="img" aria-labelledby="title">
  <title id="title">Modern Walnut Kopie Other White Knight</title>
  <g shape-rendering="geometricPrecision">
    <g transform="translate(0.000000,200.000000) scale(0.100000,-0.100000)" fill="#151515" stroke="none">
      <path d="M690 1810 c-6 -11 -13 -63 -17 -115 -5 -81 -9 -98 -25 -106 -41 -22 -100 -85 -122 -128 -13 -25 -40 -90 -60 -144 -46 -119 -74 -171 -126 -230 -34 -39 -40 -52 -40 -91 0 -98 41 -140 158 -165 29 -6 66 -18 82 -26 l29 -15 56 69 c54 67 56 68 111 75 73 8 106 26 183 99 60 58 64 60 77 42 16 -22 18 -63 5 -97 -14 -37 -87 -104 -191 -176 -160 -111 -240 -199 -240 -264 0 -18 -13 -30 -53 -51 -94 -50 -130 -122 -125 -250 l3 -72 605 0 605 0 3 72 c3 88 -9 137 -45 186 -30 39 -122 92 -180 103 l-34 6 36 36 c75 76 143 201 170 316 20 82 19 234 -1 315 -60 244 -261 412 -545 456 -24 4 -63 28 -125 78 -49 41 -99 79 -111 85 -33 18 -71 15 -83 -8z"/>
    </g>
    <g transform="translate(0.000000,200.000000) scale(0.100000,-0.100000)" fill="#050505" stroke="none">
      <path d="M690 1810 c-6 -11 -13 -63 -17 -115 -5 -81 -9 -98 -25 -106 -41 -22 -100 -85 -122 -128 -13 -25 -40 -90 -60 -144 -46 -119 -74 -171 -126 -230 -34 -39 -40 -52 -40 -91 0 -98 41 -140 158 -165 29 -6 66 -18 82 -26 l29 -15 56 69 c54 67 56 68 111 75 73 8 106 26 183 99 60 58 64 60 77 42 16 -22 18 -63 5 -97 -14 -37 -87 -104 -191 -176 -160 -111 -240 -199 -240 -264 0 -18 -13 -30 -53 -51 -94 -50 -130 -122 -125 -250 l3 -72 605 0 605 0 3 72 c3 88 -9 137 -45 186 -30 39 -122 92 -180 103 l-34 6 36 36 c75 76 143 201 170 316 20 82 19 234 -1 315 -60 244 -261 412 -545 456 -24 4 -63 28 -125 78 -49 41 -99 79 -111 85 -33 18 -71 15 -83 -8z m160 -105 c73 -59 115 -87 140 -91 193 -30 347 -109 422 -217 15 -21 0 -11 -45 31 -38 34 -94 75 -126 92 -63 31 -197 70 -242 70 -18 0 -48 16 -84 45 -30 25 -81 66 -112 91 -69 56 -71 53 -72 -81 l-1 -90 -53 -32 c-66 -40 -98 -84 -138 -193 -43 -120 -91 -216 -140 -280 -32 -41 -42 -63 -41 -90 0 -28 -1 -31 -8 -15 -17 39 -10 74 19 107 53 61 91 131 143 267 44 114 60 143 98 181 25 25 60 53 78 62 l32 17 0 99 c0 91 4 112 19 112 4 0 53 -38 111 -85z m219 -698 c2 -78 -54 -143 -241 -278 -129 -93 -198 -161 -198 -196 0 -7 -4 -13 -10 -13 -29 0 8 76 61 126 24 23 102 83 172 134 71 51 142 110 158 132 33 47 51 101 44 137 -5 23 -4 23 4 6 5 -11 10 -33 10 -48z m230 -507 c102 -17 172 -46 211 -87 35 -36 35 -36 3 -11 -76 61 -237 90 -503 90 -200 0 -309 -12 -408 -43 -106 -35 -153 -93 -154 -189 0 -28 -4 -50 -9 -50 -16 0 -9 104 10 145 44 96 133 134 366 159 71 7 418 -3 484 -14z"/>
    </g>
    <g transform="translate(0.000000,200.000000) scale(0.100000,-0.100000)" fill="#6c6c6c" stroke="none">
      <path d="M727 1783 c-4 -3 -7 -51 -7 -105 l0 -98 -42 -26 c-85 -53 -113 -92 -165 -237 -36 -102 -85 -194 -132 -251 -30 -35 -41 -56 -40 -80 1 -20 3 -24 6 -12 3 11 29 50 58 89 52 68 74 112 135 273 39 105 78 157 140 192 l50 27 0 92 c0 50 3 99 6 108 6 14 9 14 33 -2 14 -9 66 -50 114 -90 63 -52 96 -73 116 -73 52 0 182 -39 252 -76 39 -21 91 -57 115 -82 24 -24 44 -40 44 -35 0 21 -116 115 -186 151 -47 24 -184 62 -223 62 -33 0 -66 21 -171 109 -86 73 -92 76 -103 64z M1051 986 c-19 -64 -83 -128 -231 -232 -118 -83 -183 -145 -201 -191 -17 -45 -3 -50 19 -7 26 50 70 91 194 177 174 121 244 203 236 274 -3 24 -5 22 -17 -21z M780 509 c-97 -11 -187 -32 -236 -55 -73 -35 -115 -111 -113 -204 1 -46 3 -43 20 48 28 145 175 196 559 195 277 -1 429 -28 506 -91 11 -9 4 -1 -17 18 -39 38 -102 62 -209 80 -90 15 -407 21 -510 9z"/>
    </g>
  </g>
</svg>
