<svg xmlns="http://www.w3.org/2000/svg" viewBox="0 0 200 200" role="img" aria-labelledby="title">
  <title id="title">Modern Walnut Kopie Other White Bishop</title>
  <g shape-rendering="geometricPrecision">
    <g transform="translate(0.000000,200.000000) scale(0.100000,-0.100000)" fill="#151515" stroke="none">
      <path d="M909 1857 c-55 -37 -79 -81 -79 -146 0 -38 6 -66 20 -89 l20 -33 -26 -23 -27 -22 41 -60 c88 -129 149 -272 176 -412 l14 -72 -58 0 -57 0 -17 63 c-34 123 -138 311 -204 370 -20 19 -21 18 -68 -45 -101 -135 -138 -255 -137 -433 1 -138 23 -237 78 -352 18 -40 31 -74 27 -76 -4 -3 -25 -10 -47 -17 -71 -23 -125 -67 -152 -126 -20 -45 -23 -65 -21 -136 l3 -83 605 0 605 0 3 83 c2 71 -1 91 -21 136 -27 59 -81 103 -152 126 -22 7 -43 15 -47 17 -4 2 5 30 21 61 119 236 115 531 -10 737 -58 95 -168 204 -256 254 -12 6 -12 13 6 42 30 48 29 134 -2 180 -37 55 -81 79 -147 79 -43 0 -65 -6 -91 -23z"/>
    </g>
    <g transform="translate(0.000000,200.000000) scale(0.100000,-0.100000)" fill="#050505" stroke="none">
      <path d="M909 1857 c-55 -37 -79 -81 -79 -146 0 -38 6 -66 20 -89 l20 -33 -26 -22 -26 -23 47 -70 c84 -125 143 -264 169 -402 l14 -72 -58 0 -57 0 -17 63 c-34 123 -138 311 -204 370 -20 19 -21 18 -68 -45 -101 -135 -138 -255 -137 -433 1 -138 23 -237 78 -352 18 -40 31 -74 27 -76 -4 -3 -25 -10 -47 -17 -71 -23 -125 -67 -152 -126 -20 -45 -23 -65 -21 -136 l3 -83 605 0 605 0 3 83 c2 71 -1 91 -21 136 -27 59 -81 103 -152 126 -22 7 -43 15 -47 17 -4 2 5 30 21 61 119 236 115 531 -10 737 -58 95 -168 204 -256 254 -12 6 -12 13 6 42 30 48 29 134 -2 180 -37 55 -81 79 -147 79 -43 0 -65 -6 -91 -23z m159 -37 c39 -24 43 -34 5 -14 -99 51 -212 -57 -169 -160 19 -45 12 -46 -14 -3 -70 115 62 247 178 177z m-86 -277 c20 -3 51 0 69 6 28 10 37 8 73 -13 23 -14 57 -39 76 -56 l35 -32 -40 30 c-61 45 -99 62 -116 51 -18 -11 -100 -11 -118 0 -9 6 -23 5 -37 -1 l-22 -10 33 -52 c89 -139 155 -308 174 -446 7 -56 7 -76 -2 -82 -17 -11 -185 -10 -191 1 -9 15 21 21 101 21 l76 0 -7 65 c-14 134 -90 334 -176 462 -30 44 -31 48 -14 60 10 7 25 11 34 7 8 -3 32 -8 52 -11z m-300 -230 c-135 -211 -147 -483 -31 -716 16 -33 23 -55 16 -48 -20 16 -73 135 -93 206 -20 75 -29 262 -16 335 15 80 47 159 93 230 29 45 43 60 51 52 8 -8 2 -25 -20 -59z m617 -813 c78 -13 170 -45 190 -65 11 -10 0 -9 -40 6 -95 37 -209 50 -429 50 -304 0 -457 -32 -520 -109 -32 -39 -40 -67 -49 -170 0 -7 -5 -10 -11 -7 -17 10 -11 107 9 150 44 96 133 134 366 159 71 7 418 -3 484 -14z"/>
    </g>
    <g transform="translate(0.000000,200.000000) scale(0.100000,-0.100000)" fill="#6c6c6c" stroke="none">
      <path d="M933 1820 c-58 -35 -79 -110 -48 -170 20 -39 27 -38 13 0 -33 95 67 195 162 162 38 -14 39 -7 0 13 -40 21 -89 19 -127 -5z M897 1547 c-15 -10 -15 -15 -5 -27 7 -8 12 -13 11 -11 -2 2 5 10 15 17 14 9 28 10 59 1 46 -12 122 0 113 18 -3 6 -14 8 -25 6 -33 -8 -109 -7 -131 2 -12 4 -27 2 -37 -6z M1110 1536 c0 -3 9 -10 20 -16 11 -6 20 -8 20 -6 0 3 -9 10 -20 16 -11 6 -20 8 -20 6z M965 1398 c65 -121 125 -313 125 -404 0 -37 0 -37 -73 -34 -58 2 -109 -8 -101 -21 6 -10 163 -13 186 -4 18 7 8 103 -22 214 -22 78 -104 260 -134 296 -10 11 -1 -10 19 -47z M662 1338 c-103 -150 -137 -339 -96 -536 18 -86 66 -211 95 -245 18 -20 18 -19 -1 14 -11 20 -31 68 -44 107 -75 219 -54 451 55 618 29 45 39 68 32 75 -8 8 -20 -3 -41 -33z M785 510 c-262 -30 -355 -98 -355 -257 0 -23 5 -45 10 -48 6 -3 10 5 10 19 0 14 5 48 11 76 31 143 178 194 559 193 220 -1 356 -17 437 -53 24 -10 43 -17 43 -14 0 13 -119 57 -188 70 -96 17 -420 26 -527 14z"/>
    </g>
  </g>
</svg>
