<svg xmlns="http://www.w3.org/2000/svg" viewBox="0 0 200 200" role="img" aria-labelledby="title">
  <title id="title">Modern White Pawn</title>
  <g shape-rendering="geometricPrecision">
    <g transform="translate(0.000000,200.000000) scale(0.100000,-0.100000)" fill="#151515" stroke="none">
      <path d="M890 1549 c-179 -81 -217 -320 -72 -451 23 -21 42 -41 42 -46 0 -4 -30 -16 -67 -26 -38 -11 -81 -25 -96 -33 -64 -32 -38 -73 64 -100 61 -15 69 -20 69 -41 0 -44 -51 -128 -147 -243 -165 -196 -201 -266 -188 -360 l7 -49 498 0 498 0 7 49 c13 94 -23 164 -188 360 -96 115 -147 199 -147 243 0 21 8 26 69 41 102 27 128 68 64 100 -15 8 -58 22 -95 33 -38 10 -68 22 -68 26 0 5 19 25 42 46 145 131 107 370 -72 451 -30 14 -66 21 -110 21 -44 0 -80 -7 -110 -21z m198 -45 c111 -46 165 -186 113 -299 -17 -39 -81 -105 -101 -105 -17 0 -11 -56 8 -79 10 -13 48 -31 91 -45 l75 -22 -50 -13 c-106 -28 -99 -22 -99 -82 0 -78 37 -144 172 -306 120 -144 163 -216 163 -270 l0 -33 -460 0 -460 0 0 33 c0 54 43 126 163 270 135 162 172 228 172 306 0 60 7 54 -99 82 l-50 13 75 22 c43 14 81 32 92 45 18 23 24 79 7 79 -20 0 -84 66 -101 105 -36 79 -19 187 39 249 58 62 169 84 250 50z"/>
    </g>
    <g transform="translate(0.000000,200.000000) scale(0.100000,-0.100000)" fill="#050505" stroke="none">
      <path d="M890 1549 c-179 -81 -217 -320 -72 -451 23 -21 42 -41 42 -46 0 -4 -30 -16 -67 -26 -38 -11 -81 -25 -96 -33 -64 -32 -38 -73 64 -100 61 -15 69 -20 69 -41 0 -44 -51 -128 -147 -243 -165 -196 -201 -266 -188 -360 l7 -49 498 0 498 0 7 49 c13 94 -23 164 -188 360 -96 115 -147 199 -147 243 0 21 8 26 69 41 102 27 128 68 64 100 -15 8 -58 22 -95 33 -38 10 -68 22 -68 26 0 5 19 25 42 46 145 131 107 370 -72 451 -30 14 -66 21 -110 21 -44 0 -80 -7 -110 -21z m198 -45 c111 -46 165 -186 113 -299 -17 -39 -81 -105 -101 -105 -17 0 -11 -56 8 -79 10 -13 48 -31 91 -45 l75 -22 -50 -13 c-106 -28 -99 -22 -99 -82 0 -78 37 -144 172 -306 120 -144 163 -216 163 -270 l0 -33 -460 0 -460 0 0 33 c0 54 43 126 163 270 135 162 172 228 172 306 0 60 7 54 -99 82 l-50 13 75 22 c43 14 81 32 92 45 18 23 24 79 7 79 -20 0 -84 66 -101 105 -36 79 -19 187 39 249 58 62 169 84 250 50z"/>
    </g>
  </g>
</svg>
