<svg xmlns="http://www.w3.org/2000/svg" viewBox="0 0 200 200" role="img" aria-labelledby="title">
  <title id="title">Modern White Knight</title>
  <g shape-rendering="geometricPrecision">
    <g transform="translate(0.000000,200.000000) scale(0.100000,-0.100000)" fill="#151515" stroke="none">
      <path d="M690 1810 c-6 -11 -13 -63 -17 -115 -5 -81 -9 -98 -25 -106 -41 -22 -100 -85 -122 -128 -13 -25 -40 -90 -60 -144 -46 -119 -74 -171 -126 -230 -34 -39 -40 -52 -40 -91 0 -98 41 -140 158 -165 29 -6 66 -18 82 -26 l29 -15 56 69 c54 67 56 68 111 75 73 8 106 26 183 99 60 58 64 60 77 42 16 -22 18 -63 5 -97 -14 -37 -87 -104 -191 -176 -160 -111 -240 -199 -240 -264 0 -18 -13 -30 -53 -51 -94 -50 -130 -122 -125 -250 l3 -72 605 0 605 0 3 72 c3 88 -9 137 -45 186 -30 39 -122 92 -180 103 l-34 6 36 36 c75 76 143 201 170 316 20 82 19 234 -1 315 -60 244 -261 412 -545 456 -24 4 -63 28 -125 78 -49 41 -99 79 -111 85 -33 18 -71 15 -83 -8z m160 -114 c90 -74 107 -84 153 -90 251 -33 444 -192 502 -411 20 -77 19 -230 -1 -309 -25 -98 -80 -200 -149 -274 l-63 -68 -59 7 c-99 12 -393 9 -503 -5 -58 -8 -107 -13 -108 -11 -2 2 -1 13 3 26 12 38 86 109 190 182 195 137 245 194 245 281 0 40 -33 114 -55 122 -20 8 -52 -12 -126 -81 -70 -66 -110 -85 -184 -85 -37 0 -44 -5 -78 -49 -57 -74 -55 -73 -132 -56 -116 27 -135 43 -135 111 0 26 11 48 44 88 48 59 81 123 126 245 53 144 89 194 170 236 29 15 30 18 30 89 0 81 8 136 21 136 4 0 53 -38 109 -84z m490 -1211 c89 -21 135 -43 172 -82 36 -37 48 -73 48 -139 l0 -54 -560 0 -560 0 0 54 c0 124 62 186 220 220 111 23 125 24 375 21 179 -1 247 -6 305 -20z"/>
    </g>
    <g transform="translate(0.000000,200.000000) scale(0.100000,-0.100000)" fill="#050505" stroke="none">
      <path d="M690 1810 c-6 -11 -13 -63 -17 -115 -5 -81 -9 -98 -25 -106 -41 -22 -100 -85 -122 -128 -13 -25 -40 -90 -60 -144 -46 -119 -74 -171 -126 -230 -34 -39 -40 -52 -40 -91 0 -98 41 -140 158 -165 29 -6 66 -18 82 -26 l29 -15 56 69 c54 67 56 68 111 75 73 8 106 26 183 99 60 58 64 60 77 42 16 -22 18 -63 5 -97 -14 -37 -87 -104 -191 -176 -160 -111 -240 -199 -240 -264 0 -18 -13 -30 -53 -51 -94 -50 -130 -122 -125 -250 l3 -72 605 0 605 0 3 72 c3 88 -9 137 -45 186 -30 39 -122 92 -180 103 l-34 6 36 36 c75 76 143 201 170 316 20 82 19 234 -1 315 -60 244 -261 412 -545 456 -24 4 -63 28 -125 78 -49 41 -99 79 -111 85 -33 18 -71 15 -83 -8z m160 -114 c90 -74 107 -84 153 -90 251 -33 444 -192 502 -411 20 -77 19 -230 -1 -309 -25 -98 -80 -200 -149 -274 l-63 -68 -59 7 c-99 12 -393 9 -503 -5 -58 -8 -107 -13 -108 -11 -2 2 -1 13 3 26 12 38 86 109 190 182 195 137 245 194 245 281 0 40 -33 114 -55 122 -20 8 -52 -12 -126 -81 -70 -66 -110 -85 -184 -85 -37 0 -44 -5 -78 -49 -57 -74 -55 -73 -132 -56 -116 27 -135 43 -135 111 0 26 11 48 44 88 48 59 81 123 126 245 53 144 89 194 170 236 29 15 30 18 30 89 0 81 8 136 21 136 4 0 53 -38 109 -84z m490 -1211 c89 -21 135 -43 172 -82 36 -37 48 -73 48 -139 l0 -54 -560 0 -560 0 0 54 c0 124 62 186 220 220 111 23 125 24 375 21 179 -1 247 -6 305 -20z"/>
    </g>
  </g>
</svg>
