<svg xmlns="http://www.w3.org/2000/svg" viewBox="0 0 200 200" role="img" aria-labelledby="title">
  <title id="title">Modern White Queen</title>
  <g shape-rendering="geometricPrecision">
    <g transform="translate(0.000000,200.000000) scale(0.100000,-0.100000)" fill="#151515" stroke="none">
      <path d="M679 1777 c-55 -37 -79 -81 -79 -146 0 -64 21 -106 69 -142 31 -23 31 -24 31 -114 0 -51 -3 -140 -7 -199 l-6 -107 -78 77 c-63 63 -76 81 -68 95 5 10 9 42 9 72 0 99 -70 167 -170 167 -66 0 -110 -24 -147 -79 -27 -40 -31 -126 -8 -170 17 -34 68 -79 98 -87 19 -4 38 -51 129 -319 l106 -315 -46 -25 c-90 -50 -125 -122 -120 -248 l3 -72 605 0 605 0 3 72 c2 40 -2 90 -7 111 -14 51 -57 105 -104 132 -21 12 -37 27 -34 34 2 6 51 149 108 318 l104 307 36 14 c20 8 49 31 65 52 25 34 29 47 29 105 0 57 -4 72 -27 102 -39 51 -88 71 -159 66 -62 -5 -97 -23 -132 -70 -23 -31 -34 -115 -19 -156 10 -28 7 -33 -62 -101 l-73 -72 -6 98 c-4 54 -7 140 -7 192 l0 94 39 34 c47 40 65 88 59 155 -9 87 -65 139 -157 146 -51 4 -67 1 -105 -22 -78 -45 -107 -141 -66 -220 l19 -38 -46 -169 c-25 -93 -49 -169 -52 -169 -4 0 -29 76 -57 168 -49 167 -50 168 -32 198 27 43 24 132 -5 175 -37 55 -81 79 -147 79 -43 0 -65 -6 -91 -23z m177 -61 c30 -30 34 -40 34 -84 0 -39 -6 -57 -24 -79 -24 -27 -24 -28 -6 -73 9 -25 41 -125 71 -222 51 -171 54 -178 79 -178 25 0 28 7 89 203 81 261 77 241 52 273 -15 19 -21 41 -21 76 0 43 4 54 34 84 45 45 108 48 155 8 65 -54 59 -137 -14 -200 l-45 -39 6 -235 c6 -222 7 -236 27 -253 20 -18 22 -17 136 97 l114 115 -16 50 c-20 62 -9 109 34 145 88 75 219 -15 188 -128 -10 -36 -60 -86 -85 -86 -9 0 -21 -6 -28 -13 -7 -7 -62 -158 -122 -335 -87 -256 -112 -321 -124 -316 -43 16 -245 34 -390 34 -148 0 -374 -20 -388 -35 -3 -3 -55 139 -115 316 -60 177 -115 328 -122 335 -7 8 -21 14 -30 14 -9 0 -32 15 -51 34 -30 30 -34 40 -34 86 0 46 4 56 34 86 30 30 40 34 86 34 46 0 56 -4 86 -34 28 -28 34 -41 34 -77 0 -23 -5 -58 -12 -76 l-12 -33 114 -115 c152 -153 146 -159 155 156 7 217 6 237 -10 250 -74 60 -85 76 -85 129 0 46 4 56 34 86 30 30 40 34 86 34 46 0 56 -4 86 -34z m484 -1231 c89 -21 135 -43 172 -82 36 -37 48 -73 48 -139 l0 -54 -560 0 -560 0 0 54 c0 124 62 186 220 220 111 23 125 24 375 21 179 -1 247 -6 305 -20z"/>
    </g>
    <g transform="translate(0.000000,200.000000) scale(0.100000,-0.100000)" fill="#050505" stroke="none">
      <path d="M679 1777 c-55 -37 -79 -81 -79 -146 0 -64 21 -106 69 -142 31 -23 31 -24 31 -114 0 -51 -3 -140 -7 -199 l-6 -107 -78 77 c-63 63 -76 81 -68 95 5 10 9 42 9 72 0 99 -70 167 -170 167 -66 0 -110 -24 -147 -79 -27 -40 -31 -126 -8 -170 17 -34 68 -79 98 -87 19 -4 38 -51 129 -319 l106 -315 -46 -25 c-90 -50 -125 -122 -120 -248 l3 -72 605 0 605 0 3 72 c2 40 -2 90 -7 111 -14 51 -57 105 -104 132 -21 12 -37 27 -34 34 2 6 51 149 108 318 l104 307 36 14 c20 8 49 31 65 52 25 34 29 47 29 105 0 57 -4 72 -27 102 -39 51 -88 71 -159 66 -62 -5 -97 -23 -132 -70 -23 -31 -34 -115 -19 -156 10 -28 7 -33 -62 -101 l-73 -72 -6 98 c-4 54 -7 140 -7 192 l0 94 39 34 c47 40 65 88 59 155 -9 87 -65 139 -157 146 -51 4 -67 1 -105 -22 -78 -45 -107 -141 -66 -220 l19 -38 -46 -169 c-25 -93 -49 -169 -52 -169 -4 0 -29 76 -57 168 -49 167 -50 168 -32 198 27 43 24 132 -5 175 -37 55 -81 79 -147 79 -43 0 -65 -6 -91 -23z m177 -61 c30 -30 34 -40 34 -84 0 -39 -6 -57 -24 -79 -24 -27 -24 -28 -6 -73 9 -25 41 -125 71 -222 51 -171 54 -178 79 -178 25 0 28 7 89 203 81 261 77 241 52 273 -15 19 -21 41 -21 76 0 43 4 54 34 84 45 45 108 48 155 8 65 -54 59 -137 -14 -200 l-45 -39 6 -235 c6 -222 7 -236 27 -253 20 -18 22 -17 136 97 l114 115 -16 50 c-20 62 -9 109 34 145 88 75 219 -15 188 -128 -10 -36 -60 -86 -85 -86 -9 0 -21 -6 -28 -13 -7 -7 -62 -158 -122 -335 -87 -256 -112 -321 -124 -316 -43 16 -245 34 -390 34 -148 0 -374 -20 -388 -35 -3 -3 -55 139 -115 316 -60 177 -115 328 -122 335 -7 8 -21 14 -30 14 -9 0 -32 15 -51 34 -30 30 -34 40 -34 86 0 46 4 56 34 86 30 30 40 34 86 34 46 0 56 -4 86 -34 28 -28 34 -41 34 -77 0 -23 -5 -58 -12 -76 l-12 -33 114 -115 c152 -153 146 -159 155 156 7 217 6 237 -10 250 -74 60 -85 76 -85 129 0 46 4 56 34 86 30 30 40 34 86 34 46 0 56 -4 86 -34z m484 -1231 c89 -21 135 -43 172 -82 36 -37 48 -73 48 -139 l0 -54 -560 0 -560 0 0 54 c0 124 62 186 220 220 111 23 125 24 375 21 179 -1 247 -6 305 -20z"/>
    </g>
  </g>
</svg>
