<svg xmlns="http://www.w3.org/2000/svg" viewBox="0 0 200 200" role="img" aria-labelledby="title">
  <title id="title">Modern White Bishop</title>
  <g shape-rendering="geometricPrecision">
    <g transform="translate(0.000000,200.000000) scale(0.100000,-0.100000)" fill="#151515" stroke="none">
      <path d="M909 1857 c-18 -12 -44 -38 -56 -56 -31 -46 -32 -132 -2 -180 l21 -34 -27 -21 -26 -21 46 -70 c86 -128 154 -290 172 -413 l10 -62 -57 0 -56 0 -22 73 c-45 146 -176 367 -217 367 -18 0 -97 -111 -130 -181 -42 -94 -58 -175 -58 -299 0 -133 23 -237 78 -357 30 -66 32 -75 17 -79 -9 -3 -44 -19 -77 -35 -101 -49 -138 -119 -133 -252 l3 -72 605 0 605 0 3 72 c5 133 -32 203 -133 252 -33 16 -68 32 -77 35 -15 4 -13 13 17 79 55 120 78 224 78 357 0 133 -16 211 -68 315 -56 115 -146 212 -274 295 l-23 16 21 34 c30 49 29 135 -2 181 -37 55 -81 79 -147 79 -43 0 -65 -6 -91 -23z m177 -61 c30 -30 34 -40 34 -86 0 -46 -4 -56 -34 -86 -30 -30 -40 -34 -86 -34 -46 0 -56 4 -86 34 -30 30 -34 40 -34 86 0 75 45 120 120 120 46 0 56 -4 86 -34z m70 -290 c286 -191 372 -559 208 -894 l-35 -72 -67 7 c-87 10 -437 10 -524 0 l-67 -7 -35 72 c-115 233 -108 508 16 700 l41 63 33 -39 c46 -53 119 -204 146 -303 l23 -83 90 0 c50 0 96 4 103 9 11 7 12 23 2 87 -21 139 -83 301 -167 432 -18 29 -32 56 -29 60 2 4 49 7 104 6 99 0 101 -1 158 -38z m184 -1021 c89 -21 135 -43 172 -82 36 -37 48 -73 48 -139 l0 -54 -560 0 -560 0 0 54 c0 124 62 186 220 220 111 23 125 24 375 21 179 -1 247 -6 305 -20z"/>
    </g>
    <g transform="translate(0.000000,200.000000) scale(0.100000,-0.100000)" fill="#050505" stroke="none">
      <path d="M909 1857 c-18 -12 -44 -38 -56 -56 -31 -46 -32 -132 -2 -180 l21 -34 -27 -21 -26 -21 46 -70 c86 -128 154 -290 172 -413 l10 -62 -57 0 -56 0 -22 73 c-45 146 -176 367 -217 367 -18 0 -97 -111 -130 -181 -42 -94 -58 -175 -58 -299 0 -133 23 -237 78 -357 30 -66 32 -75 17 -79 -9 -3 -44 -19 -77 -35 -101 -49 -138 -119 -133 -252 l3 -72 605 0 605 0 3 72 c5 133 -32 203 -133 252 -33 16 -68 32 -77 35 -15 4 -13 13 17 79 55 120 78 224 78 357 0 133 -16 211 -68 315 -56 115 -146 212 -274 295 l-23 16 21 34 c30 49 29 135 -2 181 -37 55 -81 79 -147 79 -43 0 -65 -6 -91 -23z m177 -61 c30 -30 34 -40 34 -86 0 -46 -4 -56 -34 -86 -30 -30 -40 -34 -86 -34 -46 0 -56 4 -86 34 -30 30 -34 40 -34 86 0 75 45 120 120 120 46 0 56 -4 86 -34z m70 -290 c286 -191 372 -559 208 -894 l-35 -72 -67 7 c-87 10 -437 10 -524 0 l-67 -7 -35 72 c-115 233 -108 508 16 700 l41 63 33 -39 c46 -53 119 -204 146 -303 l23 -83 90 0 c50 0 96 4 103 9 11 7 12 23 2 87 -21 139 -83 301 -167 432 -18 29 -32 56 -29 60 2 4 49 7 104 6 99 0 101 -1 158 -38z m184 -1021 c89 -21 135 -43 172 -82 36 -37 48 -73 48 -139 l0 -54 -560 0 -560 0 0 54 c0 124 62 186 220 220 111 23 125 24 375 21 179 -1 247 -6 305 -20z"/>
    </g>
  </g>
</svg>
