<svg xmlns="http://www.w3.org/2000/svg" viewBox="0 0 200 200" role="img" aria-labelledby="title">
  <title id="title">Modern White King</title>
  <g shape-rendering="geometricPrecision">
    <g transform="translate(0.000000,200.000000) scale(0.100000,-0.100000)" fill="#151515" stroke="none">
      <path d="M920 1820 l0 -60 -60 0 -60 0 0 -80 0 -80 60 0 60 0 0 -55 c0 -48 -3 -57 -26 -72 -31 -20 -74 -105 -74 -148 0 -16 -3 -40 -6 -51 l-6 -22 -41 23 c-200 111 -437 46 -526 -144 -23 -49 -26 -69 -26 -157 0 -98 1 -103 42 -185 48 -96 123 -184 211 -249 l62 -44 -33 -19 c-42 -24 -85 -81 -98 -129 -5 -21 -9 -71 -7 -111 l3 -72 605 0 605 0 3 72 c2 40 -2 90 -7 111 -13 48 -56 105 -98 129 l-33 19 62 44 c88 65 163 153 211 249 41 82 42 87 42 185 0 88 -3 108 -26 157 -89 190 -326 255 -526 144 l-41 -23 -6 22 c-3 11 -6 35 -6 51 0 43 -43 128 -74 148 -23 15 -26 24 -26 72 l0 55 60 0 60 0 0 80 0 80 -60 0 -60 0 0 60 0 60 -80 0 -80 0 0 -60z m110 -55 l0 -55 55 0 c54 0 55 0 55 -30 0 -30 -1 -30 -55 -30 l-55 0 0 -55 c0 -54 0 -55 -30 -55 -30 0 -30 1 -30 55 l0 55 -55 0 c-54 0 -55 0 -55 30 0 30 1 30 55 30 l55 0 0 55 c0 54 0 55 30 55 30 0 30 -1 30 -55z m46 -333 c37 -30 57 -81 58 -154 1 -66 0 -69 -34 -101 -19 -18 -50 -49 -67 -70 l-33 -38 -32 38 c-18 21 -49 52 -68 70 -34 32 -35 35 -34 101 2 119 43 172 134 172 37 0 62 -6 76 -18z m-351 -191 c71 -35 182 -132 230 -201 15 -22 35 -40 45 -40 10 0 30 18 45 40 47 68 159 166 229 200 86 42 186 52 267 25 75 -25 152 -99 180 -174 32 -86 24 -187 -24 -284 -42 -85 -140 -192 -229 -251 -52 -35 -59 -37 -94 -27 -161 41 -587 41 -748 0 -35 -10 -42 -8 -94 27 -89 59 -187 166 -229 251 -48 96 -56 198 -24 283 26 69 98 143 167 170 77 32 192 24 279 -19z m615 -756 c89 -21 135 -43 172 -82 36 -37 48 -73 48 -139 l0 -54 -560 0 -560 0 0 54 c0 124 62 186 220 220 111 23 125 24 375 21 179 -1 247 -6 305 -20z"/>
    </g>
    <g transform="translate(0.000000,200.000000) scale(0.100000,-0.100000)" fill="#050505" stroke="none">
      <path d="M920 1820 l0 -60 -60 0 -60 0 0 -80 0 -80 60 0 60 0 0 -55 c0 -48 -3 -57 -26 -72 -31 -20 -74 -105 -74 -148 0 -16 -3 -40 -6 -51 l-6 -22 -41 23 c-200 111 -437 46 -526 -144 -23 -49 -26 -69 -26 -157 0 -98 1 -103 42 -185 48 -96 123 -184 211 -249 l62 -44 -33 -19 c-42 -24 -85 -81 -98 -129 -5 -21 -9 -71 -7 -111 l3 -72 605 0 605 0 3 72 c2 40 -2 90 -7 111 -13 48 -56 105 -98 129 l-33 19 62 44 c88 65 163 153 211 249 41 82 42 87 42 185 0 88 -3 108 -26 157 -89 190 -326 255 -526 144 l-41 -23 -6 22 c-3 11 -6 35 -6 51 0 43 -43 128 -74 148 -23 15 -26 24 -26 72 l0 55 60 0 60 0 0 80 0 80 -60 0 -60 0 0 60 0 60 -80 0 -80 0 0 -60z m110 -55 l0 -55 55 0 c54 0 55 0 55 -30 0 -30 -1 -30 -55 -30 l-55 0 0 -55 c0 -54 0 -55 -30 -55 -30 0 -30 1 -30 55 l0 55 -55 0 c-54 0 -55 0 -55 30 0 30 1 30 55 30 l55 0 0 55 c0 54 0 55 30 55 30 0 30 -1 30 -55z m46 -333 c37 -30 57 -81 58 -154 1 -66 0 -69 -34 -101 -19 -18 -50 -49 -67 -70 l-33 -38 -32 38 c-18 21 -49 52 -68 70 -34 32 -35 35 -34 101 2 119 43 172 134 172 37 0 62 -6 76 -18z m-351 -191 c71 -35 182 -132 230 -201 15 -22 35 -40 45 -40 10 0 30 18 45 40 47 68 159 166 229 200 86 42 186 52 267 25 75 -25 152 -99 180 -174 32 -86 24 -187 -24 -284 -42 -85 -140 -192 -229 -251 -52 -35 -59 -37 -94 -27 -161 41 -587 41 -748 0 -35 -10 -42 -8 -94 27 -89 59 -187 166 -229 251 -48 96 -56 198 -24 283 26 69 98 143 167 170 77 32 192 24 279 -19z m615 -756 c89 -21 135 -43 172 -82 36 -37 48 -73 48 -139 l0 -54 -560 0 -560 0 0 54 c0 124 62 186 220 220 111 23 125 24 375 21 179 -1 247 -6 305 -20z"/>
    </g>
  </g>
</svg>
