<svg xmlns="http://www.w3.org/2000/svg" viewBox="0 0 200 200" role="img" aria-labelledby="title">
  <title id="title">Modern White Rook</title>
  <g shape-rendering="geometricPrecision">
    <g transform="translate(0.000000,200.000000) scale(0.100000,-0.100000)" fill="#151515" stroke="none">
      <path d="M873 1783 c-9 -3 -13 -33 -13 -98 l0 -93 -57 -8 -58 -9 -20 85 -21 85 -39 -3 c-22 -2 -78 -11 -125 -20 l-85 -17 -3 -88 c-5 -149 39 -270 118 -325 22 -15 41 -33 44 -40 3 -7 9 -88 12 -180 7 -182 -3 -296 -38 -422 -33 -121 -47 -148 -87 -171 -45 -26 -88 -81 -102 -131 -5 -21 -9 -71 -7 -111 l3 -72 605 0 605 0 3 72 c2 40 -2 90 -7 111 -14 50 -57 105 -102 131 -40 23 -54 50 -87 171 -35 126 -45 240 -38 422 3 92 9 173 12 180 3 7 22 25 44 40 79 55 123 176 118 325 l-3 88 -85 17 c-47 9 -103 18 -125 20 l-39 3 -21 -85 -20 -85 -57 9 -58 8 0 93 c0 75 -3 94 -16 99 -19 7 -233 7 -251 -1z m217 -125 c0 -46 4 -88 8 -95 8 -13 165 -45 185 -37 8 3 22 40 32 86 l17 80 42 -6 c22 -4 61 -10 85 -13 l43 -6 -4 -96 c-3 -81 -8 -106 -32 -154 -15 -31 -43 -69 -62 -83 l-34 -26 -108 18 c-145 25 -379 25 -524 0 l-108 -18 -34 26 c-19 14 -47 52 -62 83 -24 48 -29 73 -32 154 l-4 96 43 6 c24 3 63 9 85 13 l42 6 17 -80 c10 -46 24 -83 32 -86 20 -8 177 24 185 37 4 7 8 49 8 95 l0 82 90 0 90 0 0 -82z m167 -381 c40 -7 74 -15 76 -18 2 -2 -1 -67 -7 -144 -14 -211 14 -450 69 -579 6 -14 5 -17 -3 -12 -27 16 -239 36 -392 36 -153 0 -365 -20 -392 -36 -8 -5 -9 -2 -3 12 23 54 56 200 66 293 11 98 5 383 -8 416 -17 46 395 68 594 32z m83 -792 c89 -21 135 -43 172 -82 36 -37 48 -73 48 -139 l0 -54 -560 0 -560 0 0 54 c0 124 62 186 220 220 111 23 125 24 375 21 179 -1 247 -6 305 -20z"/>
    </g>
    <g transform="translate(0.000000,200.000000) scale(0.100000,-0.100000)" fill="#050505" stroke="none">
      <path d="M873 1783 c-9 -3 -13 -33 -13 -98 l0 -93 -57 -8 -58 -9 -20 85 -21 85 -39 -3 c-22 -2 -78 -11 -125 -20 l-85 -17 -3 -88 c-5 -149 39 -270 118 -325 22 -15 41 -33 44 -40 3 -7 9 -88 12 -180 7 -182 -3 -296 -38 -422 -33 -121 -47 -148 -87 -171 -45 -26 -88 -81 -102 -131 -5 -21 -9 -71 -7 -111 l3 -72 605 0 605 0 3 72 c2 40 -2 90 -7 111 -14 50 -57 105 -102 131 -40 23 -54 50 -87 171 -35 126 -45 240 -38 422 3 92 9 173 12 180 3 7 22 25 44 40 79 55 123 176 118 325 l-3 88 -85 17 c-47 9 -103 18 -125 20 l-39 3 -21 -85 -20 -85 -57 9 -58 8 0 93 c0 75 -3 94 -16 99 -19 7 -233 7 -251 -1z m217 -125 c0 -46 4 -88 8 -95 8 -13 165 -45 185 -37 8 3 22 40 32 86 l17 80 42 -6 c22 -4 61 -10 85 -13 l43 -6 -4 -96 c-3 -81 -8 -106 -32 -154 -15 -31 -43 -69 -62 -83 l-34 -26 -108 18 c-145 25 -379 25 -524 0 l-108 -18 -34 26 c-19 14 -47 52 -62 83 -24 48 -29 73 -32 154 l-4 96 43 6 c24 3 63 9 85 13 l42 6 17 -80 c10 -46 24 -83 32 -86 20 -8 177 24 185 37 4 7 8 49 8 95 l0 82 90 0 90 0 0 -82z m167 -381 c40 -7 74 -15 76 -18 2 -2 -1 -67 -7 -144 -14 -211 14 -450 69 -579 6 -14 5 -17 -3 -12 -27 16 -239 36 -392 36 -153 0 -365 -20 -392 -36 -8 -5 -9 -2 -3 12 23 54 56 200 66 293 11 98 5 383 -8 416 -17 46 395 68 594 32z m83 -792 c89 -21 135 -43 172 -82 36 -37 48 -73 48 -139 l0 -54 -560 0 -560 0 0 54 c0 124 62 186 220 220 111 23 125 24 375 21 179 -1 247 -6 305 -20z"/>
    </g>
  </g>
</svg>
