<svg xmlns="http://www.w3.org/2000/svg" viewBox="0 0 200 200" role="img" aria-labelledby="title">
  <title id="title">Sea White King</title>
  <g shape-rendering="geometricPrecision">
    <g transform="translate(0.000000,200.000000) scale(0.100000,-0.100000)" fill="#151515" stroke="none">
      <path d="M920 1820 l0 -60 -60 0 -60 0 0 -80 0 -80 60 0 60 0 0 -55 c0 -48 -3 -57 -26 -72 -31 -20 -74 -105 -74 -148 0 -16 -3 -40 -6 -51 l-6 -22 -41 23 c-200 111 -437 46 -526 -144 -23 -49 -26 -69 -26 -157 0 -98 1 -103 42 -185 48 -96 123 -184 211 -249 l62 -44 -33 -19 c-42 -24 -85 -81 -98 -129 -5 -21 -9 -71 -7 -111 l3 -72 605 0 605 0 3 72 c2 40 -2 90 -7 111 -13 48 -56 105 -98 129 l-33 19 62 44 c88 65 163 153 211 249 41 82 42 87 42 185 0 88 -3 108 -26 157 -89 190 -326 255 -526 144 l-41 -23 -6 22 c-3 11 -6 35 -6 51 0 43 -43 128 -74 148 -23 15 -26 24 -26 72 l0 55 60 0 60 0 0 80 0 80 -60 0 -60 0 0 60 0 60 -80 0 -80 0 0 -60z"/>
    </g>
    <g transform="translate(0.000000,200.000000) scale(0.100000,-0.100000)" fill="#050505" stroke="none">
      <path d="M920 1820 l0 -60 -60 0 -60 0 0 -80 0 -80 60 0 60 0 0 -55 c0 -48 -3 -57 -26 -72 -31 -20 -74 -105 -74 -148 0 -16 -3 -40 -6 -51 l-6 -22 -41 23 c-200 111 -437 46 -526 -144 -23 -49 -26 -69 -26 -157 0 -98 1 -103 42 -185 48 -96 123 -184 211 -249 l62 -44 -33 -19 c-42 -24 -85 -81 -98 -129 -5 -21 -9 -71 -7 -111 l3 -72 605 0 605 0 3 72 c2 40 -2 90 -7 111 -13 48 -56 105 -98 129 l-33 19 62 44 c88 65 163 153 211 249 41 82 42 87 42 185 0 88 -3 108 -26 157 -89 190 -326 255 -526 144 l-41 -23 -6 22 c-3 11 -6 35 -6 51 0 43 -43 128 -74 148 -23 15 -26 24 -26 72 l0 55 60 0 60 0 0 80 0 80 -60 0 -60 0 0 60 0 60 -80 0 -80 0 0 -60z m118 3 c2 -8 -6 -13 -22 -13 -23 0 -25 -3 -28 -57 l-3 -58 -57 -3 c-55 -3 -58 -5 -58 -28 0 -16 -5 -24 -12 -21 -7 2 -13 19 -13 38 l0 34 58 3 57 3 0 53 c0 29 3 56 7 60 11 11 66 2 71 -11z m117 -118 c0 -11 -69 -19 -92 -11 -8 3 -11 11 -8 16 8 14 100 9 100 -5z m-167 -136 c-2 -24 -7 -44 -13 -44 -12 0 -19 69 -10 93 11 29 26 -4 23 -49z m82 -124 c17 -9 30 -17 30 -18 0 -1 -31 -1 -70 1 -66 3 -72 2 -99 -26 -36 -35 -55 -100 -48 -165 3 -32 1 -46 -7 -44 -7 2 -11 35 -11 88 0 92 22 145 67 167 34 16 105 14 138 -3z m-346 -198 c39 -19 87 -49 106 -66 31 -28 29 -27 -25 8 -161 104 -328 99 -441 -13 -109 -109 -116 -288 -18 -436 23 -35 28 -48 15 -35 -12 10 -41 57 -64 103 -39 79 -42 91 -42 166 0 63 5 92 23 131 78 169 265 229 446 142z m843 13 c29 -12 58 -29 65 -37 7 -9 -6 -5 -33 9 -38 20 -59 23 -144 23 -95 0 -104 -2 -169 -35 -69 -35 -161 -116 -227 -199 -22 -28 -40 -42 -47 -37 -17 10 37 83 121 162 68 64 155 116 225 134 57 14 151 5 209 -20z m-602 -150 c10 -11 16 -20 13 -20 -3 0 -13 9 -23 20 -10 11 -16 20 -13 20 3 0 13 -9 23 -20z m334 -610 c78 -13 170 -45 190 -65 11 -10 0 -9 -40 6 -95 37 -209 50 -429 50 -304 0 -457 -32 -520 -109 -32 -39 -40 -67 -49 -170 0 -7 -5 -10 -11 -7 -17 10 -11 107 9 150 44 96 133 134 366 159 71 7 418 -3 484 -14z"/>
    </g>
    <g transform="translate(0.000000,200.000000) scale(0.100000,-0.100000)" fill="#6c6c6c" stroke="none">
      <path d="M964 1831 c-2 -2 -4 -28 -4 -58 l0 -53 -55 0 c-54 0 -55 0 -55 -30 0 -16 0 -32 0 -35 0 -15 15 -3 18 15 3 16 11 20 40 21 88 4 79 -4 81 73 1 38 4 45 24 48 33 5 22 23 -14 23 -17 0 -33 -2 -35 -4z M1055 1711 c-8 -14 4 -18 49 -17 58 1 60 26 2 26 -24 0 -47 -4 -51 -9z M966 1623 c-10 -10 -7 -93 4 -93 11 0 11 -1 15 52 3 36 -5 55 -19 41z M945 1451 c-29 -13 -61 -51 -74 -90 -14 -42 -15 -148 -1 -156 6 -4 10 12 10 42 0 67 16 119 49 155 26 29 33 32 90 32 39 0 58 3 52 9 -13 13 -101 19 -126 8z M487 1280 c-92 -23 -169 -88 -209 -175 -17 -38 -22 -69 -22 -130 0 -70 4 -89 33 -153 19 -39 39 -76 46 -82 6 -5 -1 16 -17 48 -56 114 -57 235 -3 327 83 142 253 189 423 115 30 -12 40 -14 28 -5 -59 45 -204 73 -279 55z M1355 1277 c-105 -27 -222 -112 -310 -227 -32 -41 -42 -61 -33 -66 7 -5 23 7 42 32 169 220 379 302 550 214 22 -11 33 -13 26 -5 -19 23 -108 55 -167 60 -32 2 -80 -1 -108 -8z M785 510 c-262 -30 -355 -98 -355 -257 0 -23 5 -45 10 -48 6 -3 10 5 10 19 0 14 5 48 11 76 31 143 178 194 559 193 220 -1 356 -17 437 -53 24 -10 43 -17 43 -14 0 13 -119 57 -188 70 -96 17 -420 26 -527 14z"/>
    </g>
  </g>
</svg>
