<svg xmlns="http://www.w3.org/2000/svg" viewBox="0 0 200 200" role="img" aria-labelledby="title">
  <title id="title">Sea White Knight</title>
  <g shape-rendering="geometricPrecision">
    <g transform="translate(0.000000,200.000000) scale(0.100000,-0.100000)" fill="#151515" stroke="none">
      <path d="M691 1811 c-6 -10 -13 -55 -17 -99 l-7 -80 -58 62 c-70 75 -125 109 -139 86 -15 -23 -12 -61 11 -176 l21 -104 -39 -43 c-43 -46 -57 -80 -98 -226 -28 -103 -70 -181 -135 -251 -52 -56 -70 -95 -70 -157 0 -56 43 -139 85 -167 42 -28 101 -46 113 -34 6 6 21 2 43 -11 74 -45 143 -14 198 88 45 84 92 129 196 187 48 27 106 66 128 88 l40 39 -8 -49 c-8 -60 -25 -78 -145 -162 -160 -112 -240 -199 -240 -264 0 -18 -13 -30 -53 -51 -94 -50 -130 -122 -125 -250 l3 -72 605 0 605 0 3 43 3 42 52 0 c29 0 58 4 66 9 11 7 13 51 8 242 -5 256 -21 361 -77 531 -56 168 -179 371 -281 462 -84 76 -230 139 -370 161 -24 4 -63 28 -125 78 -49 41 -99 79 -111 85 -33 18 -71 15 -82 -7z m-109 -161 c29 -33 51 -64 48 -68 -3 -3 -21 -21 -41 -39 l-37 -33 -16 77 c-9 43 -19 88 -22 101 -7 36 12 26 68 -38z m-81 -242 c-5 -13 -23 -61 -41 -108 -31 -80 -59 -132 -47 -85 25 96 50 166 68 188 25 33 31 34 20 5z m1109 -382 c16 -48 39 -133 50 -189 22 -114 40 -367 33 -469 l-5 -68 -38 0 c-36 0 -38 2 -48 43 -6 23 -24 59 -39 80 -30 39 -122 92 -180 103 l-34 6 36 36 c75 76 143 201 170 316 8 33 15 101 15 150 0 49 2 87 5 84 3 -3 19 -44 35 -92z m-603 2 c-3 -7 -5 -2 -5 12 0 14 2 19 5 13 2 -7 2 -19 0 -25z m-704 -163 c-27 -24 -31 -55 -7 -55 9 0 31 9 49 20 31 19 35 20 101 5 37 -9 80 -23 95 -31 28 -14 28 -14 85 56 44 54 62 70 83 70 14 0 37 3 51 6 15 3 3 -7 -29 -26 -74 -44 -134 -107 -170 -178 -41 -82 -86 -110 -130 -83 -12 8 -1 23 49 71 61 59 63 63 45 76 -26 19 -32 18 -50 -10 -19 -29 -128 -116 -145 -116 -27 0 -77 41 -99 80 -35 62 -26 124 25 183 l38 44 16 -46 c16 -45 16 -46 -7 -66z"/>
    </g>
    <g transform="translate(0.000000,200.000000) scale(0.100000,-0.100000)" fill="#050505" stroke="none">
      <path d="M691 1811 c-6 -10 -13 -55 -17 -99 l-7 -80 -58 62 c-70 75 -125 109 -139 86 -15 -23 -12 -61 11 -176 l21 -104 -39 -43 c-43 -46 -57 -80 -98 -226 -28 -103 -70 -181 -135 -251 -52 -56 -70 -95 -70 -157 0 -56 43 -139 85 -167 42 -28 101 -46 113 -34 6 6 21 2 43 -11 74 -45 143 -14 198 88 45 84 92 129 196 187 48 27 106 66 128 88 l40 39 -8 -49 c-8 -60 -25 -78 -145 -162 -160 -112 -240 -199 -240 -264 0 -18 -13 -30 -53 -51 -94 -50 -130 -122 -125 -250 l3 -72 605 0 605 0 3 43 3 42 52 0 c29 0 58 4 66 9 11 7 13 51 8 242 -5 256 -21 361 -77 531 -56 168 -179 371 -281 462 -84 76 -230 139 -370 161 -24 4 -63 28 -125 78 -49 41 -99 79 -111 85 -33 18 -71 15 -82 -7z m70 -38 c12 -15 12 -16 -3 -10 -18 6 -24 -11 -31 -98 -2 -22 -4 -6 -5 36 -2 91 8 110 39 72z m-179 -123 c29 -33 51 -64 48 -68 -3 -3 -21 -21 -41 -39 l-37 -33 -16 77 c-9 43 -19 88 -22 101 -7 36 12 26 68 -38z m433 -41 l40 -6 -51 -2 c-37 -1 -55 4 -65 15 -12 15 -11 16 11 9 14 -5 43 -12 65 -16z m-285 -37 c0 -10 -21 -30 -53 -49 -66 -40 -98 -84 -138 -193 -43 -120 -91 -216 -140 -280 -32 -41 -42 -63 -41 -90 0 -28 -1 -31 -8 -15 -17 39 -10 74 19 107 53 61 91 131 143 267 45 115 60 143 98 181 36 35 96 81 118 89 1 1 2 -7 2 -17z m-229 -164 c-5 -13 -23 -61 -41 -108 -31 -80 -59 -132 -47 -85 25 96 50 166 68 188 25 33 31 34 20 5z m1109 -382 c16 -48 39 -133 50 -189 22 -114 40 -367 33 -469 l-5 -68 -38 0 c-36 0 -38 2 -48 43 -6 23 -24 59 -39 80 -30 39 -122 92 -180 103 l-34 6 36 36 c75 76 143 201 170 316 8 33 15 101 15 150 0 49 2 87 5 84 3 -3 19 -44 35 -92z m-541 -20 c1 -39 -31 -105 -69 -141 -40 -38 -38 -21 5 39 39 55 57 107 50 145 -5 23 -4 23 4 6 5 -11 10 -33 10 -49z m-62 22 c-3 -7 -5 -2 -5 12 0 14 2 19 5 13 2 -7 2 -19 0 -25z m-704 -163 c-27 -24 -31 -55 -7 -55 9 0 31 9 49 20 31 19 35 20 101 5 37 -9 80 -23 95 -31 28 -14 28 -14 85 56 44 54 62 70 83 70 14 0 37 3 51 6 15 3 3 -7 -29 -26 -74 -44 -134 -107 -170 -178 -41 -82 -86 -110 -130 -83 -12 8 -1 23 49 71 61 59 63 63 45 76 -26 19 -32 18 -50 -10 -19 -29 -128 -116 -145 -116 -27 0 -77 41 -99 80 -35 62 -26 124 25 183 l38 44 16 -46 c16 -45 16 -46 -7 -66z m595 -74 c-8 -12 -60 -54 -115 -95 -93 -69 -153 -132 -153 -163 0 -7 -4 -13 -10 -13 -28 0 7 75 57 123 42 40 226 176 232 171 1 -1 -3 -12 -11 -23z m401 -291 c102 -17 172 -46 211 -87 35 -36 35 -36 3 -11 -40 33 -134 63 -238 79 -99 14 -437 14 -524 0 -36 -6 -66 -9 -67 -8 -2 1 1 8 5 15 4 7 43 17 87 22 99 11 438 5 523 -10z m-670 -34 c-8 -7 -35 -21 -61 -30 -77 -28 -119 -90 -120 -178 0 -26 -4 -48 -9 -48 -16 0 -9 104 10 145 26 55 68 92 132 114 57 20 73 19 48 -3z"/>
    </g>
    <g transform="translate(0.000000,200.000000) scale(0.100000,-0.100000)" fill="#6c6c6c" stroke="none">
      <path d="M727 1783 c-4 -3 -6 -40 -5 -82 1 -55 3 -62 5 -26 5 79 11 95 31 88 15 -6 15 -5 3 10 -14 18 -24 21 -34 10z M942 1619 c3 -9 22 -15 54 -16 48 -1 48 -1 9 6 -22 4 -46 11 -54 15 -9 6 -12 5 -9 -5z M675 1553 c-83 -53 -110 -93 -162 -236 -36 -102 -85 -194 -132 -251 -30 -35 -41 -56 -40 -80 1 -20 3 -24 6 -12 3 11 29 50 58 89 52 68 74 112 135 273 39 105 78 157 140 192 27 15 50 33 50 40 0 17 -9 15 -55 -15z M1051 990 c-7 -25 -26 -61 -40 -80 -15 -19 -31 -44 -35 -55 -6 -16 -1 -14 23 9 40 38 73 108 69 143 -3 25 -4 24 -17 -17z M806 745 c-106 -76 -160 -127 -181 -172 -24 -49 -12 -65 13 -18 24 47 61 83 162 157 75 55 121 98 104 97 -5 0 -49 -29 -98 -64z M780 509 c-46 -5 -87 -15 -91 -21 -11 -17 -11 -17 51 -6 92 17 461 13 569 -6 96 -17 169 -43 207 -74 11 -9 4 -1 -17 18 -39 38 -102 62 -209 80 -90 15 -407 21 -510 9z M585 472 c-99 -33 -156 -116 -154 -222 1 -46 3 -43 20 48 14 69 49 109 126 144 35 15 63 33 63 38 0 6 -1 10 -2 9 -2 0 -25 -8 -53 -17z"/>
    </g>
  </g>
</svg>
