<svg xmlns="http://www.w3.org/2000/svg" viewBox="0 0 200 200" role="img" aria-labelledby="title">
  <title id="title">Sea White Bishop</title>
  <g shape-rendering="geometricPrecision">
    <g transform="translate(0.000000,200.000000) scale(0.100000,-0.100000)" fill="#151515" stroke="none">
      <path d="M950 1823 c-21 -11 -42 -33 -54 -57 -17 -36 -18 -43 -5 -80 9 -25 26 -48 45 -61 l32 -20 -122 -125 c-66 -69 -141 -151 -165 -182 -49 -65 -90 -158 -91 -204 0 -60 55 -146 150 -237 60 -57 88 -90 84 -100 -7 -19 -60 -55 -141 -95 -74 -38 -123 -78 -123 -101 0 -41 83 -77 233 -101 42 -7 77 -16 77 -20 0 -16 -87 -45 -133 -44 -40 0 -75 14 -200 78 -84 42 -169 79 -190 83 -72 11 -151 -38 -213 -132 -17 -26 -17 -28 21 -105 21 -44 44 -81 51 -84 7 -3 29 17 49 44 20 27 51 58 69 69 60 38 100 29 263 -55 130 -68 155 -77 213 -81 59 -4 71 -2 132 29 l68 35 67 -35 c62 -31 74 -33 133 -29 58 4 83 13 213 81 163 84 203 93 263 55 18 -11 49 -42 69 -69 20 -27 42 -47 49 -44 7 3 30 40 51 84 38 77 38 79 21 105 -62 94 -141 143 -213 132 -21 -4 -106 -41 -190 -83 -125 -64 -160 -78 -200 -78 -46 -1 -133 28 -133 44 0 4 35 13 78 20 149 24 232 60 232 101 0 23 -49 63 -123 101 -81 40 -134 76 -141 95 -4 10 24 43 84 100 95 91 150 177 150 237 -1 46 -42 139 -91 204 -24 31 -99 113 -166 182 l-121 125 29 18 c16 9 37 34 46 54 40 97 -64 193 -157 146z"/>
    </g>
    <g transform="translate(0.000000,200.000000) scale(0.100000,-0.100000)" fill="#050505" stroke="none">
      <path d="M950 1823 c-21 -11 -42 -33 -54 -57 -17 -36 -18 -43 -5 -80 9 -25 26 -48 45 -61 l32 -20 -122 -125 c-66 -69 -141 -151 -165 -182 -49 -65 -90 -158 -91 -204 0 -60 55 -146 150 -237 60 -57 88 -90 84 -100 -7 -19 -60 -55 -141 -95 -74 -38 -123 -78 -123 -101 0 -41 83 -77 233 -101 42 -7 77 -16 77 -20 0 -16 -87 -45 -133 -44 -40 0 -75 14 -200 78 -84 42 -169 79 -190 83 -72 11 -151 -38 -213 -132 -17 -26 -17 -28 21 -105 21 -44 44 -81 51 -84 7 -3 29 17 49 44 20 27 51 58 69 69 60 38 100 29 263 -55 130 -68 155 -77 213 -81 59 -4 71 -2 132 29 l68 35 67 -35 c62 -31 74 -33 133 -29 58 4 83 13 213 81 163 84 203 93 263 55 18 -11 49 -42 69 -69 20 -27 42 -47 49 -44 7 3 30 40 51 84 38 77 38 79 21 105 -62 94 -141 143 -213 132 -21 -4 -106 -41 -190 -83 -125 -64 -160 -78 -200 -78 -46 -1 -133 28 -133 44 0 4 35 13 78 20 149 24 232 60 232 101 0 23 -49 63 -123 101 -81 40 -134 76 -141 95 -4 10 24 43 84 100 95 91 150 177 150 237 -1 46 -42 139 -91 204 -24 31 -99 113 -166 182 l-121 125 29 18 c16 9 37 34 46 54 40 97 -64 193 -157 146z m95 -37 c18 -13 17 -14 -18 -13 -51 1 -81 -29 -80 -80 1 -35 0 -36 -13 -18 -50 68 43 161 111 111z m-30 -216 c3 -5 -44 -60 -106 -122 -112 -113 -201 -223 -235 -288 -22 -45 -24 -116 -2 -158 9 -18 12 -30 7 -26 -20 12 -49 85 -49 121 1 79 66 175 245 361 64 67 121 122 126 122 4 0 11 -4 14 -10z m73 -292 c-4 -55 -28 -64 -28 -10 0 21 3 42 7 45 16 17 24 4 21 -35z m-58 13 c0 -5 -9 -11 -20 -14 -16 -4 -20 -14 -20 -51 l0 -46 -46 0 c-37 0 -47 -4 -51 -20 -8 -30 -23 -24 -23 9 0 28 2 30 48 33 l47 3 3 48 c3 45 5 47 33 47 16 0 29 -4 29 -9z m160 -141 l0 -70 -50 0 -50 0 0 -50 0 -50 -70 0 c-40 0 -70 4 -70 10 0 6 25 10 55 10 l55 0 0 55 0 55 50 0 50 0 0 48 c0 27 3 52 7 55 17 18 23 1 23 -63z m-60 40 c0 -5 -18 -10 -40 -10 -22 0 -40 5 -40 10 0 6 18 10 40 10 22 0 40 -4 40 -10z m-140 -110 c0 -22 -4 -40 -10 -40 -5 0 -10 18 -10 40 0 22 5 40 10 40 6 0 10 -18 10 -40z m-52 18 c-5 -15 -88 -24 -88 -10 0 16 13 22 53 22 26 0 37 -4 35 -12z m-227 -155 c13 -16 12 -17 -3 -4 -10 7 -18 15 -18 17 0 8 8 3 21 -13z m157 -158 c-3 -3 -9 2 -12 12 -6 14 -5 15 5 6 7 -7 10 -15 7 -18z m195 -20 c45 -7 87 -25 87 -36 0 -4 -21 -1 -47 7 -92 28 -188 9 -252 -49 -48 -43 -181 -110 -211 -105 -16 2 1 15 70 53 51 27 109 64 128 82 40 37 126 65 172 57 8 -1 32 -5 53 -9z m240 -139 c37 -20 67 -39 67 -42 0 -9 -138 69 -168 94 l-27 24 30 -19 c17 -11 60 -36 98 -57z m-107 -60 c78 -8 150 -19 160 -25 15 -9 6 -9 -36 -4 -89 13 -592 9 -616 -5 -13 -7 -32 -8 -50 -3 l-29 8 40 11 c104 28 341 36 531 18z m-681 -122 c205 -105 256 -109 390 -29 38 24 70 35 95 35 25 0 57 -11 95 -35 134 -80 185 -76 390 29 164 84 202 92 261 55 44 -27 44 -33 0 -13 -49 24 -89 13 -240 -66 -73 -38 -153 -74 -179 -80 -61 -16 -127 0 -204 48 -79 49 -127 49 -206 0 -77 -48 -143 -64 -204 -48 -26 6 -106 42 -179 80 -145 75 -189 89 -234 70 -35 -15 -110 -93 -110 -115 0 -9 7 -30 16 -46 8 -17 14 -33 12 -35 -2 -2 -16 21 -30 50 l-27 54 30 40 c40 54 85 82 135 82 31 0 75 -18 189 -76z"/>
    </g>
    <g transform="translate(0.000000,200.000000) scale(0.100000,-0.100000)" fill="#6c6c6c" stroke="none">
      <path d="M946 1774 c-29 -30 -33 -69 -10 -99 16 -20 16 -20 9 3 -16 54 43 113 97 97 23 -7 23 -7 3 9 -30 23 -69 19 -99 -10z M894 1478 c-187 -193 -264 -304 -264 -380 0 -34 30 -111 48 -122 5 -3 1 11 -9 31 -50 98 6 203 235 437 102 105 124 136 97 136 -4 0 -53 -46 -107 -102z M1067 1314 c-10 -10 -9 -84 2 -84 11 0 23 72 13 82 -5 5 -11 5 -15 2z M970 1250 l0 -50 -50 0 c-49 0 -50 -1 -50 -30 0 -16 5 -30 10 -30 6 0 10 9 10 20 0 17 7 20 50 20 l50 0 0 50 c0 43 3 50 20 50 11 0 20 5 20 10 0 6 -13 10 -30 10 -29 0 -30 -1 -30 -50z M1166 1209 c-3 -8 -4 -25 -4 -39 1 -69 2 -67 -54 -62 l-51 5 6 -57 6 -56 -60 0 c-33 0 -59 -4 -59 -10 0 -6 30 -10 70 -10 l69 0 -2 53 -2 52 50 0 50 0 3 59 c3 56 -11 98 -22 65z M1050 1190 c0 -5 18 -10 40 -10 22 0 40 5 40 10 0 6 -18 10 -40 10 -22 0 -40 -4 -40 -10z M970 1080 c0 -22 5 -40 10 -40 6 0 10 18 10 40 0 22 -4 40 -10 40 -5 0 -10 -18 -10 -40z M855 1101 c-3 -5 -1 -12 3 -15 13 -8 82 5 82 15 0 12 -77 11 -85 0z M905 758 c-16 -6 -43 -23 -60 -39 -16 -15 -68 -49 -115 -74 -103 -57 -118 -70 -70 -60 44 9 148 66 201 111 22 18 59 39 82 45 42 11 144 8 182 -6 13 -5 17 -5 10 2 -30 31 -166 43 -230 21z M1220 665 c0 -2 18 -14 40 -25 22 -11 40 -18 40 -15 0 2 -18 14 -40 25 -22 11 -40 18 -40 15z M1330 606 c0 -3 9 -10 20 -16 11 -6 20 -8 20 -6 0 3 -9 10 -20 16 -11 6 -20 8 -20 6z M850 569 c-147 -10 -198 -18 -206 -30 -4 -6 27 -7 88 -2 117 10 516 10 583 0 34 -5 46 -4 39 3 -23 23 -338 41 -504 29z M253 497 c-18 -13 -46 -41 -62 -61 l-30 -38 26 -53 c15 -30 29 -53 31 -51 2 2 -6 22 -17 45 l-21 40 53 57 c45 48 58 57 97 61 41 5 59 -2 197 -73 208 -106 268 -111 397 -33 55 33 75 40 106 37 30 -3 36 -1 28 9 -14 17 -98 16 -117 -1 -9 -8 -45 -29 -79 -46 -57 -29 -71 -32 -132 -28 -59 3 -82 11 -162 53 -169 89 -189 98 -236 102 -38 4 -53 0 -79 -20z M1610 506 c-19 -7 -78 -37 -130 -66 -119 -66 -159 -80 -229 -80 -42 0 -71 8 -116 30 -33 16 -51 23 -40 14 11 -9 44 -28 73 -41 45 -21 65 -25 122 -21 62 3 82 11 222 82 139 71 157 78 198 73 40 -5 43 -4 25 9 -23 17 -78 17 -125 0z"/>
    </g>
  </g>
</svg>
