<svg xmlns="http://www.w3.org/2000/svg" viewBox="0 0 200 200" role="img" aria-labelledby="title">
  <title id="title">Sea White Rook</title>
  <g shape-rendering="geometricPrecision">
    <g transform="translate(0.000000,200.000000) scale(0.100000,-0.100000)" fill="#f2f1ec" stroke="none">
      <path d="M873 1783 c-9 -3 -13 -33 -13 -98 l0 -93 -57 -8 -58 -9 -20 85 -21 85 -39 -3 c-22 -2 -78 -11 -125 -20 l-85 -17 -3 -88 c-5 -149 39 -270 118 -325 22 -15 41 -33 44 -40 3 -7 9 -88 12 -180 7 -182 -3 -296 -38 -422 -33 -121 -47 -148 -87 -171 -45 -26 -88 -81 -102 -131 -5 -21 -9 -71 -7 -111 l3 -72 605 0 605 0 3 72 c2 40 -2 90 -7 111 -14 50 -57 105 -102 131 -40 23 -54 50 -87 171 -35 126 -45 240 -38 422 3 92 9 173 12 180 3 7 22 25 44 40 79 55 123 176 118 325 l-3 88 -85 17 c-47 9 -103 18 -125 20 l-39 3 -21 -85 -20 -85 -57 9 -58 8 0 93 c0 75 -3 94 -16 99 -19 7 -233 7 -251 -1z"/>
    </g>
    <g transform="translate(0.000000,200.000000) scale(0.100000,-0.100000)" fill="#c6c0b6" stroke="none">
      <path d="M907 1744 c-4 -4 -7 -44 -7 -89 0 -50 -5 -86 -12 -93 -8 -8 -8 -12 -1 -12 17 0 23 26 23 111 l0 79 91 0 c88 0 90 -1 87 -22 -3 -22 -7 -24 -56 -27 -13 0 -20 -5 -17 -11 3 -5 1 -10 -5 -10 -7 0 -10 6 -7 13 3 9 -7 13 -34 14 -43 2 -54 -11 -13 -15 15 -1 33 -7 40 -13 10 -9 18 -9 28 0 7 6 25 10 40 9 22 -2 26 -7 26 -31 0 -25 -2 -28 -15 -17 -13 11 -14 10 -9 -4 4 -12 1 -16 -12 -14 -33 2 -54 -2 -54 -11 0 -10 19 -9 37 2 6 4 14 3 18 -2 3 -6 13 -7 22 -4 11 4 14 3 9 -6 -5 -7 -16 -9 -28 -5 -15 5 -19 3 -13 -7 5 -8 5 -11 0 -7 -4 4 -15 2 -23 -5 -9 -6 -13 -7 -9 -1 4 7 -5 11 -23 12 -32 1 -41 -14 -12 -20 15 -3 14 -5 -3 -9 -16 -5 -21 -1 -22 14 -1 12 6 21 18 24 11 3 18 11 15 19 -3 7 0 15 7 17 7 2 -4 3 -23 2 -32 -2 -35 -5 -36 -36 -1 -18 -6 -35 -13 -37 -6 -2 -9 -7 -6 -12 3 -4 -28 -13 -67 -20 -40 -6 -80 -14 -90 -16 -9 -3 -19 0 -23 6 -3 5 0 10 7 10 7 0 2 6 -12 14 -18 9 -29 10 -40 2 -13 -10 -13 -9 -2 6 10 12 12 30 7 58 -6 37 -19 47 -20 17 -1 -7 -6 -11 -13 -10 -7 2 -12 -3 -12 -10 0 -7 -7 -4 -15 7 -8 11 -15 15 -15 9 0 -5 -10 -10 -22 -10 -51 1 -78 -3 -78 -12 0 -4 10 -7 23 -7 37 3 41 -6 8 -20 -26 -11 -31 -18 -31 -49 0 -26 4 -35 18 -36 10 0 12 -3 5 -6 -7 -2 -13 -9 -13 -14 0 -6 5 -7 10 -4 6 3 10 1 10 -4 0 -6 3 -10 8 -10 4 1 9 0 12 -1 21 -9 78 -3 93 9 9 8 20 11 24 8 3 -4 1 -7 -6 -7 -9 0 -9 -4 1 -14 9 -9 17 -11 25 -4 8 6 19 6 31 -1 11 -6 22 -7 26 -4 10 10 39 13 56 6 26 -11 40 -12 34 -2 -3 5 -11 6 -17 3 -9 -5 -9 -4 -1 5 9 10 21 10 49 2 29 -8 44 -7 65 4 15 8 31 11 34 7 4 -3 11 0 16 8 7 11 10 12 10 2 0 -9 7 -11 20 -7 13 4 22 1 26 -9 3 -9 11 -13 17 -9 6 4 8 0 4 -10 -3 -10 -4 -17 -1 -17 2 0 9 12 14 26 9 22 14 25 39 19 25 -5 32 -2 44 21 13 26 14 26 20 5 3 -11 1 -21 -4 -21 -6 0 -4 -6 3 -14 11 -12 14 -12 21 0 4 7 19 13 32 12 18 -2 21 -5 13 -15 -8 -10 -7 -13 5 -13 8 0 21 -7 28 -16 9 -12 3 -10 -24 5 -42 23 -51 26 -42 11 7 -12 -18 -14 -29 -2 -4 4 -20 8 -34 8 -15 1 -34 3 -42 6 -8 3 -12 3 -8 1 4 -2 4 -12 1 -21 -6 -15 -4 -15 9 -4 11 9 18 10 23 2 7 -11 5 -11 -35 -16 -61 -8 -106 -7 -118 0 -8 5 -19 3 -25 -4 -10 -10 -8 -11 8 -6 18 6 17 5 -4 -18 -13 -13 -31 -23 -40 -21 -10 2 -24 -1 -32 -6 -9 -5 28 -8 96 -7 107 2 108 2 35 8 -51 4 -69 8 -57 14 9 4 27 6 38 3 15 -4 19 -2 15 8 -5 14 29 15 51 2 6 -4 13 -3 15 2 3 9 38 18 76 20 7 1 11 5 8 10 -3 4 6 6 20 3 20 -3 23 -7 12 -14 -12 -9 15 -3 50 9 6 3 12 0 12 -6 0 -6 16 -10 35 -9 26 1 32 4 24 14 -7 8 -6 13 3 17 7 2 -1 7 -19 11 -26 6 -30 10 -20 20 10 11 14 11 23 -2 8 -11 15 -12 30 -4 18 11 18 11 -3 12 -13 0 -23 4 -23 9 0 6 12 6 30 1 19 -5 28 -5 25 1 -4 5 1 9 9 9 9 0 16 5 16 10 0 6 4 10 8 10 20 0 6 -34 -20 -49 -27 -15 -37 -31 -20 -31 10 0 48 35 59 54 9 16 63 30 63 17 0 -4 -11 -14 -25 -21 -13 -7 -21 -18 -18 -23 4 -6 0 -8 -10 -4 -9 3 -18 0 -21 -9 -7 -19 18 -18 35 2 12 14 14 14 20 -3 5 -14 9 -9 18 22 6 23 9 51 6 63 -2 12 0 22 6 22 5 0 9 30 9 67 0 74 -11 80 -14 7 -1 -45 -3 -47 -29 -48 -16 -1 -30 1 -33 5 -2 4 -13 5 -24 2 -12 -3 -22 1 -25 10 -5 12 -11 12 -31 3 -13 -6 -22 -17 -19 -23 2 -7 -1 -13 -6 -13 -6 0 -9 -11 -7 -24 3 -16 -2 -27 -15 -35 -10 -7 -16 -8 -13 -2 7 11 -17 19 -74 25 -108 12 -111 16 -119 146 l-6 85 -90 3 c-50 1 -94 0 -98 -4z m-222 -163 c-3 -6 -14 -11 -23 -11 -15 1 -15 2 2 15 21 16 32 13 21 -4z m-45 1 c0 -10 -22 -32 -32 -32 -4 0 -4 7 -1 17 4 11 3 14 -5 9 -7 -4 -12 -2 -12 3 0 6 11 11 25 11 14 0 25 -4 25 -8z m455 -30 c-3 -3 -11 0 -18 7 -9 10 -8 11 6 5 10 -3 15 -9 12 -12z m322 -18 c-3 -3 -12 -4 -19 -1 -8 3 -5 6 6 6 11 1 17 -2 13 -5z m66 -20 c-7 -19 -10 -18 -16 5 -3 13 -1 18 9 14 7 -2 10 -11 7 -19z m-566 -16 c-3 -8 -6 -5 -6 6 -1 11 2 17 5 13 3 -3 4 -12 1 -19z m543 12 c0 -5 -7 -10 -16 -10 -8 0 -12 5 -9 10 3 6 10 10 16 10 5 0 9 -4 9 -10z m-615 -10 c-3 -5 -12 -10 -18 -10 -7 0 -6 4 3 10 19 12 23 12 15 0z m312 4 c-3 -3 -12 -4 -19 -1 -8 3 -5 6 6 6 11 1 17 -2 13 -5z m-467 -24 c8 -5 11 -10 5 -10 -5 0 -17 5 -25 10 -8 5 -10 10 -5 10 6 0 17 -5 25 -10z m73 -2 c12 -7 24 -14 27 -16 11 -7 -24 -19 -43 -14 -20 5 -20 6 -1 13 18 6 17 8 -6 17 -14 6 -19 11 -12 11 7 1 22 -5 35 -11z m190 -3 c-3 -9 -8 -14 -10 -11 -3 3 -2 9 2 15 9 16 15 13 8 -4z m-97 -7 c5 -8 2 -9 -9 -5 -9 3 -19 2 -22 -3 -4 -6 -11 -10 -17 -10 -7 0 -6 6 2 15 15 18 36 19 46 3z M930 1716 c0 -9 50 -12 62 -5 8 6 -1 9 -24 9 -21 0 -38 -2 -38 -4z M1010 1710 c0 -5 4 -10 9 -10 6 0 13 5 16 10 3 6 -1 10 -9 10 -9 0 -16 -4 -16 -10z M653 1693 c23 -6 21 -18 -5 -31 -14 -6 -17 -11 -8 -11 25 -1 43 16 37 33 -4 9 -14 15 -24 15 -17 -1 -17 -2 0 -6z M1323 1685 c-3 -9 -3 -19 1 -22 3 -4 6 1 6 10 0 8 10 18 23 20 l22 4 -23 2 c-12 0 -25 -6 -29 -14z M588 1683 c7 -3 16 -2 19 1 4 3 -2 6 -13 5 -11 0 -14 -3 -6 -6z M1398 1683 c7 -3 16 -2 19 1 4 3 -2 6 -13 5 -11 0 -14 -3 -6 -6z M528 1673 c7 -3 16 -2 19 1 4 3 -2 6 -13 5 -11 0 -14 -3 -6 -6z M1458 1673 c7 -3 16 -2 19 1 4 3 -2 6 -13 5 -11 0 -14 -3 -6 -6z M493 1605 c0 -38 2 -53 4 -32 2 20 2 52 0 70 -2 17 -4 1 -4 -38z M1371 1654 c0 -11 3 -14 6 -6 3 7 2 16 -1 19 -3 4 -6 -2 -5 -13z M580 1655 c0 -7 30 -13 34 -7 3 4 -4 9 -15 9 -10 1 -19 0 -19 -2z M1301 1584 c0 -11 3 -14 6 -6 3 7 2 16 -1 19 -3 4 -6 -2 -5 -13z M1270 1533 c-14 -7 -18 -13 -10 -13 17 0 47 17 40 23 -3 2 -16 -2 -30 -10z M778 1533 c7 -3 16 -2 19 1 4 3 -2 6 -13 5 -11 0 -14 -3 -6 -6z M1208 1533 c7 -3 16 -2 19 1 4 3 -2 6 -13 5 -11 0 -14 -3 -6 -6z M966 1442 c-4 -7 2 -13 16 -16 40 -7 68 -5 68 6 0 6 -15 8 -35 6 -19 -2 -36 1 -38 6 -2 6 -6 5 -11 -2z M604 1391 c4 -5 0 -12 -6 -14 -7 -3 10 -6 39 -6 31 -1 53 -6 56 -13 3 -10 7 -10 18 -2 8 6 26 9 42 7 15 -2 27 1 27 7 0 10 -47 14 -124 10 -25 -1 -36 2 -32 9 4 6 0 11 -9 11 -9 0 -14 -4 -11 -9z M1171 1390 c-9 -5 -5 -9 10 -13 28 -7 31 -6 14 10 -6 6 -18 8 -24 3z M888 1383 c7 -3 16 -2 19 1 4 3 -2 6 -13 5 -11 0 -14 -3 -6 -6z M1370 1379 c0 -5 -4 -7 -10 -4 -5 3 -10 1 -10 -5 0 -7 -8 -9 -20 -5 -11 3 -20 2 -20 -4 0 -19 18 -21 49 -5 30 15 42 34 21 34 -5 0 -10 -5 -10 -11z M797 1369 c7 -7 15 -10 18 -7 3 3 -2 9 -12 12 -14 6 -15 5 -6 -5z M1106 1368 c3 -4 9 -8 15 -8 5 0 9 4 9 8 0 5 -7 9 -15 9 -8 0 -12 -4 -9 -9z M1262 1361 c-8 -4 -13 -12 -13 -17 0 -4 -23 -7 -52 -7 l-52 1 59 -9 c41 -6 62 -5 67 2 4 7 8 5 12 -5 4 -9 17 -16 29 -15 15 0 18 3 8 6 -21 8 -50 40 -43 47 9 9 0 7 -15 -3z M570 1345 c5 -6 23 -10 40 -7 39 6 35 10 -13 15 -28 3 -35 1 -27 -8z M1410 1342 c0 -12 3 -12 15 -2 8 7 15 13 15 15 0 1 -7 2 -15 2 -8 0 -15 -7 -15 -15z M800 1338 c0 -4 14 -8 30 -8 17 0 30 2 30 4 0 2 -13 6 -30 8 -16 3 -30 1 -30 -4z M607 1319 c7 -7 15 -10 18 -7 3 3 -2 9 -12 12 -14 6 -15 5 -6 -5z M738 1323 c6 -2 18 -2 25 0 6 3 1 5 -13 5 -14 0 -19 -2 -12 -5z M1370 1318 c0 -4 4 -8 9 -8 6 0 12 4 15 8 3 5 -1 9 -9 9 -8 0 -15 -4 -15 -9z M688 1313 c7 -3 16 -2 19 1 4 3 -2 6 -13 5 -11 0 -14 -3 -6 -6z M1340 1310 c0 -5 5 -10 10 -10 6 0 10 5 10 10 0 6 -4 10 -10 10 -5 0 -10 -4 -10 -10z M843 1293 c9 -2 25 -2 35 0 9 3 1 5 -18 5 -19 0 -27 -2 -17 -5z M1128 1293 c12 -2 30 -2 40 0 9 3 -1 5 -23 4 -22 0 -30 -2 -17 -4z M758 1283 c6 -2 18 -2 25 0 6 3 1 5 -13 5 -14 0 -19 -2 -12 -5z M1218 1283 c6 -2 18 -2 25 0 6 3 1 5 -13 5 -14 0 -19 -2 -12 -5z M708 1273 c7 -3 16 -2 19 1 4 3 -2 6 -13 5 -11 0 -14 -3 -6 -6z M905 1270 c-4 -6 -11 -8 -16 -5 -5 4 -9 1 -9 -5 0 -7 9 -14 20 -17 11 -3 17 -10 13 -15 -3 -6 0 -8 8 -6 8 3 13 11 11 18 -2 8 5 11 20 7 22 -6 22 -5 5 8 -11 7 -26 11 -35 8 -10 -4 -13 -2 -8 5 4 7 5 12 2 12 -3 0 -8 -5 -11 -10z M967 1267 c3 -5 8 -6 11 -3 3 3 12 0 20 -7 11 -9 16 -9 19 0 3 7 13 9 31 4 15 -5 36 -5 47 0 18 7 18 8 -5 10 -68 5 -128 3 -123 -4z M1278 1273 c7 -3 16 -2 19 1 4 3 -2 6 -13 5 -11 0 -14 -3 -6 -6z M845 1261 c17 -8 15 -9 -15 -14 l-35 -5 35 2 c36 1 46 19 13 23 -15 2 -15 1 2 -6z M1195 1261 c-3 -5 0 -13 6 -17 7 -4 9 -3 5 4 -3 5 0 13 6 15 9 4 10 6 1 6 -6 1 -14 -3 -18 -8z M743 1253 c-23 -4 -34 -43 -13 -43 5 0 6 8 3 17 -5 12 -2 15 10 10 21 -8 49 2 41 14 -3 5 -8 8 -12 8 -4 -1 -17 -4 -29 -6z M1125 1251 c-6 -11 13 -26 22 -17 4 3 0 6 -8 6 -11 0 -11 2 1 10 9 6 10 10 3 10 -6 0 -14 -4 -18 -9z M1020 1240 c-23 -7 -23 -8 -3 -9 12 -1 25 4 28 9 3 6 5 10 3 9 -2 -1 -14 -5 -28 -9z M1330 1225 c-1 -11 -2 -23 -1 -27 0 -5 -4 -8 -10 -8 -5 0 -7 -4 -4 -10 3 -5 2 -10 -4 -10 -5 0 -11 6 -14 13 -2 6 -7 9 -11 6 -3 -3 0 -13 7 -23 10 -14 15 -15 30 -3 14 9 17 22 14 47 -2 19 -5 26 -7 15z M663 1195 c0 -22 2 -30 4 -17 2 12 2 30 0 40 -3 9 -5 -1 -4 -23z M818 1218 c8 -8 20 -8 44 -1 l33 11 -44 1 c-34 1 -42 -2 -33 -11z M949 1173 c-13 -17 -13 -17 6 -3 11 8 22 16 24 17 2 2 0 3 -6 3 -6 0 -17 -8 -24 -17z M1168 1178 c-16 -5 -28 -17 -28 -25 0 -11 -6 -8 -20 8 -10 13 -19 19 -20 13 0 -6 -15 -10 -35 -9 -21 2 -32 -1 -29 -7 4 -5 21 -8 40 -6 22 3 35 -1 39 -10 5 -13 14 -13 113 4 34 6 35 8 12 14 -14 3 -27 4 -30 1 -8 -10 -50 -9 -50 0 0 5 9 9 20 9 11 0 20 5 20 10 0 6 -1 10 -2 9 -2 0 -15 -5 -30 -11z M690 1140 c0 -40 5 -44 42 -41 12 2 15 -4 11 -19 -3 -12 -1 -20 7 -20 8 0 10 -8 7 -22 -5 -21 -5 -21 7 -5 9 11 27 17 51 17 21 0 35 3 31 8 -4 4 -26 7 -48 7 -47 0 -62 20 -26 34 22 9 22 10 -7 12 -16 1 -34 1 -38 0 -5 -1 -5 4 -2 10 5 6 20 8 39 5 23 -5 33 -3 33 7 0 9 -14 12 -46 10 -36 -2 -41 0 -23 7 32 13 27 30 -8 30 -28 0 -30 -2 -30 -40z M830 1169 c0 -5 9 -9 20 -9 11 0 20 2 20 4 0 2 -9 6 -20 9 -11 3 -20 1 -20 -4z M901 1171 c-7 -5 -12 -14 -10 -20 2 -6 10 -2 17 9 14 22 13 23 -7 11z M765 1160 c4 -6 11 -8 16 -5 14 9 11 15 -7 15 -8 0 -12 -5 -9 -10z M965 1150 c-3 -6 1 -7 9 -4 18 7 21 14 7 14 -6 0 -13 -4 -16 -10z M810 1139 c0 -5 5 -7 10 -4 6 3 10 8 10 11 0 2 -4 4 -10 4 -5 0 -10 -5 -10 -11z M860 1136 c0 -9 -11 -16 -27 -18 -30 -3 -39 -28 -13 -35 12 -4 12 -3 2 5 -10 7 -2 11 26 16 42 6 72 0 84 -18 5 -8 8 -7 8 1 0 7 7 10 18 7 14 -5 14 -4 2 4 -8 6 -17 9 -21 6 -4 -2 -10 0 -14 6 -4 6 -11 8 -16 5 -5 -4 -9 -2 -9 4 0 6 -7 7 -17 4 -10 -4 -14 -2 -9 5 3 6 2 13 -4 17 -5 3 -10 -1 -10 -9z M936 1124 c20 -11 30 -11 40 -3 8 6 14 7 14 2 0 -4 18 -7 40 -5 71 7 51 17 -36 18 -78 1 -83 0 -58 -12z M1090 1133 c0 -5 5 -15 10 -23 8 -12 10 -11 10 8 0 12 -4 22 -10 22 -5 0 -10 -3 -10 -7z M1321 1120 c-2 -8 -3 -23 -2 -32 1 -9 -6 -18 -16 -21 -17 -4 -17 -5 0 -6 30 -2 13 -26 -19 -27 -16 -1 -30 -3 -31 -4 -2 -1 -8 -3 -15 -4 -6 0 -13 -7 -16 -15 -3 -9 0 -11 7 -7 7 4 19 2 28 -6 9 -7 14 -8 10 -2 -4 7 3 12 19 12 18 0 24 -5 20 -15 -3 -8 -6 -16 -6 -19 0 -2 -8 -1 -17 3 -17 6 -17 5 0 -14 23 -27 3 -44 -21 -18 -11 11 -12 15 -3 10 10 -6 12 -4 7 4 -5 7 -10 10 -13 7 -3 -3 -14 -1 -24 4 -20 11 -40 -7 -21 -19 7 -4 -2 -12 -19 -18 -31 -12 -31 -12 -14 7 21 23 10 27 -14 6 -22 -19 -87 -10 -70 10 9 11 8 14 -4 14 -17 0 -33 -17 -40 -45 -4 -17 -5 -16 -6 5 -1 22 -3 23 -12 8 -5 -10 -17 -18 -25 -18 -10 0 -12 -5 -8 -12 6 -9 3 -9 -9 0 -10 9 -27 11 -45 7 -21 -4 -35 -1 -47 11 -16 17 -16 18 1 31 13 9 21 10 31 2 10 -9 13 -8 13 0 0 8 8 10 20 6 10 -3 29 -1 40 5 19 10 20 9 15 -17 l-6 -28 15 25 c8 14 15 22 16 18 0 -4 16 0 35 8 19 8 35 11 35 7 0 -5 11 -13 25 -20 20 -9 25 -8 25 3 0 8 5 14 11 14 5 0 7 6 3 13 -5 7 0 6 11 -3 11 -9 16 -10 11 -2 -4 7 -2 12 4 12 7 0 10 5 8 12 -6 17 -50 18 -70 1 -9 -8 -21 -12 -27 -9 -5 4 -12 2 -16 -4 -4 -7 -12 -7 -25 0 -24 13 -33 13 -25 0 3 -5 2 -10 -4 -10 -5 0 -12 6 -14 13 -4 10 -6 10 -6 0 -1 -7 -9 -13 -18 -13 -15 0 -16 2 -3 10 13 8 13 10 -1 10 -9 0 -19 -7 -23 -15 -5 -15 -57 -21 -69 -8 -9 8 -123 7 -137 -2 -5 -3 -10 -1 -10 4 0 6 -5 11 -11 11 -5 0 -7 -4 -4 -10 3 -5 2 -10 -4 -10 -5 0 -12 6 -14 13 -4 9 -6 9 -6 -1 -1 -7 -5 -10 -11 -7 -5 3 -10 1 -10 -4 0 -6 6 -11 13 -11 7 0 18 -9 25 -20 13 -21 7 -25 -25 -21 -17 2 -17 -36 0 -42 10 -4 9 -6 0 -6 -7 -1 -13 -6 -13 -12 0 -5 5 -7 10 -4 6 3 10 0 11 -7 0 -7 4 -3 9 10 5 12 14 22 19 22 6 0 8 -7 5 -15 -4 -10 0 -15 11 -15 9 0 13 5 10 10 -3 6 0 10 8 10 7 0 14 7 14 15 0 11 -7 13 -21 9 -20 -6 -20 -5 -3 8 10 7 19 22 19 34 2 19 16 22 64 16 16 -3 24 -40 10 -45 -6 -2 -3 -3 8 -1 11 2 20 -5 23 -17 3 -10 9 -16 14 -13 5 3 9 -1 9 -9 0 -20 27 -42 32 -27 2 7 13 2 28 -11 l25 -22 -27 5 c-20 4 -28 1 -28 -9 0 -8 5 -11 10 -8 6 3 10 1 10 -4 0 -6 -13 -11 -29 -11 -16 0 -35 -8 -42 -17 -11 -15 -11 -16 1 -5 18 15 60 16 60 0 0 -6 3 -8 8 -4 7 7 8 11 11 37 2 22 56 4 69 -23 7 -16 18 -28 25 -27 9 0 9 2 0 6 -10 3 -10 8 1 19 18 17 32 18 42 2 5 -7 3 -8 -5 -3 -19 11 -10 -47 9 -62 13 -11 13 -12 -3 -13 -10 0 -15 -4 -12 -10 3 -5 -1 -10 -9 -10 -9 0 -16 8 -17 18 0 14 -2 14 -8 -3 -6 -16 -4 -21 13 -26 11 -3 25 -3 30 2 5 4 14 5 21 3 7 -3 11 3 9 18 -1 13 -3 27 -3 31 -1 5 -5 5 -11 2 -5 -3 -10 -2 -10 3 0 18 22 72 30 72 8 0 24 -30 22 -42 -1 -4 4 -5 11 -2 7 2 14 14 14 27 2 17 0 18 -7 7 -5 -8 -12 -12 -15 -9 -3 4 0 11 7 17 9 7 19 6 33 -4 16 -12 17 -16 6 -23 -7 -5 -10 -14 -7 -20 7 -11 -31 -69 -41 -63 -3 2 -11 -7 -17 -19 -15 -30 -128 -92 -138 -76 -6 9 -8 8 -8 -2 0 -10 -3 -11 -13 -2 -8 6 -16 8 -19 5 -3 -3 -19 -7 -34 -8 -16 -2 -38 -5 -49 -6 -12 -2 -7 -5 15 -10 31 -7 28 -8 -23 -9 -42 -1 -56 2 -51 11 5 8 0 9 -14 6 -12 -4 -22 -2 -22 4 0 5 -4 7 -9 4 -5 -4 -34 -7 -65 -7 -34 -1 -56 -6 -56 -13 0 -6 -4 -4 -10 4 -5 8 -12 11 -17 7 -9 -10 16 -27 31 -21 31 10 66 11 72 2 4 -6 3 -8 -2 -5 -6 3 -16 2 -24 -4 -12 -7 -10 -9 8 -9 13 0 30 7 39 15 8 8 20 12 26 8 7 -5 106 -9 222 -9 147 -1 236 -6 295 -18 47 -8 88 -16 92 -16 4 0 0 16 -8 35 -39 94 -56 200 -63 390 -4 105 -9 183 -10 175z m-545 -175 c-3 -24 -11 -25 -24 -5 -10 17 -10 20 7 20 11 0 18 -6 17 -15z m458 -25 c-5 -5 -16 -5 -24 1 -13 9 -12 10 3 5 11 -4 17 0 18 12 0 12 2 13 6 4 3 -8 1 -18 -3 -22z m-103 -19 c-6 -10 -7 -22 -3 -26 4 -5 2 -5 -5 -1 -16 9 -12 46 4 46 10 0 11 -5 4 -19z m159 11 c0 -13 -12 -22 -22 -16 -10 6 -1 24 13 24 5 0 9 -4 9 -8z m-93 -9 c-4 -3 -2 -12 4 -19 7 -8 6 -14 -2 -20 -8 -4 -9 -3 -5 4 7 12 -1 15 -36 15 -10 0 -18 4 -18 9 0 6 6 8 13 5 8 -3 20 -1 28 4 17 10 25 12 16 2z m-157 -18 c4 3 11 -2 14 -11 4 -9 2 -13 -5 -8 -6 4 -16 0 -21 -7 -7 -11 -8 -9 -4 5 5 15 2 17 -14 13 -11 -3 -20 -1 -20 3 0 11 34 18 38 8 2 -5 7 -6 12 -3z m195 5 c3 -6 -1 -7 -9 -4 -18 7 -21 14 -7 14 6 0 13 -4 16 -10z m33 -31 c-3 -8 -7 -3 -11 10 -4 17 -3 21 5 13 5 -5 8 -16 6 -23z m-168 11 c0 -5 -2 -10 -4 -10 -3 0 -8 5 -11 10 -3 6 -1 10 4 10 6 0 11 -4 11 -10z m130 -41 c0 -3 -6 -6 -14 -6 -7 0 -12 7 -11 16 2 9 4 18 4 21 2 6 21 -23 21 -31z m-164 2 c-4 -6 -14 -7 -23 -4 -15 6 -14 7 3 13 22 9 29 6 20 -9z m59 -1 c-3 -5 -16 -10 -28 -9 -20 1 -20 2 3 9 14 4 26 8 28 9 2 1 0 -3 -3 -9z M1119 1094 c-10 -13 -10 -17 1 -24 8 -5 17 -6 20 -3 3 3 -1 8 -8 10 -10 4 -10 8 -1 19 6 8 9 14 6 14 -2 0 -10 -7 -18 -16z M972 1076 c-8 -17 -7 -23 3 -23 15 0 28 34 16 42 -5 2 -13 -6 -19 -19z M697 1074 c2 -7 11 -10 19 -7 19 7 18 10 -5 16 -13 3 -18 1 -14 -9z M674 980 c0 -58 1 -81 3 -52 2 28 2 76 0 105 -2 28 -3 5 -3 -53z M1035 1040 c3 -5 8 -10 11 -10 2 0 4 5 4 10 0 6 -5 10 -11 10 -5 0 -7 -4 -4 -10z M780 1030 c0 -4 9 -10 20 -13 11 -3 20 -2 20 3 0 4 -9 10 -20 13 -11 3 -20 2 -20 -3z M970 1029 c0 -5 5 -7 10 -4 6 3 10 8 10 11 0 2 -4 4 -10 4 -5 0 -10 -5 -10 -11z M920 1002 c0 -4 12 -8 28 -9 23 -1 24 -1 7 7 -26 11 -35 12 -35 2z M705 950 c3 -5 8 -10 11 -10 2 0 4 5 4 10 0 6 -5 10 -11 10 -5 0 -7 -4 -4 -10z M816 942 c-12 -20 -16 -52 -5 -52 5 0 9 -5 9 -11 0 -5 -4 -8 -9 -4 -5 3 -12 1 -15 -4 -4 -5 4 -12 16 -14 13 -2 -2 -5 -32 -7 -30 -1 -62 -3 -70 -4 -8 0 -17 -12 -18 -25 -2 -15 0 -21 7 -17 6 4 12 -1 13 -11 0 -10 2 -23 2 -30 1 -6 5 -15 10 -20 5 -4 6 -3 3 3 -9 15 19 39 28 24 3 -5 12 -10 18 -10 8 0 7 3 -2 9 -7 5 -11 14 -7 20 5 7 1 9 -9 5 -11 -5 -14 -2 -9 12 5 18 5 18 -10 0 -14 -18 -15 -18 -13 3 1 16 8 21 32 22 16 1 35 0 40 -1 51 -11 94 2 65 20 -7 4 -10 12 -6 18 3 6 3 12 -1 15 -5 2 -3 3 3 1 6 -1 17 2 25 7 10 6 7 9 -13 9 -20 0 -29 7 -35 27 -6 18 -12 23 -17 15z M871 852 c6 -10 21 -19 33 -19 20 -2 20 -1 -3 11 -18 10 -20 15 -10 19 8 3 5 6 -9 6 -19 1 -21 -2 -11 -17z M662 800 c0 -14 2 -19 5 -12 2 6 2 18 0 25 -3 6 -5 1 -5 -13z M847 813 c-9 -2 -15 -9 -12 -14 4 -5 -1 -9 -10 -9 -9 0 -13 5 -9 11 4 8 0 7 -15 0 -19 -11 -20 -13 -6 -27 13 -14 18 -14 32 -2 10 7 14 8 10 1 -5 -7 -1 -10 10 -8 10 2 21 4 26 4 4 1 7 12 7 26 0 25 -1 26 -33 18z M900 812 c0 -4 9 -8 20 -9 11 -1 20 2 20 8 0 5 -9 9 -20 9 -11 0 -20 -4 -20 -8z M1000 796 c0 -2 7 -6 15 -10 8 -3 15 -1 15 4 0 6 -7 10 -15 10 -8 0 -15 -2 -15 -4z M652 730 c0 -14 2 -19 5 -12 2 6 2 18 0 25 -3 6 -5 1 -5 -13z M1060 730 c0 -5 5 -10 10 -10 6 0 10 5 10 10 0 6 -4 10 -10 10 -5 0 -10 -4 -10 -10z M1173 725 c0 -12 3 -12 16 -3 9 7 18 14 20 15 2 2 -5 3 -16 3 -11 0 -20 -7 -20 -15z M750 709 c0 -5 -5 -7 -11 -3 -7 4 -6 -3 2 -17 7 -13 12 -28 10 -34 -1 -5 3 -4 10 3 10 9 10 15 2 23 -6 6 -9 18 -6 25 3 8 2 14 -1 14 -3 0 -6 -5 -6 -11z M775 710 c-3 -5 1 -10 10 -10 9 0 13 5 10 10 -3 6 -8 10 -10 10 -2 0 -7 -4 -10 -10z M670 686 c0 -2 7 -6 15 -10 8 -3 15 -1 15 4 0 6 -7 10 -15 10 -8 0 -15 -2 -15 -4z M924 669 c1 -7 9 -13 18 -15 11 -1 15 3 11 13 -4 11 -8 12 -13 3 -6 -9 -9 -9 -13 -1 -4 8 -5 8 -3 0z M631 644 c0 -11 3 -14 6 -6 3 7 2 16 -1 19 -3 4 -6 -2 -5 -13z M625 530 c-3 -5 -1 -10 4 -10 6 0 11 5 11 10 0 6 -2 10 -4 10 -3 0 -8 -4 -11 -10z M658 533 c6 -2 18 -2 25 0 6 3 1 5 -13 5 -14 0 -19 -2 -12 -5z M923 513 c42 -2 112 -2 155 0 42 1 7 3 -78 3 -85 0 -120 -2 -77 -3z M753 503 c9 -2 23 -2 30 0 6 3 -1 5 -18 5 -16 0 -22 -2 -12 -5z M1223 503 c9 -2 23 -2 30 0 6 3 -1 5 -18 5 -16 0 -22 -2 -12 -5z M678 493 c6 -2 18 -2 25 0 6 3 1 5 -13 5 -14 0 -19 -2 -12 -5z M1298 493 c6 -2 18 -2 25 0 6 3 1 5 -13 5 -14 0 -19 -2 -12 -5z M721 454 c-6 -15 -9 -29 -6 -32 3 -3 5 0 5 6 0 7 3 11 8 11 4 -1 14 -1 22 0 13 1 13 2 0 11 -13 9 -13 11 0 20 13 8 13 10 -1 10 -9 0 -21 -12 -28 -26z M780 470 c0 -5 7 -7 15 -4 8 4 15 8 15 10 0 2 -7 4 -15 4 -8 0 -15 -4 -15 -10z M1320 458 c0 -6 -11 -8 -25 -6 -14 3 -25 2 -25 -3 0 -15 -42 -22 -51 -8 -7 11 -9 11 -9 -2 0 -9 -7 -16 -15 -16 -11 0 -12 4 -4 14 19 22 1 15 -21 -9 -11 -12 -20 -18 -20 -14 0 5 -8 2 -17 -5 -13 -11 -15 -11 -9 -1 6 10 -4 13 -44 11 -28 -2 -54 -7 -57 -12 -3 -6 -2 -7 4 -4 5 3 10 0 10 -8 0 -10 -5 -11 -19 -4 -13 7 -20 6 -23 -4 -3 -7 -18 -12 -35 -11 -17 1 -30 -2 -30 -8 0 -5 -4 -6 -10 -3 -5 3 -10 1 -10 -5 0 -8 14 -10 43 -6 37 5 40 4 24 -8 -16 -13 -14 -14 25 -12 24 2 53 -1 65 -5 14 -5 25 -4 29 2 3 6 15 9 25 6 10 -3 17 -2 16 2 -3 8 7 11 34 11 11 0 17 -4 14 -10 -3 -6 1 -7 9 -4 9 3 16 12 16 20 0 8 7 14 15 14 8 0 15 -4 15 -10 0 -5 -5 -10 -12 -10 -6 0 -8 -3 -5 -7 9 -9 48 27 41 38 -3 5 -10 7 -15 4 -5 -4 -6 2 -2 11 4 10 8 13 10 7 3 -7 12 -9 21 -5 16 6 16 4 1 -19 -17 -25 -17 -25 17 -25 38 0 38 -1 23 29 -10 21 -10 21 5 3 9 -11 16 -26 16 -33 0 -7 5 -13 10 -13 6 0 9 5 8 12 -3 12 3 14 43 17 18 1 19 3 9 16 -8 9 -8 15 -2 15 6 0 12 -6 14 -12 4 -10 10 -10 29 -1 13 6 18 12 10 12 -11 1 -10 5 4 15 11 8 24 12 28 9 5 -3 3 -9 -4 -14 -11 -7 -9 -9 6 -9 12 0 26 -4 33 -10 7 -5 -3 6 -22 26 -27 29 -43 37 -78 40 -23 2 -58 6 -75 8 -19 2 -33 -1 -33 -6z m150 -18 c13 -8 13 -10 -2 -10 -9 0 -20 5 -23 10 -8 13 5 13 25 0z m-379 -39 c-8 -5 -20 -7 -28 -4 -21 8 -15 13 15 13 20 0 23 -3 13 -9z m134 -11 c-3 -5 -13 -10 -21 -10 -8 0 -12 -4 -9 -10 3 -5 4 -10 1 -10 -17 0 -13 22 6 29 30 13 30 13 23 1z m150 0 c3 -6 -4 -10 -17 -10 -18 0 -20 2 -8 10 19 12 18 12 25 0z m-210 -10 c3 -6 -4 -10 -17 -10 -18 0 -20 2 -8 10 19 12 18 12 25 0z m-55 -10 c0 -5 -5 -10 -11 -10 -5 0 -7 5 -4 10 3 6 8 10 11 10 2 0 4 -4 4 -10z m-57 -17 c-7 -2 -21 -2 -30 0 -10 3 -4 5 12 5 17 0 24 -2 18 -5z M524 444 c-18 -14 -18 -14 6 -3 31 14 36 19 24 19 -6 0 -19 -7 -30 -16z M661 444 c0 -11 3 -14 6 -6 3 7 2 16 -1 19 -3 4 -6 -2 -5 -13z M748 409 c-10 -5 -18 -7 -18 -3 0 3 -7 1 -15 -6 -8 -7 -15 -9 -15 -5 0 4 -7 2 -15 -5 -13 -11 -15 -10 -9 6 5 16 4 17 -5 3 -8 -12 -23 -16 -56 -14 -25 2 -43 0 -41 -4 3 -4 -14 -8 -36 -9 -59 -3 -83 -31 -29 -35 11 -1 21 -5 21 -10 0 -4 -13 -6 -29 -4 -23 4 -29 1 -28 -12 1 -14 8 -16 49 -11 38 5 48 4 44 -7 -4 -9 4 -13 28 -13 20 0 36 6 39 14 6 15 84 13 99 -2 4 -4 -8 -6 -27 -4 -21 3 -35 0 -35 -7 0 -6 -3 -10 -7 -9 -5 2 -9 0 -10 -4 -6 -17 -2 -28 9 -28 6 0 9 3 5 6 -10 10 16 30 41 31 16 1 22 -3 20 -14 -2 -9 3 -18 10 -20 7 -3 10 1 6 11 -4 11 0 16 12 17 11 0 14 3 7 6 -7 2 -13 13 -13 24 0 13 5 17 17 12 13 -5 15 -2 10 11 -5 13 -3 17 7 13 7 -3 19 0 25 6 6 6 11 8 11 5 0 -4 -8 -15 -17 -24 -16 -15 -16 -17 -2 -12 9 4 21 2 26 -3 6 -6 15 -3 24 8 13 16 12 17 -3 5 -9 -8 -19 -9 -22 -4 -8 13 20 35 34 27 5 -3 10 -2 10 4 0 6 6 8 14 5 11 -4 13 0 9 16 -4 16 -8 18 -14 8 -5 -7 -18 -14 -29 -14 -16 -1 -19 3 -15 20 2 11 2 15 -1 8 -3 -6 -10 -10 -14 -7 -5 3 -12 0 -16 -6 -5 -8 -3 -9 6 -4 9 5 11 4 6 -3 -11 -19 -26 -14 -26 8 0 11 -7 20 -16 20 -8 0 -12 5 -9 10 8 12 5 12 -17 -1z m-163 -79 c-3 -5 -12 -10 -18 -10 -7 0 -6 4 3 10 19 12 23 12 15 0z M1436 364 c-23 -23 -20 -30 4 -9 11 10 20 20 20 22 0 7 -9 2 -24 -13z M1290 340 c0 -5 5 -10 10 -10 6 0 10 5 10 10 0 6 -4 10 -10 10 -5 0 -10 -4 -10 -10z M1542 341 c-11 -7 -11 -9 2 -14 10 -4 16 -1 16 8 0 17 -1 17 -18 6z M928 333 c7 -3 16 -2 19 1 4 3 -2 6 -13 5 -11 0 -14 -3 -6 -6z M1339 313 c-13 -16 -12 -17 4 -4 9 7 17 15 17 17 0 8 -8 3 -21 -13z M1387 314 c3 -8 10 -11 16 -7 6 3 7 1 3 -5 -5 -9 -13 -9 -26 -2 -15 8 -21 6 -30 -10 -6 -11 -8 -25 -5 -30 3 -6 1 -10 -4 -10 -6 0 -11 5 -11 11 0 5 -5 7 -10 4 -6 -4 -8 -11 -4 -16 6 -11 62 -5 72 7 4 4 -1 4 -12 0 -14 -5 -17 -3 -12 10 3 8 6 18 6 20 0 2 5 4 11 4 5 0 7 -4 4 -10 -3 -6 1 -7 9 -4 11 4 16 0 16 -11 0 -9 4 -14 9 -11 5 3 9 21 9 38 0 27 -4 33 -23 34 -16 1 -22 -3 -18 -12z M434 263 l1 -58 565 0 565 0 3 53 c2 28 -1 52 -6 52 -5 0 -7 -24 -5 -52 2 -30 1 -48 -4 -41 -6 8 -14 9 -23 3 -8 -6 -72 -10 -142 -10 -115 0 -128 2 -129 18 0 15 -1 15 -8 -2 -5 -14 -10 -16 -15 -8 -4 7 -12 12 -17 12 -6 0 -7 -4 -4 -10 4 -6 -8 -10 -30 -10 -20 0 -34 4 -31 8 3 5 -1 9 -9 9 -8 0 -11 -5 -8 -10 4 -6 -1 -8 -11 -4 -10 4 -20 7 -22 7 -3 0 -2 6 2 13 4 6 -2 4 -12 -5 -19 -16 -50 -18 -337 -18 l-316 0 -4 55 -4 55 1 -57z M1188 313 c7 -3 16 -2 19 1 4 3 -2 6 -13 5 -11 0 -14 -3 -6 -6z M1444 312 c3 -5 0 -13 -6 -15 -9 -4 -10 -6 -1 -6 17 -1 25 16 12 25 -7 4 -9 3 -5 -4z M1515 310 c-3 -5 -1 -10 4 -10 6 0 11 5 11 10 0 6 -2 10 -4 10 -3 0 -8 -4 -11 -10z M1070 300 c0 -6 7 -10 15 -10 8 0 15 2 15 4 0 2 -7 6 -15 10 -8 3 -15 1 -15 -4z M1116 301 c-4 -5 3 -7 14 -4 23 6 26 13 6 13 -8 0 -17 -4 -20 -9z M768 293 c7 -3 16 -2 19 1 4 3 -2 6 -13 5 -11 0 -14 -3 -6 -6z M528 283 c7 -3 16 -2 19 1 4 3 -2 6 -13 5 -11 0 -14 -3 -6 -6z M580 250 c-12 -8 -10 -10 8 -10 13 0 20 4 17 10 -7 12 -6 12 -25 0z M1275 250 c-3 -6 1 -7 9 -4 18 7 21 14 7 14 -6 0 -13 -4 -16 -10z"/>
    </g>
    <g transform="translate(0.000000,200.000000) scale(0.100000,-0.100000)" fill="#171412" stroke="none">
      <path d="M873 1783 c-9 -3 -13 -33 -13 -98 l0 -93 -57 -8 -58 -9 -20 85 -21 85 -39 -3 c-22 -2 -78 -11 -125 -20 l-85 -17 -3 -88 c-5 -149 39 -270 118 -325 22 -15 41 -33 44 -40 3 -7 9 -88 12 -180 7 -182 -3 -296 -38 -422 -33 -121 -47 -148 -87 -171 -45 -26 -88 -81 -102 -131 -5 -21 -9 -71 -7 -111 l3 -72 605 0 605 0 3 72 c2 40 -2 90 -7 111 -14 50 -57 105 -102 131 -40 23 -54 50 -87 171 -35 126 -45 240 -38 422 3 92 9 173 12 180 3 7 22 25 44 40 79 55 123 176 118 325 l-3 88 -85 17 c-47 9 -103 18 -125 20 l-39 3 -21 -85 -20 -85 -57 9 -58 8 0 93 c0 75 -3 94 -16 99 -19 7 -233 7 -251 -1z m225 -123 c2 -46 7 -89 13 -96 14 -17 157 -38 173 -25 7 6 19 43 26 81 7 39 17 73 21 76 5 3 45 -2 90 -11 45 -8 83 -15 85 -15 8 0 4 -106 -7 -166 -14 -80 -62 -161 -109 -185 -33 -16 -40 -17 -110 -1 -104 22 -454 22 -560 -1 -70 -15 -77 -14 -110 2 -47 24 -95 105 -109 185 -10 55 -15 166 -8 166 1 0 40 7 86 15 46 8 87 13 91 10 3 -2 13 -36 20 -75 7 -38 19 -75 26 -81 15 -12 150 6 172 23 8 7 12 39 12 93 0 45 3 85 7 89 4 4 48 5 98 4 l90 -3 3 -85z m183 -380 l56 -12 -4 -222 c-5 -198 -3 -232 16 -324 12 -57 30 -126 40 -153 21 -54 20 -54 -44 -39 -22 5 -98 14 -170 20 -147 13 -429 0 -527 -24 -32 -7 -58 -12 -58 -10 0 1 5 15 11 31 55 141 73 284 66 524 l-6 197 72 12 c40 7 79 13 87 15 37 9 411 -3 461 -15z m18 -780 c193 -33 279 -114 269 -253 l-3 -42 -565 0 -565 0 -3 49 c-2 29 3 67 12 91 39 101 134 144 371 169 71 7 418 -3 484 -14z"/>
    </g>
  </g>
</svg>
