<svg xmlns="http://www.w3.org/2000/svg" viewBox="0 0 200 200" role="img" aria-labelledby="title">
  <title id="title">Sea White Queen</title>
  <g shape-rendering="geometricPrecision">
    <g transform="translate(0.000000,200.000000) scale(0.100000,-0.100000)" fill="#f2f1ec" stroke="none">
      <path d="M679 1777 c-55 -37 -79 -81 -79 -146 0 -64 21 -106 69 -142 31 -23 31 -24 31 -114 0 -51 -3 -140 -7 -199 l-6 -107 -78 77 c-63 63 -76 81 -68 95 5 10 9 42 9 72 0 99 -70 167 -170 167 -66 0 -110 -24 -147 -79 -27 -40 -31 -126 -8 -170 17 -34 68 -79 98 -87 19 -4 38 -51 129 -319 l106 -315 -46 -25 c-90 -50 -125 -122 -120 -248 l3 -72 605 0 605 0 3 72 c2 40 -2 90 -7 111 -14 51 -57 105 -104 132 -21 12 -37 27 -34 34 2 6 51 149 108 318 l104 307 36 14 c20 8 49 31 65 52 25 34 29 47 29 105 0 57 -4 72 -27 102 -39 51 -88 71 -159 66 -62 -5 -97 -23 -132 -70 -23 -31 -34 -115 -19 -156 10 -28 7 -33 -62 -101 l-73 -72 -6 98 c-4 54 -7 140 -7 192 l0 94 39 34 c47 40 65 88 59 155 -9 87 -65 139 -157 146 -51 4 -67 1 -105 -22 -78 -45 -107 -141 -66 -220 l19 -38 -46 -169 c-25 -93 -49 -169 -52 -169 -4 0 -29 76 -57 168 -49 167 -50 168 -32 198 27 43 24 132 -5 175 -37 55 -81 79 -147 79 -43 0 -65 -6 -91 -23z"/>
    </g>
    <g transform="translate(0.000000,200.000000) scale(0.100000,-0.100000)" fill="#c6c0b6" stroke="none">
      <path d="M738 1753 c7 -3 16 -2 19 1 4 3 -2 6 -13 5 -11 0 -14 -3 -6 -6z M1268 1753 c7 -3 16 -2 19 1 4 3 -2 6 -13 5 -11 0 -14 -3 -6 -6z M1309 1737 c7 -9 12 -17 10 -18 -2 0 -22 -2 -44 -5 -22 -2 -46 -5 -52 -6 -7 -1 -13 -5 -13 -9 0 -7 27 -6 80 4 8 1 20 6 26 10 14 8 48 -39 40 -56 -3 -9 -5 -9 -5 1 -1 6 -6 12 -12 12 -5 0 -8 -4 -4 -9 3 -5 -3 -12 -12 -14 -10 -3 -3 -5 15 -6 30 -1 32 -3 22 -21 -6 -11 -8 -25 -5 -30 3 -6 -1 -10 -9 -10 -8 0 -18 5 -22 12 -4 6 -3 8 3 5 5 -3 10 0 10 8 0 8 -4 15 -8 15 -11 0 -20 -31 -12 -43 4 -7 -1 -6 -10 2 -9 7 -17 11 -17 7 0 -3 -11 -1 -24 4 -15 5 -27 5 -35 -3 -6 -6 -11 -7 -11 -3 0 5 8 15 18 22 16 12 16 13 0 10 -10 -1 -21 -5 -24 -9 -4 -4 -13 -2 -21 4 -18 16 -16 4 3 -16 15 -14 14 -15 -10 -11 -32 6 -54 -25 -31 -44 7 -6 13 -17 11 -23 -1 -7 -1 -9 1 -4 10 16 21 5 25 -23 3 -16 1 -30 -4 -30 -5 0 -3 -6 4 -14 11 -11 14 -11 24 2 14 19 36 12 40 -12 2 -14 0 -16 -9 -7 -14 14 -30 15 -22 1 8 -14 -18 -13 -32 1 -6 6 -16 8 -22 5 -14 -9 -14 -36 0 -36 5 0 8 4 5 9 -3 4 6 6 20 3 19 -3 22 -7 12 -13 -18 -12 -5 -11 26 1 17 6 26 6 26 0 0 -6 -6 -10 -12 -10 -10 0 -10 -2 -1 -8 7 -4 11 -16 9 -27 -2 -15 -11 -19 -40 -18 -20 0 -34 -2 -31 -5 2 -3 -1 -12 -8 -20 -10 -13 -9 -15 4 -10 9 4 22 1 29 -5 10 -9 11 -9 6 1 -5 8 1 12 18 12 22 0 25 -5 31 -52 8 -65 2 -215 -9 -225 -4 -5 -13 -8 -19 -8 -5 0 -12 -6 -15 -14 -3 -9 0 -11 7 -7 7 4 19 2 28 -6 12 -9 15 -9 9 0 -9 15 6 16 22 0 17 -17 15 -29 -3 -22 -24 10 -17 -3 13 -25 27 -19 28 -19 29 -1 1 10 -9 30 -22 44 -23 24 -23 30 -27 259 -2 148 1 238 7 243 6 5 22 17 36 26 29 19 59 74 59 110 0 32 -32 89 -61 107 -22 15 -23 15 -10 -2z m28 -183 c-3 -3 -12 -4 -19 -1 -8 3 -5 6 6 6 11 1 17 -2 13 -5z m-110 -230 c-3 -3 -12 -4 -19 -1 -8 3 -5 6 6 6 11 1 17 -2 13 -5z M674 1718 l-19 -23 23 19 c21 18 27 26 19 26 -2 0 -12 -10 -23 -22z M813 1724 c-18 -9 -30 -21 -26 -27 3 -6 1 -7 -5 -3 -6 4 -9 13 -5 21 3 10 -2 15 -16 15 -25 0 -26 -6 -7 -26 8 -7 16 -18 18 -22 1 -5 20 -7 40 -4 22 2 35 8 32 14 -4 6 4 5 16 -2 31 -17 35 -7 8 24 -22 25 -24 25 -55 10z M1154 1718 l-19 -23 23 19 c21 18 27 26 19 26 -2 0 -12 -10 -23 -22z M706 1701 c-3 -5 5 -11 19 -13 28 -6 34 6 9 16 -20 8 -22 8 -28 -3z M691 1671 c-8 -5 -9 -11 -3 -15 5 -3 12 1 16 9 6 17 6 18 -13 6z M641 1654 c0 -11 3 -14 6 -6 3 7 2 16 -1 19 -3 4 -6 -2 -5 -13z M887 1630 c1 -22 -2 -38 -7 -35 -5 3 -12 -1 -17 -9 -12 -21 -60 -28 -67 -9 -8 20 -8 20 9 20 8 0 15 -4 15 -9 0 -4 5 -8 10 -8 6 0 10 7 10 15 0 12 -10 15 -40 13 -29 -1 -37 -5 -29 -14 16 -19 0 -46 -23 -38 -14 4 -18 2 -14 -5 4 -7 1 -9 -8 -5 -14 5 -14 8 -1 21 8 8 21 11 27 8 7 -4 6 -1 -3 7 -9 7 -17 16 -17 21 -1 4 -4 7 -7 7 -25 0 -28 -2 -12 -11 20 -12 14 -29 -11 -29 -15 0 -15 2 -2 10 8 5 10 10 4 10 -6 0 -19 -8 -28 -19 -16 -18 -16 -20 9 -39 14 -11 31 -22 38 -25 8 -2 14 -38 18 -98 l5 -94 2 82 c2 76 3 81 22 76 21 -6 28 -23 9 -23 -5 0 -8 -4 -4 -10 3 -5 12 -7 20 -4 8 3 20 2 27 -2 19 -12 39 -14 32 -3 -3 5 -10 6 -16 3 -7 -5 -8 -2 -3 5 4 7 16 11 26 8 23 -6 22 -9 5 41 -13 36 -13 42 0 53 8 7 13 18 10 26 -3 8 -2 12 3 9 5 -3 12 1 15 10 9 23 7 84 -2 84 -4 0 -7 -18 -5 -40z m-42 -130 c-3 -5 -12 -10 -18 -10 -7 0 -6 4 3 10 19 12 23 12 15 0z m11 -32 c5 -8 2 -9 -9 -5 -9 3 -19 2 -22 -3 -4 -6 -11 -10 -17 -10 -7 0 -6 6 2 15 15 18 36 19 46 3z M785 1630 c-3 -5 -1 -10 4 -10 6 0 11 5 11 10 0 6 -2 10 -4 10 -3 0 -8 -4 -11 -10z M1228 1633 c7 -3 16 -2 19 1 4 3 -2 6 -13 5 -11 0 -14 -3 -6 -6z M678 1623 c7 -3 16 -2 19 1 4 3 -2 6 -13 5 -11 0 -14 -3 -6 -6z M641 1604 c0 -11 3 -14 6 -6 3 7 2 16 -1 19 -3 4 -6 -2 -5 -13z M1121 1604 c0 -11 3 -14 6 -6 3 7 2 16 -1 19 -3 4 -6 -2 -5 -13z M1146 1608 c3 -5 10 -6 15 -3 13 9 11 12 -6 12 -8 0 -12 -4 -9 -9z M1286 1603 c-6 -14 -5 -15 5 -6 7 7 10 15 7 18 -3 3 -9 -2 -12 -12z M665 1600 c-3 -5 -2 -10 4 -10 5 0 13 5 16 10 3 6 2 10 -4 10 -5 0 -13 -4 -16 -10z M1141 1454 c0 -11 3 -14 6 -6 3 7 2 16 -1 19 -3 4 -6 -2 -5 -13z M348 1433 c7 -3 16 -2 19 1 4 3 -2 6 -13 5 -11 0 -14 -3 -6 -6z M398 1433 c7 -3 16 -2 19 1 4 3 -2 6 -13 5 -11 0 -14 -3 -6 -6z M1598 1433 c7 -3 16 -2 19 1 4 3 -2 6 -13 5 -11 0 -14 -3 -6 -6z M1688 1423 c6 -2 9 -10 6 -15 -4 -6 -2 -8 4 -4 6 3 20 -7 32 -24 16 -23 20 -39 16 -72 -3 -24 -10 -44 -16 -46 -6 -2 -15 -15 -20 -28 -5 -13 -22 -30 -37 -37 -45 -19 -52 -31 -89 -143 -24 -75 -42 -113 -60 -126 -13 -11 -31 -26 -38 -34 -9 -9 -17 -10 -21 -4 -3 5 -1 10 5 10 6 0 8 5 5 10 -5 8 -12 7 -22 -2 -12 -10 -18 -8 -34 12 -20 27 -26 55 -9 45 6 -4 8 -10 5 -15 -3 -5 -1 -11 5 -15 5 -3 10 1 10 9 0 8 9 22 21 30 19 13 19 43 -1 31 -4 -3 -13 2 -19 9 -8 9 -8 16 -2 20 5 4 12 2 16 -4 9 -14 25 -12 25 4 0 7 15 18 33 24 26 9 28 11 7 9 -14 -1 -31 2 -37 6 -12 8 -18 -4 -14 -26 1 -5 -3 -6 -9 -2 -6 3 -7 12 -4 18 4 7 -3 2 -16 -9 -19 -19 -20 -24 -9 -42 16 -26 2 -44 -15 -19 -18 24 -30 21 -23 -4 4 -16 3 -19 -5 -11 -8 8 -16 6 -29 -9 -23 -27 -15 -47 18 -45 15 1 27 -5 29 -12 1 -7 0 -8 -2 -3 -6 12 -34 3 -34 -11 0 -5 5 -6 10 -3 6 3 10 1 10 -4 0 -6 -4 -11 -10 -11 -5 0 -13 0 -17 0 -4 0 -8 7 -9 16 -4 23 -13 29 -25 17 -8 -8 -8 -13 0 -17 14 -9 14 -26 0 -26 -5 0 -7 5 -4 10 3 6 -1 10 -9 10 -12 0 -14 5 -6 24 7 18 5 26 -6 30 -9 4 -12 2 -8 -5 4 -7 1 -10 -7 -7 -8 3 -14 10 -14 16 0 7 -4 12 -10 13 -5 1 -18 5 -27 10 -19 10 -38 -9 -20 -20 7 -4 -2 -12 -19 -18 -31 -12 -31 -12 -14 7 21 23 10 27 -14 6 -22 -19 -87 -10 -70 10 9 11 8 14 -4 14 -17 0 -33 -17 -40 -45 -4 -17 -5 -16 -6 5 -1 22 -3 23 -12 8 -5 -10 -17 -18 -25 -18 -10 0 -12 -5 -8 -12 6 -9 3 -9 -9 0 -10 9 -27 11 -45 7 -21 -4 -35 -1 -47 11 -16 17 -16 18 1 31 13 9 21 10 31 2 10 -9 13 -8 13 0 0 8 8 10 20 6 10 -3 29 -1 40 5 19 10 20 9 15 -17 l-6 -28 15 25 c8 14 15 22 16 18 0 -4 16 0 35 8 19 8 35 11 35 7 0 -5 11 -13 25 -20 20 -9 25 -8 25 3 0 8 5 14 11 14 5 0 7 6 3 13 -5 7 0 6 11 -3 11 -9 16 -10 11 -2 -4 7 -2 12 4 12 7 0 10 5 8 12 -6 17 -50 18 -70 1 -9 -8 -21 -12 -27 -9 -5 4 -12 2 -16 -4 -4 -7 -12 -7 -25 0 -24 13 -33 13 -25 0 3 -5 2 -10 -4 -10 -5 0 -12 6 -14 13 -4 10 -6 9 -6 0 -1 -7 -9 -13 -18 -13 -15 0 -16 2 -3 10 13 8 13 10 -1 10 -9 0 -19 -7 -23 -15 -5 -15 -57 -21 -69 -8 -7 6 -104 6 -140 0 -29 -5 -42 -24 -28 -41 9 -11 9 -15 -1 -18 -18 -7 -48 2 -48 14 0 6 7 8 15 4 8 -3 15 -1 15 3 0 5 -5 11 -11 13 -6 2 -2 15 11 31 15 19 20 37 17 64 l-4 38 -1 -41 c-4 -78 -17 -74 -134 43 -59 59 -108 116 -108 126 0 11 -4 15 -12 11 -8 -5 -9 -2 -5 9 3 10 2 17 -4 17 -6 0 -7 5 -4 10 4 6 15 8 26 5 17 -6 19 -1 18 37 -1 34 -2 38 -8 18 -6 -20 -12 -24 -32 -21 -40 6 -48 6 -47 1 1 -3 -4 -15 -10 -27 -7 -12 -8 -24 -3 -27 5 -3 7 -15 4 -26 -6 -23 15 -28 35 -8 9 9 20 3 46 -28 20 -21 35 -48 35 -59 0 -19 -1 -19 -9 1 -5 12 -14 25 -21 30 -8 4 -10 3 -5 -4 11 -19 -5 -14 -20 6 -13 16 -14 16 -7 -2 5 -14 3 -17 -7 -11 -8 5 -11 4 -7 -3 4 -5 18 -9 32 -7 21 2 24 -1 20 -16 -4 -13 -1 -19 9 -19 9 0 16 -4 16 -9 0 -6 9 -9 20 -8 11 1 20 5 20 10 0 5 7 2 15 -7 17 -16 21 -41 5 -31 -5 3 -10 1 -10 -4 0 -6 14 -11 31 -11 18 0 28 -4 24 -10 -4 -6 -1 -9 5 -8 7 2 17 -5 23 -14 16 -25 -1 -36 -44 -31 -31 4 -36 8 -33 29 1 13 -1 25 -4 25 -20 5 -75 6 -64 2 6 -3 9 -10 6 -16 -5 -8 -2 -8 7 1 20 18 39 15 39 -8 0 -17 -5 -19 -41 -14 -31 5 -40 3 -34 -6 5 -9 1 -10 -15 -5 -20 6 -22 5 -15 -11 4 -11 8 -24 8 -30 0 -5 12 -9 26 -8 14 1 18 -1 8 -3 -9 -2 -15 -9 -12 -14 4 -5 3 -9 -2 -9 -4 0 -8 -15 -9 -33 -1 -17 1 -26 3 -19 3 6 9 12 14 12 6 0 8 -4 4 -9 -3 -5 -1 -12 4 -16 6 -3 7 -13 4 -23 -6 -14 -4 -15 8 -5 19 15 80 22 102 11 11 -6 17 -5 17 2 0 6 -7 13 -15 16 -8 4 -15 10 -15 16 0 5 4 7 9 3 5 -3 12 5 14 17 l4 23 2 -22 c1 -26 11 -29 29 -11 8 8 12 8 12 1 0 -6 -7 -14 -16 -17 -8 -3 -13 -10 -9 -15 3 -5 0 -13 -7 -17 -8 -5 -6 -10 8 -15 15 -6 16 -8 2 -8 -9 -1 -19 -9 -21 -18 -3 -11 -5 -7 -6 10 -1 28 -21 39 -21 12 0 -8 -4 -15 -10 -15 -5 0 -7 6 -4 14 3 8 1 17 -5 21 -6 3 -11 -2 -12 -12 0 -10 -3 -13 -6 -5 -2 6 -13 12 -24 12 -15 0 -19 -7 -19 -30 0 -27 2 -30 19 -20 24 12 34 13 26 1 -3 -5 -1 -12 5 -16 5 -3 10 1 10 9 0 9 5 16 11 16 5 0 8 -4 5 -9 -8 -13 31 -20 43 -8 7 7 12 5 17 -6 3 -9 10 -17 14 -17 13 0 21 32 10 45 -7 8 -5 12 5 12 8 0 16 -7 17 -16 0 -9 2 -21 2 -28 1 -6 5 -15 10 -20 5 -4 6 -3 3 3 -9 15 19 39 28 24 3 -5 12 -10 18 -10 8 0 7 3 -2 9 -7 5 -11 14 -7 20 5 7 1 9 -9 5 -11 -5 -14 -2 -9 12 5 18 5 18 -10 0 -14 -18 -15 -18 -13 3 1 16 8 21 32 22 16 1 35 0 40 -1 51 -11 94 2 65 20 -7 4 -10 12 -6 18 3 6 3 12 -1 15 -5 2 -3 3 3 1 6 -1 17 2 25 7 10 6 7 9 -13 9 -21 0 -29 6 -34 26 -4 15 -10 22 -16 16 -13 -13 -18 -52 -7 -52 5 0 9 -5 9 -11 0 -5 -4 -8 -9 -4 -5 3 -12 1 -15 -4 -4 -5 4 -12 16 -14 13 -2 1 -5 -27 -6 -27 -2 -60 -4 -72 -5 -18 -2 -20 0 -11 11 8 10 13 11 18 3 5 -7 9 -4 13 9 3 12 10 21 16 21 6 0 8 -7 5 -15 -4 -10 0 -15 11 -15 9 0 13 5 10 10 -3 6 0 10 8 10 7 0 14 7 14 15 0 11 -7 13 -21 9 -20 -6 -20 -5 -3 8 10 7 19 22 19 34 2 19 16 22 64 16 16 -3 24 -40 10 -45 -6 -2 -3 -3 8 -1 11 2 20 -5 23 -17 3 -10 9 -16 14 -13 5 3 9 -1 9 -9 0 -20 27 -42 32 -27 2 7 13 2 28 -11 l25 -22 -27 5 c-20 4 -28 1 -28 -9 0 -8 5 -11 10 -8 5 3 10 1 10 -4 0 -6 -13 -11 -29 -11 -16 0 -35 -8 -42 -17 -11 -15 -11 -16 1 -5 18 15 60 16 60 0 0 -6 3 -8 7 -4 8 7 9 11 12 37 2 22 56 4 69 -23 7 -16 18 -28 25 -27 9 0 9 2 0 6 -10 3 -10 8 1 19 18 17 32 18 42 2 5 -7 3 -8 -5 -3 -19 11 -10 -47 9 -62 13 -11 13 -12 -3 -13 -10 0 -15 -4 -12 -10 3 -5 -1 -10 -9 -10 -9 0 -16 8 -17 18 0 14 -2 14 -8 -3 -6 -16 -4 -21 13 -26 11 -3 25 -3 30 2 5 4 14 5 21 3 7 -3 11 3 9 18 -1 13 -3 27 -3 31 -1 5 -5 5 -11 2 -5 -3 -10 -2 -10 3 0 18 22 72 30 72 8 0 24 -30 22 -42 -1 -4 4 -5 11 -2 7 2 14 14 14 27 2 17 0 18 -7 7 -5 -8 -12 -12 -15 -9 -3 4 0 11 7 17 9 7 19 6 33 -4 17 -12 17 -16 6 -24 -12 -7 -12 -11 -2 -24 7 -8 10 -20 6 -26 -3 -5 -2 -10 3 -10 5 0 14 12 20 26 7 14 8 23 2 19 -5 -3 -10 0 -10 8 0 21 12 28 27 16 17 -15 18 11 1 31 -11 12 -10 12 5 1 10 -8 17 -9 17 -3 0 5 9 8 20 5 26 -7 26 -23 0 -18 -13 2 -18 0 -14 -7 4 -5 20 -7 36 -4 23 5 27 3 16 -7 -39 -37 -47 -40 -65 -26 -15 12 -16 12 -10 -3 8 -23 -34 -53 -63 -45 -15 4 -20 0 -20 -14 0 -21 -20 -27 -21 -6 0 6 -5 1 -10 -12 -6 -15 -14 -21 -25 -17 -8 3 -13 2 -10 -3 10 -15 -148 -65 -222 -69 -13 -1 -20 -7 -17 -12 4 -6 -7 -10 -25 -10 -21 0 -29 4 -24 12 5 8 0 9 -14 6 -12 -4 -22 -2 -22 4 0 5 -4 7 -9 4 -5 -4 -34 -7 -65 -7 -34 -1 -56 -6 -56 -13 0 -6 -4 -5 -9 3 -5 8 -7 21 -4 30 3 9 -5 3 -17 -14 -17 -23 -20 -25 -15 -8 3 12 2 24 -3 27 -6 3 -12 -4 -15 -16 -4 -12 -2 -25 4 -28 10 -7 55 -5 102 4 15 2 30 0 33 -6 4 -6 3 -8 -2 -5 -6 3 -16 2 -24 -4 -12 -7 -10 -9 8 -9 13 0 30 7 39 15 8 8 20 12 26 8 6 -4 104 -8 217 -8 147 -1 233 -7 305 -19 82 -15 100 -16 104 -5 91 277 213 623 223 633 8 7 29 21 46 30 44 23 72 71 72 123 0 33 -7 50 -31 78 -17 19 -36 35 -43 34 -7 0 -7 -2 2 -6z m-1242 -164 c3 -6 1 -16 -6 -22 -10 -9 -11 -9 -6 1 4 6 2 12 -3 12 -6 0 -11 5 -11 10 0 13 17 13 26 -1z m94 -289 c0 -5 -10 -10 -22 -9 -22 0 -22 1 -3 9 11 5 21 9 23 9 1 1 2 -3 2 -9z m65 1 c-3 -5 -1 -12 5 -16 5 -3 10 -1 10 6 0 7 7 4 16 -7 11 -13 14 -14 11 -3 -3 9 1 16 9 16 7 0 10 -5 7 -10 -3 -5 0 -13 6 -17 7 -4 -9 -11 -39 -17 -37 -7 -48 -7 -41 0 6 6 11 17 11 25 0 11 -3 12 -14 3 -10 -9 -16 -8 -26 4 -9 10 -9 15 -1 15 6 0 11 -5 11 -11 0 -6 7 -3 16 5 17 18 28 21 19 7z m171 -26 c-3 -24 -11 -25 -24 -5 -10 17 -10 20 7 20 11 0 18 -6 17 -15z m458 -25 c-5 -5 -16 -5 -24 1 -13 9 -12 10 3 5 11 -4 17 0 18 12 0 12 2 13 6 4 3 -8 1 -18 -3 -22z m-103 -19 c-6 -10 -7 -22 -3 -26 4 -5 2 -5 -5 -1 -16 9 -12 46 4 46 10 0 11 -5 4 -19z m159 11 c0 -13 -12 -22 -22 -16 -10 6 -1 24 13 24 5 0 9 -4 9 -8z m-93 -9 c-4 -3 -2 -12 4 -19 7 -8 6 -14 -2 -20 -8 -4 -9 -3 -5 4 7 12 -1 15 -36 15 -10 0 -18 4 -18 9 0 6 6 8 13 5 8 -3 20 -1 28 4 17 10 25 12 16 2z m-157 -18 c4 3 11 -2 14 -11 4 -9 2 -13 -5 -8 -6 4 -16 0 -21 -7 -7 -11 -8 -9 -4 5 5 15 2 17 -14 13 -11 -3 -20 -1 -20 3 0 11 34 18 38 8 2 -5 7 -6 12 -3z m195 5 c3 -6 -1 -7 -9 -4 -18 7 -21 14 -7 14 6 0 13 -4 16 -10z m182 -5 c0 -8 -4 -12 -9 -9 -5 3 -6 10 -3 15 9 13 12 11 12 -6z m-817 -16 c0 -5 -6 -9 -13 -9 -8 0 -14 6 -14 14 0 8 6 12 14 9 7 -3 13 -9 13 -14z m690 6 c5 3 10 4 10 1 0 -3 -9 -10 -19 -15 -15 -9 -20 -7 -24 10 -4 16 -3 18 8 9 8 -7 19 -9 25 -5z m-190 -5 c0 -5 -2 -10 -4 -10 -3 0 -8 5 -11 10 -3 6 -1 10 4 10 6 0 11 -4 11 -10z m130 -41 c0 -3 -6 -6 -14 -6 -7 0 -12 7 -11 16 2 9 4 18 4 21 2 6 21 -23 21 -31z m-164 2 c-4 -6 -14 -7 -23 -4 -15 6 -14 7 3 13 22 9 29 6 20 -9z m59 -1 c-3 -5 -16 -10 -28 -9 -20 1 -20 2 3 9 14 4 26 8 28 9 2 1 0 -3 -3 -9z m182 4 c-3 -3 -12 -4 -19 -1 -8 3 -5 6 6 6 11 1 17 -2 13 -5z m93 -13 c0 -6 -4 -13 -10 -16 -5 -3 -10 1 -10 9 0 9 5 16 10 16 6 0 10 -4 10 -9z M284 1398 l-19 -23 23 19 c21 18 27 26 19 26 -2 0 -12 -10 -23 -22z M465 1400 c10 -11 20 -20 23 -20 3 0 -3 9 -13 20 -10 11 -20 20 -23 20 -3 0 3 -9 13 -20z M1525 1384 c-25 -39 -30 -87 -11 -125 21 -42 20 -46 -7 -72 -13 -12 -61 -62 -108 -112 -82 -88 -81 -87 29 20 120 116 119 114 91 182 -12 29 -11 38 8 83 24 56 23 62 -2 24z M327 1389 c-9 -6 -14 -15 -11 -21 4 -6 2 -8 -4 -4 -6 3 -13 2 -17 -4 -7 -12 25 -13 43 -1 8 5 12 15 10 24 -2 12 -7 13 -21 6z M420 1385 c-7 -8 -9 -15 -4 -15 5 0 2 -5 -6 -10 -13 -8 -13 -10 2 -10 9 0 23 7 31 15 8 8 18 11 22 7 5 -4 5 -1 1 6 -6 11 -11 11 -24 0 -13 -11 -15 -10 -9 5 8 21 3 22 -13 2z M887 1394 c-3 -4 -2 -14 3 -24 5 -10 6 -20 3 -24 -3 -3 -1 -6 6 -6 7 0 9 9 5 28 -8 33 -9 34 -17 26z M1171 1390 c-9 -5 -5 -9 10 -13 28 -7 31 -6 14 10 -6 6 -18 8 -24 3z M375 1380 c-3 -5 -1 -10 4 -10 6 0 11 5 11 10 0 6 -2 10 -4 10 -3 0 -8 -4 -11 -10z M1591 1384 c-1 -6 5 -17 12 -23 10 -8 14 -7 14 4 0 8 -4 12 -8 9 -4 -2 -10 2 -12 8 -4 8 -6 9 -6 2z M797 1369 c7 -7 15 -10 18 -7 3 3 -2 9 -12 12 -14 6 -15 5 -6 -5z M251 1334 c0 -11 3 -14 6 -6 3 7 2 16 -1 19 -3 4 -6 -2 -5 -13z M1136 1324 c-9 -24 -7 -54 4 -54 5 0 7 7 3 15 -3 9 2 22 12 29 16 11 16 14 2 19 -9 3 -18 -1 -21 -9z M398 1325 c-14 -14 -76 -20 -99 -11 -21 9 -20 -36 1 -46 12 -5 12 -7 -2 -7 -12 -1 -15 -6 -11 -18 5 -12 3 -14 -8 -8 -8 5 -5 -1 5 -14 12 -13 23 -18 29 -12 5 5 16 7 23 4 10 -4 12 0 7 13 -6 18 -6 19 15 1 20 -19 42 -16 42 5 0 6 -9 8 -20 5 -11 -3 -23 -1 -26 4 -3 6 -15 7 -27 4 -20 -5 -20 -5 -4 5 10 6 32 9 50 5 24 -5 28 -4 17 4 -10 7 -11 11 -3 11 7 0 10 7 7 15 -4 8 -1 22 6 30 12 14 10 22 -2 10z m-44 -38 c3 3 6 1 6 -5 0 -16 -43 -9 -48 7 -3 10 0 10 16 2 10 -6 22 -7 26 -4z M911 1319 c-1 -11 -9 -14 -31 -11 -17 2 -49 1 -73 -2 -40 -6 -43 -8 -42 -40 0 -22 4 -32 12 -29 7 3 11 8 9 12 -2 3 7 11 20 18 13 6 24 7 24 2 0 -5 8 -10 18 -10 9 -1 1 -5 -18 -9 l-35 -8 35 1 c22 1 34 7 33 15 -4 17 14 15 21 -3 3 -8 13 -15 21 -15 10 0 13 -5 9 -12 -5 -8 -2 -9 9 -5 10 4 17 1 17 -5 0 -6 2 -9 5 -7 10 11 -8 49 -24 49 -13 0 -13 2 -2 9 10 7 11 15 3 37 -6 16 -11 22 -11 13z m-11 -48 c0 -13 -2 -13 -9 -2 -5 8 -16 11 -25 8 -15 -6 -22 4 -10 15 11 11 44 -5 44 -21z M1723 1305 c0 -8 4 -15 9 -15 4 0 8 4 8 9 0 6 -4 12 -8 15 -5 3 -9 -1 -9 -9z M742 1290 c0 -14 2 -19 5 -12 2 6 2 18 0 25 -3 6 -5 1 -5 -13z M251 1284 c0 -11 3 -14 6 -6 3 7 2 16 -1 19 -3 4 -6 -2 -5 -13z M1184 1279 c-5 -8 -3 -9 6 -4 10 6 12 4 7 -8 -3 -9 -1 -19 5 -23 6 -4 8 -3 4 4 -3 5 -1 12 5 14 7 2 6 8 -4 16 -12 10 -17 10 -23 1z M1125 1251 c-6 -11 13 -26 22 -17 4 3 0 6 -8 6 -11 0 -11 2 1 10 9 6 10 10 3 10 -6 0 -14 -4 -18 -9z M818 1218 c8 -8 20 -8 44 -1 l33 11 -44 1 c-34 1 -42 -2 -33 -11z M947 1181 c-4 -17 -3 -21 5 -13 5 5 8 16 6 23 -3 8 -7 3 -11 -10z M364 1169 c14 -11 26 -28 27 -37 0 -14 2 -13 9 3 7 18 8 17 15 -10 13 -49 30 -62 86 -62 27 0 52 4 56 10 4 6 0 8 -10 4 -9 -3 -18 0 -21 9 -3 8 -11 14 -17 14 -7 0 -17 6 -23 14 -16 20 -61 33 -51 15 6 -11 5 -12 -6 -1 -10 9 -10 15 -1 24 7 7 12 17 12 23 0 5 -5 3 -10 -5 -13 -20 -32 -19 -48 2 -7 10 -20 18 -29 18 -11 0 -8 -6 11 -21z m116 -74 c7 -8 17 -12 24 -8 6 3 5 0 -2 -8 -9 -10 -15 -11 -20 -3 -4 6 -15 10 -24 8 -10 -1 -18 4 -18 12 0 18 24 18 40 -1z M1168 1178 c-16 -5 -28 -17 -28 -25 0 -12 -4 -10 -17 5 -17 20 -19 20 -33 5 -13 -15 -12 -16 2 -11 10 4 19 1 22 -8 6 -15 13 -15 114 2 34 6 35 8 12 14 -14 3 -27 4 -30 1 -8 -10 -50 -9 -50 0 0 5 9 9 20 9 11 0 20 5 20 10 0 6 -1 10 -2 9 -2 0 -15 -5 -30 -11z M830 1169 c0 -5 9 -9 20 -9 11 0 20 2 20 4 0 2 -9 6 -20 9 -11 3 -20 1 -20 -4z M901 1171 c-7 -5 -12 -14 -10 -20 2 -6 10 -2 17 9 14 22 13 23 -7 11z M765 1160 c4 -6 11 -8 16 -5 14 9 11 15 -7 15 -8 0 -12 -5 -9 -10z M960 1150 c0 -5 -12 -10 -27 -10 l-28 0 33 -17 c18 -8 36 -12 40 -8 4 4 2 10 -5 12 -7 2 -9 11 -6 19 3 8 2 14 -1 14 -3 0 -6 -4 -6 -10z M777 1143 c-9 -2 -15 -9 -12 -14 10 -15 32 -10 32 6 0 8 -1 14 -1 14 -1 -1 -9 -3 -19 -6z M810 1139 c0 -5 5 -7 10 -4 6 3 10 8 10 11 0 2 -4 4 -10 4 -5 0 -10 -5 -10 -11z M860 1136 c0 -9 -11 -16 -27 -18 -30 -3 -39 -28 -13 -35 12 -4 12 -3 2 5 -10 7 -2 11 26 16 42 6 72 0 84 -18 5 -8 8 -7 8 1 0 7 7 10 18 7 14 -5 14 -4 2 4 -8 6 -17 9 -21 6 -4 -2 -10 0 -14 6 -4 6 -11 8 -16 5 -5 -4 -9 -2 -9 4 0 6 -7 7 -17 4 -10 -4 -14 -2 -9 5 3 6 2 13 -4 17 -5 3 -10 -1 -10 -9z M1090 1133 c0 -5 5 -15 10 -23 8 -12 10 -11 10 8 0 12 -4 22 -10 22 -5 0 -10 -3 -10 -7z M768 1103 c7 -3 16 -2 19 1 4 3 -2 6 -13 5 -11 0 -14 -3 -6 -6z M1119 1094 c-10 -13 -10 -17 1 -24 8 -5 17 -6 20 -3 3 3 -1 8 -8 10 -10 4 -10 8 -1 19 6 8 9 14 6 14 -2 0 -10 -7 -18 -16z M972 1076 c-8 -17 -7 -23 3 -23 15 0 28 34 16 42 -5 2 -13 -6 -19 -19z M1025 1090 c-3 -5 -1 -10 4 -10 6 0 11 5 11 10 0 6 -2 10 -4 10 -3 0 -8 -4 -11 -10z M778 1062 c-10 -2 -18 -11 -17 -20 0 -11 2 -12 6 -4 3 7 22 12 46 12 22 0 37 3 33 8 -8 8 -40 10 -68 4z M448 1043 c7 -3 16 -2 19 1 4 3 -2 6 -13 5 -11 0 -14 -3 -6 -6z M1035 1040 c3 -5 8 -10 11 -10 2 0 4 5 4 10 0 6 -5 10 -11 10 -5 0 -7 -4 -4 -10z M780 1030 c0 -4 9 -10 20 -13 11 -3 20 -2 20 3 0 4 -9 10 -20 13 -11 3 -20 2 -20 -3z M970 1029 c0 -5 5 -7 10 -4 6 3 10 8 10 11 0 2 -4 4 -10 4 -5 0 -10 -5 -10 -11z M920 1002 c0 -4 12 -8 28 -9 23 -1 24 -1 7 7 -26 11 -35 12 -35 2z M1444 943 c3 -7 1 -13 -4 -13 -6 0 -10 -4 -10 -10 0 -17 14 -11 31 13 16 21 16 23 -2 23 -12 0 -18 -5 -15 -13z M871 852 c6 -10 21 -19 33 -19 20 -2 20 -1 -3 11 -18 10 -20 15 -10 19 8 3 5 6 -9 6 -19 1 -21 -2 -11 -17z M847 813 c-9 -2 -15 -9 -12 -14 4 -5 -1 -9 -10 -9 -9 0 -13 5 -9 11 4 8 0 7 -15 0 -19 -11 -20 -13 -6 -27 13 -14 18 -14 32 -2 10 7 14 8 10 1 -5 -7 -1 -10 10 -8 10 2 21 4 26 4 4 1 7 12 7 26 0 25 -1 26 -33 18z M900 812 c0 -4 9 -8 20 -9 11 -1 20 2 20 8 0 5 -9 9 -20 9 -11 0 -20 -4 -20 -8z M1000 796 c0 -2 7 -6 15 -10 8 -3 15 -1 15 4 0 6 -7 10 -15 10 -8 0 -15 -2 -15 -4z M1290 759 c0 -5 5 -7 10 -4 6 3 10 8 10 11 0 2 -4 4 -10 4 -5 0 -10 -5 -10 -11z M1060 730 c0 -5 5 -10 10 -10 6 0 10 5 10 10 0 6 -4 10 -10 10 -5 0 -10 -4 -10 -10z M1173 725 c0 -12 3 -12 16 -3 9 7 18 14 20 15 2 2 -5 3 -16 3 -11 0 -20 -7 -20 -15z M574 718 c-5 -7 -3 -8 6 -3 10 6 12 4 7 -8 -3 -10 -2 -17 3 -17 6 0 10 9 10 20 0 22 -15 27 -26 8z M680 721 c0 -7 -5 -9 -12 -5 -7 5 -8 3 -3 -5 5 -9 10 -10 18 -2 6 6 8 14 4 18 -4 3 -7 1 -7 -6z M750 709 c0 -5 -5 -7 -11 -3 -7 4 -6 -3 2 -17 7 -13 12 -28 10 -34 -1 -5 3 -4 10 3 10 9 10 15 2 23 -6 6 -9 18 -6 25 3 8 2 14 -1 14 -3 0 -6 -5 -6 -11z M775 710 c-3 -5 1 -10 10 -10 9 0 13 5 10 10 -3 6 -8 10 -10 10 -2 0 -7 -4 -10 -10z M638 683 c7 -3 16 -2 19 1 4 3 -2 6 -13 5 -11 0 -14 -3 -6 -6z M670 686 c0 -2 7 -6 15 -10 8 -3 15 -1 15 4 0 6 -7 10 -15 10 -8 0 -15 -2 -15 -4z M924 669 c1 -7 9 -13 18 -15 11 -1 15 3 11 13 -4 11 -8 12 -13 3 -6 -9 -9 -9 -13 -1 -4 8 -5 8 -3 0z M598 663 c7 -3 16 -2 19 1 4 3 -2 6 -13 5 -11 0 -14 -3 -6 -6z M620 530 c-13 -8 -12 -10 3 -10 9 0 17 5 17 10 0 12 -1 12 -20 0z M658 533 c6 -2 18 -2 25 0 6 3 1 5 -13 5 -14 0 -19 -2 -12 -5z M923 513 c42 -2 112 -2 155 0 42 1 7 3 -78 3 -85 0 -120 -2 -77 -3z M753 503 c9 -2 23 -2 30 0 6 3 -1 5 -18 5 -16 0 -22 -2 -12 -5z M1223 503 c9 -2 23 -2 30 0 6 3 -1 5 -18 5 -16 0 -22 -2 -12 -5z M678 493 c6 -2 18 -2 25 0 6 3 1 5 -13 5 -14 0 -19 -2 -12 -5z M1298 493 c6 -2 18 -2 25 0 6 3 1 5 -13 5 -14 0 -19 -2 -12 -5z M721 454 c-6 -15 -9 -29 -6 -32 3 -3 5 0 5 6 0 7 3 11 8 11 4 -1 14 -1 22 0 13 1 13 2 0 11 -13 9 -13 11 0 20 13 8 13 10 -1 10 -9 0 -21 -12 -28 -26z M780 470 c0 -5 7 -7 15 -4 8 4 15 8 15 10 0 2 -7 4 -15 4 -8 0 -15 -4 -15 -10z M1320 458 c0 -6 -11 -8 -25 -6 -14 3 -25 2 -25 -3 0 -15 -42 -22 -51 -8 -7 11 -9 11 -9 -2 0 -9 -7 -16 -15 -16 -11 0 -12 4 -4 14 19 22 1 15 -21 -9 -11 -12 -20 -18 -20 -14 0 5 -8 2 -17 -5 -13 -11 -15 -11 -9 -1 6 10 -4 13 -44 11 -28 -2 -54 -7 -57 -12 -3 -6 -2 -7 4 -4 5 3 10 0 10 -8 0 -10 -5 -11 -19 -4 -13 7 -20 6 -23 -4 -3 -7 -18 -12 -35 -11 -17 1 -30 -2 -30 -8 0 -5 -4 -6 -10 -3 -5 3 -10 1 -10 -5 0 -8 14 -10 43 -6 37 5 40 4 24 -8 -16 -13 -14 -14 25 -12 24 2 53 -1 65 -5 14 -5 25 -4 29 2 3 6 15 9 25 6 10 -3 17 -2 16 2 -3 8 7 11 34 11 11 0 17 -4 14 -10 -3 -6 1 -7 9 -4 9 3 16 12 16 20 0 8 7 14 15 14 8 0 15 -4 15 -10 0 -5 -5 -10 -12 -10 -6 0 -8 -3 -5 -7 9 -9 48 27 41 38 -3 5 -10 7 -15 4 -5 -4 -6 2 -2 11 4 10 8 13 10 7 3 -7 12 -9 21 -5 16 6 16 4 1 -19 -17 -25 -17 -25 17 -25 38 0 38 -1 23 29 -10 21 -10 21 5 3 9 -11 16 -26 16 -33 0 -7 5 -13 10 -13 6 0 9 5 8 12 -3 12 3 14 43 17 18 1 19 3 9 16 -8 9 -8 15 -2 15 6 0 12 -6 14 -12 4 -10 10 -10 29 -1 13 6 18 12 10 12 -11 1 -10 5 4 15 11 8 24 12 28 9 5 -3 3 -9 -4 -14 -11 -7 -9 -9 6 -9 12 0 26 -4 33 -10 7 -5 -3 6 -22 26 -27 29 -43 37 -78 40 -23 2 -58 6 -75 8 -19 2 -33 -1 -33 -6z m150 -18 c13 -8 13 -10 -2 -10 -9 0 -20 5 -23 10 -8 13 5 13 25 0z m-379 -39 c-8 -5 -20 -7 -28 -4 -21 8 -15 13 15 13 20 0 23 -3 13 -9z m134 -11 c-3 -5 -13 -10 -21 -10 -8 0 -12 -4 -9 -10 3 -5 4 -10 1 -10 -17 0 -13 22 6 29 30 13 30 13 23 1z m150 0 c3 -6 -4 -10 -17 -10 -18 0 -20 2 -8 10 19 12 18 12 25 0z m-210 -10 c3 -6 -4 -10 -17 -10 -18 0 -20 2 -8 10 19 12 18 12 25 0z m-55 -10 c0 -5 -5 -10 -11 -10 -5 0 -7 5 -4 10 3 6 8 10 11 10 2 0 4 -4 4 -10z m-57 -17 c-7 -2 -21 -2 -30 0 -10 3 -4 5 12 5 17 0 24 -2 18 -5z M524 444 c-18 -14 -18 -14 6 -3 31 14 36 19 24 19 -6 0 -19 -7 -30 -16z M661 444 c0 -11 3 -14 6 -6 3 7 2 16 -1 19 -3 4 -6 -2 -5 -13z M748 409 c-10 -5 -18 -7 -18 -3 0 3 -7 1 -15 -6 -8 -7 -15 -9 -15 -5 0 4 -7 2 -15 -5 -13 -11 -15 -10 -9 6 5 16 4 17 -5 3 -8 -12 -23 -16 -56 -14 -25 2 -43 0 -41 -4 3 -4 -14 -8 -36 -9 -59 -3 -83 -31 -29 -35 11 -1 21 -5 21 -10 0 -4 -13 -6 -29 -4 -23 4 -29 1 -28 -12 1 -14 8 -16 49 -11 38 5 48 4 44 -7 -4 -9 4 -13 28 -13 20 0 36 6 39 14 6 15 84 13 99 -2 4 -4 -8 -6 -27 -4 -21 3 -35 0 -35 -7 0 -6 -3 -10 -7 -9 -5 2 -9 0 -10 -4 -6 -17 -2 -28 9 -28 6 0 9 3 5 6 -10 10 16 30 41 31 16 1 22 -3 20 -14 -2 -9 3 -18 10 -20 7 -3 10 1 6 11 -4 11 0 16 12 17 11 0 14 3 7 6 -7 2 -13 13 -13 24 0 13 5 17 17 12 13 -5 15 -2 10 11 -5 13 -3 17 7 13 7 -3 19 0 25 6 6 6 11 8 11 5 0 -4 -8 -15 -17 -24 -16 -15 -16 -17 -2 -12 9 4 21 2 26 -3 6 -6 15 -3 24 8 13 16 12 17 -3 5 -9 -8 -19 -9 -22 -4 -8 13 20 35 34 27 5 -3 10 -2 10 4 0 6 6 8 14 5 11 -4 13 0 9 16 -4 16 -8 18 -14 8 -5 -7 -18 -14 -29 -14 -16 -1 -19 3 -15 20 2 11 2 15 -1 8 -3 -6 -10 -10 -14 -7 -5 3 -12 0 -16 -6 -5 -8 -3 -9 6 -4 9 5 11 4 6 -3 -11 -19 -26 -14 -26 8 0 11 -7 20 -16 20 -8 0 -12 5 -9 10 8 12 5 12 -17 -1z m-163 -79 c-3 -5 -12 -10 -18 -10 -7 0 -6 4 3 10 19 12 23 12 15 0z M1436 364 c-23 -23 -20 -30 4 -9 11 10 20 20 20 22 0 7 -9 2 -24 -13z M1290 340 c0 -5 5 -10 10 -10 6 0 10 5 10 10 0 6 -4 10 -10 10 -5 0 -10 -4 -10 -10z M1542 341 c-11 -7 -11 -9 2 -14 10 -4 16 -1 16 8 0 17 -1 17 -18 6z M928 333 c7 -3 16 -2 19 1 4 3 -2 6 -13 5 -11 0 -14 -3 -6 -6z M1339 313 c-13 -16 -12 -17 4 -4 9 7 17 15 17 17 0 8 -8 3 -21 -13z M1387 314 c3 -8 10 -11 16 -7 6 3 7 1 3 -5 -5 -9 -13 -9 -26 -2 -15 8 -21 6 -30 -10 -6 -11 -8 -25 -5 -30 3 -6 1 -10 -4 -10 -6 0 -11 5 -11 11 0 5 -5 7 -10 4 -6 -4 -8 -11 -4 -16 6 -11 62 -5 72 7 4 4 -1 4 -12 0 -14 -5 -17 -3 -12 10 3 8 6 18 6 20 0 2 5 4 11 4 5 0 7 -4 4 -10 -3 -6 1 -7 9 -4 11 4 16 0 16 -11 0 -9 4 -14 9 -11 5 3 9 21 9 38 0 27 -4 33 -23 34 -16 1 -22 -3 -18 -12z M434 263 l1 -58 565 0 565 0 3 53 c2 28 -1 52 -6 52 -5 0 -7 -24 -5 -52 2 -30 1 -48 -4 -41 -6 8 -14 9 -23 3 -8 -6 -72 -10 -142 -10 -115 0 -128 2 -129 18 0 15 -1 15 -8 -2 -5 -14 -10 -16 -15 -8 -4 7 -12 12 -17 12 -6 0 -7 -4 -4 -10 4 -6 -8 -10 -30 -10 -20 0 -34 4 -31 8 3 5 -1 9 -9 9 -8 0 -11 -5 -8 -10 4 -6 -1 -8 -11 -4 -10 4 -20 7 -22 7 -3 0 -2 6 2 13 4 6 -2 4 -12 -5 -19 -16 -50 -18 -337 -18 l-316 0 -4 55 -4 55 1 -57z M1188 313 c7 -3 16 -2 19 1 4 3 -2 6 -13 5 -11 0 -14 -3 -6 -6z M1444 312 c3 -5 0 -13 -6 -15 -9 -4 -10 -6 -1 -6 17 -1 25 16 12 25 -7 4 -9 3 -5 -4z M1515 310 c-3 -5 -1 -10 4 -10 6 0 11 5 11 10 0 6 -2 10 -4 10 -3 0 -8 -4 -11 -10z M1070 300 c0 -6 7 -10 15 -10 8 0 15 2 15 4 0 2 -7 6 -15 10 -8 3 -15 1 -15 -4z M1116 301 c-4 -5 3 -7 14 -4 23 6 26 13 6 13 -8 0 -17 -4 -20 -9z M768 293 c7 -3 16 -2 19 1 4 3 -2 6 -13 5 -11 0 -14 -3 -6 -6z M528 283 c7 -3 16 -2 19 1 4 3 -2 6 -13 5 -11 0 -14 -3 -6 -6z M580 250 c-12 -8 -10 -10 8 -10 13 0 20 4 17 10 -7 12 -6 12 -25 0z M1275 250 c-3 -6 1 -7 9 -4 18 7 21 14 7 14 -6 0 -13 -4 -16 -10z"/>
    </g>
    <g transform="translate(0.000000,200.000000) scale(0.100000,-0.100000)" fill="#171412" stroke="none">
      <path d="M679 1777 c-55 -37 -79 -81 -79 -146 0 -64 21 -106 69 -142 31 -23 31 -24 31 -114 0 -51 -3 -140 -7 -199 l-6 -107 -78 77 c-63 63 -76 81 -68 95 5 10 9 42 9 72 0 99 -70 167 -170 167 -66 0 -110 -24 -147 -79 -27 -40 -31 -126 -8 -170 17 -34 68 -79 98 -87 19 -4 38 -51 129 -319 l106 -315 -46 -25 c-90 -50 -125 -122 -120 -248 l3 -72 605 0 605 0 3 72 c2 40 -2 90 -7 111 -14 51 -57 105 -104 132 -21 12 -37 27 -34 34 2 6 51 149 108 318 l104 307 36 14 c20 8 49 31 65 52 25 34 29 47 29 105 0 57 -4 72 -27 102 -39 51 -88 71 -159 66 -62 -5 -97 -23 -132 -70 -23 -31 -34 -115 -19 -156 10 -28 7 -33 -62 -101 l-73 -72 -6 98 c-4 54 -7 140 -7 192 l0 94 39 34 c47 40 65 88 59 155 -9 87 -65 139 -157 146 -51 4 -67 1 -105 -22 -78 -45 -107 -141 -66 -220 l19 -38 -46 -169 c-25 -93 -49 -169 -52 -169 -4 0 -29 76 -57 168 -49 167 -50 168 -32 198 27 43 24 132 -5 175 -37 55 -81 79 -147 79 -43 0 -65 -6 -91 -23z m152 -32 c66 -35 88 -123 46 -186 l-23 -34 54 -175 c84 -276 76 -255 102 -255 22 0 28 14 81 190 31 105 61 201 66 214 8 20 5 32 -14 59 -76 113 57 254 173 183 32 -20 64 -74 64 -111 0 -34 -30 -90 -59 -108 -14 -9 -30 -21 -36 -27 -6 -6 -9 -97 -7 -246 5 -305 0 -300 146 -148 58 61 106 115 106 119 0 4 -7 21 -15 36 -30 57 -7 129 52 165 81 50 193 -9 193 -103 0 -53 -28 -101 -72 -124 -17 -9 -38 -23 -46 -30 -10 -10 -132 -356 -223 -633 -4 -11 -22 -10 -104 5 -138 24 -480 25 -614 1 -52 -10 -97 -14 -101 -10 -4 4 -53 145 -109 313 -57 168 -108 311 -114 318 -6 8 -28 22 -49 33 -73 37 -99 120 -58 186 52 86 179 81 225 -8 16 -31 16 -55 0 -134 -6 -28 2 -38 103 -138 98 -98 110 -107 122 -92 11 13 15 69 18 236 3 120 2 229 -2 242 -3 13 -17 29 -31 35 -33 15 -65 69 -65 110 0 98 104 161 191 117z m468 -1245 c193 -33 279 -114 269 -253 l-3 -42 -565 0 -565 0 -3 49 c-2 29 3 67 12 91 39 101 134 144 371 169 71 7 418 -3 484 -14z"/>
    </g>
  </g>
</svg>
