<svg xmlns="http://www.w3.org/2000/svg" viewBox="0 0 1024 1024" role="img" aria-label="ChessRTK route-knight logo">
  <defs>
    <linearGradient id="bg" x1="0" y1="0" x2="0" y2="1">
      <stop offset="0" stop-color="#08799f"/>
      <stop offset="1" stop-color="#151d23"/>
    </linearGradient>
    <filter id="softShadow" x="-20%" y="-20%" width="140%" height="140%">
      <feDropShadow dx="18" dy="22" stdDeviation="10" flood-color="#000" flood-opacity="0.42"/>
    </filter>
  </defs>
  <rect x="34" y="34" width="956" height="956" rx="190" fill="url(#bg)"/>
  <rect x="36" y="36" width="952" height="952" rx="190" fill="none" stroke="#fff" stroke-opacity="0.09" stroke-width="3"/>
  <rect x="92" y="92" width="840" height="840" rx="142" fill="#000" opacity="0.07"/>
  <rect x="206" y="210" width="612" height="612" rx="52" fill="#071117" opacity="0.37"/>
  <clipPath id="boardClip"><rect x="220" y="224" width="584" height="584" rx="40"/></clipPath>
  <g clip-path="url(#boardClip)">
    <rect x="220" y="224" width="292" height="292" fill="#f7d492"/>
    <rect x="512" y="224" width="292" height="292" fill="#20778b"/>
    <rect x="220" y="516" width="292" height="292" fill="#114a57"/>
    <rect x="512" y="516" width="292" height="292" fill="#8e4e3f"/>
    <path d="M512 224 V808 M220 516 H804" stroke="#15262b" stroke-opacity="0.3" stroke-width="5"/>
  </g>
  <polygon points="504,348 636,254 737,346 668,421 582,396" fill="#f5a94d" stroke="#d7793e" stroke-width="5"/>
  <g filter="url(#softShadow)" fill="none" stroke-linecap="round" stroke-linejoin="round">
    <path d="M274 680 H410 V478 L592 330 H684" stroke="#0d2330" stroke-width="100"/>
    <path d="M274 680 H410 V478 L592 330 H684" stroke="#f8f7ef" stroke-width="70"/>
    <path d="M292 680 H410 V492 L592 346 H662" stroke="#d7f7f9" stroke-opacity="0.58" stroke-width="18"/>
  </g>
  <g>
    <circle cx="274" cy="680" r="79" fill="#041016" opacity="0.59"/>
    <circle cx="274" cy="680" r="67" fill="#f8f7ef"/>
    <circle cx="274" cy="680" r="38" fill="#12495b"/>
    <circle cx="410" cy="478" r="60" fill="#041016" opacity="0.59"/>
    <circle cx="410" cy="478" r="48" fill="#f8f7ef"/>
    <circle cx="410" cy="478" r="27" fill="#f5a94d"/>
    <circle cx="684" cy="330" r="84" fill="#041016" opacity="0.59"/>
    <circle cx="684" cy="330" r="72" fill="#f8f7ef"/>
    <circle cx="684" cy="330" r="40" fill="#145a75"/>
  </g>
  <path d="M226 736 A356 356 0 0 1 784 296" fill="none" stroke="#fff" stroke-opacity="0.07" stroke-width="5" stroke-linecap="round"/>
</svg>
